<svg width="102" height="110" viewBox="0 0 102 110" fill="none" xmlns="http://www.w3.org/2000/svg">
<g filter="url(#filter0_d_397_5725)">
<path d="M42.0025 9.65912C45.8825 8.20172 50.2079 8.53113 53.8224 10.5593L83.1488 27.0145C86.5685 28.9333 89.0311 32.1935 89.9419 36.0075L95.2063 58.0539C96.6248 63.9939 94.045 70.1702 88.823 73.3367L55.1346 93.764C50.8013 96.3915 45.389 96.4829 40.9694 94.0031L14.9078 79.3797C10.4749 76.8923 7.73035 72.2053 7.73035 67.1223L7.73035 35.4857C7.73035 31.9729 9.04582 28.5873 11.4176 25.996L15.9074 21.0908C17.4019 19.458 19.2609 18.2013 21.333 17.4229L42.0025 9.65912Z" fill="#FBAE40"/>
<path d="M47.509 3.85914C51.7809 1.46216 56.9925 1.46216 61.2644 3.85914L87.6007 18.6366C92.0336 21.124 94.7781 25.811 94.7781 30.894L94.7781 59.7617C94.7781 64.8447 92.0336 69.5317 87.6007 72.0191L61.2644 86.7965C56.9925 89.1935 51.7809 89.1935 47.509 86.7965L21.1727 72.0191C16.7398 69.5317 13.9953 64.8447 13.9953 59.7617L13.9953 30.894C13.9953 25.8109 16.7398 21.124 21.1727 18.6366L47.509 3.85914Z" fill="white" stroke="#FBAE40" stroke-width="2.81103"/>
</g>
<path d="M53.4556 26.1006H53.4683C54.4453 26.1494 62.0226 26.6328 66.7974 33.2529C70.8659 38.8931 70.0069 44.9856 69.811 46.1963C69.556 48.2766 69.0304 50.3148 68.2466 52.2588L68.2456 52.2607C67.0562 55.1942 65.3041 57.8651 63.0903 60.126C62.1496 62.2007 61.9603 64.5401 62.5601 66.7412L62.9038 68.0039H44.5376L45.4536 66.4863C45.4608 66.4735 45.5997 66.2297 45.6772 65.8906C45.7572 65.5413 45.7535 65.1816 45.5835 64.8604L45.4722 64.6885C45.36 64.5411 45.2184 64.4188 45.0581 64.3242C44.6274 64.1751 44.1846 64.0623 43.7349 63.9873V63.9863C42.5405 63.7932 41.3186 63.858 40.1509 64.1748L40.1362 64.1787L40.1216 64.1816C39.835 64.2501 39.4209 64.3271 38.9858 64.3096C38.612 64.2945 38.1226 64.2049 37.6978 63.8838L37.52 63.7314C37.1445 63.3671 37.0109 62.93 36.9634 62.5342C36.9212 62.1831 36.9377 61.7614 36.9487 61.3594C36.9631 60.7826 36.9845 59.8692 37.0044 58.6729C36.9463 58.4122 36.8185 58.172 36.6323 57.9795C36.4453 57.8053 36.2707 57.7511 35.4146 57.5615V57.5605C35.407 57.5593 35.3734 57.5553 35.3013 57.5508C35.2221 57.5459 35.1262 57.5433 35.0044 57.541C34.7753 57.5367 34.4573 57.5346 34.145 57.5088C33.8355 57.4832 33.4605 57.4298 33.106 57.2949C32.7459 57.1579 32.3281 56.9048 32.0669 56.4346C31.9147 56.1604 31.8866 55.8789 31.8862 55.6826C31.8858 55.4752 31.9168 55.2676 31.9575 55.0781C32.039 54.6992 32.187 54.2698 32.3608 53.833C32.7108 52.9536 33.2272 51.8937 33.7437 50.8662C34.2697 49.8195 34.7931 48.8107 35.1938 47.9717C35.3933 47.554 35.5515 47.2009 35.6577 46.9258C35.7824 46.6026 35.7798 46.5227 35.7798 46.582C35.7795 45.6115 34.3034 38.5505 39.4292 32.3564L39.6812 32.0586C45.0154 25.8988 52.5682 26.0676 53.4556 26.1006Z" fill="#FBAE40" stroke="#FBAE40" stroke-width="2"/>
<path d="M66.2378 39.2118H63.3267C63.2282 39.4275 63.0589 39.603 62.8468 39.7091C62.6348 39.8153 62.3928 39.8456 62.1611 39.7952C61.9294 39.7448 61.7219 39.6166 61.5731 39.432C61.4243 39.2474 61.3432 39.0174 61.3432 38.7802C61.3432 38.5431 61.4243 38.3131 61.5731 38.1285C61.7219 37.9438 61.9294 37.8157 62.1611 37.7653C62.3928 37.7148 62.6348 37.7452 62.8468 37.8514C63.0589 37.9575 63.2282 38.133 63.3267 38.3487H65.9143C64.539 34.9418 61.8856 32.2081 58.5212 30.7319V35.0477C58.7369 35.1462 58.9124 35.3155 59.0185 35.5276C59.1247 35.7396 59.155 35.9816 59.1046 36.2133C59.0542 36.445 58.926 36.6525 58.7414 36.8013C58.5568 36.9501 58.3268 37.0312 58.0896 37.0312C57.8525 37.0312 57.6225 36.9501 57.4379 36.8013C57.2532 36.6525 57.1251 36.445 57.0747 36.2133C57.0242 35.9816 57.0546 35.7396 57.1608 35.5276C57.2669 35.3155 57.4424 35.1462 57.6581 35.0477V30.3992C55.2023 29.505 52.5446 29.3196 49.9884 29.8641C47.4323 30.4086 45.0808 31.6611 43.2027 33.4785V36.0309L49.8251 35.8849C49.8708 35.8889 49.9168 35.8829 49.9599 35.8673C50.003 35.8516 50.0421 35.8267 50.0746 35.7944V34.4303C49.8582 34.332 49.682 34.1625 49.5753 33.95C49.4687 33.7376 49.4379 33.495 49.4883 33.2627C49.5386 33.0304 49.6669 32.8223 49.852 32.6731C50.037 32.5238 50.2675 32.4425 50.5052 32.4425C50.743 32.4425 50.9735 32.5238 51.1585 32.6731C51.3435 32.8223 51.4719 33.0304 51.5222 33.2627C51.5726 33.495 51.5418 33.7376 51.4352 33.95C51.3285 34.1625 51.1523 34.332 50.9359 34.4303V35.8073C50.9359 36.3248 50.4553 36.7314 49.8417 36.7444L43.2046 36.8904V41.5259C43.4204 41.6242 43.5961 41.7935 43.7024 42.0055C43.8088 42.2176 43.8393 42.4596 43.789 42.6914C43.7387 42.9233 43.6105 43.1309 43.4259 43.2798C43.2412 43.4286 43.0111 43.5098 42.7739 43.5098C42.5367 43.5098 42.3066 43.4286 42.122 43.2798C41.9373 43.1309 41.8091 42.9233 41.7588 42.6914C41.7085 42.4596 41.739 42.2176 41.8454 42.0055C41.9517 41.7935 42.1274 41.6242 42.3433 41.5259V34.3878C40.5504 36.4353 39.3957 38.9625 39.0213 41.6581C38.6469 44.3537 39.0692 47.0999 40.2362 49.5585H43.2156C43.3142 49.3422 43.4838 49.1663 43.6962 49.0598C43.9086 48.9533 44.1511 48.9227 44.3833 48.9732C44.6155 49.0236 44.8235 49.152 44.9726 49.337C45.1218 49.5219 45.2031 49.7524 45.2031 49.99C45.2031 50.2277 45.1218 50.4581 44.9726 50.6431C44.8235 50.8281 44.6155 50.9565 44.3833 51.0069C44.1511 51.0573 43.9086 51.0268 43.6962 50.9203C43.4838 50.8138 43.3142 50.6378 43.2156 50.4216H40.6687C41.8843 52.6028 43.6605 54.4196 45.8135 55.6843C47.9666 56.9489 50.4184 57.6155 52.9154 57.6151C53.1002 57.6151 53.285 57.5948 53.4699 57.5874L53.359 52.2754C53.3575 52.2097 53.3304 52.1472 53.2834 52.1013C53.2364 52.0553 53.1733 52.0296 53.1076 52.0296H50.5607C50.4622 52.2448 50.2931 52.4198 50.0814 52.5255C49.8697 52.6313 49.6282 52.6615 49.397 52.6111C49.1658 52.5607 48.9588 52.4327 48.8104 52.2485C48.6619 52.0642 48.581 51.8347 48.581 51.598C48.581 51.3614 48.6619 51.1319 48.8104 50.9476C48.9588 50.7633 49.1658 50.6353 49.397 50.5849C49.6282 50.5345 49.8697 50.5647 50.0814 50.6705C50.2931 50.7763 50.4622 50.9513 50.5607 51.1665H53.1039C53.394 51.1692 53.6717 51.2844 53.8785 51.4878C54.0854 51.6912 54.2052 51.967 54.2129 52.2569L54.3219 57.543C55.7897 57.3947 57.2246 57.0141 58.573 56.4156V52.3494C58.5722 52.0507 58.6396 51.7558 58.77 51.4871C58.9003 51.2184 59.0902 50.983 59.3252 50.7987L62.5412 48.2721C62.6711 48.1709 62.776 48.0413 62.8481 47.8933C62.9202 47.7453 62.9575 47.5828 62.9571 47.4182V45.8231C62.7412 45.7248 62.5655 45.5555 62.4592 45.3434C62.3529 45.1314 62.3223 44.8893 62.3726 44.6575C62.4229 44.4257 62.5511 44.2181 62.7358 44.0692C62.9204 43.9203 63.1505 43.8391 63.3877 43.8391C63.6249 43.8391 63.855 43.9203 64.0397 44.0692C64.2243 44.2181 64.3525 44.4257 64.4028 44.6575C64.4531 44.8893 64.4226 45.1314 64.3163 45.3434C64.2099 45.5555 64.0342 45.7248 63.8184 45.8231V47.4182C63.8199 47.713 63.7541 48.0042 63.6259 48.2698C63.4978 48.5353 63.3108 48.7681 63.0791 48.9504L59.8631 51.477C59.731 51.5808 59.6244 51.7133 59.551 51.8645C59.4777 52.0156 59.4397 52.1814 59.4398 52.3494V55.9997C62.3774 54.4597 64.6731 51.927 65.918 48.8526C67.1629 45.7783 67.2762 42.3619 66.2378 39.2118ZM53.8543 48.2295L53.0947 46.2593H49.4998L48.8529 48.2314H46.7218L50.2539 38.9475H52.5254L56.1055 48.2295H53.8543ZM59.1127 48.2295H57.1221V38.9457H59.1071L59.1127 48.2295ZM51.4848 41.2412C51.4386 41.025 51.3906 40.7607 51.3388 40.4483C51.2852 40.7477 51.2316 41.0176 51.1817 41.256C51.1318 41.4944 51.0911 41.6552 51.0671 41.7347L50.0654 44.6919H52.64L51.5994 41.6922C51.5625 41.609 51.5255 41.4538 51.4848 41.2412Z" fill="#FBAE40"/>
<path d="M58.4556 23.1006H58.4683C59.4453 23.1494 67.0226 23.6328 71.7974 30.2529C75.8659 35.8931 75.0069 41.9856 74.811 43.1963C74.556 45.2766 74.0304 47.3148 73.2466 49.2588L73.2456 49.2607C72.0562 52.1942 70.3041 54.8651 68.0903 57.126C67.1496 59.2007 66.9603 61.5401 67.5601 63.7412L67.9038 65.0039H49.5376L50.4536 63.4863C50.4608 63.4735 50.5997 63.2297 50.6772 62.8906C50.7572 62.5413 50.7535 62.1816 50.5835 61.8604L50.4722 61.6885C50.36 61.5411 50.2184 61.4188 50.0581 61.3242C49.6274 61.1751 49.1846 61.0623 48.7349 60.9873V60.9863C47.5405 60.7932 46.3186 60.858 45.1509 61.1748L45.1362 61.1787L45.1216 61.1816C44.835 61.2501 44.4209 61.3271 43.9858 61.3096C43.612 61.2945 43.1226 61.2049 42.6978 60.8838L42.52 60.7314C42.1445 60.3671 42.0109 59.93 41.9634 59.5342C41.9212 59.1831 41.9377 58.7614 41.9487 58.3594C41.9631 57.7826 41.9845 56.8692 42.0044 55.6729C41.9463 55.4122 41.8185 55.172 41.6323 54.9795C41.4453 54.8053 41.2707 54.7511 40.4146 54.5615V54.5605C40.407 54.5593 40.3734 54.5553 40.3013 54.5508C40.2221 54.5459 40.1262 54.5433 40.0044 54.541C39.7753 54.5367 39.4573 54.5346 39.145 54.5088C38.8355 54.4832 38.4605 54.4298 38.106 54.2949C37.7459 54.1579 37.3281 53.9048 37.0669 53.4346C36.9147 53.1604 36.8866 52.8789 36.8862 52.6826C36.8858 52.4752 36.9168 52.2676 36.9575 52.0781C37.039 51.6992 37.187 51.2698 37.3608 50.833C37.7108 49.9536 38.2272 48.8937 38.7437 47.8662C39.2697 46.8195 39.7931 45.8107 40.1938 44.9717C40.3933 44.554 40.5515 44.2009 40.6577 43.9258C40.7824 43.6026 40.7798 43.5227 40.7798 43.582C40.7795 42.6115 39.3034 35.5505 44.4292 29.3564L44.6812 29.0586C50.0154 22.8988 57.5682 23.0676 58.4556 23.1006Z" fill="white" stroke="#FBAE40" stroke-width="2"/>
<path d="M71.2378 36.2118H68.3267C68.2282 36.4275 68.0589 36.603 67.8468 36.7091C67.6348 36.8153 67.3928 36.8456 67.1611 36.7952C66.9294 36.7448 66.7219 36.6166 66.5731 36.432C66.4243 36.2474 66.3432 36.0174 66.3432 35.7802C66.3432 35.5431 66.4243 35.3131 66.5731 35.1285C66.7219 34.9438 66.9294 34.8157 67.1611 34.7653C67.3928 34.7148 67.6348 34.7452 67.8468 34.8514C68.0589 34.9575 68.2282 35.133 68.3267 35.3487H70.9143C69.539 31.9418 66.8856 29.2081 63.5212 27.7319V32.0477C63.7369 32.1462 63.9124 32.3155 64.0185 32.5276C64.1247 32.7396 64.155 32.9816 64.1046 33.2133C64.0542 33.445 63.926 33.6525 63.7414 33.8013C63.5568 33.9501 63.3268 34.0312 63.0896 34.0312C62.8525 34.0312 62.6225 33.9501 62.4379 33.8013C62.2532 33.6525 62.1251 33.445 62.0747 33.2133C62.0242 32.9816 62.0546 32.7396 62.1608 32.5276C62.2669 32.3155 62.4424 32.1462 62.6581 32.0477V27.3992C60.2023 26.505 57.5446 26.3196 54.9884 26.8641C52.4323 27.4086 50.0808 28.6611 48.2027 30.4785V33.0309L54.8251 32.8849C54.8708 32.8889 54.9168 32.8829 54.9599 32.8673C55.003 32.8516 55.0421 32.8267 55.0746 32.7944V31.4303C54.8582 31.332 54.682 31.1625 54.5753 30.95C54.4687 30.7376 54.4379 30.495 54.4883 30.2627C54.5386 30.0304 54.6669 29.8223 54.852 29.6731C55.037 29.5238 55.2675 29.4425 55.5052 29.4425C55.743 29.4425 55.9735 29.5238 56.1585 29.6731C56.3435 29.8223 56.4719 30.0304 56.5222 30.2627C56.5726 30.495 56.5418 30.7376 56.4352 30.95C56.3285 31.1625 56.1523 31.332 55.9359 31.4303V32.8073C55.9359 33.3248 55.4553 33.7314 54.8417 33.7444L48.2046 33.8904V38.5259C48.4204 38.6242 48.5961 38.7935 48.7024 39.0055C48.8088 39.2176 48.8393 39.4596 48.789 39.6914C48.7387 39.9233 48.6105 40.1309 48.4259 40.2798C48.2412 40.4286 48.0111 40.5098 47.7739 40.5098C47.5367 40.5098 47.3066 40.4286 47.122 40.2798C46.9373 40.1309 46.8091 39.9233 46.7588 39.6914C46.7085 39.4596 46.739 39.2176 46.8454 39.0055C46.9517 38.7935 47.1274 38.6242 47.3433 38.5259V31.3878C45.5504 33.4353 44.3957 35.9625 44.0213 38.6581C43.6469 41.3537 44.0692 44.0999 45.2362 46.5585H48.2156C48.3142 46.3422 48.4838 46.1663 48.6962 46.0598C48.9086 45.9533 49.1511 45.9227 49.3833 45.9732C49.6155 46.0236 49.8235 46.152 49.9726 46.337C50.1218 46.5219 50.2031 46.7524 50.2031 46.99C50.2031 47.2277 50.1218 47.4581 49.9726 47.6431C49.8235 47.8281 49.6155 47.9565 49.3833 48.0069C49.1511 48.0573 48.9086 48.0268 48.6962 47.9203C48.4838 47.8138 48.3142 47.6378 48.2156 47.4216H45.6687C46.8843 49.6028 48.6605 51.4196 50.8135 52.6843C52.9666 53.9489 55.4184 54.6155 57.9154 54.6151C58.1002 54.6151 58.285 54.5948 58.4699 54.5874L58.359 49.2754C58.3575 49.2097 58.3304 49.1472 58.2834 49.1013C58.2364 49.0553 58.1733 49.0296 58.1076 49.0296H55.5607C55.4622 49.2448 55.2931 49.4198 55.0814 49.5255C54.8697 49.6313 54.6282 49.6615 54.397 49.6111C54.1658 49.5607 53.9588 49.4327 53.8104 49.2485C53.6619 49.0642 53.581 48.8347 53.581 48.598C53.581 48.3614 53.6619 48.1319 53.8104 47.9476C53.9588 47.7633 54.1658 47.6353 54.397 47.5849C54.6282 47.5345 54.8697 47.5647 55.0814 47.6705C55.2931 47.7763 55.4622 47.9513 55.5607 48.1665H58.1039C58.394 48.1692 58.6717 48.2844 58.8785 48.4878C59.0854 48.6912 59.2052 48.967 59.2129 49.2569L59.3219 54.543C60.7897 54.3947 62.2246 54.0141 63.573 53.4156V49.3494C63.5722 49.0507 63.6396 48.7558 63.77 48.4871C63.9003 48.2184 64.0902 47.983 64.3252 47.7987L67.5412 45.2721C67.6711 45.1709 67.776 45.0413 67.8481 44.8933C67.9202 44.7453 67.9575 44.5828 67.9571 44.4182V42.8231C67.7412 42.7248 67.5655 42.5555 67.4592 42.3434C67.3529 42.1314 67.3223 41.8893 67.3726 41.6575C67.4229 41.4257 67.5511 41.2181 67.7358 41.0692C67.9204 40.9203 68.1505 40.8391 68.3877 40.8391C68.6249 40.8391 68.855 40.9203 69.0397 41.0692C69.2243 41.2181 69.3525 41.4257 69.4028 41.6575C69.4531 41.8893 69.4226 42.1314 69.3163 42.3434C69.2099 42.5555 69.0342 42.7248 68.8184 42.8231V44.4182C68.8199 44.713 68.7541 45.0042 68.6259 45.2698C68.4978 45.5353 68.3108 45.7681 68.0791 45.9504L64.8631 48.477C64.731 48.5808 64.6244 48.7133 64.551 48.8645C64.4777 49.0156 64.4397 49.1814 64.4398 49.3494V52.9997C67.3774 51.4597 69.6731 48.927 70.918 45.8526C72.1629 42.7783 72.2762 39.3619 71.2378 36.2118ZM58.8543 45.2295L58.0947 43.2593H54.4998L53.8529 45.2314H51.7218L55.2539 35.9475H57.5254L61.1055 45.2295H58.8543ZM64.1127 45.2295H62.1221V35.9457H64.1071L64.1127 45.2295ZM56.4848 38.2412C56.4386 38.025 56.3906 37.7607 56.3388 37.4483C56.2852 37.7477 56.2316 38.0176 56.1817 38.256C56.1318 38.4944 56.0911 38.6552 56.0671 38.7347L55.0654 41.6919H57.64L56.5994 38.6922C56.5625 38.609 56.5255 38.4538 56.4848 38.2412Z" fill="#FBAE40"/>
<defs>
<filter id="filter0_d_397_5725" x="1.66893e-05" y="0" width="101.027" height="109.261" filterUnits="userSpaceOnUse" color-interpolation-filters="sRGB">
<feFlood flood-opacity="0" result="BackgroundImageFix"/>
<feColorMatrix in="SourceAlpha" type="matrix" values="0 0 0 0 0 0 0 0 0 0 0 0 0 0 0 0 0 0 127 0" result="hardAlpha"/>
<feOffset dx="-4.9193" dy="8.43309"/>
<feGaussianBlur stdDeviation="1.40551"/>
<feComposite in2="hardAlpha" operator="out"/>
<feColorMatrix type="matrix" values="0 0 0 0 0.25673 0 0 0 0 0.164842 0 0 0 0 0.0335725 0 0 0 0.1 0"/>
<feBlend mode="normal" in2="BackgroundImageFix" result="effect1_dropShadow_397_5725"/>
<feBlend mode="normal" in="SourceGraphic" in2="effect1_dropShadow_397_5725" result="shape"/>
</filter>
</defs>
</svg>
