<svg width="102" height="110" viewBox="0 0 102 110" fill="none" xmlns="http://www.w3.org/2000/svg">
<g filter="url(#filter0_d_397_5727)">
<path d="M42.0025 9.65912C45.8825 8.20172 50.2079 8.53113 53.8224 10.5593L83.1488 27.0145C86.5685 28.9333 89.0311 32.1935 89.9419 36.0075L95.2063 58.0539C96.6248 63.9939 94.045 70.1702 88.823 73.3367L55.1346 93.764C50.8013 96.3915 45.389 96.4829 40.9694 94.0031L14.9078 79.3797C10.4749 76.8923 7.73035 72.2053 7.73035 67.1223L7.73035 35.4857C7.73035 31.9729 9.04582 28.5873 11.4176 25.996L15.9074 21.0908C17.4019 19.458 19.2609 18.2013 21.333 17.4229L42.0025 9.65912Z" fill="#FBAE40"/>
<path d="M47.509 3.85914C51.7809 1.46216 56.9925 1.46216 61.2644 3.85914L87.6007 18.6366C92.0336 21.124 94.7781 25.811 94.7781 30.894L94.7781 59.7617C94.7781 64.8447 92.0336 69.5317 87.6007 72.0191L61.2644 86.7965C56.9925 89.1935 51.7809 89.1935 47.509 86.7965L21.1727 72.0191C16.7398 69.5317 13.9953 64.8447 13.9953 59.7617L13.9953 30.894C13.9953 25.8109 16.7398 21.124 21.1727 18.6366L47.509 3.85914Z" fill="white" stroke="#FBAE40" stroke-width="2.81103"/>
</g>
<path d="M48.4783 32.7724C48.3553 32.7724 48.2373 32.7233 48.1504 32.636C48.0634 32.5487 48.0145 32.4303 48.0145 32.3068V17.6455C48.0145 17.5221 48.0634 17.4036 48.1504 17.3163C48.2373 17.229 48.3553 17.1799 48.4783 17.1799C48.6013 17.1799 48.7192 17.229 48.8062 17.3163C48.8931 17.4036 48.942 17.5221 48.942 17.6455V32.3068C48.942 32.4303 48.8931 32.5487 48.8062 32.636C48.7192 32.7233 48.6013 32.7724 48.4783 32.7724Z" fill="#FBAE40"/>
<path d="M49.6276 17.7038C49.6276 17.5521 49.5978 17.4018 49.54 17.2616C49.4822 17.1214 49.3974 16.9941 49.2906 16.8868C49.1837 16.7795 49.0568 16.6944 48.9172 16.6363C48.7776 16.5782 48.6279 16.5483 48.4768 16.5483C48.1716 16.5483 47.8788 16.6701 47.663 16.8868C47.4472 17.1035 47.3259 17.3974 47.3259 17.7038C47.3261 18.0101 47.4475 18.3038 47.6633 18.5204C47.8791 18.7369 48.1717 18.8585 48.4768 18.8585C48.7819 18.8585 49.0745 18.7369 49.2903 18.5204C49.5061 18.3038 49.6274 18.0101 49.6276 17.7038Z" fill="#FBAE40"/>
<path d="M63.8203 55.0216C63.8203 63.1232 52.8568 63.7813 48.1529 63.7813C43.4491 63.7813 33.2747 63.1232 33.2747 55.0216C33.2747 46.9201 43.4491 40.355 48.1529 40.355C52.8568 40.355 63.8203 46.9208 63.8203 55.0216Z" fill="#FBAE40"/>
<path d="M48.1528 64.2467C44.3587 64.2467 41.2076 63.7858 38.7869 62.8755C36.9907 62.2004 35.577 61.2699 34.5854 60.1114C33.4075 58.7347 32.8077 57.022 32.8077 55.0223C32.8077 49.9945 36.4666 46.1431 38.647 44.2946C41.7563 41.6562 45.5752 39.8884 48.1536 39.8884C50.732 39.8884 54.7928 41.6965 58.0398 44.2853C60.3724 46.1478 64.2847 50.0131 64.2847 55.0223C64.2847 57.0259 63.6425 58.7425 62.3757 60.1238C61.3184 61.2769 59.8143 62.2035 57.9053 62.8786C55.3369 63.7866 52.056 64.2467 48.1528 64.2467ZM48.1528 40.8196C45.8179 40.8196 42.1567 42.5408 39.2491 45.0101C37.1908 46.7546 33.7383 50.3747 33.7383 55.0261C33.7383 61.8807 41.577 63.3194 48.1528 63.3194C51.9509 63.3194 55.1283 62.8771 57.5961 62.0002C61.4189 60.6484 63.3565 58.3009 63.3565 55.0223C63.3565 50.4042 59.6636 46.7701 57.4624 45.0117C54.3646 42.5447 50.5365 40.8196 48.1528 40.8196Z" fill="#FBAE40"/>
<path d="M36.3616 36.0442C36.3616 37.8484 34.7462 39.312 33.7275 39.312C32.7088 39.312 31.7257 37.8484 31.7257 36.0442C31.7257 34.24 32.7096 32.7756 33.7275 32.7756C34.7454 32.7756 36.3616 34.2415 36.3616 36.0442Z" fill="#FBAE40"/>
<path d="M33.7283 39.7798C32.3912 39.7798 31.262 38.0726 31.262 36.0464C31.262 34.0203 32.3912 32.3123 33.7283 32.3123C35.0932 32.3123 36.8253 34.0707 36.8253 36.0464C36.8253 38.0222 35.0971 39.7798 33.7283 39.7798ZM33.7283 33.2435C33.0165 33.2435 32.1894 34.468 32.1894 36.0464C32.1894 37.6248 33.0165 38.8486 33.7283 38.8486C34.4517 38.8486 35.8978 37.6373 35.8978 36.0464C35.8978 34.4556 34.4517 33.2435 33.7283 33.2435Z" fill="#FBAE40"/>
<path d="M65.2308 36.0442C65.2308 37.8484 64.2469 39.312 63.2282 39.312C62.2096 39.312 60.595 37.8484 60.595 36.0442C60.595 34.24 62.2096 32.7756 63.2282 32.7756C64.2469 32.7756 65.2308 34.2415 65.2308 36.0442Z" fill="#FBAE40"/>
<path d="M63.2305 39.7798C61.8656 39.7798 60.1335 38.0214 60.1335 36.0464C60.1335 34.0715 61.8656 32.3123 63.2305 32.3123C64.5677 32.3123 65.6969 34.0195 65.6969 36.0464C65.6969 38.0734 64.5653 39.7798 63.2305 39.7798ZM63.2305 33.2435C62.5071 33.2435 61.061 34.4556 61.061 36.0464C61.061 37.6373 62.5071 38.8486 63.2305 38.8486C63.954 38.8486 64.7694 37.6241 64.7694 36.0464C64.7694 34.4688 63.9401 33.2435 63.2305 33.2435Z" fill="#FBAE40"/>
<path d="M63.0706 37.1592C63.0706 45.2507 56.5373 48.2725 48.4783 48.2725C40.4193 48.2725 33.886 45.2507 33.886 37.1592C33.886 29.0677 40.4193 24.542 48.4783 24.542C56.5373 24.542 63.0706 29.0677 63.0706 37.1592Z" fill="#FBAE40"/>
<path d="M48.4783 48.7381C44.0395 48.7381 40.4819 47.8628 37.9027 46.1377C34.9294 44.148 33.4199 41.1278 33.4199 37.1592C33.4199 33.1705 34.9572 29.8143 37.8664 27.4544C40.5499 25.2761 44.3185 24.0764 48.476 24.0764C52.6334 24.0764 56.402 25.2761 59.0855 27.4544C61.9947 29.8143 63.532 33.1705 63.532 37.1592C63.532 41.1278 62.0248 44.148 59.0492 46.1377C56.4747 47.8628 52.917 48.7381 48.4783 48.7381ZM48.4783 25.0076C41.4449 25.0076 34.3497 28.7651 34.3497 37.1592C34.3497 46.4233 43.2017 47.8069 48.4783 47.8069C53.7548 47.8069 62.6068 46.4233 62.6068 37.1592C62.6068 28.7651 55.5109 25.0076 48.4783 25.0076Z" fill="#FBAE40"/>
<path d="M42.3848 38.8782C43.4033 38.8782 44.2289 36.9886 44.2289 34.6575C44.2289 32.3265 43.4033 30.4368 42.3848 30.4368C41.3663 30.4368 40.5406 32.3265 40.5406 34.6575C40.5406 36.9886 41.3663 38.8782 42.3848 38.8782Z" fill="#FBAE40"/>
<path d="M54.5718 38.8782C55.5903 38.8782 56.4159 36.9886 56.4159 34.6575C56.4159 32.3265 55.5903 30.4368 54.5718 30.4368C53.5533 30.4368 52.7277 32.3265 52.7277 34.6575C52.7277 36.9886 53.5533 38.8782 54.5718 38.8782Z" fill="#FBAE40"/>
<path d="M78.6669 38.11L78.6097 38.0324C78.5052 37.8795 78.39 37.7343 78.265 37.5978C77.4921 36.776 76.4873 36.2274 75.2631 35.9682C75.1796 35.9503 75.1085 35.9387 75.0428 35.9286C74.4372 35.531 73.8637 35.086 73.3277 34.5977C73.7851 34.4546 74.2165 34.2384 74.6053 33.9575L74.6455 33.9273C74.9655 33.6852 75.3566 33.3903 75.6905 32.986C75.9187 32.7817 76.0708 32.5056 76.1218 32.203C76.2005 32.1553 76.2766 32.1035 76.3498 32.0478C76.7161 31.7715 77.2131 31.3959 77.54 30.779C77.986 30.0806 77.741 29.3822 77.2919 28.9942C76.9898 28.7332 76.6003 28.5973 76.2022 28.6139C75.8751 28.6277 75.5588 28.7354 75.2909 28.9243C75.1185 29.0423 74.8318 29.1362 74.528 29.2347L74.511 29.2401C74.3164 29.3022 74.1139 29.3361 73.9097 29.341C73.5651 29.3454 73.2211 29.3129 72.8833 29.244L72.7473 29.2184C72.2797 29.1315 71.7503 29.0337 71.1528 29.0539L71.0029 29.0617C70.2648 29.1144 69.5619 29.3986 68.9933 29.8742C68.5376 30.2597 68.1072 30.6744 67.7049 31.1158L67.6346 31.1895C67.487 31.3447 67.3393 31.4999 67.1964 31.6551C67.0089 31.5855 66.8137 31.5388 66.6151 31.5162C66.5054 31.5003 66.3944 31.4941 66.2836 31.4976C66.1009 31.5034 65.9204 31.5396 65.7495 31.6047C65.4707 31.5017 65.1745 31.4545 64.8777 31.4658C64.8127 31.4658 64.747 31.4727 64.6813 31.4805C63.8172 31.5356 63.3674 32.0757 63.2283 32.5592C63.2113 32.5793 63.1951 32.5995 63.1796 32.6212C63.0803 32.7559 63.0057 32.9073 62.9593 33.0682C62.9184 33.0488 62.8766 33.031 62.8326 33.0147C62.6215 32.9306 62.4016 32.8704 62.1772 32.8354C62.1408 32.8292 62.1068 32.823 62.0867 32.8184C62.0022 32.7997 61.9187 32.7827 61.8363 32.7671C61.7938 32.5989 61.7187 32.4407 61.6153 32.3015C61.3858 31.9971 61.0489 31.7925 60.6739 31.7296L60.6383 31.7195C60.3956 31.652 60.1444 31.5822 59.8824 31.5193C59.3924 31.4013 58.9596 31.3028 58.5577 31.2174C58.3923 31.1817 58.2362 31.1585 58.0978 31.1398C58.0043 31.1259 57.9162 31.1119 57.8412 31.0972C57.6518 31.0607 57.464 31.0195 57.2646 30.9792C56.9284 30.9094 56.5806 30.8364 56.2235 30.7743C55.9221 30.7223 55.6323 30.6882 55.3525 30.6548C55.1979 30.6362 55.0534 30.6191 54.9112 30.5997L54.6236 30.5594C54.3376 30.519 54.0416 30.4818 53.7418 30.4422C53.5099 30.415 53.2711 30.391 53.0461 30.3646L52.6597 30.3242C52.2856 30.2847 51.8868 30.2397 51.4346 30.1861C51.0737 30.1434 50.6826 30.1085 50.239 30.0814C49.9971 30.0666 49.7652 30.0612 49.5434 30.0557C49.2512 30.0495 48.9761 30.0433 48.7257 30.0154C48.4072 29.9805 48.1004 29.9735 47.8299 29.968C47.6923 29.968 47.5617 29.9618 47.4388 29.9556C46.6829 29.9176 45.8698 29.885 45.0505 29.9029C44.6177 29.913 44.1571 29.9261 43.6423 29.944C42.9877 29.9673 42.3284 29.9944 41.6853 30.0216H41.632C41.4571 30.0307 41.2831 30.0517 41.1111 30.0844C41.0701 30.0914 41.0168 30.1007 40.9882 30.1046C40.9109 30.1046 40.8251 30.1046 40.7416 30.1046C40.4541 30.1147 40.1905 30.1489 39.9579 30.1822C39.8103 30.2016 39.6704 30.2203 39.5483 30.2288H39.5398C38.8882 30.2754 38.2142 30.3242 37.5264 30.4321L37.2172 30.4771C36.8367 30.5257 36.4593 30.5954 36.0865 30.6859C35.9319 30.7262 35.7773 30.7635 35.6073 30.8054C35.21 30.9031 34.7996 31.004 34.3807 31.1344C33.7106 31.3431 33.1904 31.7467 32.9168 32.2705C32.793 32.5081 32.7217 32.7697 32.7075 33.0375C32.6934 33.3053 32.7368 33.5731 32.8349 33.8225C32.8604 33.8892 32.8874 33.9521 32.9168 34.0111C32.8197 34.1865 32.7609 34.3807 32.7445 34.5807C32.6736 34.6856 32.6155 34.7987 32.5713 34.9175C32.4739 35.1782 32.365 35.7067 32.7259 36.3143C32.7932 36.4268 32.8612 36.5215 32.9168 36.5975L32.964 36.6635C33.0057 36.724 33.0412 36.7768 33.0807 36.8241C33.0984 36.8482 33.1209 36.8777 33.1371 36.9017C33.1541 36.963 33.1734 37.0251 33.1966 37.088L33.1904 37.1019C33.1842 37.119 33.1765 37.1353 33.1688 37.1516C33.0935 37.3106 33.0367 37.4778 32.9995 37.6498C32.8813 38.2349 32.9717 38.7859 33.2615 39.2437C33.4437 39.5404 33.7018 39.7826 34.0089 39.9451C34.3159 40.1077 34.6608 40.1846 35.0075 40.168C35.2673 40.1563 35.5239 40.1058 35.7688 40.0182C35.9813 39.9406 36.1831 39.8677 36.3779 39.7932C36.689 39.6653 37.0081 39.5577 37.3331 39.4711C37.8865 39.3434 38.4483 39.256 39.0142 39.2096C39.161 39.1972 39.3164 39.1879 39.4779 39.1824C40.1333 39.1592 40.8158 39.198 41.4751 39.236C41.6235 39.2445 41.7564 39.2437 41.8739 39.243C41.9674 39.243 42.0648 39.243 42.1158 39.2476C42.2565 39.2639 42.3925 39.2771 42.5239 39.2895C42.8061 39.3088 43.0866 39.348 43.3633 39.4067C43.665 39.4763 43.9728 39.5163 44.2823 39.5262C44.3688 39.5309 44.4508 39.5355 44.5188 39.5425C44.61 39.551 44.7251 39.5712 44.8465 39.593C45.1401 39.6506 45.4378 39.6841 45.7369 39.6931C45.9282 39.762 46.1283 39.8033 46.3312 39.8157C46.4796 39.8258 46.6543 39.8529 46.8382 39.8816C47.1554 39.9374 47.4758 39.9724 47.7974 39.9864C47.9357 39.9899 48.0735 40.0026 48.2101 40.0244L48.3863 40.0547C48.7815 40.1346 49.1836 40.1751 49.5867 40.1757C49.6639 40.1757 49.7868 40.1858 49.9136 40.1982C50.089 40.2153 50.2877 40.2355 50.5126 40.2363H50.5837H50.6247C50.873 40.2979 51.1288 40.324 51.3844 40.3139H51.4524C51.9224 40.334 52.3845 40.3364 52.8259 40.3216C53.0763 40.3123 53.3259 40.2976 53.5679 40.2774C53.6366 40.2712 53.7147 40.2673 53.8129 40.2634L54.0409 40.2572C54.129 40.2572 54.2163 40.2572 54.3037 40.2502C54.6467 40.2434 54.9885 40.2052 55.3246 40.1362C55.3509 40.1362 55.4128 40.13 55.4576 40.1276C55.6798 40.1228 55.9011 40.0968 56.1184 40.05C56.2274 40.0244 56.365 40.0035 56.5095 39.9817C56.7482 39.9493 56.985 39.9045 57.219 39.8475C57.338 39.8172 57.4764 39.7901 57.6232 39.7621C57.8987 39.7125 58.1714 39.6485 58.4402 39.5704L58.5585 39.5324L58.6767 39.4959C59.0401 39.4578 59.3973 39.3744 59.7402 39.2476L59.8492 39.2119C60.6476 38.9504 61.4267 38.6493 62.0906 38.3886C62.2143 38.3397 62.3286 38.2908 62.4384 38.2435C62.5481 38.1961 62.6478 38.1542 62.739 38.1193C62.9363 38.05 63.1171 37.9405 63.27 37.7975C63.423 37.6546 63.5448 37.4815 63.6279 37.289C63.8126 37.6065 64.1043 37.8473 64.4502 37.968C64.7469 38.0781 65.0616 38.1308 65.3777 38.1232C65.7244 38.1124 66.0626 38.0128 66.3601 37.8337L66.4374 37.7879C66.5666 37.8157 66.6987 37.8274 66.8308 37.8229C66.9804 37.8166 67.1285 37.7905 67.2713 37.7453C67.3632 37.7167 67.4528 37.6814 67.5395 37.6397C67.6426 37.7432 67.7456 37.8467 67.8487 37.9501C68.0233 38.1255 68.2042 38.3071 68.3766 38.484C68.6149 38.717 68.8899 38.9089 69.1904 39.0521C69.2445 39.0808 69.3064 39.1126 69.3326 39.1297C69.6764 39.3403 70.0415 39.5138 70.4217 39.6473L70.4688 39.6659C70.7818 39.7789 71.1077 39.8522 71.4388 39.884C71.5161 39.894 71.5887 39.9026 71.6444 39.9127C71.9364 39.962 72.2328 39.98 72.5286 39.9662C72.6646 39.9616 72.7944 39.9522 72.9096 39.9445C72.9869 39.9391 73.0642 39.9336 73.1322 39.9305C73.4584 39.9142 73.7598 39.8762 74.0512 39.8397C74.2143 39.8188 74.3688 39.7994 74.5149 39.7854C74.5806 39.7792 74.6486 39.7745 74.7159 39.7722C75.1657 39.7567 75.6495 39.8242 76.2377 39.9856C76.3171 40.0048 76.3946 40.0308 76.4696 40.0632C76.7663 40.2864 77.13 40.4014 77.5006 40.3891C77.8462 40.3773 78.1785 40.2522 78.4467 40.033C79.0271 39.5363 79.1214 38.7331 78.6669 38.11Z" fill="#FBAE40"/>
<path d="M52.7269 32.9301C53.3066 33.0449 53.8816 32.944 54.4575 32.9642C54.9212 32.9813 55.3896 32.9929 55.8564 32.9689C56.0836 32.9572 56.3124 33.0069 56.5389 32.944C56.5846 32.9398 56.6308 32.9442 56.6749 32.9572C57.1023 33.0216 57.5374 33.0123 57.9664 33.0209C58.3691 33.0286 58.7718 33.0604 59.1752 33.062C59.5532 33.062 59.9303 33.1163 60.3075 33.1396C60.3547 33.1396 60.4335 33.1629 60.4459 33.1039C60.4621 33.0263 60.3686 33.0333 60.3214 33.0193C60.0548 32.9417 59.7881 32.8695 59.5184 32.8044C59.091 32.7019 58.662 32.6026 58.2315 32.511C57.9996 32.4629 57.7678 32.4381 57.5359 32.3931C57.0072 32.2891 56.4824 32.168 55.9515 32.0765C55.5341 32.0035 55.1106 31.967 54.6901 31.9096C54.3106 31.8568 53.9311 31.8002 53.5508 31.7544C53.1953 31.7125 52.8367 31.6768 52.4804 31.6419C52.0656 31.5974 51.6513 31.5506 51.2376 31.5014C50.8704 31.458 50.4979 31.4238 50.1261 31.4044C49.5975 31.3718 49.0665 31.3905 48.5386 31.3323C48.1429 31.2888 47.7394 31.3004 47.3414 31.2803C46.5824 31.2422 45.8226 31.212 45.0629 31.229C43.9329 31.2539 42.8029 31.3012 41.6737 31.3485C41.4334 31.3586 41.193 31.4393 40.9549 31.4331C40.5082 31.4215 40.0762 31.5216 39.6356 31.5534C39.0018 31.5992 38.3673 31.645 37.7389 31.7428C37.3069 31.811 36.8679 31.8584 36.4466 31.967C35.901 32.1075 35.3499 32.2278 34.812 32.3954C34.3969 32.525 33.9703 32.8416 34.1658 33.3631C34.2222 33.5121 34.2794 33.5889 34.4502 33.5617C34.7718 33.5105 35.091 33.4438 35.411 33.3902C35.7912 33.3258 36.1599 33.2118 36.5448 33.1683C36.8539 33.1326 37.1577 33.0216 37.4653 32.9828C38.1076 32.9006 38.7429 32.7803 39.3883 32.7089C40.0514 32.636 40.7138 32.5366 41.38 32.5071C42.1738 32.4714 42.9676 32.4132 43.7644 32.487C44.2119 32.5289 44.6641 32.5312 45.1131 32.5832C45.3628 32.6119 45.6225 32.5692 45.8636 32.6748C45.8984 32.6903 45.954 32.6701 45.9989 32.6608C46.0847 32.6422 46.2052 32.5832 46.2261 32.6996C46.2385 32.7671 46.1009 32.7772 46.0182 32.7881C45.9464 32.7981 45.8736 32.7981 45.8018 32.7881C45.549 32.7384 45.2924 32.7702 45.0374 32.7516C44.348 32.7027 43.6562 32.7469 42.9676 32.7881C42.5177 32.8152 42.071 32.8897 41.6235 32.951C41.2293 33.0053 40.8375 33.0961 40.4417 33.1225C39.9548 33.1551 39.4872 33.2777 39.0134 33.36C38.4167 33.4678 37.8294 33.623 37.2304 33.7162C36.7597 33.7938 36.2882 33.8543 35.8391 34.0041C35.6405 34.07 35.4442 34.07 35.2455 34.0972C35.1102 34.1219 34.9733 34.1377 34.8359 34.1445C34.7072 34.1429 34.5808 34.1781 34.4713 34.246C34.3618 34.3139 34.2738 34.4116 34.2176 34.5279C34.1867 34.5837 34.1156 34.6458 34.1643 34.7126C34.213 34.7793 34.3088 34.7506 34.3845 34.7397C34.5724 34.7133 34.7586 34.6815 34.9464 34.6567C35.0183 34.6474 35.101 34.6451 35.118 34.7343C35.135 34.8235 35.0407 34.8406 34.9758 34.8577C34.7401 34.9084 34.5078 34.9737 34.2802 35.0532C33.9022 35.1991 33.7933 35.3753 33.9517 35.6415C34.0074 35.7338 34.0792 35.8254 34.1411 35.9146C34.2671 36.0962 34.424 36.263 34.4835 36.4881C34.5778 36.8451 34.628 36.8614 35.0245 36.769C35.0369 36.769 35.0508 36.769 35.0632 36.769C35.5369 36.634 36.0277 36.5983 36.5131 36.5277C37.1585 36.4338 37.8054 36.3577 38.4569 36.3189C38.9037 36.2925 39.3514 36.2768 39.8002 36.2716C40.3954 36.2654 40.9859 36.1847 41.5872 36.3073C42.1135 36.4151 42.6576 36.4547 43.1871 36.5626C43.469 36.6082 43.7472 36.6746 44.0195 36.7612C43.7211 36.8738 43.4584 36.7612 43.2018 36.7325C42.4111 36.6433 41.6188 36.665 40.8266 36.6472C39.8837 36.6254 38.957 36.8101 38.0195 36.8575C37.6396 36.8731 37.2612 36.913 36.8864 36.977C36.2681 37.0887 35.6436 37.1322 35.04 37.2975C34.8475 37.3495 34.6033 37.3184 34.509 37.5543C34.4576 37.6595 34.4157 37.7691 34.3838 37.8818C34.3267 38.1061 34.3583 38.3439 34.4719 38.5453C34.6628 38.8472 34.9062 38.8767 35.2695 38.7509C35.8384 38.5554 36.3833 38.3032 36.9792 38.1627C37.6034 38.0182 38.2373 37.9194 38.8758 37.8671C39.7678 37.7895 40.6612 37.8391 41.5516 37.8896C41.7943 37.9035 42.0362 37.881 42.2781 37.909C42.7604 37.9641 43.2474 37.9866 43.7188 38.103C44.028 38.1806 44.3464 38.1705 44.6579 38.2008C45.1131 38.2458 45.5606 38.3963 46.0282 38.3257C46.0607 38.326 46.0918 38.3385 46.1156 38.3606C46.2037 38.4306 46.3124 38.4694 46.4247 38.4708C46.8978 38.5026 47.3522 38.626 47.8337 38.6384C48.0409 38.6436 48.2475 38.6628 48.452 38.6959C48.8176 38.7564 49.1786 38.834 49.5534 38.827C49.8742 38.8208 50.1903 38.886 50.5126 38.8875C50.6339 38.8875 50.763 38.82 50.8751 38.8813C51.0768 38.9931 51.3087 38.955 51.5135 38.9644C52.154 38.9942 52.7958 38.9834 53.4349 38.9318C53.9582 38.8875 54.4891 38.9318 55.0047 38.8177C55.2574 38.7618 55.5163 38.7944 55.766 38.7354C56.1207 38.6524 56.4863 38.6291 56.8418 38.5391C57.2213 38.4429 57.6147 38.3971 57.9927 38.2815C58.1639 38.2171 58.3417 38.1723 58.5229 38.148C58.8243 38.127 59.101 38.0207 59.3731 37.9315C60.1042 37.6917 60.823 37.417 61.5372 37.1368C61.7598 37.0491 61.9777 36.9467 62.2027 36.8614C62.256 36.8412 62.3062 36.8148 62.2846 36.755C62.2629 36.6953 62.1957 36.7085 62.1509 36.7302C62.062 36.7729 61.963 36.755 61.8688 36.8024C61.6152 36.9304 61.3277 36.9762 61.0503 37.0352C60.7226 37.1058 60.3964 37.1904 60.064 37.2509C59.7317 37.3114 59.4156 37.3929 59.091 37.4379C58.7872 37.4791 58.4726 37.5101 58.1789 37.5706C57.3419 37.7421 56.4902 37.7794 55.6446 37.8616C55.1569 37.909 54.6638 37.9028 54.1761 37.9175C54.1166 37.9175 54.0215 37.9571 54.0061 37.8748C53.9906 37.7926 54.0896 37.767 54.1529 37.7584C54.418 37.722 54.6831 37.6808 54.9475 37.6475C55.3482 37.604 55.7447 37.5277 56.1331 37.4193C56.2482 37.3859 56.3333 37.2827 56.4539 37.2936C56.7665 37.3224 57.0815 37.2772 57.3736 37.1617C57.4232 37.1442 57.4756 37.1361 57.5282 37.1376C57.8319 37.1376 58.1156 37.0313 58.4108 36.9824C58.7347 36.9312 59.0346 36.7876 59.3538 36.7054C59.5709 36.6495 59.7897 36.5897 60.0107 36.5362C60.3307 36.4586 60.6398 36.3337 60.9637 36.277C61.3764 36.1957 61.7831 36.0862 62.181 35.9495C62.5999 35.8161 63.0111 35.6585 63.4269 35.5126C63.4741 35.4963 63.5112 35.4762 63.5119 35.425C63.5119 35.3869 63.4841 35.3683 63.4486 35.3691C63.2631 35.3761 63.0884 35.3148 62.9037 35.3047C62.5621 35.2868 62.2483 35.4288 61.912 35.4226C61.7575 35.4226 61.6029 35.4056 61.4684 35.5297C61.4012 35.571 61.3229 35.5902 61.2443 35.5848C61.116 35.5895 60.9877 35.5282 60.973 35.4164C60.9583 35.3047 61.099 35.345 61.1762 35.3334C61.2535 35.3217 61.3123 35.293 61.3192 35.2271C61.3277 35.1495 61.2419 35.1378 61.1817 35.1215C61.1363 35.1127 61.0899 35.1109 61.0441 35.1161C60.2712 35.1603 59.4937 35.1704 58.7177 35.2216C57.8095 35.2814 56.9014 35.3419 55.9924 35.3955C55.3107 35.4358 54.6275 35.4684 53.9412 35.4459C53.2672 35.4242 52.6056 35.3272 51.9393 35.2573C51.7964 35.2418 51.641 35.2573 51.5135 35.2069C51.127 35.0556 50.7012 35.0276 50.3101 34.8918C50.147 34.8352 49.9646 34.801 49.8332 34.6311C49.8702 34.6272 49.9074 34.6259 49.9445 34.6272C50.2753 34.6846 50.6046 34.7716 50.9384 34.7956C51.4091 34.8282 51.8659 34.926 52.3382 34.9663C52.8333 34.9959 53.3297 34.9995 53.8252 34.9772C54.4435 34.9648 55.0533 34.8794 55.667 34.8313C56.0728 34.7995 56.4693 34.7265 56.8697 34.6761C57.447 34.5985 58.0182 34.4829 58.6025 34.4573C58.7143 34.4564 58.826 34.4496 58.9372 34.4371C59.4929 34.3548 60.0532 34.3595 60.6113 34.3595C61.1523 34.3595 61.6995 34.3703 62.2444 34.3665C62.2884 34.3665 62.3487 34.3758 62.3603 34.3207C62.3735 34.2539 62.3039 34.2431 62.2598 34.226C62.0991 34.1554 61.9198 34.1399 61.7513 34.1026C61.2435 33.9924 60.7249 33.928 60.2155 33.8233C59.8144 33.7457 59.4086 33.6906 59.0036 33.6331C58.5708 33.5726 58.1349 33.5268 57.6998 33.4779C57.1811 33.4228 56.661 33.3794 56.1431 33.3173C55.9267 33.2909 55.7072 33.3305 55.497 33.2832C55.2677 33.2343 55.0353 33.2019 54.8014 33.1862C54.1607 33.1349 53.5184 33.1023 52.8769 33.062C52.8396 33.0643 52.8029 33.0518 52.7748 33.0271C52.7467 33.0023 52.7295 32.9675 52.7269 32.9301ZM69.161 35.2426C69.0838 35.2628 69.0111 35.2309 68.9987 35.2977C68.9895 35.3458 69.0544 35.3582 69.0915 35.3807C69.1378 35.415 69.1878 35.4439 69.2407 35.4669C69.6078 35.5833 69.859 35.8502 70.1287 36.0877C70.5863 36.4904 70.9789 36.9591 71.547 37.2416C71.9188 37.4255 72.2488 37.6894 72.6893 37.7328C72.7295 37.7328 72.7666 37.7545 72.7612 37.8019C72.7558 37.8492 72.7125 37.836 72.6839 37.8399C72.4976 37.8601 72.3222 37.7887 72.1382 37.7848C71.7101 37.7755 71.319 37.6218 70.965 37.4317C70.5244 37.1989 70.1565 36.8497 69.7438 36.5704C69.3574 36.3096 68.9763 36.0271 68.4971 35.9084C68.4621 35.8945 68.4235 35.8926 68.3873 35.903C68.3511 35.9133 68.3193 35.9354 68.297 35.9658C68.1462 36.1397 68.1354 36.2654 68.2908 36.4252C68.6648 36.8132 69.0497 37.1873 69.4246 37.5714C69.6248 37.7771 69.9015 37.8671 70.1372 38.0184C70.4141 38.1825 70.707 38.3177 71.0114 38.4219C71.3027 38.5344 71.6088 38.5383 71.9087 38.5911C72.3006 38.6601 72.6816 38.6066 73.0603 38.5911C73.5001 38.5694 73.9368 38.4925 74.3742 38.4514C75.1471 38.3738 75.8999 38.4956 76.638 38.6982C76.8905 38.7547 77.1303 38.8578 77.3453 39.0024C77.3947 39.0396 77.4511 39.0699 77.4998 39.0264C77.5485 38.983 77.5222 38.9209 77.4882 38.8751C77.3975 38.7399 77.2986 38.6103 77.1922 38.4871C76.5886 37.8446 75.8265 37.4635 74.9392 37.2742C74.7475 37.2338 74.5373 37.2338 74.3626 37.119C73.6409 36.6572 72.9598 36.1343 72.3268 35.5561C71.768 35.0439 71.0601 34.8779 70.3042 34.8429C70.2508 34.8429 70.1697 34.8212 70.1581 34.8988C70.1465 34.9764 70.2199 34.9764 70.2763 34.9943C70.5221 35.0897 70.7779 35.179 70.9719 35.3528C71.1458 35.508 71.2857 35.6958 71.5176 35.7889C71.5848 35.8161 71.6405 35.8851 71.5872 35.9557C71.5338 36.0264 71.4697 35.9783 71.414 35.9418C71.2223 35.8217 71.014 35.7306 70.7957 35.6717C70.5329 35.5941 70.2794 35.4793 70.012 35.4234C69.7229 35.359 69.4261 35.3031 69.161 35.2426ZM71.4024 32.8369C71.6853 32.8112 71.97 32.8127 72.2526 32.8416C72.3299 32.8532 72.4003 32.8843 72.4072 32.9611C72.4142 33.0379 72.3299 33.0589 72.2665 33.062C72.1344 33.069 72.013 33.1272 71.8801 33.1155C71.6321 33.1054 71.3845 33.1428 71.1505 33.2257C70.9619 33.3126 70.7416 33.3119 70.5638 33.4267C70.4763 33.4813 70.3852 33.5298 70.291 33.5718C70.2385 33.5967 70.1364 33.5672 70.155 33.6649C70.1735 33.7627 70.2725 33.7348 70.3312 33.7239C70.6272 33.6681 70.9341 33.7371 71.2247 33.6549C71.3785 33.6062 71.5376 33.5757 71.6985 33.5641C71.9435 33.5532 72.1846 33.5641 72.432 33.4787C72.881 33.3282 73.3401 33.2024 73.7165 32.9176C74.0473 32.667 74.3851 32.4179 74.6347 32.0858C74.6641 32.0462 74.7622 32.0221 74.688 31.96C74.675 31.9502 74.66 31.9431 74.644 31.9394C74.6281 31.9357 74.6115 31.9353 74.5954 31.9384C74.5794 31.9415 74.5641 31.9479 74.5506 31.9572C74.5372 31.9666 74.5258 31.9786 74.5172 31.9926C74.5012 32.0209 74.4789 32.0451 74.4521 32.0634C74.4253 32.0817 74.3947 32.0936 74.3626 32.0982C74.0094 32.1323 73.6817 32.272 73.3324 32.3217C73.2489 32.3341 73.1515 32.4854 73.0866 32.3419C73.0217 32.1983 73.211 32.2084 73.2845 32.1766C73.885 31.9166 74.4268 31.5612 75.0003 31.2578C75.1598 31.1873 75.3136 31.1042 75.4602 31.0094C75.7825 30.7658 76.1032 30.519 76.2848 30.1558C76.315 30.0945 76.3892 30.0386 76.3204 29.9789C76.2516 29.9191 76.1875 29.9603 76.1233 30.0037C75.7755 30.242 75.3713 30.3723 74.9725 30.5019C74.1926 30.7572 73.3942 30.7006 72.6035 30.5555C72.1058 30.4647 71.6142 30.3591 71.0995 30.3948C70.6648 30.427 70.2517 30.5975 69.92 30.8814C69.4741 31.2453 69.0845 31.6621 68.6911 32.0749C68.4592 32.3232 68.222 32.5739 67.9878 32.823C67.9637 32.8438 67.948 32.8726 67.9436 32.9042C67.9392 32.9357 67.9464 32.9678 67.9638 32.9945C68.0087 33.0542 68.0836 33.0348 68.1416 33.0007C68.3676 32.8798 68.5874 32.7474 68.8001 32.6041C69.253 32.2743 69.7021 31.943 70.206 31.6822C70.8328 31.3586 71.5091 31.2849 72.2055 31.2942C72.6847 31.3012 73.1646 31.3571 73.6392 31.243C73.7219 31.2182 73.81 31.2182 73.8927 31.243C73.9399 31.2593 74.0025 31.2694 74.004 31.3323C74.0056 31.3951 73.9484 31.3905 73.9105 31.4099C73.6856 31.5371 73.412 31.5651 73.1809 31.5798C72.8478 31.6046 72.5031 31.6046 72.1653 31.6217C71.9244 31.637 71.6884 31.6976 71.4697 31.8002C71.0539 31.9903 70.6411 32.1835 70.2385 32.4016C69.7021 32.6911 69.1866 32.9929 68.7777 33.4345C68.7421 33.4741 68.6594 33.5121 68.7004 33.5679C68.7414 33.6238 68.8194 33.5928 68.8797 33.5586C69.0755 33.4594 69.2774 33.3729 69.4841 33.2994C69.6939 33.2201 69.909 33.156 70.1279 33.1078C70.3576 33.053 70.5825 32.9796 70.8004 32.8882C71.0152 32.7997 71.2486 32.8525 71.4055 32.8338L71.4024 32.8369ZM67.7698 34.9431C67.7776 34.3696 67.6361 33.869 67.3007 33.4345C67.0827 33.1512 66.837 32.8835 66.4242 32.8369C66.3469 32.8284 66.2758 32.8075 66.2256 32.875C66.1753 32.9425 66.2256 32.9976 66.2658 33.0418C66.4034 33.197 66.4667 33.384 66.5548 33.5602C66.6055 33.6729 66.6439 33.7907 66.6692 33.9117C66.6808 33.9591 66.6847 34.0584 66.6027 34.0289C66.4845 33.987 66.3176 33.9831 66.2627 33.8652C66.0973 33.5105 65.7796 33.2886 65.5014 33.0294C65.4143 32.9409 65.3077 32.8743 65.1902 32.835C65.0727 32.7956 64.9476 32.7846 64.8251 32.8028C64.7362 32.8152 64.6149 32.7958 64.5932 32.8982C64.5739 32.9867 64.6705 33.0449 64.7478 33.0915C64.7977 33.1206 64.8493 33.1465 64.9024 33.1691C64.9893 33.2078 65.0666 33.2653 65.1288 33.3375C65.3785 33.5959 65.5362 33.9047 65.7031 34.2097C65.7348 34.2679 65.7804 34.3564 65.6931 34.3874C65.6057 34.4185 65.5385 34.3339 65.5052 34.2625C65.4581 34.1415 65.3845 34.0328 65.2897 33.9444C65.195 33.856 65.0816 33.7902 64.958 33.7519C64.9233 33.741 64.8738 33.7115 64.8699 33.6851C64.8413 33.4966 64.6844 33.4523 64.5299 33.3926C64.4649 33.3677 64.3923 33.2979 64.3397 33.3693C64.2872 33.4407 64.3861 33.4849 64.434 33.5245C64.577 33.6564 64.7432 33.7658 64.8707 33.9125C65.1412 34.2322 65.1621 34.6233 65.2007 34.9989C65.2585 35.5007 65.1534 36.0078 64.9008 36.4446C64.8406 36.5486 64.839 36.6549 64.9549 36.6968C65.159 36.7744 65.3916 36.8086 65.5833 36.6922C65.8372 36.5432 66.0327 36.3115 66.1375 36.0357C66.2604 35.6849 66.3979 35.3303 66.3964 34.9493C66.4037 34.8628 66.4268 34.7783 66.4644 34.7002C66.4745 34.669 66.4936 34.6416 66.5194 34.6215C66.5452 34.6014 66.5764 34.5896 66.6089 34.5876C66.6924 34.5822 66.7202 34.6489 66.7512 34.6978C66.7727 34.742 66.783 34.7907 66.7813 34.8398C66.8083 35.3442 66.8323 35.8487 66.7272 36.35C66.7141 36.4128 66.7063 36.4912 66.8176 36.4563C66.9313 36.4179 67.0304 36.345 67.1011 36.2477C67.1719 36.1504 67.2108 36.0335 67.2126 35.9131C67.2126 35.7478 67.2968 35.6027 67.3246 35.4475C67.3259 35.4359 67.3297 35.4247 67.3358 35.4148C67.3419 35.4048 67.3502 35.3964 67.36 35.3902C67.3698 35.3839 67.3809 35.3799 67.3924 35.3786C67.404 35.3772 67.4157 35.3785 67.4267 35.3823C67.4761 35.3924 67.4738 35.435 67.4769 35.4715C67.48 35.508 67.4769 35.5336 67.4808 35.5639C67.4846 35.6081 67.4885 35.6531 67.5511 35.6585C67.6137 35.664 67.6145 35.619 67.6408 35.5809C67.8015 35.3815 67.8015 35.1464 67.7729 34.9399L67.7698 34.9431Z" fill="#FBAE40"/>
<path d="M59.8785 62.0639H66.1413V51.8531H61.3401V53.6504H59.8785H58.9843V52.7517H52.393V53.6504H51.8265V50.0566H47.0252V52.7517H46.131V57.2433H45.5637V51.8531H40.0777V51.8019H30.9536V61.984H37.1198V62.2362H36.2255V67.0576H37.1198V70.6505H38.0148V71.5484H43.3826H44.6053H49.6454H50.8681H55.0131H56.2359H63.3929V64.0334H62.4986V63.1348H59.8144V62.0639H59.8785Z" fill="#FBAE40"/>
<path d="M40.4796 60.5514V58.7549H42.2689V55.162H41.3739V53.3655H44.0581V58.7549H45.8474V60.5514H40.4796Z" fill="#FBAE40"/>
<path d="M46.7423 60.5515V58.755H48.5316V56.0599H47.6366V54.2634H50.3231V58.755H52.1124V60.5515H46.7423ZM48.5316 53.3656V51.5691H50.3231V53.3656H48.5316Z" fill="#FBAE40"/>
<path d="M56.5836 60.5515V56.0599H54.7944V60.5515H53.0051V55.162H53.9001V54.2634H57.4787V55.162H58.3737V60.5515H56.5836Z" fill="#FBAE40"/>
<path d="M60.1621 60.5514V59.6527H59.2671V56.0598H60.1621V55.162H62.8441V53.3655H64.6333V60.5514H60.1621ZM62.8456 58.7549V56.9584H61.0564V58.7549H62.8456Z" fill="#FBAE40"/>
<path d="M39.5205 70.0335V69.1348H38.6262V65.5419H37.7312V63.7477H38.6262V62.8491H40.4155V63.7477H42.2078V65.5442H40.4186V68.2393H43.1021V70.0335H39.5205Z" fill="#FBAE40"/>
<path d="M44.8881 70.0335V69.1349H43.9939V64.6433H44.8881V63.7478H48.4682V64.6456H49.3624V67.3408H45.7839V68.2394H49.3624V70.0335H44.8881ZM47.5724 66.4398V65.5419H45.7831V66.4398H47.5724Z" fill="#FBAE40"/>
<path d="M51.151 70.0335V69.1349H50.2567V64.6433H51.151V63.7478H54.7287V64.6456H55.6237V66.4421H53.8345V65.5443H52.0452V68.2394H53.8345V67.3408H55.6237V69.1372H54.7287V70.0335H51.151Z" fill="#FBAE40"/>
<path d="M60.098 70.0336V66.4399H58.3087V70.0336H56.5187V62.8469H58.3087V64.6434H60.9891V65.542H61.8841V70.0336H60.098Z" fill="#FBAE40"/>
<path d="M39.5884 59.4362H38.6146V60.4714H32.4592V53.3135H38.5752V54.3052H39.5915V56.3609H38.6038V57.3844H39.5915L39.5884 59.4362ZM37.541 56.3609V54.3487H34.5066V56.3609H37.541ZM37.541 59.4362V57.3953H34.5066V59.4362H37.541Z" fill="#FBAE40"/>
<path d="M53.4783 29.7724C53.3553 29.7724 53.2373 29.7233 53.1504 29.636C53.0634 29.5487 53.0145 29.4303 53.0145 29.3068V14.6455C53.0145 14.5221 53.0634 14.4036 53.1504 14.3163C53.2373 14.229 53.3553 14.1799 53.4783 14.1799C53.6013 14.1799 53.7192 14.229 53.8062 14.3163C53.8931 14.4036 53.942 14.5221 53.942 14.6455V29.3068C53.942 29.4303 53.8931 29.5487 53.8062 29.636C53.7192 29.7233 53.6013 29.7724 53.4783 29.7724Z" fill="#FBAE40"/>
<path d="M54.6276 14.7038C54.6276 14.5521 54.5978 14.4018 54.54 14.2616C54.4822 14.1214 54.3974 13.9941 54.2906 13.8868C54.1837 13.7795 54.0568 13.6944 53.9172 13.6363C53.7776 13.5782 53.6279 13.5483 53.4768 13.5483C53.1716 13.5483 52.8788 13.6701 52.663 13.8868C52.4472 14.1035 52.3259 14.3974 52.3259 14.7038C52.3261 15.0101 52.4475 15.3038 52.6633 15.5204C52.8791 15.7369 53.1717 15.8585 53.4768 15.8585C53.7819 15.8585 54.0745 15.7369 54.2903 15.5204C54.5061 15.3038 54.6274 15.0101 54.6276 14.7038Z" fill="#FBAE40"/>
<path d="M68.8203 52.0216C68.8203 60.1232 57.8568 60.7813 53.1529 60.7813C48.4491 60.7813 38.2747 60.1232 38.2747 52.0216C38.2747 43.9201 48.4491 37.355 53.1529 37.355C57.8568 37.355 68.8203 43.9208 68.8203 52.0216Z" fill="white"/>
<path d="M53.1528 61.2467C49.3587 61.2467 46.2076 60.7858 43.7869 59.8755C41.9907 59.2004 40.577 58.2699 39.5854 57.1114C38.4075 55.7347 37.8077 54.022 37.8077 52.0223C37.8077 46.9945 41.4666 43.1431 43.647 41.2946C46.7563 38.6562 50.5752 36.8884 53.1536 36.8884C55.732 36.8884 59.7928 38.6965 63.0398 41.2853C65.3724 43.1478 69.2847 47.0131 69.2847 52.0223C69.2847 54.0259 68.6425 55.7425 67.3757 57.1238C66.3184 58.2769 64.8143 59.2035 62.9053 59.8786C60.3369 60.7866 57.056 61.2467 53.1528 61.2467ZM53.1528 37.8196C50.8179 37.8196 47.1567 39.5408 44.2491 42.0101C42.1908 43.7546 38.7383 47.3747 38.7383 52.0261C38.7383 58.8807 46.577 60.3194 53.1528 60.3194C56.9509 60.3194 60.1283 59.8771 62.5961 59.0002C66.4189 57.6484 68.3565 55.3009 68.3565 52.0223C68.3565 47.4042 64.6636 43.7701 62.4624 42.0117C59.3646 39.5447 55.5365 37.8196 53.1528 37.8196Z" fill="#FBAE40"/>
<path d="M41.3616 33.0442C41.3616 34.8484 39.7462 36.312 38.7275 36.312C37.7088 36.312 36.7257 34.8484 36.7257 33.0442C36.7257 31.24 37.7096 29.7756 38.7275 29.7756C39.7454 29.7756 41.3616 31.2415 41.3616 33.0442Z" fill="white"/>
<path d="M38.7283 36.7798C37.3912 36.7798 36.262 35.0726 36.262 33.0464C36.262 31.0203 37.3912 29.3123 38.7283 29.3123C40.0932 29.3123 41.8253 31.0707 41.8253 33.0464C41.8253 35.0222 40.0971 36.7798 38.7283 36.7798ZM38.7283 30.2435C38.0165 30.2435 37.1894 31.468 37.1894 33.0464C37.1894 34.6248 38.0165 35.8486 38.7283 35.8486C39.4517 35.8486 40.8978 34.6373 40.8978 33.0464C40.8978 31.4556 39.4517 30.2435 38.7283 30.2435Z" fill="#FBAE40"/>
<path d="M70.2308 33.0442C70.2308 34.8484 69.2469 36.312 68.2282 36.312C67.2096 36.312 65.595 34.8484 65.595 33.0442C65.595 31.24 67.2096 29.7756 68.2282 29.7756C69.2469 29.7756 70.2308 31.2415 70.2308 33.0442Z" fill="white"/>
<path d="M68.2305 36.7798C66.8656 36.7798 65.1335 35.0214 65.1335 33.0464C65.1335 31.0715 66.8656 29.3123 68.2305 29.3123C69.5677 29.3123 70.6969 31.0195 70.6969 33.0464C70.6969 35.0734 69.5653 36.7798 68.2305 36.7798ZM68.2305 30.2435C67.5071 30.2435 66.061 31.4556 66.061 33.0464C66.061 34.6373 67.5071 35.8486 68.2305 35.8486C68.954 35.8486 69.7694 34.6241 69.7694 33.0464C69.7694 31.4688 68.9401 30.2435 68.2305 30.2435Z" fill="#FBAE40"/>
<path d="M68.0706 34.1592C68.0706 42.2507 61.5373 45.2725 53.4783 45.2725C45.4193 45.2725 38.886 42.2507 38.886 34.1592C38.886 26.0677 45.4193 21.542 53.4783 21.542C61.5373 21.542 68.0706 26.0677 68.0706 34.1592Z" fill="white"/>
<path d="M53.4783 45.7381C49.0395 45.7381 45.4819 44.8628 42.9027 43.1377C39.9294 41.148 38.4199 38.1278 38.4199 34.1592C38.4199 30.1705 39.9572 26.8143 42.8664 24.4544C45.5499 22.2761 49.3185 21.0764 53.476 21.0764C57.6334 21.0764 61.402 22.2761 64.0855 24.4544C66.9947 26.8143 68.532 30.1705 68.532 34.1592C68.532 38.1278 67.0248 41.148 64.0492 43.1377C61.4747 44.8628 57.917 45.7381 53.4783 45.7381ZM53.4783 22.0076C46.4449 22.0076 39.3497 25.7651 39.3497 34.1592C39.3497 43.4233 48.2017 44.8069 53.4783 44.8069C58.7548 44.8069 67.6068 43.4233 67.6068 34.1592C67.6068 25.7651 60.5109 22.0076 53.4783 22.0076Z" fill="#FBAE40"/>
<path d="M47.3848 35.8782C48.4033 35.8782 49.2289 33.9886 49.2289 31.6575C49.2289 29.3265 48.4033 27.4368 47.3848 27.4368C46.3663 27.4368 45.5406 29.3265 45.5406 31.6575C45.5406 33.9886 46.3663 35.8782 47.3848 35.8782Z" fill="#FBAE40"/>
<path d="M59.5718 35.8782C60.5903 35.8782 61.4159 33.9886 61.4159 31.6575C61.4159 29.3265 60.5903 27.4368 59.5718 27.4368C58.5533 27.4368 57.7277 29.3265 57.7277 31.6575C57.7277 33.9886 58.5533 35.8782 59.5718 35.8782Z" fill="#FBAE40"/>
<path d="M83.6669 35.11L83.6097 35.0324C83.5052 34.8795 83.39 34.7343 83.265 34.5978C82.4921 33.776 81.4873 33.2274 80.2631 32.9682C80.1796 32.9503 80.1085 32.9387 80.0428 32.9286C79.4372 32.531 78.8637 32.086 78.3277 31.5977C78.7851 31.4546 79.2165 31.2384 79.6053 30.9575L79.6455 30.9273C79.9655 30.6852 80.3566 30.3903 80.6905 29.986C80.9187 29.7817 81.0708 29.5056 81.1218 29.203C81.2005 29.1553 81.2766 29.1035 81.3498 29.0478C81.7161 28.7715 82.2131 28.3959 82.54 27.779C82.986 27.0806 82.741 26.3822 82.2919 25.9942C81.9898 25.7332 81.6003 25.5973 81.2022 25.6139C80.8751 25.6277 80.5588 25.7354 80.2909 25.9243C80.1185 26.0423 79.8318 26.1362 79.528 26.2347L79.511 26.2401C79.3164 26.3022 79.1139 26.3361 78.9097 26.341C78.5651 26.3454 78.2211 26.3129 77.8833 26.244L77.7473 26.2184C77.2797 26.1315 76.7503 26.0337 76.1528 26.0539L76.0029 26.0617C75.2648 26.1144 74.5619 26.3986 73.9933 26.8742C73.5376 27.2597 73.1072 27.6744 72.7049 28.1158L72.6346 28.1895C72.487 28.3447 72.3393 28.4999 72.1964 28.6551C72.0089 28.5855 71.8137 28.5388 71.6151 28.5162C71.5054 28.5003 71.3944 28.4941 71.2836 28.4976C71.1009 28.5034 70.9204 28.5396 70.7495 28.6047C70.4707 28.5017 70.1745 28.4545 69.8777 28.4658C69.8127 28.4658 69.747 28.4727 69.6813 28.4805C68.8172 28.5356 68.3674 29.0757 68.2283 29.5592C68.2113 29.5793 68.1951 29.5995 68.1796 29.6212C68.0803 29.7559 68.0057 29.9073 67.9593 30.0682C67.9184 30.0488 67.8766 30.031 67.8326 30.0147C67.6215 29.9306 67.4016 29.8704 67.1772 29.8354C67.1408 29.8292 67.1068 29.823 67.0867 29.8184C67.0022 29.7997 66.9187 29.7827 66.8363 29.7671C66.7938 29.5989 66.7187 29.4407 66.6153 29.3015C66.3858 28.9971 66.0489 28.7925 65.6739 28.7296L65.6383 28.7195C65.3956 28.652 65.1444 28.5822 64.8824 28.5193C64.3924 28.4013 63.9596 28.3028 63.5577 28.2174C63.3923 28.1817 63.2362 28.1585 63.0978 28.1398C63.0043 28.1259 62.9162 28.1119 62.8412 28.0972C62.6518 28.0607 62.464 28.0195 62.2646 27.9792C61.9284 27.9094 61.5806 27.8364 61.2235 27.7743C60.9221 27.7223 60.6323 27.6882 60.3525 27.6548C60.1979 27.6362 60.0534 27.6191 59.9112 27.5997L59.6236 27.5594C59.3376 27.519 59.0416 27.4818 58.7418 27.4422C58.5099 27.415 58.2711 27.391 58.0461 27.3646L57.6597 27.3242C57.2856 27.2847 56.8868 27.2397 56.4346 27.1861C56.0737 27.1434 55.6826 27.1085 55.239 27.0814C54.9971 27.0666 54.7652 27.0612 54.5434 27.0557C54.2512 27.0495 53.9761 27.0433 53.7257 27.0154C53.4072 26.9805 53.1004 26.9735 52.8299 26.968C52.6923 26.968 52.5617 26.9618 52.4388 26.9556C51.6829 26.9176 50.8698 26.885 50.0505 26.9029C49.6177 26.913 49.1571 26.9261 48.6423 26.944C47.9877 26.9673 47.3284 26.9944 46.6853 27.0216H46.632C46.4571 27.0307 46.2831 27.0517 46.1111 27.0844C46.0701 27.0914 46.0168 27.1007 45.9882 27.1046C45.9109 27.1046 45.8251 27.1046 45.7416 27.1046C45.4541 27.1147 45.1905 27.1489 44.9579 27.1822C44.8103 27.2016 44.6704 27.2203 44.5483 27.2288H44.5398C43.8882 27.2754 43.2142 27.3242 42.5264 27.4321L42.2172 27.4771C41.8367 27.5257 41.4593 27.5954 41.0865 27.6859C40.9319 27.7262 40.7773 27.7635 40.6073 27.8054C40.21 27.9031 39.7996 28.004 39.3807 28.1344C38.7106 28.3431 38.1904 28.7467 37.9168 29.2705C37.793 29.5081 37.7217 29.7697 37.7075 30.0375C37.6934 30.3053 37.7368 30.5731 37.8349 30.8225C37.8604 30.8892 37.8874 30.9521 37.9168 31.0111C37.8197 31.1865 37.7609 31.3807 37.7445 31.5807C37.6736 31.6856 37.6155 31.7987 37.5713 31.9175C37.4739 32.1782 37.365 32.7067 37.7259 33.3143C37.7932 33.4268 37.8612 33.5215 37.9168 33.5975L37.964 33.6635C38.0057 33.724 38.0412 33.7768 38.0807 33.8241C38.0984 33.8482 38.1209 33.8777 38.1371 33.9017C38.1541 33.963 38.1734 34.0251 38.1966 34.088L38.1904 34.1019C38.1842 34.119 38.1765 34.1353 38.1688 34.1516C38.0935 34.3106 38.0367 34.4778 37.9995 34.6498C37.8813 35.2349 37.9717 35.7859 38.2615 36.2437C38.4437 36.5404 38.7018 36.7826 39.0089 36.9451C39.3159 37.1077 39.6608 37.1846 40.0075 37.168C40.2673 37.1563 40.5239 37.1058 40.7688 37.0182C40.9813 36.9406 41.1831 36.8677 41.3779 36.7932C41.689 36.6653 42.0081 36.5577 42.3331 36.4711C42.8865 36.3434 43.4483 36.256 44.0142 36.2096C44.161 36.1972 44.3164 36.1879 44.4779 36.1824C45.1333 36.1592 45.8158 36.198 46.4751 36.236C46.6235 36.2445 46.7564 36.2437 46.8739 36.243C46.9674 36.243 47.0648 36.243 47.1158 36.2476C47.2565 36.2639 47.3925 36.2771 47.5239 36.2895C47.8061 36.3088 48.0866 36.348 48.3633 36.4067C48.665 36.4763 48.9728 36.5163 49.2823 36.5262C49.3688 36.5309 49.4508 36.5355 49.5188 36.5425C49.61 36.551 49.7251 36.5712 49.8465 36.593C50.1401 36.6506 50.4378 36.6841 50.7369 36.6931C50.9282 36.762 51.1283 36.8033 51.3312 36.8157C51.4796 36.8258 51.6543 36.8529 51.8382 36.8816C52.1554 36.9374 52.4758 36.9724 52.7974 36.9864C52.9357 36.9899 53.0735 37.0026 53.2101 37.0244L53.3863 37.0547C53.7815 37.1346 54.1836 37.1751 54.5867 37.1757C54.6639 37.1757 54.7868 37.1858 54.9136 37.1982C55.089 37.2153 55.2877 37.2355 55.5126 37.2363H55.5837H55.6247C55.873 37.2979 56.1288 37.324 56.3844 37.3139H56.4524C56.9224 37.334 57.3845 37.3364 57.8259 37.3216C58.0763 37.3123 58.3259 37.2976 58.5679 37.2774C58.6366 37.2712 58.7147 37.2673 58.8129 37.2634L59.0409 37.2572C59.129 37.2572 59.2163 37.2572 59.3037 37.2502C59.6467 37.2434 59.9885 37.2052 60.3246 37.1362C60.3509 37.1362 60.4128 37.13 60.4576 37.1276C60.6798 37.1228 60.9011 37.0968 61.1184 37.05C61.2274 37.0244 61.365 37.0035 61.5095 36.9817C61.7482 36.9493 61.985 36.9045 62.219 36.8475C62.338 36.8172 62.4764 36.7901 62.6232 36.7621C62.8987 36.7125 63.1714 36.6485 63.4402 36.5704L63.5585 36.5324L63.6767 36.4959C64.0401 36.4578 64.3973 36.3744 64.7402 36.2476L64.8492 36.2119C65.6476 35.9504 66.4267 35.6493 67.0906 35.3886C67.2143 35.3397 67.3286 35.2908 67.4384 35.2435C67.5481 35.1961 67.6478 35.1542 67.739 35.1193C67.9363 35.05 68.1171 34.9405 68.27 34.7975C68.423 34.6546 68.5448 34.4815 68.6279 34.289C68.8126 34.6065 69.1043 34.8473 69.4502 34.968C69.7469 35.0781 70.0616 35.1308 70.3777 35.1232C70.7244 35.1124 71.0626 35.0128 71.3601 34.8337L71.4374 34.7879C71.5666 34.8157 71.6987 34.8274 71.8308 34.8229C71.9804 34.8166 72.1285 34.7905 72.2713 34.7453C72.3632 34.7167 72.4528 34.6814 72.5395 34.6397C72.6426 34.7432 72.7456 34.8467 72.8487 34.9501C73.0233 35.1255 73.2042 35.3071 73.3766 35.484C73.6149 35.717 73.8899 35.9089 74.1904 36.0521C74.2445 36.0808 74.3064 36.1126 74.3326 36.1297C74.6764 36.3403 75.0415 36.5138 75.4217 36.6473L75.4688 36.6659C75.7818 36.7789 76.1077 36.8522 76.4388 36.884C76.5161 36.894 76.5887 36.9026 76.6444 36.9127C76.9364 36.962 77.2328 36.98 77.5286 36.9662C77.6646 36.9616 77.7944 36.9522 77.9096 36.9445C77.9869 36.9391 78.0642 36.9336 78.1322 36.9305C78.4584 36.9142 78.7598 36.8762 79.0512 36.8397C79.2143 36.8188 79.3688 36.7994 79.5149 36.7854C79.5806 36.7792 79.6486 36.7745 79.7159 36.7722C80.1657 36.7567 80.6495 36.8242 81.2377 36.9856C81.3171 37.0048 81.3946 37.0308 81.4696 37.0632C81.7663 37.2864 82.13 37.4014 82.5006 37.3891C82.8462 37.3773 83.1785 37.2522 83.4467 37.033C84.0271 36.5363 84.1214 35.7331 83.6669 35.11Z" fill="#FBAE40"/>
<path d="M57.7269 29.9301C58.3066 30.0449 58.8816 29.944 59.4575 29.9642C59.9212 29.9813 60.3896 29.9929 60.8564 29.9689C61.0836 29.9572 61.3124 30.0069 61.5389 29.944C61.5846 29.9398 61.6308 29.9442 61.6749 29.9572C62.1023 30.0216 62.5374 30.0123 62.9664 30.0209C63.3691 30.0286 63.7718 30.0604 64.1752 30.062C64.5532 30.062 64.9303 30.1163 65.3075 30.1396C65.3547 30.1396 65.4335 30.1629 65.4459 30.1039C65.4621 30.0263 65.3686 30.0333 65.3214 30.0193C65.0548 29.9417 64.7881 29.8695 64.5184 29.8044C64.091 29.7019 63.662 29.6026 63.2315 29.511C62.9996 29.4629 62.7678 29.4381 62.5359 29.3931C62.0072 29.2891 61.4824 29.168 60.9515 29.0765C60.5341 29.0035 60.1106 28.967 59.6901 28.9096C59.3106 28.8568 58.9311 28.8002 58.5508 28.7544C58.1953 28.7125 57.8367 28.6768 57.4804 28.6419C57.0656 28.5974 56.6513 28.5506 56.2376 28.5014C55.8704 28.458 55.4979 28.4238 55.1261 28.4044C54.5975 28.3718 54.0665 28.3905 53.5386 28.3323C53.1429 28.2888 52.7394 28.3004 52.3414 28.2803C51.5824 28.2422 50.8226 28.212 50.0629 28.229C48.9329 28.2539 47.8029 28.3012 46.6737 28.3485C46.4334 28.3586 46.193 28.4393 45.9549 28.4331C45.5082 28.4215 45.0762 28.5216 44.6356 28.5534C44.0018 28.5992 43.3673 28.645 42.7389 28.7428C42.3069 28.811 41.8679 28.8584 41.4466 28.967C40.901 29.1075 40.3499 29.2278 39.812 29.3954C39.3969 29.525 38.9703 29.8416 39.1658 30.3631C39.2222 30.5121 39.2794 30.5889 39.4502 30.5617C39.7718 30.5105 40.091 30.4438 40.411 30.3902C40.7912 30.3258 41.1599 30.2118 41.5448 30.1683C41.8539 30.1326 42.1577 30.0216 42.4653 29.9828C43.1076 29.9006 43.7429 29.7803 44.3883 29.7089C45.0514 29.636 45.7138 29.5366 46.38 29.5071C47.1738 29.4714 47.9676 29.4132 48.7644 29.487C49.2119 29.5289 49.6641 29.5312 50.1131 29.5832C50.3628 29.6119 50.6225 29.5692 50.8636 29.6748C50.8984 29.6903 50.954 29.6701 50.9989 29.6608C51.0847 29.6422 51.2052 29.5832 51.2261 29.6996C51.2385 29.7671 51.1009 29.7772 51.0182 29.7881C50.9464 29.7981 50.8736 29.7981 50.8018 29.7881C50.549 29.7384 50.2924 29.7702 50.0374 29.7516C49.348 29.7027 48.6562 29.7469 47.9676 29.7881C47.5177 29.8152 47.071 29.8897 46.6235 29.951C46.2293 30.0053 45.8375 30.0961 45.4417 30.1225C44.9548 30.1551 44.4872 30.2777 44.0134 30.36C43.4167 30.4678 42.8294 30.623 42.2304 30.7162C41.7597 30.7938 41.2882 30.8543 40.8391 31.0041C40.6405 31.07 40.4442 31.07 40.2455 31.0972C40.1102 31.1219 39.9733 31.1377 39.8359 31.1445C39.7072 31.1429 39.5808 31.1781 39.4713 31.246C39.3618 31.3139 39.2738 31.4116 39.2176 31.5279C39.1867 31.5837 39.1156 31.6458 39.1643 31.7126C39.213 31.7793 39.3088 31.7506 39.3845 31.7397C39.5724 31.7133 39.7586 31.6815 39.9464 31.6567C40.0183 31.6474 40.101 31.6451 40.118 31.7343C40.135 31.8235 40.0407 31.8406 39.9758 31.8577C39.7401 31.9084 39.5078 31.9737 39.2802 32.0532C38.9022 32.1991 38.7933 32.3753 38.9517 32.6415C39.0074 32.7338 39.0792 32.8254 39.1411 32.9146C39.2671 33.0962 39.424 33.263 39.4835 33.4881C39.5778 33.8451 39.628 33.8614 40.0245 33.769C40.0369 33.769 40.0508 33.769 40.0632 33.769C40.5369 33.634 41.0277 33.5983 41.5131 33.5277C42.1585 33.4338 42.8054 33.3577 43.4569 33.3189C43.9037 33.2925 44.3514 33.2768 44.8002 33.2716C45.3954 33.2654 45.9859 33.1847 46.5872 33.3073C47.1135 33.4151 47.6576 33.4547 48.1871 33.5626C48.469 33.6082 48.7472 33.6746 49.0195 33.7612C48.7211 33.8738 48.4584 33.7612 48.2018 33.7325C47.4111 33.6433 46.6188 33.665 45.8266 33.6472C44.8837 33.6254 43.957 33.8101 43.0195 33.8575C42.6396 33.8731 42.2612 33.913 41.8864 33.977C41.2681 34.0887 40.6436 34.1322 40.04 34.2975C39.8475 34.3495 39.6033 34.3184 39.509 34.5543C39.4576 34.6595 39.4157 34.7691 39.3838 34.8818C39.3267 35.1061 39.3583 35.3439 39.4719 35.5453C39.6628 35.8472 39.9062 35.8767 40.2695 35.7509C40.8384 35.5554 41.3833 35.3032 41.9792 35.1627C42.6034 35.0182 43.2373 34.9194 43.8758 34.8671C44.7678 34.7895 45.6612 34.8391 46.5516 34.8896C46.7943 34.9035 47.0362 34.881 47.2781 34.909C47.7604 34.9641 48.2474 34.9866 48.7188 35.103C49.028 35.1806 49.3464 35.1705 49.6579 35.2008C50.1131 35.2458 50.5606 35.3963 51.0282 35.3257C51.0607 35.326 51.0918 35.3385 51.1156 35.3606C51.2037 35.4306 51.3124 35.4694 51.4247 35.4708C51.8978 35.5026 52.3522 35.626 52.8337 35.6384C53.0409 35.6436 53.2475 35.6628 53.452 35.6959C53.8176 35.7564 54.1786 35.834 54.5534 35.827C54.8742 35.8208 55.1903 35.886 55.5126 35.8875C55.6339 35.8875 55.763 35.82 55.8751 35.8813C56.0768 35.9931 56.3087 35.955 56.5135 35.9644C57.154 35.9942 57.7958 35.9834 58.4349 35.9318C58.9582 35.8875 59.4891 35.9318 60.0047 35.8177C60.2574 35.7618 60.5163 35.7944 60.766 35.7354C61.1207 35.6524 61.4863 35.6291 61.8418 35.5391C62.2213 35.4429 62.6147 35.3971 62.9927 35.2815C63.1639 35.2171 63.3417 35.1723 63.5229 35.148C63.8243 35.127 64.101 35.0207 64.3731 34.9315C65.1042 34.6917 65.823 34.417 66.5372 34.1368C66.7598 34.0491 66.9777 33.9467 67.2027 33.8614C67.256 33.8412 67.3062 33.8148 67.2846 33.755C67.2629 33.6953 67.1957 33.7085 67.1509 33.7302C67.062 33.7729 66.963 33.755 66.8688 33.8024C66.6152 33.9304 66.3277 33.9762 66.0503 34.0352C65.7226 34.1058 65.3964 34.1904 65.064 34.2509C64.7317 34.3114 64.4156 34.3929 64.091 34.4379C63.7872 34.4791 63.4726 34.5101 63.1789 34.5706C62.3419 34.7421 61.4902 34.7794 60.6446 34.8616C60.1569 34.909 59.6638 34.9028 59.1761 34.9175C59.1166 34.9175 59.0215 34.9571 59.0061 34.8748C58.9906 34.7926 59.0896 34.767 59.1529 34.7584C59.418 34.722 59.6831 34.6808 59.9475 34.6475C60.3482 34.604 60.7447 34.5277 61.1331 34.4193C61.2482 34.3859 61.3333 34.2827 61.4539 34.2936C61.7665 34.3224 62.0815 34.2772 62.3736 34.1617C62.4232 34.1442 62.4756 34.1361 62.5282 34.1376C62.8319 34.1376 63.1156 34.0313 63.4108 33.9824C63.7347 33.9312 64.0346 33.7876 64.3538 33.7054C64.5709 33.6495 64.7897 33.5897 65.0107 33.5362C65.3307 33.4586 65.6398 33.3337 65.9637 33.277C66.3764 33.1957 66.7831 33.0862 67.181 32.9495C67.5999 32.8161 68.0111 32.6585 68.4269 32.5126C68.4741 32.4963 68.5112 32.4762 68.5119 32.425C68.5119 32.3869 68.4841 32.3683 68.4486 32.3691C68.2631 32.3761 68.0884 32.3148 67.9037 32.3047C67.5621 32.2868 67.2483 32.4288 66.912 32.4226C66.7575 32.4226 66.6029 32.4056 66.4684 32.5297C66.4012 32.571 66.3229 32.5902 66.2443 32.5848C66.116 32.5895 65.9877 32.5282 65.973 32.4164C65.9583 32.3047 66.099 32.345 66.1762 32.3334C66.2535 32.3217 66.3123 32.293 66.3192 32.2271C66.3277 32.1495 66.2419 32.1378 66.1817 32.1215C66.1363 32.1127 66.0899 32.1109 66.0441 32.1161C65.2712 32.1603 64.4937 32.1704 63.7177 32.2216C62.8095 32.2814 61.9014 32.3419 60.9924 32.3955C60.3107 32.4358 59.6275 32.4684 58.9412 32.4459C58.2672 32.4242 57.6056 32.3272 56.9393 32.2573C56.7964 32.2418 56.641 32.2573 56.5135 32.2069C56.127 32.0556 55.7012 32.0276 55.3101 31.8918C55.147 31.8352 54.9646 31.801 54.8332 31.6311C54.8702 31.6272 54.9074 31.6259 54.9445 31.6272C55.2753 31.6846 55.6046 31.7716 55.9384 31.7956C56.4091 31.8282 56.8659 31.926 57.3382 31.9663C57.8333 31.9959 58.3297 31.9995 58.8252 31.9772C59.4435 31.9648 60.0533 31.8794 60.667 31.8313C61.0728 31.7995 61.4693 31.7265 61.8697 31.6761C62.447 31.5985 63.0182 31.4829 63.6025 31.4573C63.7143 31.4564 63.826 31.4496 63.9372 31.4371C64.4929 31.3548 65.0532 31.3595 65.6113 31.3595C66.1523 31.3595 66.6995 31.3703 67.2444 31.3665C67.2884 31.3665 67.3487 31.3758 67.3603 31.3207C67.3735 31.2539 67.3039 31.2431 67.2598 31.226C67.0991 31.1554 66.9198 31.1399 66.7513 31.1026C66.2435 30.9924 65.7249 30.928 65.2155 30.8233C64.8144 30.7457 64.4086 30.6906 64.0036 30.6331C63.5708 30.5726 63.1349 30.5268 62.6998 30.4779C62.1811 30.4228 61.661 30.3794 61.1431 30.3173C60.9267 30.2909 60.7072 30.3305 60.497 30.2832C60.2677 30.2343 60.0353 30.2019 59.8014 30.1862C59.1607 30.1349 58.5184 30.1023 57.8769 30.062C57.8396 30.0643 57.8029 30.0518 57.7748 30.0271C57.7467 30.0023 57.7295 29.9675 57.7269 29.9301ZM74.161 32.2426C74.0838 32.2628 74.0111 32.2309 73.9987 32.2977C73.9895 32.3458 74.0544 32.3582 74.0915 32.3807C74.1378 32.415 74.1878 32.4439 74.2407 32.4669C74.6078 32.5833 74.859 32.8502 75.1287 33.0877C75.5863 33.4904 75.9789 33.9591 76.547 34.2416C76.9188 34.4255 77.2488 34.6894 77.6893 34.7328C77.7295 34.7328 77.7666 34.7545 77.7612 34.8019C77.7558 34.8492 77.7125 34.836 77.6839 34.8399C77.4976 34.8601 77.3222 34.7887 77.1382 34.7848C76.7101 34.7755 76.319 34.6218 75.965 34.4317C75.5244 34.1989 75.1565 33.8497 74.7438 33.5704C74.3574 33.3096 73.9763 33.0271 73.4971 32.9084C73.4621 32.8945 73.4235 32.8926 73.3873 32.903C73.3511 32.9133 73.3193 32.9354 73.297 32.9658C73.1462 33.1397 73.1354 33.2654 73.2908 33.4252C73.6648 33.8132 74.0497 34.1873 74.4246 34.5714C74.6248 34.7771 74.9015 34.8671 75.1372 35.0184C75.4141 35.1825 75.707 35.3177 76.0114 35.4219C76.3027 35.5344 76.6088 35.5383 76.9087 35.5911C77.3006 35.6601 77.6816 35.6066 78.0603 35.5911C78.5001 35.5694 78.9368 35.4925 79.3742 35.4514C80.1471 35.3738 80.8999 35.4956 81.638 35.6982C81.8905 35.7547 82.1303 35.8578 82.3453 36.0024C82.3947 36.0396 82.4511 36.0699 82.4998 36.0264C82.5485 35.983 82.5222 35.9209 82.4882 35.8751C82.3975 35.7399 82.2986 35.6103 82.1922 35.4871C81.5886 34.8446 80.8265 34.4635 79.9392 34.2742C79.7475 34.2338 79.5373 34.2338 79.3626 34.119C78.6409 33.6572 77.9598 33.1343 77.3268 32.5561C76.768 32.0439 76.0601 31.8779 75.3042 31.8429C75.2508 31.8429 75.1697 31.8212 75.1581 31.8988C75.1465 31.9764 75.2199 31.9764 75.2763 31.9943C75.5221 32.0897 75.7779 32.179 75.9719 32.3528C76.1458 32.508 76.2857 32.6958 76.5176 32.7889C76.5848 32.8161 76.6405 32.8851 76.5872 32.9557C76.5338 33.0264 76.4697 32.9783 76.414 32.9418C76.2223 32.8217 76.014 32.7306 75.7957 32.6717C75.5329 32.5941 75.2794 32.4793 75.012 32.4234C74.7229 32.359 74.4261 32.3031 74.161 32.2426ZM76.4024 29.8369C76.6853 29.8112 76.97 29.8127 77.2526 29.8416C77.3299 29.8532 77.4003 29.8843 77.4072 29.9611C77.4142 30.0379 77.3299 30.0589 77.2665 30.062C77.1344 30.069 77.013 30.1272 76.8801 30.1155C76.6321 30.1054 76.3845 30.1428 76.1505 30.2257C75.9619 30.3126 75.7416 30.3119 75.5638 30.4267C75.4763 30.4813 75.3852 30.5298 75.291 30.5718C75.2385 30.5967 75.1364 30.5672 75.155 30.6649C75.1735 30.7627 75.2725 30.7348 75.3312 30.7239C75.6272 30.6681 75.9341 30.7371 76.2247 30.6549C76.3785 30.6062 76.5376 30.5757 76.6985 30.5641C76.9435 30.5532 77.1846 30.5641 77.432 30.4787C77.881 30.3282 78.3401 30.2024 78.7165 29.9176C79.0473 29.667 79.3851 29.4179 79.6347 29.0858C79.6641 29.0462 79.7622 29.0221 79.688 28.96C79.675 28.9502 79.66 28.9431 79.644 28.9394C79.6281 28.9357 79.6115 28.9353 79.5954 28.9384C79.5794 28.9415 79.5641 28.9479 79.5506 28.9572C79.5372 28.9666 79.5258 28.9786 79.5172 28.9926C79.5012 29.0209 79.4789 29.0451 79.4521 29.0634C79.4253 29.0817 79.3947 29.0936 79.3626 29.0982C79.0094 29.1323 78.6817 29.272 78.3324 29.3217C78.2489 29.3341 78.1515 29.4854 78.0866 29.3419C78.0217 29.1983 78.211 29.2084 78.2845 29.1766C78.885 28.9166 79.4268 28.5612 80.0003 28.2578C80.1598 28.1873 80.3136 28.1042 80.4602 28.0094C80.7825 27.7658 81.1032 27.519 81.2848 27.1558C81.315 27.0945 81.3892 27.0386 81.3204 26.9789C81.2516 26.9191 81.1875 26.9603 81.1233 27.0037C80.7755 27.242 80.3713 27.3723 79.9725 27.5019C79.1926 27.7572 78.3942 27.7006 77.6035 27.5555C77.1058 27.4647 76.6142 27.3591 76.0995 27.3948C75.6648 27.427 75.2517 27.5975 74.92 27.8814C74.4741 28.2453 74.0845 28.6621 73.6911 29.0749C73.4592 29.3232 73.222 29.5739 72.9878 29.823C72.9637 29.8438 72.948 29.8726 72.9436 29.9042C72.9392 29.9357 72.9464 29.9678 72.9638 29.9945C73.0087 30.0542 73.0836 30.0348 73.1416 30.0007C73.3676 29.8798 73.5874 29.7474 73.8001 29.6041C74.253 29.2743 74.7021 28.943 75.206 28.6822C75.8328 28.3586 76.5091 28.2849 77.2055 28.2942C77.6847 28.3012 78.1646 28.3571 78.6392 28.243C78.7219 28.2182 78.81 28.2182 78.8927 28.243C78.9399 28.2593 79.0025 28.2694 79.004 28.3323C79.0056 28.3951 78.9484 28.3905 78.9105 28.4099C78.6856 28.5371 78.412 28.5651 78.1809 28.5798C77.8478 28.6046 77.5031 28.6046 77.1653 28.6217C76.9244 28.637 76.6884 28.6976 76.4697 28.8002C76.0539 28.9903 75.6411 29.1835 75.2385 29.4016C74.7021 29.6911 74.1866 29.9929 73.7777 30.4345C73.7421 30.4741 73.6594 30.5121 73.7004 30.5679C73.7414 30.6238 73.8194 30.5928 73.8797 30.5586C74.0755 30.4594 74.2774 30.3729 74.4841 30.2994C74.6939 30.2201 74.909 30.156 75.1279 30.1078C75.3576 30.053 75.5825 29.9796 75.8004 29.8882C76.0152 29.7997 76.2486 29.8525 76.4055 29.8338L76.4024 29.8369ZM72.7698 31.9431C72.7776 31.3696 72.6361 30.869 72.3007 30.4345C72.0827 30.1512 71.837 29.8835 71.4242 29.8369C71.3469 29.8284 71.2758 29.8075 71.2256 29.875C71.1753 29.9425 71.2256 29.9976 71.2658 30.0418C71.4034 30.197 71.4667 30.384 71.5548 30.5602C71.6055 30.6729 71.6439 30.7907 71.6692 30.9117C71.6808 30.9591 71.6847 31.0584 71.6027 31.0289C71.4845 30.987 71.3176 30.9831 71.2627 30.8652C71.0973 30.5105 70.7796 30.2886 70.5014 30.0294C70.4143 29.9409 70.3077 29.8743 70.1902 29.835C70.0727 29.7956 69.9476 29.7846 69.8251 29.8028C69.7362 29.8152 69.6149 29.7958 69.5932 29.8982C69.5739 29.9867 69.6705 30.0449 69.7478 30.0915C69.7977 30.1206 69.8493 30.1465 69.9024 30.1691C69.9893 30.2078 70.0666 30.2653 70.1288 30.3375C70.3785 30.5959 70.5362 30.9047 70.7031 31.2097C70.7348 31.2679 70.7804 31.3564 70.6931 31.3874C70.6057 31.4185 70.5385 31.3339 70.5052 31.2625C70.4581 31.1415 70.3845 31.0328 70.2897 30.9444C70.195 30.856 70.0816 30.7902 69.958 30.7519C69.9233 30.741 69.8738 30.7115 69.8699 30.6851C69.8413 30.4966 69.6844 30.4523 69.5299 30.3926C69.4649 30.3677 69.3923 30.2979 69.3397 30.3693C69.2872 30.4407 69.3861 30.4849 69.434 30.5245C69.577 30.6564 69.7432 30.7658 69.8707 30.9125C70.1412 31.2322 70.1621 31.6233 70.2007 31.9989C70.2585 32.5007 70.1534 33.0078 69.9008 33.4446C69.8406 33.5486 69.839 33.6549 69.9549 33.6968C70.159 33.7744 70.3916 33.8086 70.5833 33.6922C70.8372 33.5432 71.0327 33.3115 71.1375 33.0357C71.2604 32.6849 71.3979 32.3303 71.3964 31.9493C71.4037 31.8628 71.4268 31.7783 71.4644 31.7002C71.4745 31.669 71.4936 31.6416 71.5194 31.6215C71.5452 31.6014 71.5764 31.5896 71.6089 31.5876C71.6924 31.5822 71.7202 31.6489 71.7512 31.6978C71.7727 31.742 71.783 31.7907 71.7813 31.8398C71.8083 32.3442 71.8323 32.8487 71.7272 33.35C71.7141 33.4128 71.7063 33.4912 71.8176 33.4563C71.9313 33.4179 72.0304 33.345 72.1011 33.2477C72.1719 33.1504 72.2108 33.0335 72.2126 32.9131C72.2126 32.7478 72.2968 32.6027 72.3246 32.4475C72.3259 32.4359 72.3297 32.4247 72.3358 32.4148C72.3419 32.4048 72.3502 32.3964 72.36 32.3902C72.3698 32.3839 72.3809 32.3799 72.3924 32.3786C72.404 32.3772 72.4157 32.3785 72.4267 32.3823C72.4761 32.3924 72.4738 32.435 72.4769 32.4715C72.48 32.508 72.4769 32.5336 72.4808 32.5639C72.4846 32.6081 72.4885 32.6531 72.5511 32.6585C72.6137 32.664 72.6145 32.619 72.6408 32.5809C72.8015 32.3815 72.8015 32.1464 72.7729 31.9399L72.7698 31.9431Z" fill="white"/>
<path d="M64.8785 59.0639H71.1413V48.8531H66.3401V50.6504H64.8785H63.9843V49.7517H57.393V50.6504H56.8265V47.0566H52.0252V49.7517H51.131V54.2433H50.5637V48.8531H45.0777V48.8019H35.9536V58.984H42.1198V59.2362H41.2255V64.0576H42.1198V67.6505H43.0148V68.5484H48.3826H49.6053H54.6454H55.8681H60.0131H61.2359H68.3929V61.0334H67.4986V60.1348H64.8144V59.0639H64.8785Z" fill="#FBAE40"/>
<path d="M45.4796 57.5514V55.7549H47.2689V52.162H46.3739V50.3655H49.0581V55.7549H50.8474V57.5514H45.4796Z" fill="white"/>
<path d="M51.7423 57.5515V55.755H53.5316V53.0599H52.6366V51.2634H55.3231V55.755H57.1124V57.5515H51.7423ZM53.5316 50.3656V48.5691H55.3231V50.3656H53.5316Z" fill="white"/>
<path d="M61.5836 57.5515V53.0599H59.7944V57.5515H58.0051V52.162H58.9001V51.2634H62.4787V52.162H63.3737V57.5515H61.5836Z" fill="white"/>
<path d="M65.1621 57.5514V56.6527H64.2671V53.0598H65.1621V52.162H67.8441V50.3655H69.6333V57.5514H65.1621ZM67.8456 55.7549V53.9584H66.0564V55.7549H67.8456Z" fill="white"/>
<path d="M44.5205 67.0335V66.1348H43.6262V62.5419H42.7312V60.7477H43.6262V59.8491H45.4155V60.7477H47.2078V62.5442H45.4186V65.2393H48.1021V67.0335H44.5205Z" fill="white"/>
<path d="M49.8881 67.0335V66.1349H48.9939V61.6433H49.8881V60.7478H53.4682V61.6456H54.3624V64.3408H50.7839V65.2394H54.3624V67.0335H49.8881ZM52.5724 63.4398V62.5419H50.7831V63.4398H52.5724Z" fill="white"/>
<path d="M56.151 67.0335V66.1349H55.2567V61.6433H56.151V60.7478H59.7287V61.6456H60.6237V63.4421H58.8345V62.5443H57.0452V65.2394H58.8345V64.3408H60.6237V66.1372H59.7287V67.0335H56.151Z" fill="white"/>
<path d="M65.098 67.0336V63.4399H63.3087V67.0336H61.5187V59.8469H63.3087V61.6434H65.9891V62.542H66.8841V67.0336H65.098Z" fill="white"/>
<path d="M44.5884 56.4362H43.6146V57.4714H37.4592V50.3135H43.5752V51.3052H44.5915V53.3609H43.6038V54.3844H44.5915L44.5884 56.4362ZM42.541 53.3609V51.3487H39.5066V53.3609H42.541ZM42.541 56.4362V54.3953H39.5066V56.4362H42.541Z" fill="white"/>
<defs>
<filter id="filter0_d_397_5727" x="1.66893e-05" y="0" width="101.027" height="109.261" filterUnits="userSpaceOnUse" color-interpolation-filters="sRGB">
<feFlood flood-opacity="0" result="BackgroundImageFix"/>
<feColorMatrix in="SourceAlpha" type="matrix" values="0 0 0 0 0 0 0 0 0 0 0 0 0 0 0 0 0 0 127 0" result="hardAlpha"/>
<feOffset dx="-4.9193" dy="8.43309"/>
<feGaussianBlur stdDeviation="1.40551"/>
<feComposite in2="hardAlpha" operator="out"/>
<feColorMatrix type="matrix" values="0 0 0 0 0.25673 0 0 0 0 0.164842 0 0 0 0 0.0335725 0 0 0 0.1 0"/>
<feBlend mode="normal" in2="BackgroundImageFix" result="effect1_dropShadow_397_5727"/>
<feBlend mode="normal" in="SourceGraphic" in2="effect1_dropShadow_397_5727" result="shape"/>
</filter>
</defs>
</svg>
