<svg xmlns="http://www.w3.org/2000/svg" viewBox="0 0 185.04 206.65"><defs><style>.cls-1{fill:#243974;}.cls-2{fill:#fffcf8;}.cls-3{fill:#f15a26;}.cls-4{fill:#f37b59;}</style></defs><g id="Layer_2" data-name="Layer 2"><g id="Layer_1-2" data-name="Layer 1"><polygon class="cls-1" points="140.78 0.33 147.37 23.77 133.13 91.91 113 0.33 140.78 0.33"/><polygon class="cls-2" points="136.62 0.33 144.26 59.09 145.33 55.95 138.53 0.33 136.62 0.33"/><path class="cls-3" d="M121.83,101.8V88.15a3.3,3.3,0,0,1,3.3-3.3h37.2a3.29,3.29,0,0,1,3.29,3.3v14.12h-7.53V95.21a3.3,3.3,0,0,0-3.3-3.3H133.13a3.29,3.29,0,0,0-3.29,3.3v4.71Z"/><polygon class="cls-2" points="134.91 86.67 135.89 83.78 118.44 0.33 116.52 0.33 134.91 86.67"/><circle class="cls-3" cx="143.49" cy="133.35" r="38.61" transform="translate(-40.11 65.06) rotate(-22.5)"/><path class="cls-4" d="M104.88,133.35a39.22,39.22,0,0,0,.49,6.17A38.61,38.61,0,0,0,163,105.89a38.05,38.05,0,0,0-.5-6.17,38.62,38.62,0,0,0-57.59,33.63Z"/><polygon class="cls-1" points="133.13 91.91 157.15 91.91 185.04 0 154.91 0 133.13 91.91"/><path class="cls-2" d="M143.49,161.33a28,28,0,1,1,28-28A28,28,0,0,1,143.49,161.33Zm0-55a27,27,0,1,0,27,27A27.07,27.07,0,0,0,143.49,106.31Z"/><path class="cls-2" d="M113.59,117.81s-3.06-6.36,3.53-9.42C117.12,108.39,117.59,115,113.59,117.81Z"/><path class="cls-2" d="M113.83,120.4s-.47-4.71,7.06-5.89C120.89,114.51,119.71,119,113.83,120.4Z"/><path class="cls-2" d="M119.07,110.93s-1.67-6.85,5.42-8.48C124.49,102.45,123.58,109,119.07,110.93Z"/><path class="cls-2" d="M118.77,113.51s.51-4.7,8.13-4.29C126.9,109.22,124.82,113.35,118.77,113.51Z"/><path class="cls-2" d="M125.47,105.43s-.34-7.05,6.92-7.3C132.39,98.13,130.26,104.38,125.47,105.43Z"/><path class="cls-2" d="M124.68,107.91s1.4-4.53,8.8-2.68C133.48,105.23,130.65,108.9,124.68,107.91Z"/><path class="cls-2" d="M132.65,101.22s1.76-6.83,8.77-4.91C141.42,96.31,137.53,101.65,132.65,101.22Z"/><path class="cls-2" d="M131.16,103.36s2.68-3.91,9.19,0C140.35,103.41,136.57,106.07,131.16,103.36Z"/><path class="cls-2" d="M141,99.54s3.75-6,9.85-2C150.81,97.51,145.49,101.42,141,99.54Z"/><path class="cls-2" d="M138.9,101.12s3.73-2.91,8.74,2.84C147.64,104,143.23,105.35,138.9,101.12Z"/><path class="cls-2" d="M149.68,100.23s5.3-4.67,10,.86C159.71,101.09,153.49,103.32,149.68,100.23Z"/><path class="cls-2" d="M147.25,101.15s4.41-1.72,7.58,5.21C154.83,106.36,150.2,106.44,147.25,101.15Z"/><path class="cls-2" d="M157.79,103.65s6.15-3.46,9.62,2.92C167.41,106.57,160.86,107.46,157.79,103.65Z"/><path class="cls-2" d="M155.22,104.05s4.67-.77,6.32,6.67C161.54,110.72,157,109.83,155.22,104.05Z"/><path class="cls-2" d="M164.81,108.32s6.7-2.23,8.9,4.7C173.71,113,167.11,112.65,164.81,108.32Z"/><path class="cls-2" d="M162.21,108.23s4.74.13,4.95,7.75C167.16,116,162.87,114.25,162.21,108.23Z"/><path class="cls-2" d="M170.8,114.1s7-.15,7.1,7.12C177.9,121.22,171.71,118.92,170.8,114.1Z"/><path class="cls-2" d="M168.34,113.24s4.48,1.53,2.43,8.87C170.77,122.11,167.19,119.18,168.34,113.24Z"/><path class="cls-2" d="M174.67,121.65s6.76,2,4.61,8.94C179.28,130.59,174.08,126.52,174.67,121.65Z"/><path class="cls-2" d="M172.59,120.09s3.81,2.81-.38,9.19C172.21,129.28,169.69,125.4,172.59,120.09Z"/><path class="cls-2" d="M177,129.73s6,3.73,2,9.85C179,139.58,175.09,134.26,177,129.73Z"/><path class="cls-2" d="M175.38,127.67s2.91,3.72-2.82,8.75C172.56,136.42,171.16,132,175.38,127.67Z"/><path class="cls-2" d="M176,138.48s5.08,4.89,0,10.05C176,148.53,173.24,142.52,176,138.48Z"/><path class="cls-2" d="M174.89,136.13s2.07,4.25-4.58,8C170.31,144.1,169.86,139.5,174.89,136.13Z"/><path class="cls-2" d="M173.55,146.55s4.06,5.77-2,9.86C171.6,156.41,170.06,150,173.55,146.55Z"/><path class="cls-2" d="M172.89,144s1.23,4.57-6,7C166.88,151,167.31,146.39,172.89,144Z"/><path class="cls-2" d="M169.73,153.94s2.16,6.71-4.78,8.85C165,162.79,165.38,156.19,169.73,153.94Z"/><path class="cls-2" d="M169.85,151.34s-.18,4.73-7.8,4.87C162.05,156.21,163.83,151.94,169.85,151.34Z"/><path class="cls-2" d="M163.61,159.81s0,7.06-7.24,7C156.37,166.8,158.78,160.64,163.61,159.81Z"/><path class="cls-2" d="M164.51,157.37s-1.6,4.45-8.91,2.28C155.6,159.65,158.58,156.12,164.51,157.37Z"/><path class="cls-2" d="M157.46,164.39s-1.59,6.87-8.65,5.14C148.81,169.53,152.57,164.09,157.46,164.39Z"/><path class="cls-2" d="M158.89,162.22s-2.57,4-9.19.18C149.7,162.4,153.42,159.64,158.89,162.22Z"/><path class="cls-2" d="M148.88,166.33s-3,6.4-9.53,3.23C139.35,169.56,144.16,165,148.88,166.33Z"/><path class="cls-2" d="M150.73,164.51s-3.34,3.35-9-1.74C141.7,162.77,145.91,160.85,150.73,164.51Z"/><path class="cls-2" d="M140.45,166.63s-4.14,5.71-10,1.37C130.48,168,136.06,164.45,140.45,166.63Z"/><path class="cls-2" d="M142.61,165.19s-3.92,2.65-8.53-3.42C134.08,161.77,138.57,160.68,142.61,165.19Z"/><path class="cls-2" d="M132.22,165.42s-5.65,4.23-9.93-1.65C122.29,163.77,128.67,162,132.22,165.42Z"/><path class="cls-2" d="M134.71,164.69s-4.53,1.37-7.14-5.8C127.57,158.89,132.19,159.19,134.71,164.69Z"/><path class="cls-2" d="M124.67,161.54s-6.66,2.32-9-4.58C115.71,157,122.32,157.24,124.67,161.54Z"/><path class="cls-2" d="M127.27,161.6s-4.73-.07-5-7.69C122.22,153.91,126.53,155.59,127.27,161.6Z"/><path class="cls-2" d="M118.72,156.76s-7,.65-7.6-6.59C111.12,150.17,117.47,152,118.72,156.76Z"/><path class="cls-2" d="M121.23,157.44s-4.58-1.2-3.06-8.67C118.17,148.77,122,151.43,121.23,157.44Z"/><path class="cls-2" d="M114.18,149.22s-7-.82-6.06-8C108.12,141.19,113.94,144.33,114.18,149.22Z"/><path class="cls-2" d="M116.5,150.41s-4.23-2.13-1.19-9.12C115.31,141.29,118.46,144.68,116.5,150.41Z"/><path class="cls-2" d="M111.25,141.31s-6.72-2.13-4.43-9C106.82,132.28,111.94,136.46,111.25,141.31Z"/><path class="cls-2" d="M113.3,142.91s-3.75-2.88.56-9.17C113.86,133.74,116.31,137.66,113.3,142.91Z"/><path class="cls-2" d="M109.81,133.12s-5.79-4-1.55-9.94C108.26,123.18,111.91,128.69,109.81,133.12Z"/><path class="cls-2" d="M111.29,135.25s-2.72-3.86,3.26-8.59C114.55,126.66,115.72,131.13,111.29,135.25Z"/><path class="cls-2" d="M111.13,124.73s-4.3-5.59,1.53-9.94C112.66,114.79,114.47,121.15,111.13,124.73Z"/><path class="cls-2" d="M111.89,127.22s-1.43-4.51,5.71-7.21C117.6,120,117.36,124.63,111.89,127.22Z"/><polygon class="cls-2" points="135.78 91.91 137.71 91.91 161.26 0 159.33 0 135.78 91.91"/><polygon class="cls-2" points="152.38 91.91 154.33 91.91 181.73 0 179.78 0 152.38 91.91"/><polygon class="cls-1" points="35.9 0.33 42.49 23.77 28.25 91.91 8.12 0.33 35.9 0.33"/><polygon class="cls-2" points="31.74 0.33 39.38 59.09 40.45 55.95 33.65 0.33 31.74 0.33"/><path class="cls-3" d="M17,101.8V88.15a3.3,3.3,0,0,1,3.3-3.3h37.2a3.29,3.29,0,0,1,3.29,3.3v14.12H53.21V95.21a3.3,3.3,0,0,0-3.3-3.3H28.25A3.29,3.29,0,0,0,25,95.21v4.71Z"/><polygon class="cls-2" points="30.03 86.67 31.01 83.78 13.56 0.33 11.64 0.33 30.03 86.67"/><circle class="cls-3" cx="38.61" cy="133.35" r="38.61" transform="translate(-48.09 24.93) rotate(-22.5)"/><path class="cls-4" d="M0,133.35a39.22,39.22,0,0,0,.49,6.17,38.61,38.61,0,0,0,57.6-33.63,38.05,38.05,0,0,0-.5-6.17A38.62,38.62,0,0,0,0,133.35Z"/><polygon class="cls-1" points="28.25 91.91 52.27 91.91 80.17 0 50.03 0 28.25 91.91"/><path class="cls-2" d="M38.61,161.33a28,28,0,1,1,28-28A28,28,0,0,1,38.61,161.33Zm0-55a27,27,0,1,0,27,27A27.07,27.07,0,0,0,38.61,106.31Z"/><path class="cls-2" d="M8.71,117.81s-3.06-6.36,3.53-9.42C12.24,108.39,12.71,115,8.71,117.81Z"/><path class="cls-2" d="M9,120.4s-.47-4.71,7.06-5.89C16,114.51,14.83,119,9,120.4Z"/><path class="cls-2" d="M14.19,110.93s-1.67-6.85,5.42-8.48C19.61,102.45,18.7,109,14.19,110.93Z"/><path class="cls-2" d="M13.89,113.51s.51-4.7,8.13-4.29C22,109.22,19.94,113.35,13.89,113.51Z"/><path class="cls-2" d="M20.59,105.43s-.34-7.05,6.92-7.3C27.51,98.13,25.38,104.38,20.59,105.43Z"/><path class="cls-2" d="M19.8,107.91s1.4-4.53,8.8-2.68C28.6,105.23,25.77,108.9,19.8,107.91Z"/><path class="cls-2" d="M27.77,101.22s1.76-6.83,8.77-4.91C36.54,96.31,32.65,101.65,27.77,101.22Z"/><path class="cls-2" d="M26.28,103.36s2.68-3.91,9.19,0C35.47,103.41,31.69,106.07,26.28,103.36Z"/><path class="cls-2" d="M36.08,99.54s3.75-6,9.86-2C45.94,97.51,40.61,101.42,36.08,99.54Z"/><path class="cls-2" d="M34,101.12s3.73-2.91,8.74,2.84C42.76,104,38.35,105.35,34,101.12Z"/><path class="cls-2" d="M44.81,100.23s5.29-4.67,10,.86C54.83,101.09,48.61,103.32,44.81,100.23Z"/><path class="cls-2" d="M42.37,101.15s4.41-1.72,7.58,5.21C50,106.36,45.32,106.44,42.37,101.15Z"/><path class="cls-2" d="M52.91,103.65s6.15-3.46,9.62,2.92C62.53,106.57,56,107.46,52.91,103.65Z"/><path class="cls-2" d="M50.34,104.05s4.67-.77,6.33,6.67C56.67,110.72,52.13,109.83,50.34,104.05Z"/><path class="cls-2" d="M59.93,108.32s6.7-2.23,8.9,4.7C68.83,113,62.23,112.65,59.93,108.32Z"/><path class="cls-2" d="M57.34,108.23s4.73.13,4.94,7.75C62.28,116,58,114.25,57.34,108.23Z"/><path class="cls-2" d="M65.92,114.1s7-.15,7.1,7.12C73,121.22,66.83,118.92,65.92,114.1Z"/><path class="cls-2" d="M63.46,113.24s4.48,1.53,2.43,8.87C65.89,122.11,62.31,119.18,63.46,113.24Z"/><path class="cls-2" d="M69.79,121.65s6.76,2,4.61,8.94C74.4,130.59,69.2,126.52,69.79,121.65Z"/><path class="cls-2" d="M67.71,120.09s3.81,2.81-.38,9.19C67.33,129.28,64.81,125.4,67.71,120.09Z"/><path class="cls-2" d="M72.08,129.73s6,3.73,2,9.85C74.13,139.58,70.21,134.26,72.08,129.73Z"/><path class="cls-2" d="M70.5,127.67s2.91,3.72-2.82,8.75C67.68,136.42,66.28,132,70.5,127.67Z"/><path class="cls-2" d="M71.13,138.48s5.08,4.89,0,10.05C71.09,148.53,68.36,142.52,71.13,138.48Z"/><path class="cls-2" d="M70,136.13s2.07,4.25-4.58,8C65.43,144.1,65,139.5,70,136.13Z"/><path class="cls-2" d="M68.67,146.55s4.06,5.77-2,9.86C66.72,156.41,65.18,150,68.67,146.55Z"/><path class="cls-2" d="M68,144s1.24,4.57-6,7C62,151,62.43,146.39,68,144Z"/><path class="cls-2" d="M64.85,153.94s2.16,6.71-4.78,8.85C60.07,162.79,60.5,156.19,64.85,153.94Z"/><path class="cls-2" d="M65,151.34s-.18,4.73-7.8,4.87C57.17,156.21,59,151.94,65,151.34Z"/><path class="cls-2" d="M58.73,159.81s0,7.06-7.24,7C51.49,166.8,53.9,160.64,58.73,159.81Z"/><path class="cls-2" d="M59.63,157.37s-1.6,4.45-8.91,2.28C50.72,159.65,53.7,156.12,59.63,157.37Z"/><path class="cls-2" d="M52.58,164.39s-1.59,6.87-8.64,5.14C43.94,169.53,47.69,164.09,52.58,164.39Z"/><path class="cls-2" d="M54,162.22s-2.57,4-9.19.18C44.82,162.4,48.54,159.64,54,162.22Z"/><path class="cls-2" d="M44,166.33s-3,6.4-9.53,3.23C34.47,169.56,39.28,165,44,166.33Z"/><path class="cls-2" d="M45.85,164.51s-3.34,3.35-9-1.74C36.82,162.77,41,160.85,45.85,164.51Z"/><path class="cls-2" d="M35.57,166.63s-4.14,5.71-10,1.37C25.6,168,31.18,164.45,35.57,166.63Z"/><path class="cls-2" d="M37.73,165.19s-3.92,2.65-8.53-3.42C29.2,161.77,33.69,160.68,37.73,165.19Z"/><path class="cls-2" d="M27.34,165.42s-5.65,4.23-9.93-1.65C17.41,163.77,23.79,162,27.34,165.42Z"/><path class="cls-2" d="M29.83,164.69s-4.53,1.37-7.14-5.8C22.69,158.89,27.31,159.19,29.83,164.69Z"/><path class="cls-2" d="M19.79,161.54s-6.66,2.32-9-4.58C10.83,157,17.44,157.24,19.79,161.54Z"/><path class="cls-2" d="M22.39,161.6s-4.73-.07-5.05-7.69C17.34,153.91,21.65,155.59,22.39,161.6Z"/><path class="cls-2" d="M13.84,156.76s-7,.65-7.59-6.59C6.25,150.17,12.59,152,13.84,156.76Z"/><path class="cls-2" d="M16.35,157.44s-4.58-1.2-3.05-8.67C13.3,148.77,17.08,151.43,16.35,157.44Z"/><path class="cls-2" d="M9.3,149.22s-7-.82-6.06-8C3.24,141.19,9.06,144.33,9.3,149.22Z"/><path class="cls-2" d="M11.62,150.41s-4.23-2.13-1.19-9.12C10.43,141.29,13.58,144.68,11.62,150.41Z"/><path class="cls-2" d="M6.37,141.31s-6.72-2.13-4.43-9C1.94,132.28,7.06,136.46,6.37,141.31Z"/><path class="cls-2" d="M8.42,142.91S4.67,140,9,133.74C9,133.74,11.43,137.66,8.42,142.91Z"/><path class="cls-2" d="M4.93,133.12s-5.79-4-1.55-9.94C3.38,123.18,7,128.69,4.93,133.12Z"/><path class="cls-2" d="M6.41,135.25s-2.72-3.86,3.26-8.59C9.67,126.66,10.84,131.13,6.41,135.25Z"/><path class="cls-2" d="M6.25,124.73s-4.3-5.59,1.53-9.94C7.78,114.79,9.59,121.15,6.25,124.73Z"/><path class="cls-2" d="M7,127.22s-1.43-4.51,5.71-7.21C12.72,120,12.48,124.63,7,127.22Z"/><polygon class="cls-2" points="30.9 91.91 32.83 91.91 56.38 0 54.45 0 30.9 91.91"/><polygon class="cls-2" points="47.5 91.91 49.45 91.91 76.85 0 74.9 0 47.5 91.91"/><polygon class="cls-1" points="86.61 6.66 93.91 62.6 77.56 110.81 53.34 6.66 86.61 6.66"/><polygon class="cls-2" points="81.63 6.66 90.89 71.52 92.16 67.76 83.9 6.66 81.63 6.66"/><path class="cls-3" d="M64,122.65V106.3a3.94,3.94,0,0,1,4-3.94h44.53a3.94,3.94,0,0,1,3.95,3.94v16.92h-9v-8.46a4,4,0,0,0-4-4H77.56a4,4,0,0,0-4,4v5.64Z"/><polygon class="cls-2" points="79.69 104.53 80.86 101.08 59.85 6.66 57.56 6.66 79.69 104.53"/><circle class="cls-3" cx="89.96" cy="160.43" r="46.23" transform="translate(-87.09 110.6) rotate(-45)"/><path class="cls-4" d="M43.74,160.43a46.25,46.25,0,0,0,.59,7.39,46.25,46.25,0,0,0,68.36-47.66,46.24,46.24,0,0,0-68.95,40.27Z"/><polygon class="cls-1" points="77.56 110.81 106.31 110.81 139.6 6.27 103.52 6.27 77.56 110.81"/><path class="cls-2" d="M90,193.93a33.51,33.51,0,1,1,33.51-33.5A33.54,33.54,0,0,1,90,193.93Zm0-65.88a32.38,32.38,0,1,0,32.38,32.38A32.41,32.41,0,0,0,90,128.05Z"/><path class="cls-2" d="M54.16,141.82s-3.66-7.61,4.23-11.27C58.39,130.55,59,138.44,54.16,141.82Z"/><path class="cls-2" d="M54.45,144.92s-.57-5.64,8.45-7C62.9,137.88,61.49,143.23,54.45,144.92Z"/><path class="cls-2" d="M60.73,133.58s-2-8.2,6.48-10.15C67.21,123.43,66.12,131.27,60.73,133.58Z"/><path class="cls-2" d="M60.36,136.67S61,131,70.1,131.54C70.1,131.54,67.61,136.49,60.36,136.67Z"/><path class="cls-2" d="M68.39,127s-.41-8.44,8.28-8.74C76.67,118.26,74.12,125.75,68.39,127Z"/><path class="cls-2" d="M67.44,130s1.68-5.41,10.53-3.2C78,126.76,74.59,131.15,67.44,130Z"/><path class="cls-2" d="M77,122s2.11-8.18,10.51-5.88C87.49,116.08,82.83,122.47,77,122Z"/><path class="cls-2" d="M75.2,124.51s3.2-4.67,11,.08C86.21,124.59,81.67,127.77,75.2,124.51Z"/><path class="cls-2" d="M86.94,119.94s4.49-7.15,11.79-2.43C98.73,117.51,92.35,122.2,86.94,119.94Z"/><path class="cls-2" d="M84.46,121.84s4.47-3.49,10.47,3.39C94.93,125.23,89.65,126.9,84.46,121.84Z"/><path class="cls-2" d="M97.38,120.77s6.34-5.58,12,1C109.38,121.8,101.93,124.47,97.38,120.77Z"/><path class="cls-2" d="M94.47,121.88s5.28-2.07,9.07,6.24C103.54,128.12,98,128.21,94.47,121.88Z"/><path class="cls-2" d="M107.08,124.87s7.37-4.15,11.53,3.5C118.61,128.37,110.77,129.43,107.08,124.87Z"/><path class="cls-2" d="M104,125.35s5.59-.93,7.57,8C111.58,133.34,106.14,132.27,104,125.35Z"/><path class="cls-2" d="M115.49,130.46s8-2.67,10.65,5.62C126.14,136.08,118.24,135.64,115.49,130.46Z"/><path class="cls-2" d="M112.38,130.35s5.67.15,5.92,9.28C118.3,139.63,113.17,137.55,112.38,130.35Z"/><path class="cls-2" d="M122.66,137.38s8.44-.18,8.5,8.53C131.16,145.91,123.75,143.14,122.66,137.38Z"/><path class="cls-2" d="M119.72,136.35s5.36,1.83,2.9,10.62C122.62,147,118.33,143.46,119.72,136.35Z"/><path class="cls-2" d="M127.29,146.42s8.1,2.39,5.52,10.7C132.81,157.12,126.58,152.24,127.29,146.42Z"/><path class="cls-2" d="M124.8,144.55s4.56,3.36-.45,11C124.35,155.55,121.33,150.91,124.8,144.55Z"/><path class="cls-2" d="M130,156.09s7.16,4.47,2.45,11.79C132.49,167.88,127.8,161.51,130,156.09Z"/><path class="cls-2" d="M128.14,153.62s3.49,4.46-3.38,10.48C124.76,164.1,123.09,158.82,128.14,153.62Z"/><path class="cls-2" d="M128.89,166.56s6.09,5.87,0,12.05C128.85,178.61,125.58,171.4,128.89,166.56Z"/><path class="cls-2" d="M127.55,163.75s2.49,5.1-5.48,9.55C122.07,173.3,121.53,167.79,127.55,163.75Z"/><path class="cls-2" d="M126,176.23s4.86,6.91-2.33,11.81C123.62,188,121.77,180.35,126,176.23Z"/><path class="cls-2" d="M125.16,173.21s1.48,5.47-7.19,8.34C118,181.55,118.49,176,125.16,173.21Z"/><path class="cls-2" d="M121.38,185.08s2.59,8-5.73,10.59C115.65,195.67,116.17,187.77,121.38,185.08Z"/><path class="cls-2" d="M121.52,182s-.21,5.67-9.34,5.83C112.18,187.79,114.31,182.68,121.52,182Z"/><path class="cls-2" d="M114.05,192.11s0,8.44-8.67,8.36C105.38,200.47,108.27,193.1,114.05,192.11Z"/><path class="cls-2" d="M115.12,189.19s-1.91,5.33-10.66,2.72C104.46,191.91,108,187.68,115.12,189.19Z"/><path class="cls-2" d="M106.69,197.59s-1.9,8.23-10.35,6.16C96.34,203.75,100.83,197.23,106.69,197.59Z"/><path class="cls-2" d="M108.41,195s-3.09,4.76-11,.22C97.4,195.21,101.85,191.91,108.41,195Z"/><path class="cls-2" d="M96.41,199.91s-3.57,7.66-11.4,3.87C85,203.78,90.76,198.35,96.41,199.91Z"/><path class="cls-2" d="M98.63,197.73s-4,4-10.81-2.08C87.82,195.65,92.86,193.35,98.63,197.73Z"/><path class="cls-2" d="M86.32,200.27s-5,6.84-11.93,1.64C74.39,201.91,81.06,197.66,86.32,200.27Z"/><path class="cls-2" d="M88.91,198.55s-4.69,3.17-10.22-4.1C78.69,194.45,84.07,193.15,88.91,198.55Z"/><path class="cls-2" d="M76.46,198.82s-6.76,5.07-11.88-2C64.58,196.85,72.22,194.77,76.46,198.82Z"/><path class="cls-2" d="M79.45,198S74,199.59,70.9,191C70.9,191,76.43,191.36,79.45,198Z"/><path class="cls-2" d="M67.43,194.17s-8,2.78-10.72-5.47C56.71,188.7,64.61,189,67.43,194.17Z"/><path class="cls-2" d="M70.54,194.24s-5.66-.07-6-9.2C64.5,185,69.66,187.05,70.54,194.24Z"/><path class="cls-2" d="M60.31,188.45s-8.41.78-9.1-7.89C51.21,180.56,58.81,182.78,60.31,188.45Z"/><path class="cls-2" d="M63.31,189.27s-5.48-1.44-3.66-10.39C59.65,178.88,64.18,182.07,63.31,189.27Z"/><path class="cls-2" d="M54.87,179.43s-8.39-1-7.25-9.61C47.62,169.82,54.58,173.57,54.87,179.43Z"/><path class="cls-2" d="M57.64,180.85s-5.06-2.54-1.42-10.92C56.22,169.93,60,174,57.64,180.85Z"/><path class="cls-2" d="M51.37,170s-8.06-2.55-5.31-10.81C46.06,159.14,52.19,164.15,51.37,170Z"/><path class="cls-2" d="M53.82,171.88s-4.49-3.46.67-11C54.49,160.89,57.42,165.59,53.82,171.88Z"/><path class="cls-2" d="M49.64,160.14s-6.93-4.82-1.86-11.89C47.78,148.25,52.15,154.84,49.64,160.14Z"/><path class="cls-2" d="M51.41,162.71s-3.26-4.64,3.9-10.3C55.31,152.41,56.72,157.77,51.41,162.71Z"/><path class="cls-2" d="M51.22,150.11s-5.15-6.7,1.83-11.9C53.05,138.21,55.21,145.82,51.22,150.11Z"/><path class="cls-2" d="M52.13,153.09s-1.71-5.41,6.83-8.63C59,144.46,58.68,150,52.13,153.09Z"/><polygon class="cls-2" points="80.73 110.81 83.04 110.81 111.12 6.27 108.81 6.27 80.73 110.81"/><polygon class="cls-2" points="100.61 110.81 102.94 110.81 135.63 6.27 133.29 6.27 100.61 110.81"/></g></g></svg>