<svg width="102" height="110" viewBox="0 0 102 110" fill="none" xmlns="http://www.w3.org/2000/svg">
<g filter="url(#filter0_d_397_5624)">
<path d="M42.0024 9.65912C45.8823 8.20172 50.2078 8.53113 53.8223 10.5593L83.1487 27.0145C86.5684 28.9333 89.031 32.1935 89.9417 36.0075L95.2062 58.0539C96.6246 63.9939 94.0449 70.1702 88.8229 73.3367L55.1345 93.764C50.8011 96.3915 45.3889 96.4829 40.9693 94.0031L14.9076 79.3797C10.4747 76.8923 7.73022 72.2053 7.73022 67.1223L7.73022 35.4857C7.73022 31.9729 9.0457 28.5873 11.4175 25.996L15.9073 21.0908C17.4018 19.458 19.2608 18.2013 21.3329 17.4229L42.0024 9.65912Z" fill="#FBAE40"/>
<path d="M47.5089 3.85914C51.7807 1.46216 56.9924 1.46216 61.2643 3.85914L87.6006 18.6366C92.0335 21.124 94.778 25.811 94.778 30.894L94.778 59.7617C94.778 64.8447 92.0335 69.5317 87.6006 72.0191L61.2643 86.7965C56.9924 89.1935 51.7807 89.1935 47.5089 86.7965L21.1726 72.0191C16.7397 69.5317 13.9952 64.8447 13.9952 59.7617L13.9952 30.894C13.9952 25.8109 16.7397 21.124 21.1726 18.6366L47.5089 3.85914Z" fill="white" stroke="#FBAE40" stroke-width="2.81103"/>
</g>
<path d="M62.0579 26.9102L63.5317 32.1444L60.3496 47.3603L55.8545 26.9102H62.0579Z" fill="#FBAE40" stroke="#FBAE40" stroke-width="2"/>
<path d="M61.1289 26.9102L62.8349 40.0315L63.0739 39.3303L61.5532 26.9102H61.1289Z" fill="#FBAE40"/>
<path d="M57.8262 49.5687V46.5184C57.8262 46.4217 57.8453 46.326 57.8823 46.2367C57.9194 46.1474 57.9737 46.0663 58.0421 45.9981C58.1106 45.9298 58.1919 45.8758 58.2812 45.839C58.3706 45.8022 58.4664 45.7834 58.5631 45.7837H66.87C67.0648 45.7837 67.2517 45.8611 67.3895 45.9989C67.5272 46.1367 67.6046 46.3235 67.6046 46.5184V49.6736H65.9232V48.0971C65.9232 47.9017 65.8455 47.7142 65.7073 47.5761C65.5691 47.4379 65.3817 47.3602 65.1863 47.3602H60.3495C60.2528 47.3602 60.1571 47.3793 60.0678 47.4164C59.9786 47.4534 59.8975 47.5077 59.8292 47.5762C59.761 47.6446 59.7069 47.7259 59.6701 47.8153C59.6333 47.9047 59.6145 48.0005 59.6148 48.0971V49.1466L57.8262 49.5687Z" fill="#FBAE40"/>
<path d="M60.7469 46.1902L60.9658 45.5448L57.0691 26.9102H56.6404L60.7469 46.1902Z" fill="#FBAE40"/>
<path d="M65.9625 64.5803C70.3617 62.758 72.4507 57.7146 70.6285 53.3154C68.8063 48.9162 63.7629 46.8271 59.3637 48.6493C54.9645 50.4715 52.8754 55.515 54.6976 59.9142C56.5198 64.3134 61.5633 66.4025 65.9625 64.5803Z" fill="#FBAE40"/>
<path d="M54.0413 56.614C54.0414 57.0754 54.078 57.5361 54.1507 57.9917C55.4628 58.7314 56.9458 59.1146 58.4521 59.1032C59.9583 59.0918 61.4353 58.6862 62.7361 57.9267C64.037 57.1672 65.1162 56.0804 65.8666 54.7743C66.6169 53.4682 67.0121 51.9883 67.013 50.482C67.0132 50.0205 66.9759 49.5597 66.9013 49.1043C65.5893 48.3644 64.1064 47.9811 62.6002 47.9924C61.0941 48.0038 59.6171 48.4094 58.3164 49.169C57.0157 49.9285 55.9366 51.0155 55.1866 52.3217C54.4365 53.6279 54.0416 55.1077 54.0413 56.614Z" fill="#FBAE40"/>
<path d="M60.3496 47.3608H65.7134L71.9413 26.8369H65.2132L60.3496 47.3608Z" fill="#FBAE40" stroke="#FBAE40" stroke-width="2"/>
<path d="M62.6631 62.8661C61.4265 62.8661 60.2177 62.4994 59.1894 61.8124C58.1612 61.1253 57.3598 60.1488 56.8866 59.0063C56.4134 57.8638 56.2895 56.6067 56.5308 55.3938C56.772 54.1809 57.3675 53.0668 58.242 52.1924C59.1164 51.318 60.2305 50.7225 61.4433 50.4812C62.6562 50.24 63.9134 50.3638 65.0559 50.837C66.1984 51.3103 67.1749 52.1117 67.8619 53.1399C68.549 54.1681 68.9156 55.377 68.9156 56.6136C68.9156 58.2719 68.2569 59.8622 67.0843 61.0348C65.9118 62.2073 64.3214 62.8661 62.6631 62.8661ZM62.6631 50.5844C61.4707 50.5844 60.305 50.938 59.3135 51.6005C58.322 52.263 57.5492 53.2046 57.0929 54.3063C56.6366 55.408 56.5172 56.6203 56.7498 57.7898C56.9824 58.9594 57.5567 60.0337 58.3999 60.8769C59.2431 61.7201 60.3174 62.2943 61.4869 62.5269C62.6565 62.7596 63.8687 62.6402 64.9704 62.1838C66.0721 61.7275 67.0138 60.9547 67.6762 59.9632C68.3387 58.9717 68.6923 57.8061 68.6923 56.6136C68.6882 55.0158 68.0517 53.4847 66.9219 52.3549C65.7921 51.2251 64.2609 50.5885 62.6631 50.5844Z" fill="#FBAE40"/>
<path d="M55.9973 53.1438C55.9973 53.1438 55.314 51.7236 56.7856 51.0403C56.7744 51.0314 56.8905 52.5119 55.9973 53.1438Z" fill="#FBAE40"/>
<path d="M56.0399 53.7225C56.0399 53.7225 55.9328 52.6707 57.6165 52.4072C57.6165 52.4072 57.353 53.4076 56.0399 53.7225Z" fill="#FBAE40"/>
<path d="M57.2099 51.6072C57.2099 51.6072 56.837 50.0754 58.4202 49.7136C58.4202 49.7136 58.217 51.1763 57.2099 51.6072Z" fill="#FBAE40"/>
<path d="M57.1428 52.1836C57.1428 52.1836 57.2567 51.1341 58.9583 51.2256C58.9583 51.2256 58.4938 52.1479 57.1428 52.1836Z" fill="#FBAE40"/>
<path d="M58.6387 50.3791C58.6387 50.3791 58.5628 48.8048 60.184 48.749C60.184 48.749 59.7084 50.138 58.6387 50.3791Z" fill="#FBAE40"/>
<path d="M58.4536 50.9309C58.4536 50.9309 58.7662 49.9215 60.4187 50.3347C60.4276 50.3347 59.7934 51.152 58.4536 50.9309Z" fill="#FBAE40"/>
<path d="M60.24 49.4393C60.24 49.4393 60.633 47.9141 62.1984 48.3407C62.2006 48.3518 61.3319 49.5353 60.24 49.4393Z" fill="#FBAE40"/>
<path d="M59.9097 49.9144C59.9097 49.9144 60.5059 49.0435 61.9618 49.9278C61.9618 49.9278 61.1177 50.5218 59.9097 49.9144Z" fill="#FBAE40"/>
<path d="M62.0981 49.064C62.0981 49.064 62.9355 47.7241 64.2977 48.6173C64.2977 48.6084 63.1097 49.4838 62.0981 49.064Z" fill="#FBAE40"/>
<path d="M61.6379 49.4143C61.6379 49.4143 62.4709 48.7667 63.5896 50.0485C63.5896 50.0485 62.6048 50.3611 61.6379 49.4143Z" fill="#FBAE40"/>
<path d="M64.0364 49.2159C64.0364 49.2159 65.2199 48.1753 66.2694 49.4079C66.285 49.4079 64.8939 49.9148 64.0364 49.2159Z" fill="#FBAE40"/>
<path d="M63.5027 49.4234C63.5027 49.4234 64.4875 49.0393 65.1953 50.5868C65.1953 50.5845 64.1614 50.6046 63.5027 49.4234Z" fill="#FBAE40"/>
<path d="M65.8562 49.9821C65.8562 49.9821 67.2295 49.2095 68.0044 50.6342C68.0044 50.6342 66.5417 50.8329 65.8562 49.9821Z" fill="#FBAE40"/>
<path d="M65.2822 50.0715C65.2822 50.0715 66.3251 49.8995 66.6935 51.5609C66.6935 51.5609 65.6819 51.3622 65.2822 50.0715Z" fill="#FBAE40"/>
<path d="M67.4236 51.0314C67.4236 51.0314 68.9197 50.5335 69.411 52.081C69.411 52.0743 67.9372 51.9916 67.4236 51.0314Z" fill="#FBAE40"/>
<path d="M66.8433 51.0049C66.8433 51.0049 67.8995 51.0339 67.9486 52.7355C67.9486 52.7355 66.9906 52.3469 66.8433 51.0049Z" fill="#FBAE40"/>
<path d="M68.7615 52.3157C68.7615 52.3157 70.3358 52.2822 70.3469 53.9056C70.3469 53.9056 68.9647 53.3898 68.7615 52.3157Z" fill="#FBAE40"/>
<path d="M68.2122 52.1235C68.2122 52.1235 69.2126 52.463 68.7549 54.1042C68.7549 54.1042 67.9554 53.45 68.2122 52.1235Z" fill="#FBAE40"/>
<path d="M69.6188 54.0012C69.6188 54.0012 71.1283 54.4478 70.6482 55.9976C70.6549 55.9976 69.4937 55.0865 69.6188 54.0012Z" fill="#FBAE40"/>
<path d="M69.1724 53.6528C69.1724 53.6528 70.0209 54.2803 69.0875 55.7028C69.0764 55.7028 68.5136 54.8386 69.1724 53.6528Z" fill="#FBAE40"/>
<path d="M70.1369 55.8054C70.1369 55.8054 71.4767 56.6383 70.5835 58.0027C70.5947 58.0027 69.7193 56.817 70.1369 55.8054Z" fill="#FBAE40"/>
<path d="M69.7839 55.3435C69.7839 55.3435 70.4338 56.1764 69.1542 57.2996C69.1542 57.2996 68.8416 56.3149 69.7839 55.3435Z" fill="#FBAE40"/>
<path d="M69.9246 57.7571C69.9246 57.7571 71.059 58.8513 69.9246 60.0035C69.9157 60.0035 69.3061 58.6592 69.9246 57.7571Z" fill="#FBAE40"/>
<path d="M69.6747 57.2351C69.6747 57.2351 70.1369 58.1841 68.652 59.0215C68.652 59.0148 68.5515 57.9876 69.6747 57.2351Z" fill="#FBAE40"/>
<path d="M69.3753 59.5593C69.3753 59.5593 70.2886 60.8567 68.9488 61.7633C68.9488 61.7633 68.596 60.3297 69.3753 59.5593Z" fill="#FBAE40"/>
<path d="M69.228 58.9983C69.228 58.9983 69.5027 60.0188 67.8882 60.5614C67.886 60.5525 67.982 59.5164 69.228 58.9983Z" fill="#FBAE40"/>
<path d="M68.5225 61.2092C68.5225 61.2092 69.0048 62.7098 67.4551 63.1855C67.4551 63.1855 67.5511 61.7139 68.5225 61.2092Z" fill="#FBAE40"/>
<path d="M68.5492 60.6335C68.5492 60.6335 68.5089 61.6898 66.8074 61.7188C66.8074 61.7166 67.2026 60.7631 68.5492 60.6335Z" fill="#FBAE40"/>
<path d="M67.1624 62.5227C67.1624 62.5227 67.1624 64.097 65.548 64.0858C65.539 64.0814 66.0772 62.708 67.1624 62.5227Z" fill="#FBAE40"/>
<path d="M67.3568 61.9734C67.3568 61.9734 66.9995 62.9671 65.3672 62.4825C65.3761 62.487 66.0326 61.6965 67.3568 61.9734Z" fill="#FBAE40"/>
<path d="M65.7827 63.5364C65.7827 63.5364 65.4276 65.0705 63.8511 64.6842C63.8511 64.6932 64.6907 63.4784 65.7827 63.5364Z" fill="#FBAE40"/>
<path d="M66.102 63.0607C66.102 63.0607 65.5281 63.9539 64.0498 63.1009C64.0498 63.1009 64.8805 62.4846 66.102 63.0607Z" fill="#FBAE40"/>
<path d="M63.8666 63.983C63.8666 63.983 63.1967 65.4099 61.7385 64.7042C61.7385 64.6998 62.8104 63.686 63.8666 63.983Z" fill="#FBAE40"/>
<path d="M64.2795 63.5725C64.2795 63.5725 63.5337 64.3183 62.2698 63.1839C62.2631 63.1839 63.2032 62.7552 64.2795 63.5725Z" fill="#FBAE40"/>
<path d="M61.9818 64.0434C61.9818 64.0434 61.0596 65.3207 59.7488 64.3493C59.7577 64.3493 61.0037 63.5588 61.9818 64.0434Z" fill="#FBAE40"/>
<path d="M62.4732 63.7241C62.4732 63.7241 61.5978 64.3159 60.5684 62.9604C60.5617 62.9604 61.5643 62.717 62.4732 63.7241Z" fill="#FBAE40"/>
<path d="M60.1444 63.7755C60.1444 63.7755 58.8849 64.7201 57.9292 63.4071C57.9292 63.4071 59.3472 63.0185 60.1444 63.7755Z" fill="#FBAE40"/>
<path d="M60.7023 63.6125C60.7023 63.6125 59.6907 63.9185 59.1079 62.3174C59.1079 62.3174 60.1396 62.3821 60.7023 63.6125Z" fill="#FBAE40"/>
<path d="M58.4536 62.907C58.4536 62.907 56.9664 63.4273 56.4438 61.8865C56.4595 61.8865 57.9355 61.949 58.4536 62.907Z" fill="#FBAE40"/>
<path d="M59.0409 62.9203C59.0409 62.9203 57.9847 62.9069 57.9244 61.2053C57.9132 61.2053 58.8757 61.5782 59.0409 62.9203Z" fill="#FBAE40"/>
<path d="M57.1319 61.8392C57.1319 61.8392 55.5688 61.9866 55.4348 60.3677C55.4348 60.3677 56.8528 60.783 57.1319 61.8392Z" fill="#FBAE40"/>
<path d="M57.6923 61.9912C57.6923 61.9912 56.6695 61.7255 57.009 60.0552C57.009 60.0552 57.8553 60.6514 57.6923 61.9912Z" fill="#FBAE40"/>
<path d="M56.1177 60.1578C56.1177 60.1578 54.5546 59.9747 54.7645 58.3714C54.7645 58.3647 56.0641 59.0703 56.1177 60.1578Z" fill="#FBAE40"/>
<path d="M56.6359 60.4213C56.6359 60.4213 55.6914 59.9479 56.3702 58.387C56.3702 58.387 57.0714 59.144 56.6359 60.4213Z" fill="#FBAE40"/>
<path d="M55.4636 58.4006C55.4636 58.4006 53.963 57.9249 54.4744 56.3908C54.4744 56.3752 55.6177 57.3064 55.4636 58.4006Z" fill="#FBAE40"/>
<path d="M55.9212 58.7491C55.9212 58.7491 55.0838 58.1038 56.0463 56.6992C56.0463 56.6992 56.5934 57.5768 55.9212 58.7491Z" fill="#FBAE40"/>
<path d="M55.1422 56.5604C55.1422 56.5604 53.8493 55.6672 54.7961 54.343C54.7961 54.343 55.6112 55.5712 55.1422 56.5604Z" fill="#FBAE40"/>
<path d="M55.4725 57.0383C55.4725 57.0383 54.8652 56.1741 56.2005 55.1179C56.2005 55.1179 56.4618 56.1183 55.4725 57.0383Z" fill="#FBAE40"/>
<path d="M55.4367 54.6891C55.4367 54.6891 54.4765 53.4409 55.7762 52.4695C55.7739 52.4695 56.1826 53.8875 55.4367 54.6891Z" fill="#FBAE40"/>
<path d="M55.6064 55.2455C55.6064 55.2455 55.2871 54.2362 56.8815 53.6355C56.8904 53.6355 56.8279 54.6672 55.6064 55.2455Z" fill="#FBAE40"/>
<path d="M60.9412 47.3608H61.3721L66.6309 26.8369H66.2L60.9412 47.3608Z" fill="#FBAE40"/>
<path d="M64.6482 47.3608H65.0836L71.2021 26.8369H70.7667L64.6482 47.3608Z" fill="#FBAE40"/>
<path d="M38.6377 26.9102L40.1115 32.1444L36.9294 47.3603L32.4343 26.9102H38.6377Z" fill="#FBAE40" stroke="#FBAE40" stroke-width="2"/>
<path d="M37.7085 26.9102L39.4145 40.0315L39.6535 39.3303L38.135 26.9102H37.7085Z" fill="#FBAE40"/>
<path d="M34.406 49.5687V46.5184C34.406 46.4217 34.4251 46.326 34.4621 46.2367C34.4992 46.1474 34.5535 46.0663 34.622 45.9981C34.6904 45.9298 34.7717 45.8758 34.8611 45.839C34.9505 45.8022 35.0462 45.7834 35.1429 45.7837H43.4498C43.6446 45.7837 43.8315 45.8611 43.9693 45.9989C44.1071 46.1367 44.1845 46.3235 44.1845 46.5184V49.6736H42.503V48.0971C42.503 47.9017 42.4254 47.7142 42.2872 47.5761C42.149 47.4379 41.9615 47.3602 41.7661 47.3602H36.9293C36.8327 47.3602 36.7369 47.3793 36.6477 47.4164C36.5584 47.4534 36.4773 47.5077 36.4091 47.5762C36.3408 47.6446 36.2867 47.7259 36.25 47.8153C36.2132 47.9047 36.1944 48.0005 36.1947 48.0971V49.1466L34.406 49.5687Z" fill="#FBAE40"/>
<path d="M37.327 46.1902L37.5458 45.5448L33.6492 26.9102H33.2205L37.327 46.1902Z" fill="#FBAE40"/>
<path d="M42.543 64.5793C46.9422 62.7571 49.0313 57.7136 47.2091 53.3144C45.3869 48.9152 40.3434 46.8261 35.9442 48.6484C31.545 50.4706 29.456 55.514 31.2782 59.9132C33.1004 64.3124 38.1438 66.4015 42.543 64.5793Z" fill="#FBAE40"/>
<path d="M30.6211 56.614C30.6212 57.0754 30.6578 57.5361 30.7305 57.9917C32.0427 58.7314 33.5257 59.1146 35.0319 59.1032C36.5382 59.0918 38.0152 58.6862 39.316 57.9267C40.6168 57.1672 41.6961 56.0804 42.4464 54.7743C43.1967 53.4682 43.592 51.9883 43.5928 50.482C43.5931 50.0205 43.5557 49.5597 43.4812 49.1043C42.1692 48.3644 40.6863 47.9811 39.1801 47.9924C37.6739 48.0038 36.1969 48.4094 34.8962 49.169C33.5956 49.9285 32.5165 51.0155 31.7664 52.3217C31.0164 53.6279 30.6215 55.1077 30.6211 56.614Z" fill="#FBAE40"/>
<path d="M36.9294 47.3608H42.2932L48.5234 26.8369H41.793L36.9294 47.3608Z" fill="#FBAE40" stroke="#FBAE40" stroke-width="2"/>
<path d="M39.2496 62.8661C38.0129 62.8661 36.8041 62.4994 35.7759 61.8124C34.7477 61.1253 33.9462 60.1488 33.473 59.0063C32.9998 57.8638 32.876 56.6067 33.1172 55.3938C33.3585 54.1809 33.954 53.0668 34.8284 52.1924C35.7028 51.318 36.8169 50.7225 38.0298 50.4812C39.2426 50.24 40.4998 50.3638 41.6423 50.837C42.7848 51.3103 43.7613 52.1117 44.4483 53.1399C45.1354 54.1681 45.5021 55.377 45.5021 56.6136C45.5021 58.2719 44.8433 59.8622 43.6708 61.0348C42.4982 62.2073 40.9078 62.8661 39.2496 62.8661ZM39.2496 50.5844C38.0571 50.5844 36.8914 50.938 35.8999 51.6005C34.9084 52.263 34.1357 53.2046 33.6793 54.3063C33.223 55.408 33.1036 56.6203 33.3362 57.7898C33.5689 58.9594 34.1431 60.0337 34.9863 60.8769C35.8295 61.7201 36.9038 62.2943 38.0733 62.5269C39.2429 62.7596 40.4552 62.6402 41.5569 62.1838C42.6585 61.7275 43.6002 60.9547 44.2627 59.9632C44.9252 58.9717 45.2788 57.8061 45.2788 56.6136C45.2746 55.0158 44.6381 53.4847 43.5083 52.3549C42.3785 51.2251 40.8473 50.5885 39.2496 50.5844Z" fill="#FBAE40"/>
<path d="M32.5662 53.1442C32.5662 53.1442 31.8807 51.724 33.3545 51.0317C33.3545 51.0317 33.4594 52.5122 32.5662 53.1442Z" fill="#FBAE40"/>
<path d="M32.6197 53.7225C32.6197 53.7225 32.5147 52.6707 34.1962 52.4072C34.1962 52.4072 33.9327 53.4076 32.6197 53.7225Z" fill="#FBAE40"/>
<path d="M33.7897 51.6072C33.7897 51.6072 33.4168 50.0754 35 49.7136C35.0067 49.7136 34.7968 51.1763 33.7897 51.6072Z" fill="#FBAE40"/>
<path d="M33.7229 52.1836C33.7229 52.1836 33.8368 51.1341 35.5384 51.2256C35.5384 51.2256 35.0739 52.1479 33.7229 52.1836Z" fill="#FBAE40"/>
<path d="M35.23 50.3791C35.23 50.3791 35.1541 48.8048 36.7753 48.749C36.7641 48.749 36.2885 50.138 35.23 50.3791Z" fill="#FBAE40"/>
<path d="M35.0427 50.9309C35.0427 50.9309 35.3554 49.9215 37.0078 50.3347C37.0167 50.3347 36.3758 51.152 35.0427 50.9309Z" fill="#FBAE40"/>
<path d="M36.8223 49.4393C36.8223 49.4393 37.2153 47.9141 38.7806 48.3407C38.7806 48.3518 37.9098 49.5353 36.8223 49.4393Z" fill="#FBAE40"/>
<path d="M36.4895 49.9144C36.4895 49.9144 37.088 49.0435 38.5417 49.9278C38.5417 49.9278 37.6976 50.5218 36.4895 49.9144Z" fill="#FBAE40"/>
<path d="M38.678 49.064C38.678 49.064 39.5154 47.7241 40.8775 48.6173C40.8775 48.6084 39.6962 49.4838 38.678 49.064Z" fill="#FBAE40"/>
<path d="M38.218 49.4143C38.218 49.4143 39.0509 48.7667 40.1697 50.0485C40.1697 50.0485 39.1849 50.3611 38.218 49.4143Z" fill="#FBAE40"/>
<path d="M40.6252 49.2159C40.6252 49.2159 41.8088 48.1753 42.8583 49.4079C42.865 49.4079 41.4827 49.9148 40.6252 49.2159Z" fill="#FBAE40"/>
<path d="M40.0825 49.4234C40.0825 49.4234 41.0673 49.0393 41.7752 50.5868C41.7752 50.5845 40.7413 50.6046 40.0825 49.4234Z" fill="#FBAE40"/>
<path d="M42.4358 49.9821C42.4358 49.9821 43.8091 49.2095 44.584 50.6342C44.584 50.6342 43.1213 50.8329 42.4358 49.9821Z" fill="#FBAE40"/>
<path d="M41.8623 50.0715C41.8623 50.0715 42.9051 49.8995 43.2736 51.5609C43.2691 51.5609 42.262 51.3622 41.8623 50.0715Z" fill="#FBAE40"/>
<path d="M44.0037 51.0314C44.0037 51.0314 45.4998 50.5335 45.9911 52.081C45.9911 52.0743 44.5173 51.9916 44.0037 51.0314Z" fill="#FBAE40"/>
<path d="M43.4231 51.0049C43.4231 51.0049 44.4816 51.0339 44.5285 52.7355C44.5285 52.7355 43.5705 52.3469 43.4231 51.0049Z" fill="#FBAE40"/>
<path d="M45.3413 52.3157C45.3413 52.3157 46.9156 52.2822 46.9268 53.9056C46.9268 53.9056 45.5445 53.3898 45.3413 52.3157Z" fill="#FBAE40"/>
<path d="M44.7918 52.1235C44.7918 52.1235 45.7922 52.463 45.3344 54.1042C45.3344 54.1042 44.535 53.45 44.7918 52.1235Z" fill="#FBAE40"/>
<path d="M46.2055 54.0012C46.2055 54.0012 47.715 54.4478 47.2349 55.9976C47.2349 55.9976 46.0737 55.0865 46.2055 54.0012Z" fill="#FBAE40"/>
<path d="M45.741 53.6528C45.741 53.6528 46.5918 54.2803 45.6562 55.7028C45.6562 55.7028 45.0935 54.8386 45.741 53.6528Z" fill="#FBAE40"/>
<path d="M46.717 55.8054C46.717 55.8054 48.0568 56.6383 47.1636 58.0027C47.1747 58.0027 46.2994 56.817 46.717 55.8054Z" fill="#FBAE40"/>
<path d="M46.364 55.3435C46.364 55.3435 47.0138 56.1764 45.7343 57.2996C45.7253 57.2996 45.4216 56.3149 46.364 55.3435Z" fill="#FBAE40"/>
<path d="M46.5047 57.7571C46.5047 57.7571 47.6391 58.8513 46.5047 60.0035C46.4958 60.0035 45.8861 58.6592 46.5047 57.7571Z" fill="#FBAE40"/>
<path d="M46.2545 57.2351C46.2545 57.2351 46.7168 58.1841 45.2318 59.0215C45.2318 59.0148 45.1313 57.9876 46.2545 57.2351Z" fill="#FBAE40"/>
<path d="M45.9486 59.5593C45.9486 59.5593 46.8553 60.8478 45.5132 61.7633C45.5199 61.7633 45.176 60.3297 45.9486 59.5593Z" fill="#FBAE40"/>
<path d="M45.8079 58.9983C45.8079 58.9983 46.0825 60.0188 44.4681 60.5614C44.4658 60.5525 44.5618 59.5164 45.8079 58.9983Z" fill="#FBAE40"/>
<path d="M45.1023 61.2092C45.1023 61.2092 45.5846 62.7098 44.0349 63.1855C44.0349 63.1855 44.1309 61.7139 45.1023 61.2092Z" fill="#FBAE40"/>
<path d="M45.1292 60.6335C45.1292 60.6335 45.089 61.6898 43.3875 61.7188C43.3875 61.7166 43.7849 60.7631 45.1292 60.6335Z" fill="#FBAE40"/>
<path d="M43.7356 62.5227C43.7356 62.5227 43.7356 64.097 42.1189 64.0858C42.1189 64.0814 42.6571 62.708 43.7356 62.5227Z" fill="#FBAE40"/>
<path d="M43.9386 61.9734C43.9386 61.9734 43.5813 62.9671 41.949 62.4825C41.9467 62.487 42.6122 61.6965 43.9386 61.9734Z" fill="#FBAE40"/>
<path d="M42.3622 63.5364C42.3622 63.5364 42.0072 65.0705 40.4307 64.6842C40.4307 64.6932 41.2703 63.4784 42.3622 63.5364Z" fill="#FBAE40"/>
<path d="M42.6816 63.0607C42.6816 63.0607 42.1077 63.9539 40.6294 63.1009C40.6294 63.1009 41.4601 62.4846 42.6816 63.0607Z" fill="#FBAE40"/>
<path d="M40.4464 63.983C40.4464 63.983 39.7765 65.4099 38.3184 64.7042C38.3184 64.6998 39.3924 63.686 40.4464 63.983Z" fill="#FBAE40"/>
<path d="M40.8594 63.5725C40.8594 63.5725 40.1135 64.3183 38.8496 63.1839C38.8429 63.1839 39.7831 62.7552 40.8594 63.5725Z" fill="#FBAE40"/>
<path d="M38.5641 64.0434C38.5641 64.0434 37.6396 65.3207 36.3311 64.3493C36.3467 64.3493 37.5838 63.5588 38.5641 64.0434Z" fill="#FBAE40"/>
<path d="M39.0464 63.7241C39.0464 63.7241 38.171 64.3159 37.1416 62.9604C37.1416 62.9604 38.1442 62.717 39.0464 63.7241Z" fill="#FBAE40"/>
<path d="M36.7262 63.7755C36.7262 63.7755 35.4645 64.7201 34.5088 63.4071C34.5088 63.4071 35.9335 63.0185 36.7262 63.7755Z" fill="#FBAE40"/>
<path d="M37.2824 63.6125C37.2824 63.6125 36.2708 63.9185 35.688 62.3174C35.688 62.3174 36.7197 62.3821 37.2824 63.6125Z" fill="#FBAE40"/>
<path d="M35.0403 62.907C35.0403 62.907 33.553 63.4273 33.0305 61.8865C33.0394 61.8865 34.5155 61.949 35.0403 62.907Z" fill="#FBAE40"/>
<path d="M35.6208 62.9203C35.6208 62.9203 34.5645 62.9069 34.5042 61.2053C34.4931 61.2053 35.4533 61.5782 35.6208 62.9203Z" fill="#FBAE40"/>
<path d="M33.7115 61.8392C33.7115 61.8392 32.1484 61.9866 32.0144 60.3677C32.0144 60.3677 33.4436 60.783 33.7115 61.8392Z" fill="#FBAE40"/>
<path d="M34.2721 61.9912C34.2721 61.9912 33.2494 61.7255 33.5888 60.0552C33.5888 60.0552 34.4351 60.6514 34.2721 61.9912Z" fill="#FBAE40"/>
<path d="M32.6978 60.1578C32.6978 60.1578 31.1347 59.9747 31.3446 58.3714C31.3446 58.3647 32.6442 59.0703 32.6978 60.1578Z" fill="#FBAE40"/>
<path d="M33.2204 60.4213C33.2204 60.4213 32.2758 59.9479 32.9547 58.387C32.9502 58.387 33.6514 59.144 33.2204 60.4213Z" fill="#FBAE40"/>
<path d="M32.0435 58.4006C32.0435 58.4006 30.5429 57.9249 31.0542 56.3908C31.0542 56.3752 32.1976 57.3064 32.0435 58.4006Z" fill="#FBAE40"/>
<path d="M32.5013 58.7491C32.5013 58.7491 31.6639 58.1038 32.6263 56.6992C32.6263 56.6992 33.1734 57.5768 32.5013 58.7491Z" fill="#FBAE40"/>
<path d="M31.722 56.5604C31.722 56.5604 30.4291 55.6672 31.3759 54.343C31.3759 54.343 32.191 55.5712 31.722 56.5604Z" fill="#FBAE40"/>
<path d="M32.0524 57.0383C32.0524 57.0383 31.445 56.1741 32.7803 55.1179C32.7736 55.1179 33.0416 56.1183 32.0524 57.0383Z" fill="#FBAE40"/>
<path d="M32.0166 54.6891C32.0166 54.6891 31.0564 53.4409 32.3583 52.4695C32.3583 52.4695 32.7736 53.8875 32.0166 54.6891Z" fill="#FBAE40"/>
<path d="M32.1865 55.2455C32.1865 55.2455 31.8672 54.2362 33.4616 53.6355C33.4616 53.6355 33.408 54.6672 32.1865 55.2455Z" fill="#FBAE40"/>
<path d="M37.5212 47.3608H37.9522L43.211 26.8369H42.78L37.5212 47.3608Z" fill="#FBAE40"/>
<path d="M41.228 47.3608H41.6635L47.782 26.8369H47.3465L41.228 47.3608Z" fill="#FBAE40"/>
<path d="M49.9615 28.3242L51.5917 40.8158L47.9406 51.5813L42.5322 28.3242H49.9615Z" fill="#FBAE40" stroke="#FBAE40" stroke-width="2"/>
<path d="M48.8494 28.3242L50.9149 42.8077L51.2008 41.9681L49.3563 28.3242H48.8494Z" fill="#FBAE40"/>
<path d="M44.9192 54.2248V50.585C44.9192 50.4683 44.9424 50.3528 44.9874 50.2452C45.0325 50.1376 45.0985 50.04 45.1816 49.9581C45.2647 49.8762 45.3633 49.8117 45.4716 49.7683C45.5799 49.7248 45.6957 49.7034 45.8124 49.7052H55.7561C55.8728 49.7034 55.9886 49.7248 56.0969 49.7683C56.2052 49.8117 56.3038 49.8762 56.3869 49.9581C56.47 50.04 56.536 50.1376 56.5811 50.2452C56.6261 50.3528 56.6493 50.4683 56.6493 50.585V54.3611H54.6396V52.4741C54.6367 52.2411 54.5428 52.0184 54.378 51.8536C54.2133 51.6889 53.9906 51.595 53.7575 51.5921H47.9405C47.7074 51.595 47.4848 51.6889 47.32 51.8536C47.1552 52.0184 47.0613 52.2411 47.0584 52.4741V53.7336L44.9192 54.2248Z" fill="#FBAE40"/>
<path d="M48.4163 50.1789L48.6776 49.4086L43.9882 28.3242H43.4746L48.4163 50.1789Z" fill="#FBAE40"/>
<path d="M58.0097 69.9596C62.0412 65.9281 62.0412 59.3917 58.0097 55.3602C53.9782 51.3287 47.4418 51.3287 43.4103 55.3602C39.3788 59.3917 39.3788 65.9281 43.4103 69.9596C47.4418 73.9911 53.9782 73.9911 58.0097 69.9596Z" fill="#FBAE40"/>
<path d="M40.3861 62.6587C40.3864 63.2115 40.4312 63.7633 40.5201 64.3089C42.2134 65.2637 44.1418 65.7211 46.0836 65.6285C48.0253 65.5359 49.9014 64.897 51.4962 63.7854C53.0909 62.6738 54.3395 61.1346 55.0982 59.3449C55.8569 57.5551 56.0951 55.5876 55.7851 53.6685C54.2141 52.7801 52.4376 52.3191 50.6328 52.3313C48.828 52.3435 47.0579 52.8286 45.499 53.7382C43.9402 54.6478 42.6469 55.9501 41.7482 57.5152C40.8496 59.0804 40.3768 60.8538 40.3772 62.6587H40.3861Z" fill="#FBAE40"/>
<path d="M47.9404 51.581H54.3604L61.7942 28.2368H53.7374L47.9404 51.581Z" fill="#FBAE40" stroke="#FBAE40" stroke-width="2"/>
<path d="M50.7094 70.1398C49.23 70.1394 47.7839 69.7003 46.554 68.878C45.3241 68.0558 44.3656 66.8873 43.7997 65.5203C43.2339 64.1534 43.0861 62.6493 43.375 61.1984C43.6639 59.7474 44.3765 58.4147 45.4228 57.3687C46.4691 56.3228 47.802 55.6105 49.253 55.322C50.7041 55.0336 52.2081 55.1819 53.5749 55.7481C54.9417 56.3144 56.1099 57.2732 56.9317 58.5033C57.7536 59.7335 58.1923 61.1797 58.1923 62.6591C58.1905 64.643 57.4015 66.545 55.9985 67.9476C54.5955 69.3502 52.6932 70.1386 50.7094 70.1398ZM50.7094 55.4308C49.2792 55.4308 47.8812 55.8549 46.6921 56.6495C45.503 57.4441 44.5762 58.5735 44.029 59.8949C43.4818 61.2162 43.3388 62.6702 43.6179 64.0728C43.8971 65.4755 44.586 66.7638 45.5974 67.775C46.6088 68.7861 47.8974 69.4745 49.3002 69.7533C50.7029 70.032 52.1568 69.8885 53.478 69.3409C54.7991 68.7933 55.9283 67.8662 56.7225 66.6768C57.5167 65.4875 57.9404 64.0893 57.94 62.6591C57.9376 60.7424 57.175 58.9049 55.8194 57.5498C54.4639 56.1946 52.6261 55.4326 50.7094 55.4308Z" fill="#FBAE40"/>
<path d="M42.7152 58.5059C42.7152 58.5059 41.8979 56.8066 43.6597 55.9871C43.6597 55.9871 43.787 57.7512 42.7152 58.5059Z" fill="#FBAE40"/>
<path d="M42.7802 59.1976C42.7802 59.1976 42.6529 57.9381 44.6671 57.6233C44.6671 57.6233 44.3522 58.8202 42.7802 59.1976Z" fill="#FBAE40"/>
<path d="M44.1824 56.6652C44.1824 56.6652 43.7357 54.8319 45.6294 54.3987C45.6294 54.3987 45.386 56.1494 44.1824 56.6652Z" fill="#FBAE40"/>
<path d="M44.0999 57.355C44.0999 57.355 44.2383 56.0978 46.2748 56.2094C46.2748 56.2094 45.7255 57.3125 44.0999 57.355Z" fill="#FBAE40"/>
<path d="M45.8928 55.1938C45.8928 55.1938 45.8012 53.3114 47.7417 53.2444C47.735 53.2444 47.1723 54.9147 45.8928 55.1938Z" fill="#FBAE40"/>
<path d="M45.6807 55.8572C45.6807 55.8572 46.0558 54.6491 48.0321 55.1426C48.0321 55.1426 47.2885 56.1229 45.6807 55.8572Z" fill="#FBAE40"/>
<path d="M47.811 54.0706C47.811 54.0706 48.2822 52.244 50.1579 52.7554C50.1579 52.7554 49.1174 54.1845 47.811 54.0706Z" fill="#FBAE40"/>
<path d="M47.4136 54.6403C47.4136 54.6403 48.1281 53.5975 49.8699 54.6559C49.8699 54.6559 48.8516 55.3682 47.4136 54.6403Z" fill="#FBAE40"/>
<path d="M50.0352 53.6193C50.0352 53.6193 51.0356 52.0204 52.6679 53.0766C52.6679 53.0766 51.2432 54.1217 50.0352 53.6193Z" fill="#FBAE40"/>
<path d="M49.4812 54.0415C49.4812 54.0415 50.4794 53.2644 51.8192 54.8007C51.8192 54.8007 50.6379 55.1714 49.4812 54.0415Z" fill="#FBAE40"/>
<path d="M52.3665 53.8049C52.3665 53.8049 53.7822 52.5566 55.0461 54.0282C55.0461 54.0327 53.3825 54.6311 52.3665 53.8049Z" fill="#FBAE40"/>
<path d="M51.7166 54.0506C51.7166 54.0506 52.8956 53.5906 53.7419 55.444C53.7419 55.444 52.5048 55.4641 51.7166 54.0506Z" fill="#FBAE40"/>
<path d="M54.5325 54.7183C54.5325 54.7183 56.176 53.7939 57.1072 55.4999C57.1139 55.4977 55.3542 55.7388 54.5325 54.7183Z" fill="#FBAE40"/>
<path d="M53.8469 54.8273C53.8469 54.8273 55.0952 54.6219 55.5373 56.6137C55.5373 56.6137 54.3226 56.3726 53.8469 54.8273Z" fill="#FBAE40"/>
<path d="M56.4106 55.9687C56.4106 55.9687 58.1971 55.3725 58.7888 57.2237C58.7888 57.2237 57.0247 57.1254 56.4106 55.9687Z" fill="#FBAE40"/>
<path d="M55.7161 55.9443C55.7161 55.9443 56.98 55.9778 57.038 58.0166C57.038 58.0166 55.8925 57.5521 55.7161 55.9443Z" fill="#FBAE40"/>
<path d="M58.0071 57.5069C58.0071 57.5069 59.8918 57.4667 59.9052 59.4094C59.9096 59.4161 58.2549 58.7998 58.0071 57.5069Z" fill="#FBAE40"/>
<path d="M57.3551 57.2844C57.3551 57.2844 58.552 57.6908 58.0027 59.6559C58.0072 59.6559 57.0447 58.8721 57.3551 57.2844Z" fill="#FBAE40"/>
<path d="M59.0455 59.5322C59.0455 59.5322 60.8543 60.0659 60.2782 61.9216C60.2782 61.9216 58.887 60.8319 59.0455 59.5322Z" fill="#FBAE40"/>
<path d="M58.4895 59.1147C58.4895 59.1147 59.5077 59.865 58.389 61.5711C58.389 61.5711 57.7146 60.535 58.4895 59.1147Z" fill="#FBAE40"/>
<path d="M59.6572 61.6919C59.6572 61.6919 61.2583 62.6901 60.2066 64.3246C60.2066 64.3246 59.1593 62.9022 59.6572 61.6919Z" fill="#FBAE40"/>
<path d="M59.2353 61.1401C59.2353 61.1401 60.0146 62.1361 58.4805 63.4804C58.4805 63.4804 58.1076 62.3013 59.2353 61.1401Z" fill="#FBAE40"/>
<path d="M59.4028 64.0298C59.4028 64.0298 60.7627 65.3383 59.4028 66.7094C59.3938 66.7184 58.6636 65.1106 59.4028 64.0298Z" fill="#FBAE40"/>
<path d="M59.1032 63.4023C59.1032 63.4023 59.6592 64.539 57.8795 65.5349C57.8795 65.5461 57.7589 64.3045 59.1032 63.4023Z" fill="#FBAE40"/>
<path d="M58.7461 66.1873C58.7461 66.1873 59.8313 67.7303 58.2258 68.8267C58.2302 68.8267 57.8127 67.1095 58.7461 66.1873Z" fill="#FBAE40"/>
<path d="M58.5699 65.5146C58.5699 65.5146 58.9004 66.7361 56.9644 67.377C56.9644 67.377 57.0805 66.1444 58.5699 65.5146Z" fill="#FBAE40"/>
<path d="M57.7256 68.1631C57.7256 68.1631 58.304 69.9495 56.4461 70.5301C56.4438 70.5301 56.5622 68.766 57.7256 68.1631Z" fill="#FBAE40"/>
<path d="M57.7568 67.469C57.7568 67.469 57.7099 68.7329 55.6711 68.7709C55.6711 68.7709 56.1468 67.6298 57.7568 67.469Z" fill="#FBAE40"/>
<path d="M56.0889 69.7329C56.0889 69.7329 56.0889 71.6198 54.1528 71.602C54.1528 71.602 54.7959 69.9562 56.0889 69.7329Z" fill="#FBAE40"/>
<path d="M56.3279 69.0807C56.3279 69.0807 55.9014 70.2731 53.9475 69.6903C53.9475 69.6903 54.7447 68.7457 56.3279 69.0807Z" fill="#FBAE40"/>
<path d="M54.4452 70.959C54.4452 70.959 54.0209 72.7968 52.134 72.3323C52.134 72.3323 53.1367 70.8786 54.4452 70.959Z" fill="#FBAE40"/>
<path d="M54.8296 70.3787C54.8296 70.3787 54.1396 71.4394 52.3733 70.4256C52.3711 70.4256 53.3648 69.6887 54.8296 70.3787Z" fill="#FBAE40"/>
<path d="M52.1497 71.4772C52.1497 71.4772 51.3525 73.1877 49.604 72.3414C49.604 72.3414 50.888 71.1288 52.1497 71.4772Z" fill="#FBAE40"/>
<path d="M52.6476 70.9901C52.6476 70.9901 51.7543 71.8833 50.2336 70.5256C50.2314 70.5256 51.3569 70.012 52.6476 70.9901Z" fill="#FBAE40"/>
<path d="M49.8967 71.5548C49.8967 71.5548 48.7802 73.0845 47.2327 71.921C47.2327 71.921 48.7221 70.9742 49.8967 71.5548Z" fill="#FBAE40"/>
<path d="M50.475 71.1713C50.475 71.1713 49.4277 71.8815 48.1929 70.258C48.1929 70.258 49.3943 69.9677 50.475 71.1713Z" fill="#FBAE40"/>
<path d="M47.6948 71.2333C47.6948 71.2333 46.1853 72.3632 45.042 70.7867C45.042 70.7934 46.748 70.3289 47.6948 71.2333Z" fill="#FBAE40"/>
<path d="M48.3626 71.0372C48.3626 71.0372 47.1523 71.4035 46.4534 69.4897C46.4534 69.4897 47.6882 69.5657 48.3626 71.0372Z" fill="#FBAE40"/>
<path d="M45.6785 70.1956C45.6785 70.1956 43.8921 70.8164 43.2847 68.9719C43.2847 68.9719 45.0555 69.0478 45.6785 70.1956Z" fill="#FBAE40"/>
<path d="M46.3728 70.2111C46.3728 70.2111 45.1089 70.1933 45.033 68.1567C45.0241 68.1567 46.1719 68.6056 46.3728 70.2111Z" fill="#FBAE40"/>
<path d="M44.0885 68.9181C44.0885 68.9181 42.2105 69.0923 42.0564 67.1563C42.0564 67.1563 43.7535 67.652 44.0885 68.9181Z" fill="#FBAE40"/>
<path d="M44.7584 69.0987C44.7584 69.0987 43.5347 68.7793 43.9411 66.7808C43.9389 66.7808 44.9527 67.4931 44.7584 69.0987Z" fill="#FBAE40"/>
<path d="M42.8737 66.9018C42.8737 66.9018 41.0002 66.6785 41.2547 64.7559C41.2592 64.7559 42.8089 65.5955 42.8737 66.9018Z" fill="#FBAE40"/>
<path d="M43.4923 67.2209C43.4923 67.2209 42.3624 66.6515 43.1752 64.7825C43.1752 64.7825 44.017 65.6891 43.4923 67.2209Z" fill="#FBAE40"/>
<path d="M42.0923 64.7867C42.0923 64.7867 40.2924 64.2173 40.9065 62.3728C40.9065 62.3728 42.2754 63.4893 42.0923 64.7867Z" fill="#FBAE40"/>
<path d="M42.6393 65.2159C42.6393 65.2159 41.6366 64.4455 42.7889 62.7595C42.7889 62.764 43.4431 63.8113 42.6393 65.2159Z" fill="#FBAE40"/>
<path d="M41.706 62.5965C41.706 62.5965 40.1585 61.5202 41.2907 59.9392C41.2907 59.9392 42.2665 61.413 41.706 62.5965Z" fill="#FBAE40"/>
<path d="M42.1012 63.1682C42.1012 63.1682 41.3732 62.1343 42.972 60.8704C42.972 60.8704 43.2869 62.0673 42.1012 63.1682Z" fill="#FBAE40"/>
<path d="M42.0587 60.3566C42.0587 60.3566 40.9087 58.8604 42.4651 57.697C42.4651 57.697 42.9497 59.3964 42.0587 60.3566Z" fill="#FBAE40"/>
<path d="M42.2619 61.0201C42.2619 61.0201 41.8801 59.8143 43.7871 59.093C43.7871 59.093 43.7156 60.3279 42.2619 61.0201Z" fill="#FBAE40"/>
<path d="M48.6484 51.581H49.1643L55.4346 28.2368H54.9188L48.6484 51.581Z" fill="#FBAE40"/>
<path d="M53.0876 51.581H53.6079L60.9077 28.2368H60.3852L53.0876 51.581Z" fill="#FBAE40"/>
<path d="M67.0579 23.9106L68.5317 29.1449L65.3496 44.3608L60.8545 23.9106H67.0579Z" fill="white" stroke="#FBAE40" stroke-width="2"/>
<path d="M66.1289 23.9106L67.8349 37.032L68.0739 36.3308L66.5532 23.9106H66.1289Z" fill="white"/>
<path d="M62.8262 46.5692V43.5189C62.8262 43.4222 62.8453 43.3265 62.8823 43.2372C62.9194 43.1479 62.9737 43.0668 63.0421 42.9986C63.1106 42.9303 63.1919 42.8763 63.2812 42.8395C63.3706 42.8027 63.4664 42.7839 63.5631 42.7842H71.87C72.0648 42.7842 72.2517 42.8616 72.3895 42.9994C72.5272 43.1371 72.6046 43.324 72.6046 43.5189V46.6741H70.9232V45.0976C70.9232 44.9022 70.8455 44.7147 70.7073 44.5765C70.5691 44.4383 70.3817 44.3607 70.1863 44.3607H65.3495C65.2528 44.3607 65.1571 44.3798 65.0678 44.4168C64.9786 44.4539 64.8975 44.5082 64.8292 44.5767C64.761 44.6451 64.7069 44.7264 64.6701 44.8158C64.6333 44.9052 64.6145 45.0009 64.6148 45.0976V46.1471L62.8262 46.5692Z" fill="#FBAE40"/>
<path d="M65.7469 43.1907L65.9658 42.5453L62.0691 23.9106H61.6404L65.7469 43.1907Z" fill="white"/>
<path d="M70.9625 61.5807C75.3617 59.7585 77.4507 54.7151 75.6285 50.3159C73.8063 45.9167 68.7629 43.8276 64.3637 45.6498C59.9645 47.472 57.8754 52.5155 59.6976 56.9147C61.5198 61.3139 66.5633 63.4029 70.9625 61.5807Z" fill="#FBAE40"/>
<path d="M59.0413 53.6142C59.0414 54.0756 59.078 54.5363 59.1507 54.992C60.4628 55.7317 61.9458 56.1149 63.4521 56.1035C64.9583 56.0921 66.4353 55.6865 67.7361 54.927C69.037 54.1675 70.1162 53.0806 70.8666 51.7745C71.6169 50.4684 72.0121 48.9886 72.013 47.4823C72.0132 47.0208 71.9759 46.56 71.9013 46.1045C70.5893 45.3646 69.1064 44.9813 67.6002 44.9927C66.0941 45.004 64.6171 45.4097 63.3164 46.1692C62.0157 46.9288 60.9366 48.0157 60.1866 49.3219C59.4365 50.6281 59.0416 52.108 59.0413 53.6142Z" fill="#FBAE40"/>
<path d="M65.3496 44.3612H70.7134L76.9413 23.8374H70.2132L65.3496 44.3612Z" fill="white" stroke="#FBAE40" stroke-width="2"/>
<path d="M67.6631 59.8663C66.4265 59.8663 65.2177 59.4996 64.1894 58.8126C63.1612 58.1256 62.3598 57.1491 61.8866 56.0066C61.4134 54.8641 61.2895 53.6069 61.5308 52.394C61.772 51.1812 62.3675 50.0671 63.242 49.1926C64.1164 48.3182 65.2305 47.7227 66.4433 47.4815C67.6562 47.2402 68.9134 47.364 70.0559 47.8373C71.1984 48.3105 72.1749 49.1119 72.8619 50.1401C73.549 51.1683 73.9156 52.3772 73.9156 53.6138C73.9156 55.2721 73.2569 56.8624 72.0843 58.035C70.9118 59.2076 69.3214 59.8663 67.6631 59.8663ZM67.6631 47.5846C66.4707 47.5846 65.305 47.9382 64.3135 48.6007C63.322 49.2632 62.5492 50.2049 62.0929 51.3066C61.6366 52.4083 61.5172 53.6205 61.7498 54.7901C61.9824 55.9596 62.5567 57.0339 63.3999 57.8771C64.2431 58.7203 65.3174 59.2945 66.4869 59.5272C67.6565 59.7598 68.8687 59.6404 69.9704 59.1841C71.0721 58.7277 72.0138 57.955 72.6762 56.9635C73.3387 55.972 73.6923 54.8063 73.6923 53.6138C73.6882 52.0161 73.0517 50.4849 71.9219 49.3551C70.7921 48.2253 69.2609 47.5888 67.6631 47.5846Z" fill="white"/>
<path d="M60.9973 50.1443C60.9973 50.1443 60.314 48.7241 61.7856 48.0408C61.7744 48.0319 61.8905 49.5124 60.9973 50.1443Z" fill="white"/>
<path d="M61.0399 50.723C61.0399 50.723 60.9328 49.6712 62.6165 49.4077C62.6165 49.4077 62.353 50.4081 61.0399 50.723Z" fill="white"/>
<path d="M62.2099 48.6077C62.2099 48.6077 61.837 47.0759 63.4202 46.7141C63.4202 46.7141 63.217 48.1767 62.2099 48.6077Z" fill="white"/>
<path d="M62.1428 49.1838C62.1428 49.1838 62.2567 48.1343 63.9583 48.2259C63.9583 48.2259 63.4938 49.1481 62.1428 49.1838Z" fill="white"/>
<path d="M63.6387 47.3796C63.6387 47.3796 63.5628 45.8053 65.184 45.7495C65.184 45.7495 64.7084 47.1385 63.6387 47.3796Z" fill="white"/>
<path d="M63.4536 47.9314C63.4536 47.9314 63.7662 46.922 65.4187 47.3351C65.4276 47.3351 64.7934 48.1524 63.4536 47.9314Z" fill="white"/>
<path d="M65.24 46.4396C65.24 46.4396 65.633 44.9144 67.1984 45.3409C67.2006 45.3521 66.3319 46.5356 65.24 46.4396Z" fill="white"/>
<path d="M64.9097 46.9149C64.9097 46.9149 65.5059 46.044 66.9618 46.9283C66.9618 46.9283 66.1177 47.5222 64.9097 46.9149Z" fill="white"/>
<path d="M67.0981 46.0644C67.0981 46.0644 67.9355 44.7246 69.2977 45.6178C69.2977 45.6089 68.1097 46.4843 67.0981 46.0644Z" fill="white"/>
<path d="M66.6379 46.4148C66.6379 46.4148 67.4709 45.7672 68.5896 47.049C68.5896 47.049 67.6048 47.3616 66.6379 46.4148Z" fill="white"/>
<path d="M69.0364 46.2161C69.0364 46.2161 70.2199 45.1755 71.2694 46.4081C71.285 46.4081 69.8939 46.915 69.0364 46.2161Z" fill="white"/>
<path d="M68.5027 46.4241C68.5027 46.4241 69.4875 46.04 70.1953 47.5875C70.1953 47.5853 69.1614 47.6054 68.5027 46.4241Z" fill="white"/>
<path d="M70.8562 46.9824C70.8562 46.9824 72.2295 46.2097 73.0044 47.6344C73.0044 47.6344 71.5417 47.8331 70.8562 46.9824Z" fill="white"/>
<path d="M70.2822 47.072C70.2822 47.072 71.3251 46.9 71.6935 48.5614C71.6935 48.5614 70.6819 48.3626 70.2822 47.072Z" fill="white"/>
<path d="M72.4236 48.0317C72.4236 48.0317 73.9197 47.5337 74.411 49.0812C74.411 49.0745 72.9372 48.9919 72.4236 48.0317Z" fill="white"/>
<path d="M71.8433 48.0054C71.8433 48.0054 72.8995 48.0344 72.9486 49.736C72.9486 49.736 71.9906 49.3474 71.8433 48.0054Z" fill="white"/>
<path d="M73.7615 49.316C73.7615 49.316 75.3358 49.2825 75.3469 50.9059C75.3469 50.9059 73.9647 50.3901 73.7615 49.316Z" fill="white"/>
<path d="M73.2122 49.1238C73.2122 49.1238 74.2126 49.4632 73.7549 51.1045C73.7549 51.1045 72.9554 50.4502 73.2122 49.1238Z" fill="white"/>
<path d="M74.6188 51.0017C74.6188 51.0017 76.1283 51.4483 75.6482 52.998C75.6549 52.998 74.4937 52.087 74.6188 51.0017Z" fill="white"/>
<path d="M74.1724 50.6533C74.1724 50.6533 75.0209 51.2808 74.0875 52.7033C74.0764 52.7033 73.5136 51.8391 74.1724 50.6533Z" fill="white"/>
<path d="M75.1369 52.8059C75.1369 52.8059 76.4767 53.6388 75.5835 55.0032C75.5947 55.0032 74.7193 53.8175 75.1369 52.8059Z" fill="white"/>
<path d="M74.7839 52.344C74.7839 52.344 75.4338 53.1769 74.1542 54.3001C74.1542 54.3001 73.8416 53.3154 74.7839 52.344Z" fill="white"/>
<path d="M74.9246 54.7576C74.9246 54.7576 76.059 55.8518 74.9246 57.004C74.9157 57.004 74.3061 55.6597 74.9246 54.7576Z" fill="white"/>
<path d="M74.6747 54.2354C74.6747 54.2354 75.1369 55.1844 73.652 56.0218C73.652 56.0151 73.5515 54.9879 74.6747 54.2354Z" fill="white"/>
<path d="M74.3753 56.5596C74.3753 56.5596 75.2886 57.857 73.9488 58.7636C73.9488 58.7636 73.596 57.33 74.3753 56.5596Z" fill="white"/>
<path d="M74.228 55.9988C74.228 55.9988 74.5027 57.0193 72.8882 57.5619C72.886 57.553 72.982 56.5168 74.228 55.9988Z" fill="white"/>
<path d="M73.5225 58.2095C73.5225 58.2095 74.0048 59.7101 72.4551 60.1857C72.4551 60.1857 72.5511 58.7141 73.5225 58.2095Z" fill="white"/>
<path d="M73.5492 57.634C73.5492 57.634 73.5089 58.6903 71.8074 58.7193C71.8074 58.7171 72.2026 57.7635 73.5492 57.634Z" fill="white"/>
<path d="M72.1624 59.5229C72.1624 59.5229 72.1624 61.0972 70.548 61.0861C70.539 61.0816 71.0772 59.7083 72.1624 59.5229Z" fill="white"/>
<path d="M72.3568 58.9739C72.3568 58.9739 71.9995 59.9676 70.3672 59.483C70.3761 59.4875 71.0326 58.697 72.3568 58.9739Z" fill="white"/>
<path d="M70.7827 60.5367C70.7827 60.5367 70.4276 62.0708 68.8511 61.6845C68.8511 61.6934 69.6907 60.4786 70.7827 60.5367Z" fill="white"/>
<path d="M71.102 60.0612C71.102 60.0612 70.5281 60.9544 69.0498 60.1014C69.0498 60.1014 69.8805 59.4851 71.102 60.0612Z" fill="white"/>
<path d="M68.8666 60.9832C68.8666 60.9832 68.1967 62.4101 66.7385 61.7045C66.7385 61.7 67.8104 60.6862 68.8666 60.9832Z" fill="white"/>
<path d="M69.2795 60.5727C69.2795 60.5727 68.5337 61.3186 67.2698 60.1842C67.2631 60.1842 68.2032 59.7554 69.2795 60.5727Z" fill="white"/>
<path d="M66.9818 61.0437C66.9818 61.0437 66.0596 62.321 64.7488 61.3496C64.7577 61.3496 66.0037 60.5591 66.9818 61.0437Z" fill="white"/>
<path d="M67.4732 60.7246C67.4732 60.7246 66.5978 61.3164 65.5684 59.9609C65.5617 59.9609 66.5643 59.7175 67.4732 60.7246Z" fill="white"/>
<path d="M65.1444 60.7758C65.1444 60.7758 63.8849 61.7203 62.9292 60.4073C62.9292 60.4073 64.3472 60.0188 65.1444 60.7758Z" fill="white"/>
<path d="M65.7023 60.613C65.7023 60.613 64.6907 60.919 64.1079 59.3179C64.1079 59.3179 65.1396 59.3826 65.7023 60.613Z" fill="white"/>
<path d="M63.4536 59.9075C63.4536 59.9075 61.9664 60.4278 61.4438 58.887C61.4595 58.887 62.9355 58.9495 63.4536 59.9075Z" fill="white"/>
<path d="M64.0409 59.9205C64.0409 59.9205 62.9847 59.9071 62.9244 58.2056C62.9132 58.2056 63.8757 58.5785 64.0409 59.9205Z" fill="white"/>
<path d="M62.1319 58.8397C62.1319 58.8397 60.5688 58.9871 60.4348 57.3682C60.4348 57.3682 61.8528 57.7835 62.1319 58.8397Z" fill="white"/>
<path d="M62.6923 58.9917C62.6923 58.9917 61.6695 58.726 62.009 57.0557C62.009 57.0557 62.8553 57.6519 62.6923 58.9917Z" fill="white"/>
<path d="M61.1177 57.1583C61.1177 57.1583 59.5546 56.9752 59.7645 55.3719C59.7645 55.3652 61.0641 56.0708 61.1177 57.1583Z" fill="white"/>
<path d="M61.6359 57.4217C61.6359 57.4217 60.6914 56.9483 61.3702 55.3875C61.3702 55.3875 62.0714 56.1444 61.6359 57.4217Z" fill="white"/>
<path d="M60.4636 55.401C60.4636 55.401 58.963 54.9254 59.4744 53.3913C59.4744 53.3757 60.6177 54.3069 60.4636 55.401Z" fill="white"/>
<path d="M60.9212 55.7496C60.9212 55.7496 60.0838 55.1043 61.0463 53.6997C61.0463 53.6997 61.5934 54.5773 60.9212 55.7496Z" fill="white"/>
<path d="M60.1422 53.5607C60.1422 53.5607 58.8493 52.6675 59.7961 51.3433C59.7961 51.3433 60.6112 52.5714 60.1422 53.5607Z" fill="white"/>
<path d="M60.4725 54.0386C60.4725 54.0386 59.8652 53.1744 61.2005 52.1182C61.2005 52.1182 61.4618 53.1186 60.4725 54.0386Z" fill="white"/>
<path d="M60.4367 51.6894C60.4367 51.6894 59.4765 50.4411 60.7762 49.4697C60.7739 49.4697 61.1826 50.8877 60.4367 51.6894Z" fill="white"/>
<path d="M60.6064 52.2458C60.6064 52.2458 60.2871 51.2364 61.8815 50.6357C61.8904 50.6357 61.8279 51.6674 60.6064 52.2458Z" fill="white"/>
<path d="M65.9412 44.3612H66.3721L71.6309 23.8374H71.2L65.9412 44.3612Z" fill="white"/>
<path d="M69.6482 44.3612H70.0836L76.2021 23.8374H75.7667L69.6482 44.3612Z" fill="white"/>
<path d="M43.6377 23.9106L45.1115 29.1449L41.9294 44.3608L37.4343 23.9106H43.6377Z" fill="white" stroke="#FBAE40" stroke-width="2"/>
<path d="M42.7085 23.9106L44.4145 37.032L44.6535 36.3308L43.135 23.9106H42.7085Z" fill="white"/>
<path d="M39.406 46.5692V43.5189C39.406 43.4222 39.4251 43.3265 39.4621 43.2372C39.4992 43.1479 39.5535 43.0668 39.622 42.9986C39.6904 42.9303 39.7717 42.8763 39.8611 42.8395C39.9505 42.8027 40.0462 42.7839 40.1429 42.7842H48.4498C48.6446 42.7842 48.8315 42.8616 48.9693 42.9994C49.1071 43.1371 49.1845 43.324 49.1845 43.5189V46.6741H47.503V45.0976C47.503 44.9022 47.4254 44.7147 47.2872 44.5765C47.149 44.4383 46.9615 44.3607 46.7661 44.3607H41.9293C41.8327 44.3607 41.7369 44.3798 41.6477 44.4168C41.5584 44.4539 41.4773 44.5082 41.4091 44.5767C41.3408 44.6451 41.2867 44.7264 41.25 44.8158C41.2132 44.9052 41.1944 45.0009 41.1947 45.0976V46.1471L39.406 46.5692Z" fill="#FBAE40"/>
<path d="M42.327 43.1907L42.5458 42.5453L38.6492 23.9106H38.2205L42.327 43.1907Z" fill="white"/>
<path d="M47.543 61.5798C51.9422 59.7576 54.0313 54.7141 52.2091 50.3149C50.3869 45.9157 45.3434 43.8266 40.9442 45.6488C36.545 47.4711 34.456 52.5145 36.2782 56.9137C38.1004 61.3129 43.1438 63.402 47.543 61.5798Z" fill="#FBAE40"/>
<path d="M35.6211 53.6142C35.6212 54.0756 35.6578 54.5363 35.7305 54.992C37.0427 55.7317 38.5257 56.1149 40.0319 56.1035C41.5382 56.0921 43.0152 55.6865 44.316 54.927C45.6168 54.1675 46.6961 53.0806 47.4464 51.7745C48.1967 50.4684 48.592 48.9886 48.5928 47.4823C48.5931 47.0208 48.5557 46.56 48.4812 46.1045C47.1692 45.3646 45.6863 44.9813 44.1801 44.9927C42.6739 45.004 41.1969 45.4097 39.8962 46.1692C38.5956 46.9288 37.5165 48.0157 36.7664 49.3219C36.0164 50.6281 35.6215 52.108 35.6211 53.6142Z" fill="#FBAE40"/>
<path d="M41.9294 44.3612H47.2932L53.5234 23.8374H46.793L41.9294 44.3612Z" fill="white" stroke="#FBAE40" stroke-width="2"/>
<path d="M44.2496 59.8663C43.0129 59.8663 41.8041 59.4996 40.7759 58.8126C39.7477 58.1256 38.9462 57.1491 38.473 56.0066C37.9998 54.8641 37.876 53.6069 38.1172 52.394C38.3585 51.1812 38.954 50.0671 39.8284 49.1926C40.7028 48.3182 41.8169 47.7227 43.0298 47.4815C44.2426 47.2402 45.4998 47.364 46.6423 47.8373C47.7848 48.3105 48.7613 49.1119 49.4483 50.1401C50.1354 51.1683 50.5021 52.3772 50.5021 53.6138C50.5021 55.2721 49.8433 56.8624 48.6708 58.035C47.4982 59.2076 45.9078 59.8663 44.2496 59.8663ZM44.2496 47.5846C43.0571 47.5846 41.8914 47.9382 40.8999 48.6007C39.9084 49.2632 39.1357 50.2049 38.6793 51.3066C38.223 52.4083 38.1036 53.6205 38.3362 54.7901C38.5689 55.9596 39.1431 57.0339 39.9863 57.8771C40.8295 58.7203 41.9038 59.2945 43.0733 59.5272C44.2429 59.7598 45.4552 59.6404 46.5569 59.1841C47.6585 58.7277 48.6002 57.955 49.2627 56.9635C49.9252 55.972 50.2788 54.8063 50.2788 53.6138C50.2746 52.0161 49.6381 50.4849 48.5083 49.3551C47.3785 48.2253 45.8473 47.5888 44.2496 47.5846Z" fill="white"/>
<path d="M37.5662 50.1444C37.5662 50.1444 36.8807 48.7242 38.3545 48.032C38.3545 48.032 38.4594 49.5125 37.5662 50.1444Z" fill="white"/>
<path d="M37.6197 50.723C37.6197 50.723 37.5147 49.6712 39.1962 49.4077C39.1962 49.4077 38.9327 50.4081 37.6197 50.723Z" fill="white"/>
<path d="M38.7897 48.6077C38.7897 48.6077 38.4168 47.0759 40 46.7141C40.0067 46.7141 39.7968 48.1767 38.7897 48.6077Z" fill="white"/>
<path d="M38.7229 49.1838C38.7229 49.1838 38.8368 48.1343 40.5384 48.2259C40.5384 48.2259 40.0739 49.1481 38.7229 49.1838Z" fill="white"/>
<path d="M40.23 47.3796C40.23 47.3796 40.1541 45.8053 41.7753 45.7495C41.7641 45.7495 41.2885 47.1385 40.23 47.3796Z" fill="white"/>
<path d="M40.0427 47.9314C40.0427 47.9314 40.3554 46.922 42.0078 47.3351C42.0167 47.3351 41.3758 48.1524 40.0427 47.9314Z" fill="white"/>
<path d="M41.8223 46.4396C41.8223 46.4396 42.2153 44.9144 43.7806 45.3409C43.7806 45.3521 42.9098 46.5356 41.8223 46.4396Z" fill="white"/>
<path d="M41.4895 46.9149C41.4895 46.9149 42.088 46.044 43.5417 46.9283C43.5417 46.9283 42.6976 47.5222 41.4895 46.9149Z" fill="white"/>
<path d="M43.678 46.0644C43.678 46.0644 44.5154 44.7246 45.8775 45.6178C45.8775 45.6089 44.6962 46.4843 43.678 46.0644Z" fill="white"/>
<path d="M43.218 46.4148C43.218 46.4148 44.0509 45.7672 45.1697 47.049C45.1697 47.049 44.1849 47.3616 43.218 46.4148Z" fill="white"/>
<path d="M45.6252 46.2161C45.6252 46.2161 46.8088 45.1755 47.8583 46.4081C47.865 46.4081 46.4827 46.915 45.6252 46.2161Z" fill="white"/>
<path d="M45.0825 46.4241C45.0825 46.4241 46.0673 46.04 46.7752 47.5875C46.7752 47.5853 45.7413 47.6054 45.0825 46.4241Z" fill="white"/>
<path d="M47.4358 46.9824C47.4358 46.9824 48.8091 46.2097 49.584 47.6344C49.584 47.6344 48.1213 47.8331 47.4358 46.9824Z" fill="white"/>
<path d="M46.8623 47.072C46.8623 47.072 47.9051 46.9 48.2736 48.5614C48.2691 48.5614 47.262 48.3626 46.8623 47.072Z" fill="white"/>
<path d="M49.0037 48.0317C49.0037 48.0317 50.4998 47.5337 50.9911 49.0812C50.9911 49.0745 49.5173 48.9919 49.0037 48.0317Z" fill="white"/>
<path d="M48.4231 48.0054C48.4231 48.0054 49.4816 48.0344 49.5285 49.736C49.5285 49.736 48.5705 49.3474 48.4231 48.0054Z" fill="white"/>
<path d="M50.3413 49.316C50.3413 49.316 51.9156 49.2825 51.9268 50.9059C51.9268 50.9059 50.5445 50.3901 50.3413 49.316Z" fill="white"/>
<path d="M49.7918 49.1238C49.7918 49.1238 50.7922 49.4632 50.3344 51.1045C50.3344 51.1045 49.535 50.4502 49.7918 49.1238Z" fill="white"/>
<path d="M51.2055 51.0017C51.2055 51.0017 52.715 51.4483 52.2349 52.998C52.2349 52.998 51.0737 52.087 51.2055 51.0017Z" fill="white"/>
<path d="M50.741 50.6533C50.741 50.6533 51.5918 51.2808 50.6562 52.7033C50.6562 52.7033 50.0935 51.8391 50.741 50.6533Z" fill="white"/>
<path d="M51.717 52.8059C51.717 52.8059 53.0568 53.6388 52.1636 55.0032C52.1747 55.0032 51.2994 53.8175 51.717 52.8059Z" fill="white"/>
<path d="M51.364 52.344C51.364 52.344 52.0138 53.1769 50.7343 54.3001C50.7253 54.3001 50.4216 53.3154 51.364 52.344Z" fill="white"/>
<path d="M51.5047 54.7576C51.5047 54.7576 52.6391 55.8518 51.5047 57.004C51.4958 57.004 50.8861 55.6597 51.5047 54.7576Z" fill="white"/>
<path d="M51.2545 54.2354C51.2545 54.2354 51.7168 55.1844 50.2318 56.0218C50.2318 56.0151 50.1313 54.9879 51.2545 54.2354Z" fill="white"/>
<path d="M50.9486 56.5596C50.9486 56.5596 51.8553 57.848 50.5132 58.7636C50.5199 58.7636 50.176 57.33 50.9486 56.5596Z" fill="white"/>
<path d="M50.8079 55.9988C50.8079 55.9988 51.0825 57.0193 49.4681 57.5619C49.4658 57.553 49.5618 56.5168 50.8079 55.9988Z" fill="white"/>
<path d="M50.1023 58.2095C50.1023 58.2095 50.5846 59.7101 49.0349 60.1857C49.0349 60.1857 49.1309 58.7141 50.1023 58.2095Z" fill="white"/>
<path d="M50.1292 57.634C50.1292 57.634 50.089 58.6903 48.3875 58.7193C48.3875 58.7171 48.7849 57.7635 50.1292 57.634Z" fill="white"/>
<path d="M48.7356 59.5229C48.7356 59.5229 48.7356 61.0972 47.1189 61.0861C47.1189 61.0816 47.6571 59.7083 48.7356 59.5229Z" fill="white"/>
<path d="M48.9386 58.9739C48.9386 58.9739 48.5813 59.9676 46.949 59.483C46.9467 59.4875 47.6122 58.697 48.9386 58.9739Z" fill="white"/>
<path d="M47.3622 60.5367C47.3622 60.5367 47.0072 62.0708 45.4307 61.6845C45.4307 61.6934 46.2703 60.4786 47.3622 60.5367Z" fill="white"/>
<path d="M47.6816 60.0612C47.6816 60.0612 47.1077 60.9544 45.6294 60.1014C45.6294 60.1014 46.4601 59.4851 47.6816 60.0612Z" fill="white"/>
<path d="M45.4464 60.9832C45.4464 60.9832 44.7765 62.4101 43.3184 61.7045C43.3184 61.7 44.3924 60.6862 45.4464 60.9832Z" fill="white"/>
<path d="M45.8594 60.5727C45.8594 60.5727 45.1135 61.3186 43.8496 60.1842C43.8429 60.1842 44.7831 59.7554 45.8594 60.5727Z" fill="white"/>
<path d="M43.5641 61.0437C43.5641 61.0437 42.6396 62.321 41.3311 61.3496C41.3467 61.3496 42.5838 60.5591 43.5641 61.0437Z" fill="white"/>
<path d="M44.0464 60.7246C44.0464 60.7246 43.171 61.3164 42.1416 59.9609C42.1416 59.9609 43.1442 59.7175 44.0464 60.7246Z" fill="white"/>
<path d="M41.7262 60.7758C41.7262 60.7758 40.4645 61.7203 39.5088 60.4073C39.5088 60.4073 40.9335 60.0188 41.7262 60.7758Z" fill="white"/>
<path d="M42.2824 60.613C42.2824 60.613 41.2708 60.919 40.688 59.3179C40.688 59.3179 41.7197 59.3826 42.2824 60.613Z" fill="white"/>
<path d="M40.0403 59.9075C40.0403 59.9075 38.553 60.4278 38.0305 58.887C38.0394 58.887 39.5155 58.9495 40.0403 59.9075Z" fill="white"/>
<path d="M40.6208 59.9205C40.6208 59.9205 39.5645 59.9071 39.5042 58.2056C39.4931 58.2056 40.4533 58.5785 40.6208 59.9205Z" fill="white"/>
<path d="M38.7115 58.8397C38.7115 58.8397 37.1484 58.9871 37.0144 57.3682C37.0144 57.3682 38.4436 57.7835 38.7115 58.8397Z" fill="white"/>
<path d="M39.2721 58.9917C39.2721 58.9917 38.2494 58.726 38.5888 57.0557C38.5888 57.0557 39.4351 57.6519 39.2721 58.9917Z" fill="white"/>
<path d="M37.6978 57.1583C37.6978 57.1583 36.1347 56.9752 36.3446 55.3719C36.3446 55.3652 37.6442 56.0708 37.6978 57.1583Z" fill="white"/>
<path d="M38.2204 57.4217C38.2204 57.4217 37.2758 56.9483 37.9547 55.3875C37.9502 55.3875 38.6514 56.1444 38.2204 57.4217Z" fill="white"/>
<path d="M37.0435 55.401C37.0435 55.401 35.5429 54.9254 36.0542 53.3913C36.0542 53.3757 37.1976 54.3069 37.0435 55.401Z" fill="white"/>
<path d="M37.5013 55.7496C37.5013 55.7496 36.6639 55.1043 37.6263 53.6997C37.6263 53.6997 38.1734 54.5773 37.5013 55.7496Z" fill="white"/>
<path d="M36.722 53.5607C36.722 53.5607 35.4291 52.6675 36.3759 51.3433C36.3759 51.3433 37.191 52.5714 36.722 53.5607Z" fill="white"/>
<path d="M37.0524 54.0386C37.0524 54.0386 36.445 53.1744 37.7803 52.1182C37.7736 52.1182 38.0416 53.1186 37.0524 54.0386Z" fill="white"/>
<path d="M37.0166 51.6894C37.0166 51.6894 36.0564 50.4411 37.3583 49.4697C37.3583 49.4697 37.7736 50.8877 37.0166 51.6894Z" fill="white"/>
<path d="M37.1865 52.2458C37.1865 52.2458 36.8672 51.2364 38.4616 50.6357C38.4616 50.6357 38.408 51.6674 37.1865 52.2458Z" fill="white"/>
<path d="M42.5212 44.3612H42.9522L48.211 23.8374H47.78L42.5212 44.3612Z" fill="white"/>
<path d="M46.228 44.3612H46.6635L52.782 23.8374H52.3465L46.228 44.3612Z" fill="white"/>
<path d="M54.9615 25.3247L56.5917 37.8163L52.9406 48.5818L47.5322 25.3247H54.9615Z" fill="white" stroke="#FBAE40" stroke-width="2"/>
<path d="M53.8494 25.3247L55.9149 39.8082L56.2008 38.9686L54.3563 25.3247H53.8494Z" fill="white"/>
<path d="M49.9192 51.2251V47.5852C49.9192 47.4686 49.9424 47.3531 49.9874 47.2454C50.0325 47.1378 50.0985 47.0402 50.1816 46.9583C50.2647 46.8765 50.3633 46.8119 50.4716 46.7685C50.5799 46.7251 50.6957 46.7036 50.8124 46.7054H60.7561C60.8728 46.7036 60.9886 46.7251 61.0969 46.7685C61.2052 46.8119 61.3038 46.8765 61.3869 46.9583C61.47 47.0402 61.536 47.1378 61.5811 47.2454C61.6261 47.3531 61.6493 47.4686 61.6493 47.5852V51.3613H59.6396V49.4744C59.6367 49.2414 59.5428 49.0187 59.378 48.8539C59.2133 48.6891 58.9906 48.5952 58.7575 48.5923H52.9405C52.7074 48.5952 52.4848 48.6891 52.32 48.8539C52.1552 49.0187 52.0613 49.2414 52.0584 49.4744V50.7338L49.9192 51.2251Z" fill="#FBAE40"/>
<path d="M53.4163 47.1794L53.6776 46.409L48.9882 25.3247H48.4746L53.4163 47.1794Z" fill="white"/>
<path d="M63.0097 66.9601C67.0412 62.9286 67.0412 56.3922 63.0097 52.3607C58.9782 48.3292 52.4418 48.3292 48.4103 52.3607C44.3788 56.3922 44.3788 62.9286 48.4103 66.9601C52.4418 70.9916 58.9782 70.9916 63.0097 66.9601Z" fill="#FBAE40"/>
<path d="M45.3861 59.6592C45.3864 60.212 45.4312 60.7638 45.5201 61.3094C47.2134 62.2642 49.1418 62.7216 51.0836 62.629C53.0253 62.5364 54.9014 61.8975 56.4962 60.7859C58.0909 59.6743 59.3395 58.1351 60.0982 56.3454C60.8569 54.5556 61.0951 52.588 60.7851 50.669C59.2141 49.7806 57.4376 49.3196 55.6328 49.3318C53.828 49.344 52.0579 49.8291 50.499 50.7387C48.9402 51.6482 47.6469 52.9505 46.7482 54.5157C45.8496 56.0809 45.3768 57.8543 45.3772 59.6592H45.3861Z" fill="#FBAE40"/>
<path d="M52.9404 48.5815H59.3604L66.7942 25.2373H58.7374L52.9404 48.5815Z" fill="white" stroke="#FBAE40" stroke-width="2"/>
<path d="M55.7094 67.1403C54.23 67.1399 52.7839 66.7008 51.554 65.8785C50.3241 65.0562 49.3656 63.8878 48.7997 62.5208C48.2339 61.1539 48.0861 59.6498 48.375 58.1989C48.6639 56.7479 49.3765 55.4152 50.4228 54.3692C51.4691 53.3232 52.802 52.611 54.253 52.3225C55.7041 52.0341 57.2081 52.1823 58.5749 52.7486C59.9417 53.3149 61.1099 54.2737 61.9317 55.5038C62.7536 56.734 63.1923 58.1802 63.1923 59.6596C63.1905 61.6435 62.4015 63.5455 60.9985 64.9481C59.5955 66.3507 57.6932 67.1391 55.7094 67.1403ZM55.7094 52.4313C54.2792 52.4313 52.8812 52.8554 51.6921 53.65C50.503 54.4446 49.5762 55.574 49.029 56.8954C48.4818 58.2167 48.3388 59.6706 48.6179 61.0733C48.8971 62.476 49.586 63.7643 50.5974 64.7754C51.6088 65.7866 52.8974 66.475 54.3002 66.7538C55.7029 67.0325 57.1568 66.889 58.478 66.3414C59.7991 65.7938 60.9283 64.8667 61.7225 63.6773C62.5167 62.488 62.9404 61.0898 62.94 59.6596C62.9376 57.7429 62.175 55.9054 60.8194 54.5502C59.4639 53.1951 57.6261 52.4331 55.7094 52.4313Z" fill="white"/>
<path d="M47.7152 55.5062C47.7152 55.5062 46.8979 53.8068 48.6597 52.9873C48.6597 52.9873 48.787 54.7514 47.7152 55.5062Z" fill="white"/>
<path d="M47.7802 56.1978C47.7802 56.1978 47.6529 54.9384 49.6671 54.6235C49.6671 54.6235 49.3522 55.8204 47.7802 56.1978Z" fill="white"/>
<path d="M49.1824 53.6657C49.1824 53.6657 48.7357 51.8324 50.6294 51.3992C50.6294 51.3992 50.386 53.1499 49.1824 53.6657Z" fill="white"/>
<path d="M49.0999 54.3554C49.0999 54.3554 49.2383 53.0982 51.2748 53.2099C51.2748 53.2099 50.7255 54.313 49.0999 54.3554Z" fill="white"/>
<path d="M50.8928 52.1941C50.8928 52.1941 50.8012 50.3116 52.7417 50.2446C52.735 50.2446 52.1723 51.9149 50.8928 52.1941Z" fill="white"/>
<path d="M50.6807 52.8577C50.6807 52.8577 51.0558 51.6496 53.0321 52.1431C53.0321 52.1431 52.2885 53.1234 50.6807 52.8577Z" fill="white"/>
<path d="M52.811 51.0709C52.811 51.0709 53.2822 49.2442 55.1579 49.7556C55.1579 49.7556 54.1174 51.1848 52.811 51.0709Z" fill="white"/>
<path d="M52.4136 51.6405C52.4136 51.6405 53.1281 50.5977 54.8699 51.6562C54.8699 51.6562 53.8516 52.3685 52.4136 51.6405Z" fill="white"/>
<path d="M55.0349 50.6195C55.0349 50.6195 56.0353 49.0207 57.6677 50.0769C57.6677 50.0769 56.243 51.1219 55.0349 50.6195Z" fill="white"/>
<path d="M54.4812 51.042C54.4812 51.042 55.4794 50.2649 56.8192 51.8012C56.8192 51.8012 55.6379 52.1719 54.4812 51.042Z" fill="white"/>
<path d="M57.3665 50.8054C57.3665 50.8054 58.7822 49.5571 60.0461 51.0287C60.0461 51.0332 58.3825 51.6316 57.3665 50.8054Z" fill="white"/>
<path d="M56.7166 51.0509C56.7166 51.0509 57.8956 50.5909 58.7419 52.4443C58.7419 52.4443 57.5048 52.4644 56.7166 51.0509Z" fill="white"/>
<path d="M59.5325 51.7186C59.5325 51.7186 61.176 50.7941 62.1072 52.5001C62.1139 52.4979 60.3542 52.7391 59.5325 51.7186Z" fill="white"/>
<path d="M58.8469 51.8278C58.8469 51.8278 60.0952 51.6223 60.5373 53.6142C60.5373 53.6142 59.3226 53.373 58.8469 51.8278Z" fill="white"/>
<path d="M61.4106 52.9692C61.4106 52.9692 63.1971 52.373 63.7888 54.2242C63.7888 54.2242 62.0247 54.1259 61.4106 52.9692Z" fill="white"/>
<path d="M60.7161 52.9446C60.7161 52.9446 61.98 52.9781 62.038 55.0168C62.038 55.0168 60.8925 54.5524 60.7161 52.9446Z" fill="white"/>
<path d="M63.0071 54.5071C63.0071 54.5071 64.8918 54.4669 64.9052 56.4097C64.9096 56.4164 63.2549 55.8001 63.0071 54.5071Z" fill="white"/>
<path d="M62.3551 54.2849C62.3551 54.2849 63.552 54.6913 63.0027 56.6564C63.0072 56.6564 62.0447 55.8726 62.3551 54.2849Z" fill="white"/>
<path d="M64.0455 56.5325C64.0455 56.5325 65.8543 57.0662 65.2782 58.9218C65.2782 58.9218 63.887 57.8321 64.0455 56.5325Z" fill="white"/>
<path d="M63.4895 56.1152C63.4895 56.1152 64.5077 56.8655 63.389 58.5716C63.389 58.5716 62.7146 57.5354 63.4895 56.1152Z" fill="white"/>
<path d="M64.6572 58.6924C64.6572 58.6924 66.2583 59.6906 65.2066 61.3251C65.2066 61.3251 64.1593 59.9027 64.6572 58.6924Z" fill="white"/>
<path d="M64.2353 58.1406C64.2353 58.1406 65.0146 59.1366 63.4805 60.4808C63.4805 60.4808 63.1076 59.3018 64.2353 58.1406Z" fill="white"/>
<path d="M64.4028 61.0303C64.4028 61.0303 65.7627 62.3388 64.4028 63.7099C64.3938 63.7188 63.6636 62.1111 64.4028 61.0303Z" fill="white"/>
<path d="M64.1032 60.4028C64.1032 60.4028 64.6592 61.5395 62.8795 62.5354C62.8795 62.5466 62.7589 61.305 64.1032 60.4028Z" fill="white"/>
<path d="M63.7461 63.1875C63.7461 63.1875 64.8313 64.7305 63.2258 65.827C63.2302 65.827 62.8127 64.1097 63.7461 63.1875Z" fill="white"/>
<path d="M63.5699 62.5151C63.5699 62.5151 63.9004 63.7366 61.9644 64.3775C61.9644 64.3775 62.0805 63.1449 63.5699 62.5151Z" fill="white"/>
<path d="M62.7256 65.1636C62.7256 65.1636 63.304 66.95 61.4461 67.5306C61.4438 67.5306 61.5622 65.7665 62.7256 65.1636Z" fill="white"/>
<path d="M62.7568 64.4692C62.7568 64.4692 62.7099 65.7331 60.6711 65.7711C60.6711 65.7711 61.1468 64.63 62.7568 64.4692Z" fill="white"/>
<path d="M61.0889 66.7332C61.0889 66.7332 61.0889 68.6201 59.1528 68.6022C59.1528 68.6022 59.7959 66.9565 61.0889 66.7332Z" fill="white"/>
<path d="M61.3279 66.0811C61.3279 66.0811 60.9014 67.2736 58.9475 66.6908C58.9475 66.6908 59.7447 65.7462 61.3279 66.0811Z" fill="white"/>
<path d="M59.4452 67.9593C59.4452 67.9593 59.0209 69.7971 57.134 69.3326C57.134 69.3326 58.1367 67.8789 59.4452 67.9593Z" fill="white"/>
<path d="M59.8296 67.379C59.8296 67.379 59.1396 68.4396 57.3733 67.4258C57.3711 67.4258 58.3648 66.6889 59.8296 67.379Z" fill="white"/>
<path d="M57.1497 68.4774C57.1497 68.4774 56.3525 70.1879 54.604 69.3416C54.604 69.3416 55.888 68.1291 57.1497 68.4774Z" fill="white"/>
<path d="M57.6476 67.9906C57.6476 67.9906 56.7543 68.8838 55.2336 67.5261C55.2314 67.5261 56.3569 67.0125 57.6476 67.9906Z" fill="white"/>
<path d="M54.8967 68.5556C54.8967 68.5556 53.7802 70.0852 52.2327 68.9218C52.2327 68.9218 53.7221 67.975 54.8967 68.5556Z" fill="white"/>
<path d="M55.475 68.1718C55.475 68.1718 54.4277 68.8819 53.1929 67.2585C53.1929 67.2585 54.3943 66.9682 55.475 68.1718Z" fill="white"/>
<path d="M52.6948 68.2336C52.6948 68.2336 51.1853 69.3635 50.042 67.7869C50.042 67.7936 51.748 67.3292 52.6948 68.2336Z" fill="white"/>
<path d="M53.3626 68.0377C53.3626 68.0377 52.1523 68.4039 51.4534 66.4902C51.4534 66.4902 52.6882 66.5662 53.3626 68.0377Z" fill="white"/>
<path d="M50.6785 67.1961C50.6785 67.1961 48.8921 67.8169 48.2847 65.9724C48.2847 65.9724 50.0555 66.0483 50.6785 67.1961Z" fill="white"/>
<path d="M51.3728 67.2116C51.3728 67.2116 50.1089 67.1938 50.033 65.1572C50.0241 65.1572 51.1719 65.6061 51.3728 67.2116Z" fill="white"/>
<path d="M49.0885 65.9186C49.0885 65.9186 47.2105 66.0928 47.0564 64.1567C47.0564 64.1567 48.7535 64.6525 49.0885 65.9186Z" fill="white"/>
<path d="M49.7584 66.0989C49.7584 66.0989 48.5347 65.7796 48.9411 63.781C48.9389 63.781 49.9527 64.4933 49.7584 66.0989Z" fill="white"/>
<path d="M47.8737 63.9021C47.8737 63.9021 46.0002 63.6787 46.2547 61.7561C46.2592 61.7561 47.8089 62.5957 47.8737 63.9021Z" fill="white"/>
<path d="M48.4923 64.2212C48.4923 64.2212 47.3624 63.6518 48.1752 61.7827C48.1752 61.7827 49.017 62.6893 48.4923 64.2212Z" fill="white"/>
<path d="M47.0923 61.787C47.0923 61.787 45.2924 61.2175 45.9065 59.373C45.9065 59.373 47.2754 60.4896 47.0923 61.787Z" fill="white"/>
<path d="M47.6393 62.2161C47.6393 62.2161 46.6366 61.4457 47.7889 59.7598C47.7889 59.7642 48.4431 60.8115 47.6393 62.2161Z" fill="white"/>
<path d="M46.706 59.597C46.706 59.597 45.1585 58.5207 46.2907 56.9397C46.2907 56.9397 47.2665 58.4135 46.706 59.597Z" fill="white"/>
<path d="M47.1012 60.1686C47.1012 60.1686 46.3732 59.1347 47.972 57.8708C47.972 57.8708 48.2869 59.0678 47.1012 60.1686Z" fill="white"/>
<path d="M47.0587 57.3568C47.0587 57.3568 45.9087 55.8607 47.4651 54.6973C47.4651 54.6973 47.9497 56.3966 47.0587 57.3568Z" fill="white"/>
<path d="M47.2619 58.0204C47.2619 58.0204 46.8801 56.8145 48.7871 56.0933C48.7871 56.0933 48.7156 57.3281 47.2619 58.0204Z" fill="white"/>
<path d="M53.6484 48.5815H54.1643L60.4346 25.2373H59.9188L53.6484 48.5815Z" fill="white"/>
<path d="M58.0876 48.5815H58.6079L65.9077 25.2373H65.3852L58.0876 48.5815Z" fill="white"/>
<defs>
<filter id="filter0_d_397_5624" x="-0.000105381" y="0" width="101.027" height="109.261" filterUnits="userSpaceOnUse" color-interpolation-filters="sRGB">
<feFlood flood-opacity="0" result="BackgroundImageFix"/>
<feColorMatrix in="SourceAlpha" type="matrix" values="0 0 0 0 0 0 0 0 0 0 0 0 0 0 0 0 0 0 127 0" result="hardAlpha"/>
<feOffset dx="-4.9193" dy="8.43309"/>
<feGaussianBlur stdDeviation="1.40551"/>
<feComposite in2="hardAlpha" operator="out"/>
<feColorMatrix type="matrix" values="0 0 0 0 0.25673 0 0 0 0 0.164842 0 0 0 0 0.0335725 0 0 0 0.1 0"/>
<feBlend mode="normal" in2="BackgroundImageFix" result="effect1_dropShadow_397_5624"/>
<feBlend mode="normal" in="SourceGraphic" in2="effect1_dropShadow_397_5624" result="shape"/>
</filter>
</defs>
</svg>
