<svg width="102" height="110" viewBox="0 0 102 110" fill="none" xmlns="http://www.w3.org/2000/svg">
<g filter="url(#filter0_d_397_5610)">
<path d="M42.0024 9.65912C45.8823 8.20172 50.2078 8.53113 53.8223 10.5593L83.1487 27.0145C86.5684 28.9333 89.031 32.1935 89.9417 36.0075L95.2062 58.0539C96.6246 63.9939 94.0449 70.1702 88.8229 73.3367L55.1345 93.764C50.8011 96.3915 45.3889 96.4829 40.9693 94.0031L14.9076 79.3797C10.4747 76.8923 7.73022 72.2053 7.73022 67.1223L7.73022 35.4857C7.73022 31.9729 9.0457 28.5873 11.4175 25.996L15.9073 21.0908C17.4018 19.458 19.2608 18.2013 21.3329 17.4229L42.0024 9.65912Z" fill="#FBAE40"/>
<path d="M47.5089 3.85914C51.7807 1.46216 56.9924 1.46216 61.2643 3.85914L87.6006 18.6366C92.0335 21.124 94.778 25.811 94.778 30.894L94.778 59.7617C94.778 64.8447 92.0335 69.5317 87.6006 72.0191L61.2643 86.7965C56.9924 89.1935 51.7807 89.1935 47.5089 86.7965L21.1726 72.0191C16.7397 69.5317 13.9952 64.8447 13.9952 59.7617L13.9952 30.894C13.9952 25.8109 16.7397 21.124 21.1726 18.6366L47.5089 3.85914Z" fill="white" stroke="#FBAE40" stroke-width="2.81103"/>
</g>
<path d="M34.4442 43.6702C34.4442 40.4527 34.4994 37.2325 34.4205 34.0149C34.3863 32.5574 34.9467 31.8208 36.3253 31.384C40.7057 29.9581 45.0466 28.4217 49.4086 26.9484C50.3897 26.5801 51.4688 26.568 52.4578 26.9142C56.8777 28.4769 61.3028 30.0291 65.7727 31.4445C67.1276 31.8734 67.5222 32.5785 67.5143 33.8807C67.4793 40.3176 67.4793 46.7545 67.5143 53.1914C67.5143 54.4437 67.1276 55.3698 66.1647 56.1143C61.5659 59.6713 56.9409 63.1993 52.3947 66.822C51.2687 67.7165 50.5083 67.6112 49.4481 66.7641C44.9633 63.1931 40.4391 59.6704 35.8754 56.1959C34.7915 55.3671 34.389 54.4095 34.4153 53.0783C34.4995 49.9344 34.4442 46.801 34.4442 43.6702Z" fill="#FBAE40"/>
<path d="M50.9634 69.0481C49.9321 69.0481 49.0876 68.5219 48.4536 68.0115C44.181 64.6124 39.6244 61.0634 34.9072 57.4617C33.4418 56.3436 32.7762 54.9334 32.8025 53.0313C32.8472 50.8029 32.8393 48.5746 32.8314 46.3462V43.6706V40.8819C32.8314 38.6062 32.8525 36.3305 32.7972 34.0574C32.7472 31.8948 33.7338 30.5162 35.8148 29.848C38.6009 28.943 41.3713 27.9906 44.1416 27.0382C45.7201 26.4962 47.2986 25.9516 48.8772 25.4202C50.2004 24.9336 51.652 24.9243 52.9813 25.3939C57.2354 26.8988 61.7658 28.4905 66.2436 29.9059C68.2089 30.5294 69.1191 31.7922 69.1113 33.8864C69.0718 41.045 69.0744 47.3539 69.1113 53.176C69.1113 54.9702 68.4798 56.3488 67.1381 57.3854L63.8311 59.9558C60.3425 62.6472 56.854 65.3359 53.4075 68.0826C52.5051 68.785 51.6869 69.0481 50.9634 69.0481ZM51.0213 28.2695C50.648 28.2754 50.2782 28.343 49.9269 28.4694C48.3483 28.9956 46.7698 29.534 45.1913 30.0848C42.4026 31.0424 39.6165 32.0027 36.8146 32.913C36.0569 33.1603 36.0043 33.2892 36.0253 33.989C36.0832 36.2936 36.0727 38.6009 36.0595 40.9082V43.6812V46.3462C36.0595 48.5983 36.0779 50.8556 36.0305 53.1076C36.0148 53.9705 36.2226 54.423 36.8593 54.9124C41.5949 58.5272 46.1673 62.0894 50.4557 65.5017C50.6103 65.6422 50.7884 65.7544 50.9819 65.8332C51.129 65.7598 51.2682 65.6716 51.3975 65.5701C54.8545 62.8129 58.3615 60.1136 61.8632 57.4143L65.186 54.8519C65.6359 54.502 65.9147 54.1073 65.9095 53.2128C65.8647 47.3775 65.8647 41.0529 65.9095 33.8838C65.9095 33.1866 65.8779 33.176 65.2912 32.9893C60.7661 31.5581 56.2094 29.9585 51.9263 28.4431C51.6379 28.3288 51.3315 28.2665 51.0213 28.2589V28.2695Z" fill="#FBAE40"/>
<path d="M57.9749 44.32C58.0064 48.2663 54.2916 51.6865 50.59 50.6341C48.459 50.029 47.2225 50.4342 45.9544 51.9995C45.2993 52.8072 44.6231 53.9438 43.3077 52.5257C42.087 51.2103 43.263 50.6367 43.9575 50.0658C45.5124 48.7925 45.9649 47.5297 45.4387 45.4013C44.5311 41.7181 47.4303 38.2795 51.1872 37.9717C54.731 37.6902 57.9459 40.692 57.9749 44.32Z" fill="#FBAE40"/>
<path d="M51.5712 40.9003C53.5339 40.8845 55.2702 42.6235 55.2097 44.544C55.1631 45.4674 54.7632 46.3376 54.0927 46.9742C53.4223 47.6109 52.5326 47.9653 51.6081 47.9642C49.6086 47.9457 48.0879 46.504 48.0248 44.5677C47.959 42.4577 49.4507 40.916 51.5712 40.9003Z" fill="#FBAE40"/>
<path d="M39.4442 40.6702C39.4442 37.4527 39.4994 34.2325 39.4205 31.0149C39.3863 29.5574 39.9467 28.8208 41.3253 28.384C45.7057 26.9581 50.0466 25.4217 54.4086 23.9484C55.3897 23.5801 56.4688 23.568 57.4578 23.9142C61.8777 25.4769 66.3028 27.0291 70.7727 28.4445C72.1276 28.8734 72.5222 29.5785 72.5143 30.8807C72.4793 37.3176 72.4793 43.7545 72.5143 50.1914C72.5143 51.4437 72.1276 52.3698 71.1647 53.1143C66.5659 56.6713 61.9409 60.1993 57.3947 63.822C56.2687 64.7165 55.5083 64.6112 54.4481 63.7641C49.9633 60.1931 45.4391 56.6704 40.8754 53.1959C39.7915 52.3671 39.389 51.4095 39.4153 50.0783C39.4995 46.9344 39.4442 43.801 39.4442 40.6702Z" fill="white"/>
<path d="M55.9634 66.0483C54.9321 66.0483 54.0876 65.5222 53.4536 65.0118C49.181 61.6127 44.6244 58.0636 39.9072 54.4619C38.4418 53.3438 37.7762 51.9337 37.8025 50.0315C37.8472 47.8032 37.8393 45.5748 37.8314 43.3465V40.6709V37.8821C37.8314 35.6064 37.8525 33.3307 37.7972 31.0576C37.7472 28.8951 38.7338 27.5165 40.8148 26.8482C43.6009 25.9432 46.3713 24.9908 49.1416 24.0385C50.7201 23.4965 52.2986 22.9519 53.8772 22.4205C55.2004 21.9338 56.652 21.9245 57.9813 22.3942C62.2354 23.899 66.7658 25.4907 71.2436 26.9061C73.2089 27.5296 74.1191 28.7924 74.1113 30.8866C74.0718 38.0452 74.0744 44.3541 74.1113 50.1762C74.1113 51.9705 73.4798 53.3491 72.1381 54.3856L68.8311 56.956C65.3425 59.6474 61.854 62.3362 58.4075 65.0828C57.5051 65.7853 56.6869 66.0483 55.9634 66.0483ZM56.0213 25.2697C55.648 25.2757 55.2782 25.3433 54.9269 25.4697C53.3483 25.9958 51.7698 26.5343 50.1913 27.085C47.4026 28.0427 44.6165 29.0029 41.8146 29.9132C41.0569 30.1605 41.0043 30.2894 41.0253 30.9892C41.0832 33.2939 41.0727 35.6012 41.0595 37.9084V40.6814V43.3465C41.0595 45.5985 41.0779 47.8558 41.0305 50.1078C41.0148 50.9708 41.2226 51.4233 41.8593 51.9126C46.5949 55.5275 51.1673 59.0897 55.4557 62.5019C55.6103 62.6424 55.7884 62.7546 55.9819 62.8334C56.129 62.76 56.2682 62.6719 56.3975 62.5703C59.8545 59.8132 63.3615 57.1139 66.8632 54.4146L70.186 51.8521C70.6359 51.5022 70.9147 51.1076 70.9095 50.2131C70.8647 44.3778 70.8647 38.0532 70.9095 30.884C70.9095 30.1868 70.8779 30.1763 70.2912 29.9895C65.7661 28.5583 61.2094 26.9587 56.9263 25.4433C56.6379 25.3291 56.3315 25.2667 56.0213 25.2592V25.2697Z" fill="#FBAE40"/>
<path d="M62.9749 41.3202C63.0064 45.2666 59.2916 48.6867 55.59 47.6344C53.459 47.0293 52.2225 47.4344 50.9544 48.9998C50.2993 49.8075 49.6231 50.944 48.3077 49.526C47.087 48.2105 48.263 47.637 48.9575 47.0661C50.5124 45.7927 50.9649 44.5299 50.4387 42.4015C49.5311 38.7183 52.4303 35.2797 56.1872 34.9719C59.731 34.6904 62.9459 37.6923 62.9749 41.3202Z" fill="#FBAE40"/>
<path d="M56.5712 37.9003C58.5339 37.8845 60.2702 39.6235 60.2097 41.544C60.1631 42.4674 59.7632 43.3376 59.0927 43.9742C58.4223 44.6109 57.5326 44.9653 56.6081 44.9642C54.6086 44.9457 53.0879 43.504 53.0248 41.5677C52.959 39.4577 54.4507 37.916 56.5712 37.9003Z" fill="white"/>
<defs>
<filter id="filter0_d_397_5610" x="-0.000105381" y="0" width="101.027" height="109.261" filterUnits="userSpaceOnUse" color-interpolation-filters="sRGB">
<feFlood flood-opacity="0" result="BackgroundImageFix"/>
<feColorMatrix in="SourceAlpha" type="matrix" values="0 0 0 0 0 0 0 0 0 0 0 0 0 0 0 0 0 0 127 0" result="hardAlpha"/>
<feOffset dx="-4.9193" dy="8.43309"/>
<feGaussianBlur stdDeviation="1.40551"/>
<feComposite in2="hardAlpha" operator="out"/>
<feColorMatrix type="matrix" values="0 0 0 0 0.25673 0 0 0 0 0.164842 0 0 0 0 0.0335725 0 0 0 0.1 0"/>
<feBlend mode="normal" in2="BackgroundImageFix" result="effect1_dropShadow_397_5610"/>
<feBlend mode="normal" in="SourceGraphic" in2="effect1_dropShadow_397_5610" result="shape"/>
</filter>
</defs>
</svg>
