<svg xmlns="http://www.w3.org/2000/svg" viewBox="0 0 138.07 167.28"><defs><style>.cls-1{fill:#f05924;}.cls-2{fill:#233a74;}.cls-3{fill:#fff;}</style></defs><g id="Layer_2" data-name="Layer 2"><g id="Layer_1-2" data-name="Layer 1"><path class="cls-1" d="M6.22,70.82c0-12.23.21-24.47-.09-36.69-.13-5.55,2-8.35,7.24-10.06C30,18.66,46.52,12.81,63.1,7.21a17,17,0,0,1,11.59-.13C91.49,13,108.31,18.92,125.3,24.3c5.15,1.63,6.65,4.31,6.62,9.27q-.19,36.69,0,73.39c0,4.76-1.47,8.29-5.13,11.12C109.34,131.6,91.76,145,74.48,158.77c-4.28,3.41-7.17,3-11.2-.22q-25.59-20.34-51.59-40.17C7.57,115.23,6,111.6,6.14,106.53,6.39,94.63,6.22,82.73,6.22,70.82Z"/><path class="cls-2" d="M69,167.28c-3.92,0-7.13-2-9.54-3.93C43.23,150.42,25.91,136.93,8,123.25,2.4,119-.12,113.64,0,106.41.19,97.94.16,89.47.13,81l0-10.16,0-10.61c0-8.65.08-17.3-.13-25.94-.19-8.21,3.55-13.46,11.47-16C22.07,14.8,32.6,11.19,43.12,7.57q9-3.11,18-6.16a23,23,0,0,1,15.6-.1C92.91,7,110.13,13.08,127.15,18.46c7.47,2.37,10.93,7.18,10.9,15.14-.15,27.2-.14,51.18,0,73.32.05,6.82-2.4,12-7.5,16l-12.65,9.75c-13.26,10.23-26.53,20.45-39.62,30.89C74.86,166.29,71.76,167.28,69,167.28Zm.22-155a12.93,12.93,0,0,0-4.16.77c-6,2-12,4.08-18,6.13-10.6,3.64-21.19,7.29-31.84,10.75-2.88.94-3.08,1.44-3,4.09.22,8.76.17,17.53.13,26.3l0,10.55,0,10.12c0,8.57.07,17.14-.11,25.7-.06,3.29.73,5,3.15,6.86,18,13.74,35.38,27.28,51.68,40.25a6.25,6.25,0,0,0,2,1.26,8.43,8.43,0,0,0,1.58-1c13.14-10.47,26.46-20.74,39.78-31l12.63-9.75c1.71-1.33,2.77-2.83,2.75-6.22-.17-22.19-.17-46.22,0-73.48,0-2.64-.12-2.69-2.35-3.39-17.2-5.45-34.52-11.53-50.8-17.29A10,10,0,0,0,69.23,12.24Z"/><path class="cls-3" d="M95.66,73.29c.12,15-14,28-28.07,24-8.1-2.3-12.8-.76-17.62,5.2-2.49,3.06-5.06,7.38-10.06,2-4.65-5-.17-7.18,2.47-9.34C48.29,90.34,50,85.53,48,77.45c-3.46-14,7.57-27.08,21.85-28.25C83.33,48.09,95.54,59.5,95.66,73.29Z"/><path class="cls-1" d="M71.32,60.29c7.46-.06,14.06,6.55,13.82,13.85a13.69,13.69,0,0,1-13.69,13c-7.59-.07-13.37-5.56-13.61-12.92C57.59,66.21,63.26,60.35,71.32,60.29Z"/></g></g></svg>