<svg width="102" height="110" viewBox="0 0 102 110" fill="none" xmlns="http://www.w3.org/2000/svg">
<g filter="url(#filter0_d_397_5623)">
<path d="M42.0024 9.65912C45.8823 8.20172 50.2078 8.53113 53.8223 10.5593L83.1487 27.0145C86.5684 28.9333 89.031 32.1935 89.9417 36.0075L95.2062 58.0539C96.6246 63.9939 94.0449 70.1702 88.8229 73.3367L55.1345 93.764C50.8011 96.3915 45.3889 96.4829 40.9693 94.0031L14.9076 79.3797C10.4747 76.8923 7.73022 72.2053 7.73022 67.1223L7.73022 35.4857C7.73022 31.9729 9.0457 28.5873 11.4175 25.996L15.9073 21.0908C17.4018 19.458 19.2608 18.2013 21.3329 17.4229L42.0024 9.65912Z" fill="#FBAE40"/>
<path d="M47.5089 3.85914C51.7807 1.46216 56.9924 1.46216 61.2643 3.85914L87.6006 18.6366C92.0335 21.124 94.778 25.811 94.778 30.894L94.778 59.7617C94.778 64.8447 92.0335 69.5317 87.6006 72.0191L61.2643 86.7965C56.9924 89.1935 51.7807 89.1935 47.5089 86.7965L21.1726 72.0191C16.7397 69.5317 13.9952 64.8447 13.9952 59.7617L13.9952 30.894C13.9952 25.8109 16.7397 21.124 21.1726 18.6366L47.5089 3.85914Z" fill="white" stroke="#FBAE40" stroke-width="2.81103"/>
</g>
<path d="M66.0259 37.0667C65.9222 37.0667 65.8286 37.1021 65.6542 37.1249C65.4923 38.943 65.3178 40.7739 65.1484 42.592C65.1437 42.873 65.1208 43.1535 65.0801 43.4316C65.0058 43.7056 65.0058 43.9945 65.0801 44.2686C65.1432 44.4744 65.2743 44.6527 65.4518 44.7743C65.6718 44.9412 65.7528 45.4242 65.73 45.7555C65.4291 49.144 65.1054 52.5199 64.7792 55.8983C64.6629 57.0438 64.5718 58.202 64.4201 59.3348C64.3746 59.6535 64.2102 60.0935 63.9801 60.2427C63.8202 60.3264 63.687 60.4535 63.5957 60.6093C63.4879 60.8265 63.4292 61.0648 63.4238 61.3073C63.2013 63.7399 62.9585 66.1827 62.7385 68.628C62.6095 70.0213 61.9369 70.6813 60.5461 70.6813C55.9412 70.6813 51.349 70.6813 46.7442 70.6813H41.5274C39.9747 70.6813 39.335 70.0668 39.1858 68.5192C38.9531 66.0284 38.7205 63.5376 38.4651 61.0468C38.4561 60.892 38.421 60.7398 38.3614 60.5967C38.3396 60.5378 38.2986 60.4879 38.2451 60.4551C37.6078 60.1592 37.5042 59.6181 37.4561 59.0036C37.1324 55.567 36.8062 52.1431 36.4825 48.7065C36.389 47.738 36.2297 46.7695 36.2297 45.801C36.2297 45.3762 36.5306 44.9513 36.7051 44.5366C36.7472 44.4416 36.7971 44.3503 36.8543 44.2635C36.8982 44.1927 36.9226 44.1116 36.9251 44.0283C36.7152 41.7373 36.4952 39.4589 36.2625 37.0971C35.9389 37.0743 35.6835 37.0743 35.4407 37.049C34.2446 36.9074 33.4809 35.9996 33.7692 34.806C34.1763 33.1295 34.7099 31.4757 35.2662 29.8345C35.4989 29.1391 36.1007 28.7724 36.8543 28.7497H37.934C38.3058 27.4853 38.6649 26.2816 39.0366 25.0653C39.3729 23.9299 40.0101 23.4241 41.181 23.4241C47.7102 23.4123 54.2402 23.4123 60.7711 23.4241C61.9419 23.4241 62.5691 23.9299 62.9155 25.0754C63.2645 26.269 63.6236 27.4625 64.0054 28.7497H64.7261C65.9905 28.7497 66.5468 29.1973 66.9059 30.4136C67.265 31.6299 67.6493 32.9044 68.0185 34.146C68.5546 35.9794 67.8921 36.9732 66.0259 37.0667Z" fill="#FBAE40"/>
<path d="M41.6768 68.8099C41.4477 68.8318 41.2167 68.797 41.0042 68.7088C40.9023 68.5036 40.8486 68.2779 40.8474 68.0488C40.6223 65.5984 40.3922 63.1405 40.1419 60.6825C40.1153 60.3498 40.0297 60.0243 39.889 59.7216C39.7358 59.3942 39.4861 59.1215 39.1734 58.9402C39.1734 58.8897 38.1897 48.5496 38.1897 48.5496C38.1593 48.236 38.1239 47.92 38.086 47.6064C38.0152 47.0121 37.9494 46.4508 37.9368 45.9096C37.9751 45.8172 38.0181 45.7269 38.0658 45.639C38.1391 45.4949 38.2099 45.3482 38.2706 45.2041L38.3591 45.0599C38.5238 44.76 38.6108 44.4235 38.612 44.0813V44.0029V43.9321C38.4072 41.674 38.1897 39.4284 37.9596 37.1045L37.8357 35.8401L36.5839 35.7516C36.4271 35.739 36.283 35.7339 36.1515 35.7264C36.02 35.7188 35.9214 35.7264 35.8152 35.7061C35.6839 35.7036 35.5588 35.6501 35.4662 35.5569C35.4465 35.4952 35.4465 35.4289 35.4662 35.3673C35.8632 33.7413 36.3917 32.1178 36.9025 30.6056C36.9025 30.6056 36.9557 30.5601 37.1074 30.5551H39.2214L39.5855 29.3312C39.932 28.1553 40.2734 27.0098 40.6223 25.8617C40.7766 25.356 40.8449 25.313 41.3152 25.313C44.5301 25.313 47.7433 25.313 50.9548 25.313C54.1663 25.313 57.3795 25.313 60.5944 25.313C61.0445 25.313 61.1229 25.3282 61.2872 25.8718C61.5199 26.6684 61.7626 27.4826 62.013 28.3222L62.678 30.5551H64.5089C64.6806 30.541 64.8533 30.5652 65.0146 30.6259C65.1189 30.7728 65.1912 30.9399 65.227 31.1164L66.3245 34.7932C66.4263 35.0421 66.4637 35.3126 66.4332 35.5797C66.2049 35.6645 65.9637 35.709 65.7201 35.7112C65.5482 35.7289 65.4672 35.7415 65.3838 35.7567L65.2295 35.782L64.0562 35.9438L63.9475 37.145C63.7907 38.9303 63.6187 40.7282 63.4417 42.516C63.4417 42.6501 63.4265 42.7689 63.4215 42.8776C63.4224 42.975 63.4156 43.0722 63.4013 43.1685C63.2684 43.6938 63.2754 44.2448 63.4215 44.7666C63.5296 45.1264 63.7211 45.4557 63.9804 45.7275C63.6946 49.0554 63.381 52.3351 63.065 55.6149L62.9714 56.5834C62.8955 57.3673 62.8222 58.1513 62.7185 58.9251C62.465 59.1189 62.2526 59.3613 62.0939 59.6382C61.8745 60.0407 61.7491 60.4876 61.7272 60.9455C61.621 62.1087 61.5098 63.2795 61.3985 64.4504C61.2822 65.6819 61.1633 66.9159 61.0521 68.1474C60.9964 68.777 60.9408 68.7947 60.3744 68.7947C55.8429 68.8049 51.3147 68.8049 46.7899 68.7947L41.6768 68.8099Z" fill="#FBAE40"/>
<path d="M65.7099 45.7579C65.4089 49.1464 65.0853 52.5223 64.759 55.9007C64.6427 57.0462 64.5517 58.2044 64.3999 59.3372C64.3544 59.6559 64.1901 60.0959 63.9599 60.245C63.8 60.3288 63.6668 60.4559 63.5756 60.6117H38.3615C38.3396 60.5528 38.2987 60.503 38.2452 60.4701C37.6079 60.1742 37.5042 59.6331 37.4562 59.0186C37.1325 55.582 36.8063 52.1581 36.4826 48.7216C36.389 47.753 36.2297 46.7845 36.2297 45.816C36.2297 45.3912 36.5307 44.9664 36.7051 44.5517C36.7473 44.4567 36.7972 44.3653 36.8543 44.2786H65.0726C65.1357 44.4844 65.2667 44.6627 65.4443 44.7843C65.6517 44.9436 65.7326 45.4266 65.7099 45.7579Z" fill="#FBAE40"/>
<path d="M38.3588 28.8254H62.9863L63.3706 30.545H37.9365L38.3588 28.8254Z" fill="#FBAE40"/>
<path d="M36.4043 35.7795H65.7428L65.3736 37.1451H36.6951L36.4043 35.7795Z" fill="#FBAE40"/>
<path d="M56.5811 48.193C55.8377 49.9631 54.4013 50.9316 52.348 51.1819C51.3365 51.3033 50.325 51.4348 49.4829 52.0442C48.4158 52.8029 47.6951 53.7486 47.5333 55.0029C47.4625 55.544 47.3537 56.0801 47.2526 56.6845C46.0413 55.9082 45.6544 54.8562 45.7834 53.6778C46.0894 50.8962 47.8519 48.9642 50.3781 47.538C51.6425 46.83 53.0181 46.4431 54.4898 46.6656C55.1423 46.7642 55.7542 47.1435 56.3611 47.4242C56.6899 47.5911 56.7126 47.8743 56.5811 48.193Z" fill="#FBAE40"/>
<path d="M56.9983 50.5195C57.2739 50.1983 57.504 49.8418 57.8176 49.4119C58.0302 50.4517 57.8728 51.5331 57.3725 52.4691C56.7908 53.6928 55.9405 54.7695 54.8849 55.6189C53.8293 56.4683 52.5956 57.0685 51.2757 57.3749C50.555 57.557 49.7585 57.4786 48.9821 57.4811C48.8557 57.4811 48.6129 57.2586 48.6205 57.1498C48.7369 55.6705 49.0707 54.2746 50.4311 53.253C51.2219 52.6558 52.1707 52.3041 53.1596 52.2415C54.6921 52.1252 56.0298 51.6549 56.9983 50.5195Z" fill="#FBAE40"/>
<path d="M71.0259 34.067C70.9222 34.067 70.8286 34.1024 70.6542 34.1251C70.4923 35.9433 70.3178 37.7741 70.1484 39.5923C70.1437 39.8733 70.1208 40.1537 70.0801 40.4318C70.0058 40.7059 70.0058 40.9948 70.0801 41.2688C70.1432 41.4746 70.2743 41.6529 70.4518 41.7746C70.6718 41.9415 70.7528 42.4245 70.73 42.7557C70.4291 46.1442 70.1054 49.5201 69.7792 52.8985C69.6629 54.044 69.5718 55.2022 69.4201 56.3351C69.3746 56.6537 69.2102 57.0937 68.9801 57.2429C68.8202 57.3267 68.687 57.4537 68.5957 57.6096C68.4879 57.8268 68.4292 58.0651 68.4238 58.3075C68.2013 60.7402 67.9585 63.1829 67.7385 65.6282C67.6095 67.0216 66.9369 67.6816 65.5461 67.6816C60.9412 67.6816 56.349 67.6816 51.7442 67.6816H46.5274C44.9747 67.6816 44.335 67.0671 44.1858 65.5195C43.9531 63.0287 43.7205 60.5379 43.4651 58.0471C43.4561 57.8923 43.421 57.7401 43.3614 57.5969C43.3396 57.538 43.2986 57.4882 43.2451 57.4553C42.6078 57.1595 42.5042 56.6183 42.4561 56.0038C42.1324 52.5673 41.8062 49.1433 41.4825 45.7068C41.389 44.7383 41.2297 43.7697 41.2297 42.8012C41.2297 42.3764 41.5306 41.9516 41.7051 41.5369C41.7472 41.4419 41.7971 41.3505 41.8543 41.2638C41.8982 41.193 41.9226 41.1118 41.9251 41.0286C41.7152 38.7375 41.4952 36.4592 41.2625 34.0973C40.9389 34.0745 40.6835 34.0745 40.4407 34.0493C39.2446 33.9076 38.4809 32.9998 38.7692 31.8063C39.1763 30.1297 39.7099 28.4759 40.2662 26.8347C40.4989 26.1393 41.1007 25.7727 41.8543 25.7499H42.934C43.3058 24.4855 43.6649 23.2819 44.0366 22.0655C44.3729 20.9301 45.0101 20.4244 46.181 20.4244C52.7102 20.4126 59.2402 20.4126 65.7711 20.4244C66.9419 20.4244 67.5691 20.9301 67.9155 22.0757C68.2645 23.2692 68.6236 24.4628 69.0054 25.7499H69.7261C70.9905 25.7499 71.5468 26.1975 71.9059 27.4138C72.265 28.6302 72.6493 29.9046 73.0185 31.1463C73.5546 32.9796 72.8921 33.9734 71.0259 34.067Z" fill="#FBAE40"/>
<path d="M46.6768 65.8102C46.4477 65.832 46.2167 65.7973 46.0042 65.709C45.9023 65.5038 45.8486 65.2781 45.8474 65.049C45.6223 62.5987 45.3922 60.1407 45.1419 57.6828C45.1153 57.35 45.0297 57.0246 44.889 56.7218C44.7358 56.3944 44.4861 56.1218 44.1734 55.9405C44.1734 55.8899 43.1897 45.5499 43.1897 45.5499C43.1593 45.2363 43.1239 44.9202 43.086 44.6066C43.0152 44.0124 42.9494 43.451 42.9368 42.9098C42.9751 42.8175 43.0181 42.7272 43.0658 42.6393C43.1391 42.4951 43.2099 42.3485 43.2706 42.2043L43.3591 42.0602C43.5238 41.7602 43.6108 41.4238 43.612 41.0816V41.0032V40.9324C43.4072 38.6742 43.1897 36.4287 42.9596 34.1048L42.8357 32.8404L41.5839 32.7519C41.4271 32.7392 41.283 32.7342 41.1515 32.7266C41.02 32.719 40.9214 32.7266 40.8152 32.7064C40.6839 32.7038 40.5588 32.6503 40.4662 32.5572C40.4465 32.4955 40.4465 32.4292 40.4662 32.3675C40.8632 30.7415 41.3917 29.1181 41.9025 27.6059C41.9025 27.6059 41.9557 27.5604 42.1074 27.5553H44.2214L44.5855 26.3314C44.932 25.1555 45.2734 24.01 45.6223 22.862C45.7766 22.3562 45.8449 22.3132 46.3152 22.3132C49.5301 22.3132 52.7433 22.3132 55.9548 22.3132C59.1663 22.3132 62.3795 22.3132 65.5944 22.3132C66.0445 22.3132 66.1229 22.3284 66.2872 22.8721C66.5199 23.6686 66.7626 24.4829 67.013 25.3224L67.678 27.5553H69.5089C69.6806 27.5412 69.8533 27.5654 70.0146 27.6261C70.1189 27.773 70.1912 27.9401 70.227 28.1167L71.3245 31.7935C71.4263 32.0423 71.4637 32.3128 71.4332 32.5799C71.2049 32.6647 70.9637 32.7092 70.7201 32.7114C70.5482 32.7291 70.4672 32.7418 70.3838 32.7569L70.2295 32.7822L69.0562 32.9441L68.9475 34.1452C68.7907 35.9305 68.6187 37.7285 68.4417 39.5163C68.4417 39.6503 68.4265 39.7691 68.4215 39.8779C68.4224 39.9752 68.4156 40.0724 68.4013 40.1687C68.2684 40.6941 68.2754 41.245 68.4215 41.7669C68.5296 42.1267 68.7211 42.4559 68.9804 42.7278C68.6946 46.0556 68.381 49.3354 68.065 52.6152L67.9714 53.5837C67.8955 54.3676 67.8222 55.1515 67.7185 55.9253C67.465 56.1191 67.2526 56.3615 67.0939 56.6384C66.8745 57.0409 66.7491 57.4879 66.7272 57.9458C66.621 59.109 66.5098 60.2798 66.3985 61.4506C66.2822 62.6821 66.1633 63.9161 66.0521 65.1476C65.9964 65.7773 65.9408 65.795 65.3744 65.795C60.8429 65.8051 56.3147 65.8051 51.7899 65.795L46.6768 65.8102Z" fill="white"/>
<path d="M70.7099 42.7579C70.4089 46.1464 70.0853 49.5223 69.759 52.9007C69.6427 54.0462 69.5517 55.2044 69.3999 56.3372C69.3544 56.6559 69.1901 57.0959 68.9599 57.245C68.8 57.3288 68.6668 57.4559 68.5756 57.6117H43.3615C43.3396 57.5528 43.2987 57.503 43.2452 57.4701C42.6079 57.1742 42.5042 56.6331 42.4562 56.0186C42.1325 52.582 41.8063 49.1581 41.4826 45.7216C41.389 44.753 41.2297 43.7845 41.2297 42.816C41.2297 42.3912 41.5307 41.9664 41.7051 41.5517C41.7473 41.4567 41.7972 41.3653 41.8543 41.2786H70.0726C70.1357 41.4844 70.2667 41.6627 70.4443 41.7843C70.6517 41.9436 70.7326 42.4266 70.7099 42.7579Z" fill="#FBAE40"/>
<path d="M43.3588 25.8257H67.9863L68.3706 27.5452H42.9365L43.3588 25.8257Z" fill="#FBAE40"/>
<path d="M41.4043 32.7795H70.7428L70.3736 34.1451H41.6951L41.4043 32.7795Z" fill="#FBAE40"/>
<path d="M61.5811 45.1932C60.8377 46.9633 59.4013 47.9318 57.348 48.1822C56.3365 48.3036 55.325 48.4351 54.4829 49.0445C53.4158 49.8031 52.6951 50.7489 52.5333 52.0031C52.4625 52.5443 52.3537 53.0804 52.2526 53.6847C51.0413 52.9084 50.6544 51.8564 50.7834 50.6781C51.0894 47.8964 52.8519 45.9645 55.3781 44.5383C56.6425 43.8302 58.0181 43.4433 59.4898 43.6658C60.1423 43.7645 60.7542 44.1438 61.3611 44.4245C61.6899 44.5914 61.7126 44.8746 61.5811 45.1932Z" fill="white"/>
<path d="M61.9983 47.5197C62.2739 47.1986 62.504 46.842 62.8176 46.4121C63.0302 47.4519 62.8728 48.5333 62.3725 49.4694C61.7908 50.6931 60.9405 51.7697 59.8849 52.6191C58.8293 53.4685 57.5956 54.0688 56.2757 54.3751C55.555 54.5572 54.7585 54.4788 53.9821 54.4813C53.8557 54.4813 53.6129 54.2588 53.6205 54.1501C53.7369 52.6707 54.0707 51.2749 55.4311 50.2533C56.2219 49.6561 57.1707 49.3044 58.1596 49.2418C59.6921 49.1255 61.0298 48.6551 61.9983 47.5197Z" fill="white"/>
<defs>
<filter id="filter0_d_397_5623" x="-0.000105381" y="0" width="101.027" height="109.261" filterUnits="userSpaceOnUse" color-interpolation-filters="sRGB">
<feFlood flood-opacity="0" result="BackgroundImageFix"/>
<feColorMatrix in="SourceAlpha" type="matrix" values="0 0 0 0 0 0 0 0 0 0 0 0 0 0 0 0 0 0 127 0" result="hardAlpha"/>
<feOffset dx="-4.9193" dy="8.43309"/>
<feGaussianBlur stdDeviation="1.40551"/>
<feComposite in2="hardAlpha" operator="out"/>
<feColorMatrix type="matrix" values="0 0 0 0 0.25673 0 0 0 0 0.164842 0 0 0 0 0.0335725 0 0 0 0.1 0"/>
<feBlend mode="normal" in2="BackgroundImageFix" result="effect1_dropShadow_397_5623"/>
<feBlend mode="normal" in="SourceGraphic" in2="effect1_dropShadow_397_5623" result="shape"/>
</filter>
</defs>
</svg>
