<svg xmlns="http://www.w3.org/2000/svg" viewBox="0 0 136.43 186.96"><defs><style>.cls-1{fill:#f05924;}.cls-2{fill:#fff;}.cls-3{fill:#233a74;}</style></defs><g id="Layer_2" data-name="Layer 2"><g id="Layer_1-2" data-name="Layer 1"><path class="cls-1" d="M127.84,54c-.41.05-.78.14-1.47.23-.64,7.19-1.33,14.43-2,21.62a27.87,27.87,0,0,1-.28,3.32,6.32,6.32,0,0,0,0,3.31,3.76,3.76,0,0,0,1.47,2c.87.66,1.2,2.57,1.1,3.88-1.19,13.4-2.47,26.75-3.76,40.11-.46,4.53-.82,9.11-1.42,13.59-.18,1.26-.83,3-1.74,3.59a3.81,3.81,0,0,0-1.52,1.45,6.68,6.68,0,0,0-.68,2.76c-.88,9.62-1.84,19.28-2.71,28.95-.5,5.51-3.16,8.12-8.67,8.12-18.21.05-36.37.05-54.58.05H31c-6.14-.05-8.67-2.43-9.26-8.55-.92-9.85-1.84-19.7-2.85-29.55a5.45,5.45,0,0,0-.41-1.78,1.11,1.11,0,0,0-.46-.56c-2.52-1.17-2.93-3.31-3.12-5.74-1.28-13.59-2.56-27.13-3.85-40.72-.37-3.83-1-7.66-1-11.49,0-1.68,1.19-3.36,1.88-5a7.45,7.45,0,0,1,.59-1.08,1.87,1.87,0,0,0,.28-.93c-.83-9.06-1.7-18.07-2.62-27.41C8.82,54,7.81,54,6.85,53.92,2.12,53.36-.9,49.77.24,45.05,1.85,38.42,4,31.88,6.16,25.39c.92-2.75,3.3-4.2,6.28-4.29h4.27c1.47-5,2.89-9.76,4.36-14.57C22.4,2,24.92,0,29.55,0Q68.28,0,107,0c4.63,0,7.11,2,8.48,6.53,1.38,4.72,2.8,9.44,4.32,14.53h2.84c5,0,7.2,1.77,8.62,6.58s2.94,9.85,4.4,14.76C137.89,49.67,135.23,53.6,127.84,54Z"/><path class="cls-2" d="M31.56,179.5a5.56,5.56,0,0,1-2.66-.4h0a6.09,6.09,0,0,1-.61-2.61c-.9-9.69-1.81-19.41-2.8-29.13a11.11,11.11,0,0,0-1-3.8,6.93,6.93,0,0,0-2.83-3.09c0-.2-3.89-41.09-3.89-41.09-.12-1.24-.26-2.49-.41-3.73-.28-2.35-.54-4.57-.59-6.71a11.47,11.47,0,0,1,.51-1.07c.29-.57.57-1.15.81-1.72l.35-.57a8.1,8.1,0,0,0,1-3.87v-.28l0-.28c-.81-8.93-1.67-17.81-2.58-27l-.49-5-4.94-.35c-.63,0-1.2-.07-1.72-.1s-.91,0-1.33-.08A2,2,0,0,1,7,48a1.18,1.18,0,0,1,0-.75c1.56-6.43,3.65-12.85,5.67-18.83,0,0,.21-.18.81-.2h8.39l1.43-4.84C24.7,18.73,26,14.2,27.42,9.66c.61-2,.88-2.17,2.74-2.17q19.06,0,38.12,0t38.12,0c1.78,0,2.09.06,2.74,2.21.92,3.15,1.88,6.37,2.88,9.69l2.62,8.83h7.16a4.55,4.55,0,0,1,2,.28,5.1,5.1,0,0,1,.84,1.94L129,45a6.32,6.32,0,0,1,.43,3.11h0a8.32,8.32,0,0,1-2.82.52c-.68.07-1,.12-1.33.18l-.61.1-4.64.64-.42,4.75c-.63,7.06-1.31,14.17-2,21.24,0,.53-.06,1-.08,1.43a7.33,7.33,0,0,1-.08,1.15,12.19,12.19,0,0,0,.09,6.32,9.3,9.3,0,0,0,2.2,3.8c-1.12,13.16-2.37,26.13-3.62,39.1l-.37,3.83c-.3,3.1-.59,6.2-1,9.26a9.49,9.49,0,0,0-2.47,2.82,12.13,12.13,0,0,0-1.45,5.19c-.42,4.6-.86,9.23-1.3,13.86-.46,4.87-.93,9.75-1.37,14.62-.22,2.49-.44,2.56-2.68,2.56q-26.88.06-53.72,0Z"/><path class="cls-3" d="M126.6,88.34c-1.19,13.4-2.47,26.75-3.76,40.11-.46,4.53-.82,9.11-1.42,13.59-.18,1.26-.83,3-1.74,3.59a3.81,3.81,0,0,0-1.52,1.45H18.45a1.11,1.11,0,0,0-.46-.56c-2.52-1.17-2.93-3.31-3.12-5.74-1.28-13.59-2.56-27.13-3.85-40.72-.37-3.83-1-7.66-1-11.49,0-1.68,1.19-3.36,1.88-5a7.45,7.45,0,0,1,.59-1.08H124a3.76,3.76,0,0,0,1.47,2C126.37,85.12,126.7,87,126.6,88.34Z"/><polygon class="cls-1" points="18.44 21.38 115.83 21.38 117.35 28.18 16.77 28.18 18.44 21.38"/><polygon class="cls-1" points="10.71 48.88 126.73 48.88 125.27 54.28 11.86 54.28 10.71 48.88"/><path class="cls-2" d="M90.5,98c-2.94,7-8.62,10.83-16.74,11.82-4,.48-8,1-11.33,3.41-4.22,3-7.07,6.74-7.71,11.7-.28,2.14-.71,4.26-1.11,6.65-4.79-3.07-6.32-7.23-5.81-11.89C49,108.66,56,101,66,95.38c5-2.8,10.44-4.33,16.26-3.45,2.58.39,5,1.89,7.4,3C90.93,95.59,91,96.71,90.5,98Z"/><path class="cls-2" d="M92.15,107.17c1.09-1.27,2-2.68,3.24-4.38a18,18,0,0,1-1.76,12.09,35.61,35.61,0,0,1-24.11,19.4c-2.85.72-6,.41-9.07.42-.5,0-1.46-.88-1.42-1.31.45-5.85,1.77-11.37,7.15-15.41A20,20,0,0,1,77,114C83,113.52,88.32,111.66,92.15,107.17Z"/></g></g></svg>