<svg xmlns="http://www.w3.org/2000/svg" viewBox="0 0 119.07 136.86"><defs><style>.cls-1{fill:#f05924;}.cls-2{fill:#233a74;}</style></defs><g id="Layer_2" data-name="Layer 2"><g id="Layer_1-2" data-name="Layer 1"><path class="cls-1" d="M.06,74.9c0-14.2.2-28.4-.06-42.59-.22-12.93,8.18-21,23.85-19.37.49.05,1.36.31,1.37.52.15,2.37.56,4.83.1,7.1-.36,1.81-2.45.79-3.76.92-2,.2-4-.09-5.93.24-4.42.77-6.94,4.14-7,9.23,0,16.32,0,32.65,0,49,0,12.6,0,25.21,0,37.82,0,7.46,2.94,10.46,10.25,10.46q40.63,0,81.27,0c7.32,0,10.27-3,10.27-10.44q0-42.79,0-85.59c0-7.67-2.94-10.61-10.5-10.65H98.78c-5,0-6.63-2.34-5.16-7.28a1.67,1.67,0,0,1,1.23-1.3c9.22-3,20.85,3.23,23.55,12.64a22.79,22.79,0,0,1,.67,6.3q0,43,0,86c0,11.82-6.94,18.92-18.65,18.95q-40.83.09-81.67,0C7,136.79.09,129.7.07,117.89Q0,96.4.06,74.9Z"/><path class="cls-1" d="M59.46,34.28c-4.22,0-8.44.09-12.66,0A12.52,12.52,0,0,1,34.15,21.73c-.1-2.91-.1-5.83,0-8.74C34.34,6,38.88.66,45.83.33,54.91-.11,64-.1,73.12.3,80.24.61,84.83,6,85,13.2c.07,2.78.08,5.56,0,8.34C84.77,29,79.61,34.1,72.12,34.27,67.9,34.36,63.68,34.29,59.46,34.28Zm.3-25.54H53.83c-11.62,0-11.56,0-11.21,11.7.11,3.64,1.63,5.33,5.28,5.29,5.8-.07,11.6,0,17.4,0,11.73,0,11.85-.17,11.2-12-.2-3.49-1.89-5-5.27-4.95C67.41,8.78,63.58,8.74,59.76,8.74Z"/><path class="cls-2" d="M93.62,81.33c0,6.63,0,13.26,0,19.89,0,6-3.4,9.88-8.49,9.93s-8.58-3.85-8.61-9.83q-.12-20.08,0-40.18c0-6,3.57-9.76,8.7-9.66s8.36,3.88,8.4,10C93.65,68.07,93.62,74.7,93.62,81.33Z"/><path class="cls-2" d="M68.15,90c0,4,.09,7.94,0,11.9-.16,5.58-3.8,9.4-8.71,9.3S51.1,107.36,51,102q-.18-12.09,0-24.2c.08-5.62,3.72-9.35,8.7-9.27,4.81.08,8.25,3.74,8.41,9.16C68.24,81.74,68.15,85.85,68.15,90Z"/><path class="cls-2" d="M25.63,98.05a35.24,35.24,0,0,1,0-5.14,8.52,8.52,0,0,1,8.49-7.37,8.37,8.37,0,0,1,8.2,7.17,36.94,36.94,0,0,1,0,11.06A8.4,8.4,0,0,1,34,111.15a8.57,8.57,0,0,1-8.38-8c-.17-1.7,0-3.43,0-5.15Z"/></g></g></svg>