<svg width="102" height="110" viewBox="0 0 102 110" fill="none" xmlns="http://www.w3.org/2000/svg">
<g filter="url(#filter0_d_397_5609)">
<path d="M42.0024 9.65912C45.8823 8.20172 50.2078 8.53113 53.8223 10.5593L83.1487 27.0145C86.5684 28.9333 89.031 32.1935 89.9417 36.0075L95.2062 58.0539C96.6246 63.9939 94.0449 70.1702 88.8229 73.3367L55.1345 93.764C50.8011 96.3915 45.3889 96.4829 40.9693 94.0031L14.9076 79.3797C10.4747 76.8923 7.73022 72.2053 7.73022 67.1223L7.73022 35.4857C7.73022 31.9729 9.0457 28.5873 11.4175 25.996L15.9073 21.0908C17.4018 19.458 19.2608 18.2013 21.3329 17.4229L42.0024 9.65912Z" fill="#FBAE40"/>
<path d="M47.5089 3.85914C51.7807 1.46216 56.9924 1.46216 61.2643 3.85914L87.6006 18.6366C92.0335 21.124 94.778 25.811 94.778 30.894L94.778 59.7617C94.778 64.8447 92.0335 69.5317 87.6006 72.0191L61.2643 86.7965C56.9924 89.1935 51.7807 89.1935 47.5089 86.7965L21.1726 72.0191C16.7397 69.5317 13.9952 64.8447 13.9952 59.7617L13.9952 30.894C13.9952 25.8109 16.7397 21.124 21.1726 18.6366L47.5089 3.85914Z" fill="white" stroke="#FBAE40" stroke-width="2.81103"/>
</g>
<path d="M67.3293 37.0398C67.7293 34.2398 63.8293 31.8732 61.8293 31.0398H57.3293C57.3293 31.0398 56.3293 28.1169 50.8293 28.5399C44.8293 29.0014 44.8293 31.0398 44.8293 31.0398H39.8293L34.3293 34.5398V62.0398C34.3293 62.8398 36.6627 65.7065 37.8293 67.0398H58.3293C65.1293 67.0398 67.1627 64.7065 67.3293 63.5398C67.1627 55.8731 66.9293 39.8398 67.3293 37.0398Z" fill="#FBAE40"/>
<path d="M33.49 48.9275C33.49 44.75 33.5488 40.5667 33.4724 36.3893C33.4078 32.5857 35.8739 30.207 40.4743 30.6899C40.6181 30.7046 40.8735 30.7811 40.8765 30.8429C40.9205 31.5406 41.0409 32.2649 40.9058 32.9331C40.8001 33.466 40.1865 33.1657 39.802 33.204C39.2148 33.2599 38.6276 33.1745 38.061 33.2746C36.7634 33.5013 36.0236 34.4934 36.0207 35.9919C36.006 40.7964 36.0207 45.6008 36.0207 50.4171C36.0207 54.1294 36.0207 57.8417 36.0207 61.551C36.0207 63.7501 36.8838 64.6304 39.0298 64.6333H62.8889C65.0379 64.6333 65.9039 63.7501 65.9039 61.5569C65.9039 53.1569 65.9039 44.7589 65.9039 36.3628C65.9039 34.1019 65.0438 33.2363 62.8243 33.2246H62.475C61.0071 33.2246 60.5285 32.5386 60.9601 31.0843C60.9779 30.9928 61.0213 30.9081 61.0852 30.8404C61.1491 30.7726 61.231 30.7245 61.3212 30.7016C64.028 29.8184 67.4423 31.6496 68.232 34.4227C68.3859 35.0284 68.4531 35.6528 68.4316 36.2774C68.4316 44.7167 68.4316 53.1559 68.4316 61.5952C68.4316 65.0749 66.3942 67.168 62.9564 67.1886C54.9652 67.2102 46.9731 67.2102 38.9799 67.1886C35.5392 67.1886 33.5047 65.0926 33.4988 61.6187C33.4871 57.3795 33.4842 53.1491 33.49 48.9275Z" fill="#FBAE40"/>
<path d="M50.9287 36.9782C49.6898 36.9782 48.4509 37.0047 47.212 36.9782C46.7256 36.9829 46.2431 36.8909 45.7923 36.7074C45.3416 36.524 44.9316 36.2528 44.586 35.9095C44.2404 35.5663 43.9661 35.1577 43.7789 34.7075C43.5917 34.2573 43.4953 33.7743 43.4953 33.2866C43.4659 32.4299 43.4689 31.5702 43.4953 30.7135C43.554 28.6675 44.8869 27.0866 46.9272 26.9865C49.5929 26.86 52.2703 26.86 54.939 26.9865C57.0292 27.0807 58.3767 28.6705 58.4267 30.7842C58.4472 31.6026 58.4501 32.424 58.4267 33.2424C58.3621 35.4327 56.8472 36.94 54.6483 36.9871C53.4065 36.9959 52.1588 36.9782 50.9287 36.9782ZM51.0167 29.4594H49.2758C45.8645 29.4594 45.8821 29.4594 45.9848 32.9009C46.0142 33.9754 46.4634 34.473 47.5349 34.4612C49.2377 34.4406 50.9404 34.4612 52.6432 34.4612C56.0839 34.4612 56.1221 34.4082 55.9312 30.9285C55.8725 29.901 55.3764 29.4565 54.3841 29.4742C53.2626 29.4653 52.1382 29.4536 51.0167 29.4536V29.4594Z" fill="#FBAE40"/>
<path d="M60.966 50.8144C60.966 52.7663 60.966 54.7181 60.966 56.6699C60.966 58.4363 59.9679 59.5785 58.4735 59.5962C56.9792 59.6138 55.9546 58.4598 55.9458 56.7023C55.9224 52.7574 55.9224 48.8145 55.9458 44.8736C55.9458 43.1072 56.9939 42.0003 58.5 42.0268C60.006 42.0533 60.9543 43.172 60.966 44.9708C60.966 46.9167 60.966 48.8685 60.966 50.8144Z" fill="#FBAE40"/>
<path d="M53.4797 53.3582C53.4797 54.5357 53.5061 55.6956 53.4797 56.8644C53.4327 58.5071 52.3641 59.6287 50.9227 59.6022C49.4812 59.5757 48.4801 58.4835 48.4537 56.8967C48.4184 54.522 48.4184 52.1472 48.4537 49.7725C48.4772 48.115 49.5458 47.0169 51.0078 47.0434C52.4199 47.067 53.4298 48.1415 53.4768 49.7371C53.5061 50.9441 53.4797 52.1512 53.4797 53.3582Z" fill="#FBAE40"/>
<path d="M41.0027 55.7456C40.966 55.2419 40.966 54.7362 41.0027 54.2325C41.0847 53.629 41.3828 53.0761 41.8414 52.6769C42.3001 52.2776 42.8879 52.0594 43.4952 52.0628C44.0818 52.0681 44.6471 52.2838 45.0887 52.6711C45.5304 53.0583 45.8191 53.5913 45.9025 54.1736C46.0654 55.2518 46.0654 56.3484 45.9025 57.4266C45.8289 58.0309 45.5359 58.5869 45.0793 58.9882C44.6228 59.3895 44.0348 59.6081 43.4277 59.6022C42.7983 59.5889 42.1967 59.3398 41.7413 58.9039C41.286 58.468 41.0099 57.8769 40.9675 57.247C40.9176 56.7466 40.9675 56.2373 40.9675 55.7309L41.0027 55.7456Z" fill="#FBAE40"/>
<path d="M72.3293 33.6167C72.7293 30.8167 68.8293 28.4501 66.8293 27.6167H62.3293C62.3293 27.6167 61.3293 24.6938 55.8293 25.1168C49.8293 25.5783 49.8293 27.6167 49.8293 27.6167H44.8293L39.3293 31.1167V58.6167C39.3293 59.4167 41.6627 62.2834 42.8293 63.6167H63.3293C70.1293 63.6167 72.1627 61.2834 72.3293 60.1167C72.1627 52.4501 71.9293 36.4167 72.3293 33.6167Z" fill="white"/>
<path d="M38.49 45.9277C38.49 41.7503 38.5488 37.567 38.4724 33.3895C38.4078 29.586 40.8739 27.2073 45.4743 27.6901C45.6181 27.7048 45.8735 27.7813 45.8765 27.8432C45.9205 28.5409 46.0409 29.2651 45.9058 29.9334C45.8001 30.4662 45.1865 30.1659 44.802 30.2042C44.2148 30.2601 43.6276 30.1748 43.061 30.2749C41.7634 30.5015 41.0236 31.4937 41.0207 32.9921C41.006 37.7966 41.0207 42.6011 41.0207 47.4173C41.0207 51.1296 41.0207 54.8419 41.0207 58.5513C41.0207 60.7504 41.8838 61.6306 44.0298 61.6336H67.8889C70.0379 61.6336 70.9039 60.7504 70.9039 58.5572C70.9039 50.1572 70.9039 41.7591 70.9039 33.363C70.9039 31.1021 70.0438 30.2366 67.8243 30.2248H67.475C66.0071 30.2248 65.5285 29.5389 65.9601 28.0846C65.9779 27.993 66.0213 27.9084 66.0852 27.8406C66.1491 27.7728 66.231 27.7247 66.3212 27.7019C69.028 26.8187 72.4423 28.6498 73.232 31.423C73.3859 32.0286 73.4531 32.6531 73.4316 33.2777C73.4316 41.7169 73.4316 50.1562 73.4316 58.5954C73.4316 62.0751 71.3942 64.1683 67.9564 64.1889C59.9652 64.2105 51.9731 64.2105 43.9799 64.1889C40.5392 64.1889 38.5047 62.0928 38.4988 58.619C38.4871 54.3797 38.4842 50.1493 38.49 45.9277Z" fill="#FBAE40"/>
<path d="M55.9287 33.9785C54.6898 33.9785 53.4509 34.005 52.212 33.9785C51.7256 33.9831 51.2431 33.8911 50.7923 33.7077C50.3416 33.5242 49.9316 33.253 49.586 32.9098C49.2404 32.5665 48.9661 32.158 48.7789 31.7077C48.5917 31.2575 48.4953 30.7746 48.4953 30.2868C48.4659 29.4301 48.4689 28.5705 48.4953 27.7138C48.554 25.6678 49.8869 24.0869 51.9272 23.9868C54.5929 23.8602 57.2703 23.8602 59.939 23.9868C62.0292 24.081 63.3767 25.6707 63.4267 27.7845C63.4472 28.6029 63.4501 29.4242 63.4267 30.2426C63.3621 32.4329 61.8472 33.9402 59.6483 33.9873C58.4065 33.9961 57.1588 33.9785 55.9287 33.9785ZM56.0167 26.4597H54.2758C50.8645 26.4597 50.8821 26.4597 50.9848 29.9011C51.0142 30.9757 51.4634 31.4732 52.5349 31.4614C54.2377 31.4408 55.9404 31.4614 57.6432 31.4614C61.0839 31.4614 61.1221 31.4084 60.9312 27.9287C60.8725 26.9013 60.3764 26.4567 59.3841 26.4744C58.2626 26.4656 57.1382 26.4538 56.0167 26.4538V26.4597Z" fill="#FBAE40"/>
<path d="M65.966 47.8144C65.966 49.7663 65.966 51.7181 65.966 53.6699C65.966 55.4363 64.9679 56.5785 63.4735 56.5962C61.9792 56.6138 60.9546 55.4598 60.9458 53.7023C60.9224 49.7574 60.9224 45.8145 60.9458 41.8736C60.9458 40.1072 61.9939 39.0003 63.5 39.0268C65.006 39.0533 65.9543 40.172 65.966 41.9708C65.966 43.9167 65.966 45.8685 65.966 47.8144Z" fill="#FBAE40"/>
<path d="M58.4797 50.3584C58.4797 51.536 58.5061 52.6959 58.4797 53.8646C58.4327 55.5073 57.3641 56.629 55.9227 56.6025C54.4812 56.576 53.4801 55.4838 53.4537 53.897C53.4184 51.5222 53.4184 49.1475 53.4537 46.7727C53.4772 45.1153 54.5458 44.0172 56.0078 44.0437C57.4199 44.0672 58.4298 45.1418 58.4768 46.7374C58.5061 47.9444 58.4797 49.1514 58.4797 50.3584Z" fill="#FBAE40"/>
<path d="M46.0027 52.7459C45.966 52.2422 45.966 51.7364 46.0027 51.2327C46.0847 50.6293 46.3828 50.0763 46.8414 49.6771C47.3001 49.2779 47.8879 49.0596 48.4952 49.063C49.0818 49.0683 49.6471 49.2841 50.0887 49.6713C50.5304 50.0585 50.8191 50.5915 50.9025 51.1738C51.0654 52.252 51.0654 53.3487 50.9025 54.4269C50.8289 55.0312 50.5359 55.5871 50.0793 55.9885C49.6228 56.3898 49.0348 56.6084 48.4277 56.6024C47.7983 56.5891 47.1967 56.34 46.7413 55.9041C46.286 55.4682 46.0099 54.8771 45.9675 54.2473C45.9176 53.7468 45.9675 53.2375 45.9675 52.7312L46.0027 52.7459Z" fill="#FBAE40"/>
<defs>
<filter id="filter0_d_397_5609" x="-0.000105381" y="0" width="101.027" height="109.261" filterUnits="userSpaceOnUse" color-interpolation-filters="sRGB">
<feFlood flood-opacity="0" result="BackgroundImageFix"/>
<feColorMatrix in="SourceAlpha" type="matrix" values="0 0 0 0 0 0 0 0 0 0 0 0 0 0 0 0 0 0 127 0" result="hardAlpha"/>
<feOffset dx="-4.9193" dy="8.43309"/>
<feGaussianBlur stdDeviation="1.40551"/>
<feComposite in2="hardAlpha" operator="out"/>
<feColorMatrix type="matrix" values="0 0 0 0 0.25673 0 0 0 0 0.164842 0 0 0 0 0.0335725 0 0 0 0.1 0"/>
<feBlend mode="normal" in2="BackgroundImageFix" result="effect1_dropShadow_397_5609"/>
<feBlend mode="normal" in="SourceGraphic" in2="effect1_dropShadow_397_5609" result="shape"/>
</filter>
</defs>
</svg>
