<svg xmlns="http://www.w3.org/2000/svg" viewBox="0 0 186.89 177.58"><defs><style>.cls-1{fill:#f05924;}.cls-2{fill:#233a74;}</style></defs><g id="Layer_2" data-name="Layer 2"><g id="Layer_1-2" data-name="Layer 1"><path class="cls-1" d="M123.11,120.22c-.55,4,1.16,7.52,4.81,10,3.41,2.27,7.25,2.47,9.35.49,1.91-1.81,1.63-5.53-.65-8.64s-6.3-5.26-9.43-4.65c-1.48.28-2.43-.24-3.76-1.38Q97.92,94.18,72.36,72.41a8,8,0,0,1-.87-.75c-.41-.49-.76-1-1.13-1.52a5.53,5.53,0,0,1,1.62.14q11.13,4.25,22.25,8.56,27.51,10.59,55,21.17a11.09,11.09,0,0,1,6.07,5.24c4.31,7.69,8.73,15.36,13.17,23,.72,1.24.83,2,.1,2.86q-12.9,15-25.66,30.06c-.59.69-1.18.86-2.39.36q-13.22-5.37-26.45-10.64a9.31,9.31,0,0,1-4.77-4.08Q88.48,111.15,67.61,75.45a5.73,5.73,0,0,1-.44-1.62,5.14,5.14,0,0,1,1.35.58Q95.79,97.27,123.11,120.22Z"/><path class="cls-2" d="M65,33.41c5.48-1.2,11.05-2.89,16.73-3.54,12.87-1.48,24.85,1.58,36,8.24a3.15,3.15,0,0,0,2.39.19,9.78,9.78,0,0,1,11.54,3.28,9.65,9.65,0,1,1-17.15,3.26c.11-.5.25-1,.38-1.46-16-11.36-43-11.58-60.86,4.22l3.53,3-11.09,13-3.52-3c-.83,1.57-1.64,2.86-2.24,4.25Q28,94.3,47.56,119.74a2.16,2.16,0,0,0,2.9.83,9.43,9.43,0,0,1,11,3.8,9.64,9.64,0,0,1-12.52,13.86,9.24,9.24,0,0,1-4.8-10.73c.65-2,0-3.08-1.18-4.52q-17-21.56-11.57-48.53a2.66,2.66,0,0,0-.05-1.62l-2.18,2.55c-3.42,4-6.82,8-10.28,12A2.09,2.09,0,0,0,18.45,90a9.48,9.48,0,0,1-3.66,12A9.65,9.65,0,1,1,12,84.46a1.92,1.92,0,0,0,2.34-.57Q25.77,70.42,37.25,57a5.4,5.4,0,0,0,.4-.66l-4.09-3.49,11.09-13,4.12,3.51c.57-.6,1-1,1.42-1.51Q61.1,29.09,72,16.32a2.4,2.4,0,0,0,.52-3A9.48,9.48,0,0,1,76,1.71a9.47,9.47,0,0,1,11.61.59A9.41,9.41,0,0,1,90.1,13.79a9.41,9.41,0,0,1-10.7,5.26,2.74,2.74,0,0,0-3.21,1.15C72.4,24.73,68.54,29.2,65,33.41Z"/><path class="cls-2" d="M173,160.9c-4.25,5-8.47,10-12.75,14.93-2.15,2.49-6.51,2.3-10.19-.37-4.1-3-6-7.24-4.74-10.5a5.29,5.29,0,0,1,.95-1.44q12.6-14.79,25.22-29.56c2.39-2.81,7.19-2.33,11.2,1.07s5.36,8.18,3,11C181.49,151,177.25,156,173,160.9Z"/></g></g></svg>