<svg width="102" height="110" viewBox="0 0 102 110" fill="none" xmlns="http://www.w3.org/2000/svg">
<g filter="url(#filter0_d_397_5612)">
<path d="M42.0024 9.65912C45.8823 8.20172 50.2078 8.53113 53.8223 10.5593L83.1487 27.0145C86.5684 28.9333 89.031 32.1935 89.9417 36.0075L95.2062 58.0539C96.6246 63.9939 94.0449 70.1702 88.8229 73.3367L55.1345 93.764C50.8011 96.3915 45.3889 96.4829 40.9693 94.0031L14.9076 79.3797C10.4747 76.8923 7.73022 72.2053 7.73022 67.1223L7.73022 35.4857C7.73022 31.9729 9.0457 28.5873 11.4175 25.996L15.9073 21.0908C17.4018 19.458 19.2608 18.2013 21.3329 17.4229L42.0024 9.65912Z" fill="#FBAE40"/>
<path d="M47.5089 3.85914C51.7807 1.46216 56.9924 1.46216 61.2643 3.85914L87.6006 18.6366C92.0335 21.124 94.778 25.811 94.778 30.894L94.778 59.7617C94.778 64.8447 92.0335 69.5317 87.6006 72.0191L61.2643 86.7965C56.9924 89.1935 51.7807 89.1935 47.5089 86.7965L21.1726 72.0191C16.7397 69.5317 13.9952 64.8447 13.9952 59.7617L13.9952 30.894C13.9952 25.8109 16.7397 21.124 21.1726 18.6366L47.5089 3.85914Z" fill="white" stroke="#FBAE40" stroke-width="2.81103"/>
</g>
<path d="M43.2302 57.8252L45.7302 55.8252L42.7302 50.3252L40.7302 41.3252L43.7302 37.3252L47.2302 34.3252L49.7302 32.8252H53.7302L58.2302 34.3252L61.2302 36.8252L64.2302 33.8252L59.2302 29.8252H47.7302L40.7302 36.3252L38.7302 41.3252L35.7302 44.3252L36.7302 45.8252H37.7302L38.2302 49.3252L40.2302 54.3252L43.2302 57.8252Z" fill="#FBAE40"/>
<path d="M49.2301 37.8252L44.1387 43.3252L62.7301 65.4576L64.7301 66.3252L67.6987 69.3376L72.7301 66.8976L76.2301 55.3252L75.4387 53.8252L49.2301 37.8252Z" fill="#FBAE40"/>
<path d="M58.4742 55.0259C58.332 56.0419 58.766 56.9386 59.6925 57.566C60.5605 58.1451 61.5326 58.1959 62.0656 57.693C62.5504 57.2332 62.4793 56.2883 61.9006 55.4958C61.322 54.7033 60.3016 54.1597 59.5097 54.3146C59.1341 54.3883 58.8904 54.2562 58.5528 53.9667C54.238 50.2699 49.9181 46.5792 45.5931 42.8943C45.5144 42.836 45.4406 42.7714 45.3723 42.7012C45.2682 42.5793 45.1769 42.4472 45.0829 42.3177C45.2219 42.308 45.3614 42.32 45.4967 42.3532C47.3774 43.0696 49.2607 43.7986 51.1415 44.525C55.7964 46.3217 60.4497 48.1151 65.1012 49.905C65.7634 50.1383 66.3135 50.6126 66.6419 51.2335C67.7358 53.1868 68.8602 55.1351 69.9846 57.0757C70.1674 57.3907 70.1978 57.5838 70.01 57.8022C67.8272 60.3423 65.6563 62.8875 63.4971 65.4378C63.3474 65.6156 63.1976 65.6562 62.8905 65.5318C60.6536 64.6207 58.4158 63.7198 56.1771 62.8291C55.6661 62.6321 55.2398 62.2629 54.9715 61.7851C51.4401 55.743 47.9096 49.6993 44.3799 43.6538C44.3235 43.5236 44.2867 43.3858 44.2708 43.2448C44.3905 43.2777 44.5049 43.3273 44.6109 43.3922C49.2303 47.2616 53.8514 51.1395 58.4742 55.0259Z" fill="#FBAE40"/>
<path d="M46.2037 33.303C47.5972 33.0008 49.0084 32.5715 50.45 32.4039C53.7166 32.0279 56.7598 32.8052 59.5873 34.4969C59.6797 34.5449 59.7807 34.5739 59.8845 34.5822C59.9882 34.5905 60.0926 34.5779 60.1914 34.5452C60.7033 34.3399 61.2688 34.3104 61.7992 34.4611C62.3297 34.6119 62.7952 34.9345 63.123 35.3783C63.365 35.7126 63.5188 36.1026 63.57 36.5122C63.6213 36.9217 63.5683 37.3376 63.4161 37.7213C63.2639 38.1049 63.0173 38.4439 62.6993 38.7067C62.3813 38.9696 62.002 39.1478 61.5968 39.2248C61.1916 39.3019 60.7735 39.2753 60.3813 39.1474C59.9891 39.0196 59.6355 38.7948 59.3533 38.4937C59.0711 38.1927 58.8695 37.8252 58.7671 37.4253C58.6647 37.0254 58.6648 36.6062 58.7675 36.2064C58.798 36.0819 58.8335 35.9524 58.864 35.8381C54.7903 32.95 47.95 32.8966 43.4168 36.9075L44.3128 37.6695L41.498 40.9717L40.6046 40.2096C40.3939 40.6059 40.1883 40.9361 40.0386 41.2866C37.9082 46.2788 38.4946 50.9272 41.7975 55.2319C41.869 55.3563 41.986 55.4481 42.1238 55.4879C42.2615 55.5277 42.4094 55.5124 42.5361 55.4452C43.042 55.2696 43.5921 55.2691 44.0984 55.4436C44.6046 55.6182 45.0376 55.9578 45.3281 56.4079C45.6287 56.8609 45.7702 57.401 45.7302 57.9433C45.6902 58.4856 45.4709 58.9992 45.107 59.403C44.7431 59.8068 44.2552 60.0778 43.7203 60.1735C43.1854 60.2691 42.634 60.1838 42.1529 59.9311C41.6648 59.6893 41.2761 59.285 41.0533 58.7877C40.8306 58.2904 40.7877 57.731 40.932 57.2055C41.097 56.6848 40.932 56.4206 40.6325 56.0548C37.756 52.4039 36.7771 48.2948 37.6959 43.7277C37.7375 43.5937 37.7375 43.4502 37.6959 43.3162L37.1426 43.9664C36.272 44.9825 35.409 45.9985 34.5334 47.0146C34.445 47.094 34.3861 47.2009 34.3663 47.3181C34.3465 47.4353 34.3669 47.5557 34.4242 47.6598C34.6654 48.1941 34.7041 48.798 34.5332 49.3589C34.3623 49.9197 33.9934 50.3992 33.4953 50.7079C33.1524 50.9264 32.7606 51.0561 32.3552 51.0853C31.9498 51.1145 31.5434 51.0422 31.1729 50.875C30.8023 50.7078 30.4792 50.451 30.2325 50.1276C29.9859 49.8042 29.8236 49.4245 29.7602 49.0227C29.6968 48.6209 29.7343 48.2096 29.8694 47.8259C30.0045 47.4422 30.2328 47.0982 30.5339 46.8249C30.8349 46.5516 31.1992 46.3576 31.5939 46.2603C31.9886 46.163 32.4013 46.1656 32.7947 46.2678C32.8953 46.3146 33.0088 46.3256 33.1165 46.2988C33.2241 46.2719 33.3193 46.209 33.3861 46.1205C35.3151 43.8394 37.2509 41.5635 39.1934 39.2926C39.2312 39.2393 39.2651 39.1832 39.2949 39.125L38.2568 38.2359L41.0716 34.9338L42.1173 35.8279C42.262 35.6755 42.3711 35.5739 42.4803 35.4418C44.323 33.2793 46.1674 31.1186 48.0134 28.9595C48.1197 28.867 48.1909 28.7408 48.2149 28.6019C48.2389 28.4631 48.2144 28.3202 48.1454 28.1974C47.9381 27.6924 47.9057 27.1323 48.0535 26.6067C48.2014 26.0811 48.5208 25.6202 48.961 25.2975C49.4012 24.9748 49.9366 24.809 50.4819 24.8264C51.0273 24.8439 51.5511 25.0436 51.9697 25.3938C52.3884 25.744 52.6778 26.2244 52.7917 26.7584C52.9057 27.2923 52.8377 27.8492 52.5985 28.3399C52.3593 28.8307 51.9628 29.2272 51.4722 29.4661C50.9815 29.705 50.4251 29.7725 49.8916 29.658C49.7429 29.606 49.5809 29.6066 49.4326 29.6597C49.2843 29.7129 49.1588 29.8154 49.0769 29.9501C48.0921 31.1008 47.1124 32.2362 46.2037 33.303Z" fill="#FBAE40"/>
<path d="M71.1444 65.3618C70.0683 66.6318 68.9946 67.9019 67.9108 69.1516C67.3626 69.7867 66.256 69.7359 65.3245 69.0602C64.2838 68.2981 63.8016 67.2186 64.1189 66.3931C64.1821 66.2576 64.2679 66.1339 64.3727 66.0273C66.503 63.5193 68.6359 61.0156 70.7713 58.5162C71.3805 57.8049 72.5963 57.9269 73.6166 58.788C74.6369 59.6491 74.9745 60.8683 74.3628 61.5821C73.2917 62.8521 72.2155 64.1044 71.1444 65.3618Z" fill="#FBAE40"/>
<path d="M63.4742 52.0261C63.332 53.0422 63.766 53.9388 64.6925 54.5662C65.5605 55.1454 66.5326 55.1962 67.0656 54.6932C67.5504 54.2335 67.4793 53.2885 66.9006 52.496C66.322 51.7035 65.3016 51.1599 64.5097 51.3149C64.1341 51.3886 63.8904 51.2565 63.5528 50.9669C59.238 47.2702 54.9181 43.5794 50.5931 39.8945C50.5144 39.8362 50.4406 39.7717 50.3723 39.7015C50.2682 39.5796 50.1769 39.4475 50.0829 39.3179C50.2219 39.3083 50.3614 39.3203 50.4967 39.3535C52.3774 40.0698 54.2607 40.7988 56.1415 41.5253C60.7964 43.322 65.4497 45.1153 70.1012 46.9053C70.7634 47.1385 71.3135 47.6128 71.6419 48.2337C72.7358 50.1871 73.8602 52.1353 74.9846 54.076C75.1674 54.391 75.1978 54.584 75.01 54.8025C72.8272 57.3426 70.6563 59.8878 68.4971 62.438C68.3474 62.6158 68.1976 62.6565 67.8905 62.532C65.6536 61.621 63.4158 60.7201 61.1771 59.8293C60.6661 59.6324 60.2398 59.2632 59.9715 58.7854C56.4401 52.7433 52.9096 46.6995 49.3799 40.654C49.3235 40.5239 49.2867 40.386 49.2708 40.2451C49.3905 40.278 49.5049 40.3276 49.6109 40.3924C54.2303 44.2618 58.8514 48.1397 63.4742 52.0261Z" fill="white" stroke="#FBAE40"/>
<path d="M48.7123 29.9757C50.1057 29.6734 51.5169 29.2441 52.9586 29.0765C56.2252 28.7005 59.2684 29.4778 62.0959 31.1695C62.1882 31.2175 62.2893 31.2465 62.393 31.2548C62.4968 31.2631 62.6011 31.2505 62.7 31.2178C63.2119 31.0125 63.7773 30.983 64.3078 31.1337C64.8383 31.2845 65.3038 31.6071 65.6315 32.0509C65.8735 32.3852 66.0273 32.7752 66.0786 33.1848C66.1298 33.5944 66.0769 34.0102 65.9246 34.3939C65.7724 34.7775 65.5259 35.1165 65.2078 35.3794C64.8898 35.6422 64.5106 35.8204 64.1054 35.8975C63.7001 35.9745 63.2821 35.9479 62.8899 35.8201C62.4977 35.6922 62.1441 35.4674 61.8619 35.1663C61.5797 34.8653 61.378 34.4978 61.2756 34.0979C61.1732 33.6981 61.1734 33.2788 61.2761 32.879C61.3065 32.7545 61.3421 32.625 61.3725 32.5107C57.2988 29.6226 50.4585 29.5692 45.9254 33.5801L46.8214 34.3421L44.0066 37.6443L43.1131 36.8822C42.9025 37.2785 42.6969 37.6087 42.5471 37.9592C40.4168 42.9514 41.0031 47.5998 44.3061 51.9045C44.3776 52.0289 44.4945 52.1207 44.6323 52.1605C44.7701 52.2003 44.9179 52.185 45.0447 52.1178C45.5505 51.9422 46.1007 51.9417 46.6069 52.1163C47.1131 52.2908 47.5462 52.6304 47.8366 53.0805C48.1373 53.5335 48.2788 54.0737 48.2387 54.6159C48.1987 55.1582 47.9795 55.6718 47.6155 56.0756C47.2516 56.4794 46.7637 56.7505 46.2289 56.8461C45.694 56.9417 45.1425 56.8564 44.6614 56.6037C44.1734 56.3619 43.7846 55.9576 43.5619 55.4603C43.3391 54.963 43.2962 54.4036 43.4406 53.8781C43.6055 53.3574 43.4406 53.0932 43.1411 52.7275C40.2645 49.0765 39.2856 44.9674 40.2044 40.4003C40.246 40.2663 40.246 40.1228 40.2044 39.9888L39.6511 40.639C38.7805 41.6551 37.9176 42.6711 37.0419 43.6872C36.9535 43.7666 36.8947 43.8735 36.8748 43.9907C36.855 44.1079 36.8754 44.2283 36.9328 44.3324C37.174 44.8667 37.2127 45.4706 37.0418 46.0315C36.8708 46.5923 36.5019 47.0718 36.0038 47.3805C35.661 47.599 35.2692 47.7287 34.8637 47.7579C34.4583 47.7871 34.052 47.7148 33.6814 47.5476C33.3109 47.3804 32.9877 47.1236 32.7411 46.8002C32.4945 46.4768 32.3321 46.0971 32.2687 45.6953C32.2053 45.2935 32.2429 44.8822 32.3779 44.4985C32.513 44.1148 32.7414 43.7708 33.0424 43.4975C33.3435 43.2242 33.7078 43.0302 34.1025 42.9329C34.4972 42.8356 34.9098 42.8382 35.3033 42.9404C35.4038 42.9872 35.5174 42.9982 35.625 42.9714C35.7326 42.9446 35.8278 42.8816 35.8947 42.7931C37.8237 40.5121 39.7594 38.2361 41.7019 35.9652C41.7397 35.9119 41.7737 35.8558 41.8035 35.7976L40.7654 34.9086L43.5802 31.6064L44.6259 32.5005C44.7705 32.3481 44.8797 32.2465 44.9888 32.1144C46.8315 29.9519 48.6759 27.7912 50.522 25.6321C50.6282 25.5397 50.6994 25.4134 50.7234 25.2745C50.7475 25.1357 50.7229 24.9929 50.6539 24.87C50.4466 24.365 50.4143 23.8049 50.5621 23.2793C50.7099 22.7537 51.0294 22.2928 51.4695 21.9701C51.9097 21.6474 52.4452 21.4816 52.9905 21.4991C53.5358 21.5165 54.0596 21.7162 54.4783 22.0664C54.8969 22.4166 55.1863 22.897 55.3003 23.431C55.4142 23.965 55.3462 24.5218 55.107 25.0125C54.8679 25.5033 54.4713 25.8998 53.9807 26.1387C53.4901 26.3776 52.9337 26.4452 52.4002 26.3306C52.2515 26.2786 52.0895 26.2792 51.9412 26.3323C51.7929 26.3855 51.6673 26.488 51.5855 26.6227C50.6007 27.7734 49.6209 28.9088 48.7123 29.9757Z" fill="white" stroke="#FBAE40"/>
<path d="M76.1444 62.3618C75.0683 63.6318 73.9946 64.9019 72.9108 66.1516C72.3626 66.7867 71.256 66.7359 70.3245 66.0602C69.2838 65.2981 68.8016 64.2186 69.1189 63.3931C69.1821 63.2576 69.2679 63.1339 69.3727 63.0273C71.503 60.5193 73.6359 58.0156 75.7713 55.5162C76.3805 54.8049 77.5963 54.9269 78.6166 55.788C79.6369 56.6491 79.9745 57.8683 79.3628 58.5821C78.2917 59.8521 77.2155 61.1044 76.1444 62.3618Z" fill="white" stroke="#FBAE40"/>
<defs>
<filter id="filter0_d_397_5612" x="-0.000105381" y="0" width="101.027" height="109.261" filterUnits="userSpaceOnUse" color-interpolation-filters="sRGB">
<feFlood flood-opacity="0" result="BackgroundImageFix"/>
<feColorMatrix in="SourceAlpha" type="matrix" values="0 0 0 0 0 0 0 0 0 0 0 0 0 0 0 0 0 0 127 0" result="hardAlpha"/>
<feOffset dx="-4.9193" dy="8.43309"/>
<feGaussianBlur stdDeviation="1.40551"/>
<feComposite in2="hardAlpha" operator="out"/>
<feColorMatrix type="matrix" values="0 0 0 0 0.25673 0 0 0 0 0.164842 0 0 0 0 0.0335725 0 0 0 0.1 0"/>
<feBlend mode="normal" in2="BackgroundImageFix" result="effect1_dropShadow_397_5612"/>
<feBlend mode="normal" in="SourceGraphic" in2="effect1_dropShadow_397_5612" result="shape"/>
</filter>
</defs>
</svg>
