<svg width="102" height="110" viewBox="0 0 102 110" fill="none" xmlns="http://www.w3.org/2000/svg">
<g filter="url(#filter0_d_397_5680)">
<path d="M42.0025 9.65912C45.8825 8.20172 50.2079 8.53113 53.8224 10.5593L83.1488 27.0145C86.5685 28.9333 89.0311 32.1935 89.9419 36.0075L95.2063 58.0539C96.6248 63.9939 94.045 70.1702 88.823 73.3367L55.1346 93.764C50.8013 96.3915 45.389 96.4829 40.9694 94.0031L14.9078 79.3797C10.4749 76.8923 7.73035 72.2053 7.73035 67.1223L7.73035 35.4857C7.73035 31.9729 9.04582 28.5873 11.4176 25.996L15.9074 21.0908C17.4019 19.458 19.2609 18.2013 21.333 17.4229L42.0025 9.65912Z" fill="#FBAE40"/>
<path d="M47.509 3.85914C51.7809 1.46216 56.9925 1.46216 61.2644 3.85914L87.6007 18.6366C92.0336 21.124 94.7781 25.811 94.7781 30.894L94.7781 59.7617C94.7781 64.8447 92.0336 69.5317 87.6007 72.0191L61.2644 86.7965C56.9925 89.1935 51.7809 89.1935 47.509 86.7965L21.1727 72.0191C16.7398 69.5317 13.9953 64.8447 13.9953 59.7617L13.9953 30.894C13.9953 25.8109 16.7398 21.124 21.1727 18.6366L47.509 3.85914Z" fill="white" stroke="#FBAE40" stroke-width="2.81103"/>
</g>
<path d="M54.9921 47.9381C54.9921 48.5007 54.7664 49.0402 54.3647 49.438C53.963 49.8359 53.4182 50.0594 52.8501 50.0594H35.705L26.9587 55.8703L29.1007 50.0594C28.5326 50.0594 27.9878 49.8359 27.5861 49.438C27.1844 49.0402 26.9587 48.5007 26.9587 47.9381V33.9179C26.9587 33.3553 27.1844 32.8158 27.5861 32.4179C27.9878 32.0201 28.5326 31.7966 29.1007 31.7966H52.8501C53.1314 31.7966 53.4099 31.8515 53.6698 31.9581C53.9297 32.0647 54.1658 32.221 54.3647 32.4179C54.5636 32.6149 54.7214 32.8488 54.829 33.1061C54.9367 33.3635 54.9921 33.6394 54.9921 33.9179V47.9381Z" fill="#FBAE40"/>
<path d="M25.4534 57.7709L28.0873 50.6265C27.5344 50.4214 27.0577 50.0541 26.7211 49.5737C26.3844 49.0934 26.2036 48.5228 26.2029 47.938V33.9179C26.2037 33.1571 26.5092 32.4277 27.0525 31.8897C27.5957 31.3517 28.3322 31.0491 29.1004 31.0483H52.8498C53.6181 31.0491 54.3546 31.3517 54.8978 31.8897C55.4411 32.4277 55.7466 33.1571 55.7474 33.9179V47.938C55.7464 48.6988 55.4408 49.4281 54.8976 49.966C54.3544 50.5039 53.618 50.8066 52.8498 50.8076H35.9352L25.4534 57.7709ZM29.1004 32.5449C28.7329 32.5453 28.3805 32.69 28.1205 32.9474C27.8606 33.2049 27.7144 33.5539 27.714 33.9179V47.938C27.7144 48.3021 27.8606 48.6511 28.1205 48.9085C28.3805 49.1659 28.7329 49.3107 29.1004 49.3111H30.1809L28.4635 53.969L35.4751 49.3111H52.8528C53.2204 49.3107 53.5729 49.1659 53.8328 48.9085C54.0927 48.6511 54.2389 48.3021 54.2393 47.938V33.9179C54.2389 33.5539 54.0927 33.2049 53.8328 32.9474C53.5729 32.69 53.2204 32.5453 52.8528 32.5449H29.1004Z" fill="#FBAE40"/>
<path d="M36.6025 45.0842H33.022V42.9412H33.711L35.4065 38.2758H34.6789V36.1328H41.1767V38.2758H40.4491L42.1778 42.9412H42.8404V45.0842H38.1227V43.1215H38.9153L38.5715 41.9992H36.258L35.8613 43.1215H36.6025V45.0842ZM37.4533 38.4045L36.6025 40.882H38.2202L37.4533 38.4045Z" fill="#FBAE40"/>
<path d="M48.6046 45.0842H43.4509V42.9412H44.282V38.2758H43.4509V36.1328H48.6046V38.2758H47.778V42.9412H48.6038L48.6046 45.0842Z" fill="#FBAE40"/>
<path d="M49.1962 53.8582C49.1972 54.3738 49.4045 54.8681 49.7726 55.2327C50.1408 55.5974 50.6399 55.8027 51.1606 55.8036H66.9109L74.9455 61.141L72.981 55.8036C73.5017 55.8027 74.0008 55.5974 74.369 55.2327C74.7372 54.8681 74.9445 54.3738 74.9455 53.8582V40.9792C74.9455 40.4632 74.7385 39.9684 74.3701 39.6035C74.0017 39.2387 73.502 39.0337 72.981 39.0337H51.1636C50.6426 39.0337 50.143 39.2387 49.7746 39.6035C49.4062 39.9684 49.1992 40.4632 49.1992 40.9792L49.1962 53.8582Z" fill="#FBAE40"/>
<path d="M76.4535 63.0484L66.6842 56.558H51.1636C50.4428 56.5562 49.752 56.2718 49.2422 55.767C48.7325 55.2623 48.4454 54.5781 48.4436 53.8642V40.9852C48.4452 40.2713 48.7323 39.5871 49.242 39.0822C49.7518 38.5774 50.4427 38.2931 51.1636 38.2915H72.981C73.7019 38.2931 74.3928 38.5774 74.9026 39.0822C75.4123 39.5871 75.6994 40.2713 75.701 40.9852V53.8583C75.7005 54.3975 75.5371 54.9243 75.2317 55.3708C74.9263 55.8172 74.4929 56.163 73.9874 56.3634L76.4535 63.0484ZM51.1636 39.7775C50.8434 39.7787 50.5366 39.9052 50.3101 40.1295C50.0836 40.3538 49.9559 40.6576 49.9547 40.9748V53.8583C49.9561 54.1754 50.0839 54.4791 50.3103 54.7033C50.5367 54.9275 50.8434 55.0541 51.1636 55.0555H67.1436L73.4434 59.2405L71.9006 55.0555H72.981C73.3013 55.0543 73.6081 54.9278 73.8345 54.7035C74.061 54.4793 74.1887 54.1754 74.1899 53.8583V40.9792C74.1889 40.662 74.0612 40.3581 73.8347 40.1338C73.6082 39.9095 73.3013 39.783 72.981 39.782L51.1636 39.7775Z" fill="#FBAE40"/>
<path d="M53.2097 49.4068H51.6985V48.4842H52.0008V46.4766H51.6932V45.5525H54.0393L54.6127 47.04L55.1998 45.5525H57.5329V46.4751H57.2307V48.4827H57.5443V49.4053H55.5133V48.4827H55.8239V46.3307L54.649 49.4053H54.068L52.9044 46.3584V48.4827H53.2119L53.2097 49.4068Z" fill="#FBAE40"/>
<path d="M61.7482 49.4068H58.0369V48.4842H58.3391V46.4766H58.0309V45.5525H61.7482V46.7849H60.7275V46.4751H59.8434V47.0677H60.6126V47.8511H59.8434V48.4827H60.7275V48.1714H61.7482V49.4068Z" fill="#FBAE40"/>
<path d="M63.829 49.4068H62.3217V48.4842H62.6239V46.4766H62.3157V45.5525H64.6624L65.2359 47.04L65.823 45.5525H68.1554V46.4751H67.8531V48.4827H68.1659V49.4053H66.1305V48.4827H66.4402V46.3307L65.2654 49.4053H64.6836L63.5208 46.3584V48.4827H63.8283L63.829 49.4068Z" fill="#FBAE40"/>
<path d="M72.3676 49.4068H68.6563V48.4842H68.9585V46.4766H68.651V45.5525H72.3683V46.7849H71.3476V46.4751H70.4636V47.0677H71.2328V47.8511H70.4636V48.4827H71.3476V48.1714H72.3683L72.3676 49.4068Z" fill="#FBAE40"/>
<path d="M59.9921 44.9381C59.9921 45.5007 59.7664 46.0402 59.3647 46.438C58.963 46.8359 58.4182 47.0594 57.8501 47.0594H40.705L31.9587 52.8703L34.1007 47.0594C33.5326 47.0594 32.9878 46.8359 32.5861 46.438C32.1844 46.0402 31.9587 45.5007 31.9587 44.9381V30.9179C31.9587 30.3553 32.1844 29.8158 32.5861 29.4179C32.9878 29.0201 33.5326 28.7966 34.1007 28.7966H57.8501C58.1314 28.7966 58.4099 28.8515 58.6698 28.9581C58.9297 29.0647 59.1658 29.221 59.3647 29.4179C59.5636 29.6149 59.7214 29.8488 59.829 30.1061C59.9367 30.3635 59.9921 30.6394 59.9921 30.9179V44.9381Z" fill="white"/>
<path d="M30.4534 54.7709L33.0873 47.6265C32.5344 47.4214 32.0577 47.0541 31.7211 46.5737C31.3844 46.0934 31.2036 45.5228 31.2029 44.938V30.9179C31.2037 30.1571 31.5092 29.4277 32.0525 28.8897C32.5957 28.3517 33.3322 28.0491 34.1004 28.0483H57.8498C58.6181 28.0491 59.3546 28.3517 59.8978 28.8897C60.4411 29.4277 60.7466 30.1571 60.7474 30.9179V44.938C60.7464 45.6988 60.4408 46.4281 59.8976 46.966C59.3544 47.5039 58.618 47.8066 57.8498 47.8076H40.9352L30.4534 54.7709ZM34.1004 29.5449C33.7329 29.5453 33.3805 29.69 33.1205 29.9474C32.8606 30.2049 32.7144 30.5539 32.714 30.9179V44.938C32.7144 45.3021 32.8606 45.6511 33.1205 45.9085C33.3805 46.1659 33.7329 46.3107 34.1004 46.3111H35.1809L33.4635 50.969L40.4751 46.3111H57.8528C58.2204 46.3107 58.5729 46.1659 58.8328 45.9085C59.0927 45.6511 59.2389 45.3021 59.2393 44.938V30.9179C59.2389 30.5539 59.0927 30.2049 58.8328 29.9474C58.5729 29.69 58.2204 29.5453 57.8528 29.5449H34.1004Z" fill="#FBAE40"/>
<path d="M41.6025 42.0842H38.022V39.9412H38.711L40.4065 35.2758H39.6789V33.1328H46.1767V35.2758H45.4491L47.1778 39.9412H47.8404V42.0842H43.1227V40.1215H43.9153L43.5715 38.9992H41.258L40.8613 40.1215H41.6025V42.0842ZM42.4533 35.4045L41.6025 37.882H43.2202L42.4533 35.4045Z" fill="#FBAE40"/>
<path d="M53.6046 42.0842H48.4509V39.9412H49.282V35.2758H48.4509V33.1328H53.6046V35.2758H52.778V39.9412H53.6038L53.6046 42.0842Z" fill="#FBAE40"/>
<path d="M54.1962 50.8582C54.1972 51.3738 54.4045 51.8681 54.7726 52.2327C55.1408 52.5974 55.6399 52.8027 56.1606 52.8036H71.9109L79.9455 58.141L77.981 52.8036C78.5017 52.8027 79.0008 52.5974 79.369 52.2327C79.7372 51.8681 79.9445 51.3738 79.9455 50.8582V37.9792C79.9455 37.4632 79.7385 36.9684 79.3701 36.6035C79.0017 36.2387 78.502 36.0337 77.981 36.0337H56.1636C55.6426 36.0337 55.143 36.2387 54.7746 36.6035C54.4062 36.9684 54.1992 37.4632 54.1992 37.9792L54.1962 50.8582Z" fill="white"/>
<path d="M81.4535 60.0484L71.6842 53.558H56.1636C55.4428 53.5562 54.752 53.2718 54.2422 52.767C53.7325 52.2623 53.4454 51.5781 53.4436 50.8642V37.9852C53.4452 37.2713 53.7323 36.5871 54.242 36.0822C54.7518 35.5774 55.4427 35.2931 56.1636 35.2915H77.981C78.7019 35.2931 79.3928 35.5774 79.9026 36.0822C80.4123 36.5871 80.6994 37.2713 80.701 37.9852V50.8583C80.7005 51.3975 80.5371 51.9243 80.2317 52.3708C79.9263 52.8172 79.4929 53.163 78.9874 53.3634L81.4535 60.0484ZM56.1636 36.7775C55.8434 36.7787 55.5366 36.9052 55.3101 37.1295C55.0836 37.3538 54.9559 37.6576 54.9547 37.9748V50.8583C54.9561 51.1754 55.0839 51.4791 55.3103 51.7033C55.5367 51.9275 55.8434 52.0541 56.1636 52.0555H72.1436L78.4434 56.2405L76.9006 52.0555H77.981C78.3013 52.0543 78.6081 51.9278 78.8345 51.7035C79.061 51.4793 79.1887 51.1754 79.1899 50.8583V37.9792C79.1889 37.662 79.0612 37.3581 78.8347 37.1338C78.6082 36.9095 78.3013 36.783 77.981 36.782L56.1636 36.7775Z" fill="#FBAE40"/>
<path d="M58.2097 46.4068H56.6985V45.4842H57.0008V43.4766H56.6932V42.5525H59.0393L59.6127 44.04L60.1998 42.5525H62.5329V43.4751H62.2307V45.4827H62.5443V46.4053H60.5133V45.4827H60.8239V43.3307L59.649 46.4053H59.068L57.9044 43.3584V45.4827H58.2119L58.2097 46.4068Z" fill="#FBAE40"/>
<path d="M66.7482 46.4068H63.0369V45.4842H63.3391V43.4766H63.0309V42.5525H66.7482V43.7849H65.7275V43.4751H64.8434V44.0677H65.6126V44.8511H64.8434V45.4827H65.7275V45.1714H66.7482V46.4068Z" fill="#FBAE40"/>
<path d="M68.829 46.4068H67.3217V45.4842H67.6239V43.4766H67.3157V42.5525H69.6624L70.2359 44.04L70.823 42.5525H73.1554V43.4751H72.8531V45.4827H73.1659V46.4053H71.1305V45.4827H71.4402V43.3307L70.2654 46.4053H69.6836L68.5208 43.3584V45.4827H68.8283L68.829 46.4068Z" fill="#FBAE40"/>
<path d="M77.3676 46.4068H73.6563V45.4842H73.9585V43.4766H73.651V42.5525H77.3683V43.7849H76.3476V43.4751H75.4636V44.0677H76.2328V44.8511H75.4636V45.4827H76.3476V45.1714H77.3683L77.3676 46.4068Z" fill="#FBAE40"/>
<defs>
<filter id="filter0_d_397_5680" x="1.66893e-05" y="0" width="101.027" height="109.261" filterUnits="userSpaceOnUse" color-interpolation-filters="sRGB">
<feFlood flood-opacity="0" result="BackgroundImageFix"/>
<feColorMatrix in="SourceAlpha" type="matrix" values="0 0 0 0 0 0 0 0 0 0 0 0 0 0 0 0 0 0 127 0" result="hardAlpha"/>
<feOffset dx="-4.9193" dy="8.43309"/>
<feGaussianBlur stdDeviation="1.40551"/>
<feComposite in2="hardAlpha" operator="out"/>
<feColorMatrix type="matrix" values="0 0 0 0 0.25673 0 0 0 0 0.164842 0 0 0 0 0.0335725 0 0 0 0.1 0"/>
<feBlend mode="normal" in2="BackgroundImageFix" result="effect1_dropShadow_397_5680"/>
<feBlend mode="normal" in="SourceGraphic" in2="effect1_dropShadow_397_5680" result="shape"/>
</filter>
</defs>
</svg>
