<svg xmlns="http://www.w3.org/2000/svg" viewBox="0 0 195.52 215.92"><defs><style>.cls-1{fill:#f05924;}.cls-2{fill:#fff;}</style></defs><g id="Layer_2" data-name="Layer 2"><g id="Layer_1-2" data-name="Layer 1"><path class="cls-1" d="M21.08,105.45c0-6.51-7.65-41.93,18.5-73.53C66.79-1,106.53-.14,111.1,0c5,.24,43.71,2.78,68,36.45,20.71,28.72,16.35,59.82,15.35,66a124.55,124.55,0,0,1-8.14,31.63,125.81,125.81,0,0,1-27.42,41.5,58.33,58.33,0,0,0-3.54,40.31H72.62c.29-.49,4.38-7.62.8-14.24a13.17,13.17,0,0,0-5.28-5.2,50,50,0,0,0-8.56-2.23,51.4,51.4,0,0,0-21.7,1.14c-2.67.63-6.75,1.16-9.05-1.07-1.68-1.63-1.58-4.06-1.45-8.8.09-3.21.21-8.37.32-15.15A13.19,13.19,0,0,0,24,163.2c-2.33-2.21-4.9-2.71-9.19-3.65-3.19-.7-12.2.79-14.54-3.44C-2.91,150.32,21.08,112,21.08,105.45Z"/><path class="cls-2" d="M180.46,65.57H164.71a5.63,5.63,0,1,1,0-4.67h14a76.1,76.1,0,0,0-40-41.22V43A5.62,5.62,0,1,1,134,43V17.88a75.42,75.42,0,0,0-78.2,16.66V48.35l35.82-.78a1.7,1.7,0,0,0,1.35-.5V39.72a5.62,5.62,0,1,1,4.66,0v7.44c0,2.8-2.6,5-5.92,5.08L55.84,53V78.11a5.63,5.63,0,1,1-4.67,0V39.46a75.49,75.49,0,0,0-11.4,82.09H55.9a5.62,5.62,0,1,1,0,4.66H42.12a75.86,75.86,0,0,0,66.26,38.93c1,0,2-.12,3-.16l-.59-28.74a1.38,1.38,0,0,0-1.37-1.33H95.64a5.62,5.62,0,1,1,0-4.67H109.4a6.06,6.06,0,0,1,6,5.91l.59,28.6a75.1,75.1,0,0,0,23-6.11v-22a10.59,10.59,0,0,1,4.08-8.38l17.39-13.68a5.83,5.83,0,0,0,2.25-4.62v-8.63a5.62,5.62,0,1,1,4.67,0v8.63a10.51,10.51,0,0,1-4,8.3L146,131.91a6,6,0,0,0-2.29,4.71V156.4a75.72,75.72,0,0,0,36.78-90.83Zm-67,48.78-4.08-10.67H89.9l-3.5,10.67H74.87L94,64.12h12.29l19.38,50.23Zm28.45,0H131.14V64.12h10.74ZM100.6,76.54c-.25-1.16-.51-2.59-.79-4.29-.29,1.63-.58,3.08-.85,4.38s-.48,2.15-.62,2.59l-5.42,16h13.93L101.22,79C101.06,78.53,100.86,77.71,100.6,76.54Z"/></g></g></svg>