<svg xmlns="http://www.w3.org/2000/svg" viewBox="0 0 125.4 128"><defs><style>.cls-1{fill:#f05924;}</style></defs><g id="Layer_2" data-name="Layer 2"><g id="Layer_1-2" data-name="Layer 1"><path class="cls-1" d="M125.37,61.7a4.39,4.39,0,0,0-.24-1.64c.16-.07.11-.2.07-.31a2,2,0,0,1,0-.34,1.61,1.61,0,0,0-.12-.94c.09-.28-.08-.54-.09-.82a31,31,0,0,0-.52-4.18c-.05-.25,0-.53-.14-.76.12-.45-.17-.41-.47-.41H64.43c-.15,0-.34-.09-.46.09h0l0,0h0c-.17.13-.08.31-.09.47q0,11.88,0,23.77c0,.15-.12.34.09.47l.69,0H98.35c-.22.83-.35,1.64-.56,2.45a29.44,29.44,0,0,1-7.41,13,30,30,0,0,1-4.77,3.94,28.74,28.74,0,0,1-5,2.78,36.41,36.41,0,0,1-3.57,1.35,39.49,39.49,0,0,1-6.87,1.56c-.9.14-1.8.26-2.71.32-.39,0-.83.18-1.19-.16a2.89,2.89,0,0,1-.68.19c-1.1,0-2.19,0-3.28,0a.44.44,0,0,1-.18-.14c-.16-.25-.42-.22-.48.15-.72-.06-1.45,0-2.15-.18-1.58-.3-3.18-.51-4.74-.94a38.17,38.17,0,0,1-6.23-2.22c-1.16-.53-2.26-1.19-3.38-1.81-.85-.47-1.64-1-2.44-1.55a39.29,39.29,0,0,1-4.49-3.67,35.8,35.8,0,0,1-3.42-3.75,41.08,41.08,0,0,1-2.62-3.65,36.15,36.15,0,0,1-2.91-5.5c-.42-1-.79-2-1.18-3-.38-1.3-.8-2.58-1.06-3.91a28,28,0,0,1-.54-3.17c-.09-.91-.31-1.81-.31-2.74,0-.1,0-.19,0-.29l0-.45a2.15,2.15,0,0,1,.16-.75,2.84,2.84,0,0,0-.07-2.1l0,0a0,0,0,0,0,0,0,30,30,0,0,1,.34-4.13,38.17,38.17,0,0,1,1-4.87c.19-.72.41-1.42.61-2.13a2.27,2.27,0,0,0,.25-.52A36.75,36.75,0,0,1,30.62,46a35.45,35.45,0,0,1,2.76-4.48A39.82,39.82,0,0,1,37.1,37c.74-.76,1.51-1.49,2.3-2.2a25.7,25.7,0,0,1,2.43-2,41.91,41.91,0,0,1,4.09-2.64c1-.53,2-1.08,3-1.52,1.2-.51,2.4-1,3.64-1.4,1-.34,2.09-.64,3.15-.88a28.88,28.88,0,0,1,3.44-.63s.06,0,.09,0c.23,0,.47.13.67-.09v0c.17,0,.36.07.52-.06a57.93,57.93,0,0,1,6-.05,40.48,40.48,0,0,1,5,.66,33.7,33.7,0,0,1,6.45,2c1.2.5,2.35,1.11,3.5,1.72a34.4,34.4,0,0,1,4.52,3c.64.49,1.23,1.05,1.82,1.6s.64.54,1.23,0l16.88-16.89c.21-.21.41-.44.64-.63s.16-.35,0-.5c-.82-.62-1.53-1.37-2.33-2s-1.79-1.48-2.71-2.18a49.69,49.69,0,0,0-4.56-3.06c-1.41-.86-2.84-1.68-4.32-2.41s-3.13-1.54-4.75-2.19-3.35-1.3-5.07-1.83c-1.5-.46-3-.83-4.57-1.19A31.81,31.81,0,0,0,74.83.91C74,.8,73.18.65,72.36.51c-.25-.29-.57,0-.84-.1,0,0,0,0,0,0h0A.93.93,0,0,0,70.9.28c-.09,0-.19-.06-.25-.19s-.28-.11-.43,0-.16.17,0,.29A16.32,16.32,0,0,0,66.56.08,68.39,68.39,0,0,0,57.4.36L54.22.74c-1.18.14-2.34.49-3.52.69A42.92,42.92,0,0,0,45.2,2.8q-2.43.77-4.8,1.71a61.16,61.16,0,0,0-6.27,2.86,71.8,71.8,0,0,0-6.8,4.15,76,76,0,0,0-7.46,6,51.77,51.77,0,0,0-5,5.3,59,59,0,0,0-4.38,5.91C9.72,30,8.94,31.26,8.22,32.55a15.36,15.36,0,0,0-1.41,2.77c-.32.21-.32.6-.48.9-.55,1.08-1,2.19-1.5,3.3C4.11,41.26,3.45,43,2.9,44.81A60.76,60.76,0,0,0,1,52.45,32.9,32.9,0,0,0,.41,57.1c-.11,0-.06.14-.09.21A3.65,3.65,0,0,0,.2,58.49a1.93,1.93,0,0,1-.12.41.38.38,0,0,0,0,.41s.05,0,.08,0A7.2,7.2,0,0,0,0,60.52c0,2,0,4.08,0,6.12a14.6,14.6,0,0,1,.19,2.19c-.35.12-.08.31,0,.47a7.78,7.78,0,0,0,.17,1.26c.15.52,0,1.07.23,1.57,0-.1,0-.23-.12-.2a.17.17,0,0,0-.09.29.77.77,0,0,1,.28.57,6,6,0,0,0,.1.84c.08.46.16.92.22,1.39a38.11,38.11,0,0,0,.92,4.47A62.27,62.27,0,0,0,4.26,87a57.07,57.07,0,0,0,2.57,5.76C7.32,93.92,8,95,8.55,96.06a32.39,32.39,0,0,0,2,3.21c.71,1.08,1.45,2.12,2.22,3.16a63,63,0,0,0,4.52,5.4,61.6,61.6,0,0,0,6.14,5.73A57,57,0,0,0,28.05,117c1.26.84,2.55,1.65,3.85,2.43a32.45,32.45,0,0,0,3.17,1.73c1.47.68,2.91,1.39,4.41,2q3,1.22,6.05,2.17c1,.31,2,.55,3,.81,1.23.32,2.48.58,3.73.8s2.39.42,3.6.56a21.51,21.51,0,0,0,3.2.29,14.24,14.24,0,0,1,2.25.19c2,0,4,.07,6-.06,1.66-.1,3.34-.12,5-.35,1.35-.18,2.7-.29,4-.55,1.79-.34,3.6-.66,5.36-1.16,1.58-.46,3.19-.86,4.74-1.42q2.59-.94,5.13-2.07A62.18,62.18,0,0,0,97.89,119a47.78,47.78,0,0,0,5.08-3.51,29.08,29.08,0,0,0,3.35-2.92c.36-.32.73-.61,1.07-.94,1.09-1.06,2.09-2.2,3.11-3.32s1.73-2,2.53-3.1a57.14,57.14,0,0,0,3.27-4.85A59.58,59.58,0,0,0,120,93.24a64.14,64.14,0,0,0,2.75-7.7c.57-2,1-4,1.4-6,.26-1.35.47-2.71.65-4.07.1-.77.11-1.55.22-2.3a35,35,0,0,0,.4-4.45C125.41,66.4,125.4,64.05,125.37,61.7Z"/></g></g></svg>