<svg width="102" height="110" viewBox="0 0 102 110" fill="none" xmlns="http://www.w3.org/2000/svg">
<g filter="url(#filter0_d_397_5669)">
<path d="M42.0025 9.65912C45.8825 8.20172 50.2079 8.53113 53.8224 10.5593L83.1488 27.0145C86.5685 28.9333 89.0311 32.1935 89.9419 36.0075L95.2063 58.0539C96.6248 63.9939 94.045 70.1702 88.823 73.3367L55.1346 93.764C50.8013 96.3915 45.389 96.4829 40.9694 94.0031L14.9078 79.3797C10.4749 76.8923 7.73035 72.2053 7.73035 67.1223L7.73035 35.4857C7.73035 31.9729 9.04582 28.5873 11.4176 25.996L15.9074 21.0908C17.4019 19.458 19.2609 18.2013 21.333 17.4229L42.0025 9.65912Z" fill="#FBAE40"/>
<path d="M47.509 3.85914C51.7809 1.46216 56.9925 1.46216 61.2644 3.85914L87.6007 18.6366C92.0336 21.124 94.7781 25.811 94.7781 30.894L94.7781 59.7617C94.7781 64.8447 92.0336 69.5317 87.6007 72.0191L61.2644 86.7965C56.9925 89.1935 51.7809 89.1935 47.509 86.7965L21.1727 72.0191C16.7398 69.5317 13.9953 64.8447 13.9953 59.7617L13.9953 30.894C13.9953 25.8109 16.7398 21.124 21.1727 18.6366L47.509 3.85914Z" fill="white" stroke="#FBAE40" stroke-width="2.81103"/>
</g>
<path d="M66.2131 46.485C66.2192 46.3485 66.1994 46.2121 66.1547 46.0829C66.1937 46.0659 66.1815 46.0342 66.1717 46.0074C66.1694 45.9798 66.1694 45.9521 66.1717 45.9245C66.1851 45.8478 66.1749 45.7687 66.1425 45.6979C66.1644 45.6272 66.123 45.5639 66.1205 45.4956C66.1016 45.1544 66.0593 44.8149 65.9938 44.4794C65.9938 44.4161 65.9938 44.3478 65.9597 44.2942C65.989 44.1821 65.9183 44.1919 65.8452 44.1919H51.3627C51.3262 44.1919 51.2799 44.17 51.2506 44.2163C51.2092 44.2479 51.2311 44.2942 51.2311 44.3308C51.2311 46.2624 51.2311 48.1933 51.2311 50.1233C51.2311 50.1598 51.2019 50.2086 51.2531 50.2378H51.4212H59.6311C59.5775 50.4401 59.5458 50.6399 59.4946 50.8349C59.1756 52.0287 58.5536 53.12 57.6889 54.0028C57.3356 54.3621 56.946 54.6838 56.5265 54.9629C56.1445 55.2296 55.7362 55.4566 55.3081 55.6404C55.0245 55.7671 54.734 55.8777 54.4381 55.9718C53.8922 56.147 53.332 56.2742 52.7639 56.352C52.5446 56.3836 52.3253 56.4129 52.1036 56.4275C52.0085 56.4275 51.9013 56.4738 51.8136 56.3885C51.7605 56.4114 51.7049 56.4278 51.6478 56.4373C51.3798 56.4373 51.1142 56.4373 50.8485 56.4373C50.8302 56.4317 50.8146 56.4195 50.8047 56.4031C50.7657 56.3447 50.7023 56.3495 50.6877 56.4397C50.5123 56.4362 50.3373 56.4215 50.1638 56.3958C49.7788 56.3252 49.3889 56.2716 49.0087 56.1692C48.4886 56.031 47.9808 55.85 47.4905 55.6282C47.2078 55.4966 46.9398 55.3358 46.6693 55.1871C46.4597 55.0726 46.2672 54.9435 46.0722 54.807C45.6866 54.5363 45.3209 54.2382 44.9781 53.9151C44.6796 53.63 44.4011 53.3247 44.1447 53.0012C43.9158 52.7158 43.7026 52.4181 43.5062 52.1093C43.2312 51.6841 42.994 51.2356 42.7971 50.7691C42.6972 50.5254 42.6045 50.2817 42.5095 50.038C42.4169 49.7236 42.3145 49.4093 42.2512 49.0876C42.1927 48.8328 42.1488 48.5749 42.1196 48.3151C42.0977 48.0909 42.0441 47.8716 42.0441 47.6474C42.0441 47.623 42.0441 47.5987 42.0441 47.5767V47.4646C42.0463 47.4019 42.0594 47.34 42.083 47.2819C42.143 47.1154 42.1369 46.9322 42.066 46.7701C42.0705 46.4323 42.0982 46.0952 42.1488 45.7612C42.2044 45.3608 42.2858 44.9644 42.3925 44.5745C42.4388 44.4015 42.4924 44.2284 42.5412 44.0554C42.5668 44.0168 42.5872 43.975 42.6021 43.9311C42.7515 43.4911 42.9348 43.0634 43.1504 42.6518C43.3472 42.2717 43.5721 41.9068 43.823 41.56C44.0987 41.175 44.4017 40.8101 44.7295 40.4683C44.9098 40.2831 45.0975 40.1052 45.29 39.9346C45.4773 39.7603 45.675 39.5975 45.8822 39.4473C46.2022 39.2145 46.535 38.9997 46.8789 38.8039C47.1225 38.6748 47.3662 38.5432 47.6099 38.4335C47.9024 38.3092 48.1948 38.1898 48.4969 38.0923C48.7406 38.0119 49.0063 37.9364 49.2646 37.8779C49.5407 37.8106 49.8206 37.7602 50.1029 37.7268C50.1029 37.7268 50.1175 37.7268 50.1248 37.7268C50.1808 37.7268 50.2393 37.7585 50.2881 37.7049C50.3295 37.7049 50.3758 37.7219 50.4148 37.6878C50.9022 37.6878 51.3895 37.6366 51.8769 37.6878C52.2859 37.7172 52.6928 37.7709 53.0954 37.8487C53.634 37.9592 54.1605 38.1225 54.6672 38.336C54.9596 38.4603 55.2398 38.609 55.5201 38.7576C55.9069 38.9702 56.2754 39.2147 56.6215 39.4887C56.7775 39.6081 56.9213 39.7324 57.0651 39.8761C57.2088 40.0199 57.221 40.0077 57.3648 39.864L61.4783 35.7286C61.5274 35.6729 61.5803 35.6208 61.6367 35.5726C61.6952 35.5239 61.6732 35.4873 61.6367 35.4508C61.4368 35.3021 61.2638 35.1193 61.0689 34.9634C60.8739 34.8074 60.6327 34.6027 60.4085 34.4297C60.047 34.1621 59.672 33.9133 59.2851 33.684C58.9415 33.4744 58.593 33.277 58.2323 33.0967C57.8717 32.9164 57.4696 32.7214 57.0748 32.5655C56.68 32.4095 56.2584 32.2462 55.8393 32.1195C55.4738 32.005 55.1082 31.9173 54.7256 31.8295C54.4551 31.7662 54.1822 31.7053 53.9044 31.6687C53.7021 31.6419 53.5023 31.6053 53.3025 31.5737C53.2416 31.5006 53.1636 31.5615 53.0978 31.5469C53.0559 31.5249 53.0085 31.5155 52.9613 31.52C52.9394 31.52 52.915 31.5054 52.9004 31.4737C52.8858 31.4421 52.8322 31.4494 52.7956 31.4737C52.7591 31.4981 52.7566 31.5152 52.7956 31.542C52.5048 31.4881 52.209 31.4669 51.9135 31.4786C51.1688 31.4494 50.423 31.4714 49.6813 31.5444C49.423 31.5737 49.1647 31.6102 48.9088 31.6395C48.6529 31.6687 48.3361 31.7589 48.0486 31.8076C47.5947 31.8881 47.1469 31.9996 46.7083 32.1415C46.3135 32.2633 45.9236 32.4014 45.5386 32.5557C45.0165 32.76 44.5064 32.9935 44.0106 33.2551C43.4395 33.5604 42.8862 33.898 42.3535 34.2664C41.7168 34.7143 41.1096 35.2027 40.5356 35.7286C40.0996 36.1299 39.6925 36.5615 39.3172 37.0201C38.9324 37.478 38.5759 37.9589 38.2498 38.4603C38.0524 38.7625 37.8624 39.0695 37.6869 39.3839C37.5489 39.5961 37.4337 39.8224 37.3433 40.0589C37.2653 40.1101 37.2653 40.2051 37.2263 40.2782C37.0923 40.539 36.9826 40.8095 36.8608 41.0824C36.6853 41.504 36.5245 41.9329 36.3905 42.3691C36.1993 42.9792 36.0479 43.6011 35.9372 44.2309C35.8593 44.6045 35.808 44.9832 35.7837 45.364C35.7569 45.364 35.7691 45.3981 35.7617 45.4176C35.7361 45.5112 35.7262 45.6084 35.7325 45.7052C35.7261 45.7394 35.7163 45.7729 35.7033 45.8051C35.6936 45.8195 35.6885 45.8365 35.6885 45.8538C35.6885 45.8712 35.6936 45.8881 35.7033 45.9026C35.7033 45.9026 35.7033 45.9026 35.7228 45.9026C35.7047 46.0007 35.6949 46.1001 35.6935 46.1999C35.6935 46.6873 35.6935 47.1966 35.6935 47.6937C35.7223 47.8694 35.7378 48.0469 35.7398 48.2249C35.6545 48.2566 35.7203 48.3029 35.7398 48.3395C35.7449 48.4428 35.7588 48.5455 35.7812 48.6465C35.8178 48.7732 35.7813 48.9097 35.8373 49.0316C35.8373 49.0072 35.8373 48.9731 35.808 48.9828C35.8005 48.9841 35.7934 48.9874 35.7876 48.9925C35.7819 48.9975 35.7776 49.0041 35.7753 49.0114C35.773 49.0187 35.7729 49.0265 35.7748 49.034C35.7767 49.0414 35.7806 49.0481 35.7861 49.0535C35.8065 49.0701 35.8232 49.0908 35.8349 49.1144C35.8467 49.1379 35.8533 49.1637 35.8543 49.19C35.8575 49.2587 35.8657 49.3271 35.8787 49.3946C35.8982 49.5067 35.9177 49.6213 35.9323 49.7334C35.9847 50.1007 36.0596 50.4645 36.1565 50.8227C36.3115 51.4469 36.5061 52.0606 36.7389 52.6601C36.9221 53.1398 37.1312 53.6091 37.3652 54.0662C37.4846 54.3415 37.6503 54.5925 37.7844 54.8606C37.9315 55.1306 38.0942 55.3918 38.2718 55.6428C38.4448 55.906 38.6251 56.1619 38.8127 56.4129C39.1545 56.873 39.5222 57.3132 39.9142 57.7313C40.3813 58.2296 40.8811 58.6961 41.4105 59.1276C41.7736 59.4225 42.1415 59.7076 42.5363 59.9659C42.8434 60.1681 43.1577 60.368 43.4745 60.558C43.7182 60.7067 43.9814 60.8553 44.247 60.9796C44.6052 61.1429 44.9561 61.3184 45.3217 61.467C45.8091 61.662 46.3005 61.8374 46.796 61.9934C47.0397 62.0689 47.2834 62.1298 47.5271 62.1932C47.8268 62.2687 48.1314 62.3321 48.436 62.3882C48.7406 62.4442 49.0184 62.4905 49.3133 62.5246C49.5713 62.5656 49.8319 62.5884 50.0931 62.5929C50.2768 62.595 50.46 62.6104 50.6414 62.6391C51.1288 62.6391 51.6162 62.6562 52.1036 62.627C52.5105 62.6002 52.9175 62.5953 53.322 62.5417C53.6485 62.4978 53.9775 62.4686 54.2968 62.4077C54.733 62.3224 55.174 62.2444 55.6029 62.1225C55.988 62.0129 56.3803 61.9154 56.758 61.7765C57.1796 61.623 57.5963 61.4573 58.0081 61.2721C58.5398 61.0294 59.0566 60.7552 59.5556 60.4508C59.9705 60.1886 60.3685 59.9005 60.7472 59.5882C61.0376 59.3729 61.3106 59.1349 61.5636 58.8766C61.6513 58.8011 61.7414 58.7279 61.8243 58.6475C62.0899 58.3892 62.3361 58.1139 62.5822 57.8385C62.8283 57.5631 63.0038 57.3511 63.1987 57.0855C63.4863 56.7053 63.747 56.3081 63.9956 55.9036C64.331 55.346 64.6282 54.7663 64.885 54.1685C65.1485 53.5581 65.3723 52.9313 65.5552 52.2921C65.6941 51.8047 65.7989 51.3174 65.8964 50.83C65.9597 50.501 66.0109 50.1696 66.0548 49.8357C66.0791 49.6481 66.0816 49.4604 66.1084 49.2752C66.1639 48.9162 66.1965 48.554 66.2058 48.1908C66.2229 47.6303 66.2205 47.0577 66.2131 46.485Z" fill="#FBAE40" stroke="#FBAE40"/>
<path d="M71.2131 43.485C71.2192 43.3485 71.1994 43.2121 71.1547 43.0829C71.1937 43.0659 71.1815 43.0342 71.1717 43.0074C71.1694 42.9798 71.1694 42.9521 71.1717 42.9245C71.1851 42.8478 71.1749 42.7687 71.1425 42.6979C71.1644 42.6272 71.123 42.5639 71.1205 42.4956C71.1016 42.1544 71.0593 41.8149 70.9938 41.4794C70.9938 41.4161 70.9938 41.3478 70.9597 41.2942C70.989 41.1821 70.9183 41.1919 70.8452 41.1919H56.3627C56.3262 41.1919 56.2799 41.17 56.2506 41.2163C56.2092 41.2479 56.2311 41.2942 56.2311 41.3308C56.2311 43.2624 56.2311 45.1933 56.2311 47.1233C56.2311 47.1598 56.2019 47.2086 56.2531 47.2378H56.4212H64.6311C64.5775 47.4401 64.5458 47.6399 64.4946 47.8349C64.1756 49.0287 63.5536 50.12 62.6889 51.0028C62.3356 51.3621 61.946 51.6838 61.5265 51.9629C61.1445 52.2296 60.7362 52.4566 60.3081 52.6404C60.0245 52.7671 59.734 52.8777 59.4381 52.9718C58.8922 53.147 58.332 53.2742 57.7639 53.352C57.5446 53.3836 57.3253 53.4129 57.1036 53.4275C57.0085 53.4275 56.9013 53.4738 56.8136 53.3885C56.7605 53.4114 56.7049 53.4278 56.6478 53.4373C56.3798 53.4373 56.1142 53.4373 55.8485 53.4373C55.8302 53.4317 55.8146 53.4195 55.8047 53.4031C55.7657 53.3447 55.7023 53.3495 55.6877 53.4397C55.5123 53.4362 55.3373 53.4215 55.1638 53.3958C54.7788 53.3252 54.3889 53.2716 54.0087 53.1692C53.4886 53.031 52.9808 52.85 52.4905 52.6282C52.2078 52.4966 51.9398 52.3358 51.6693 52.1871C51.4597 52.0726 51.2672 51.9435 51.0722 51.807C50.6866 51.5363 50.3209 51.2382 49.9781 50.9151C49.6796 50.63 49.4011 50.3247 49.1447 50.0012C48.9158 49.7158 48.7026 49.4181 48.5062 49.1093C48.2312 48.6841 47.994 48.2356 47.7971 47.7691C47.6972 47.5254 47.6045 47.2817 47.5095 47.038C47.4169 46.7236 47.3145 46.4093 47.2512 46.0876C47.1927 45.8328 47.1488 45.5749 47.1196 45.3151C47.0977 45.0909 47.0441 44.8716 47.0441 44.6474C47.0441 44.623 47.0441 44.5987 47.0441 44.5767V44.4646C47.0463 44.4019 47.0594 44.34 47.083 44.2819C47.143 44.1154 47.1369 43.9322 47.066 43.7701C47.0705 43.4323 47.0982 43.0952 47.1488 42.7612C47.2044 42.3608 47.2858 41.9644 47.3925 41.5745C47.4388 41.4015 47.4924 41.2284 47.5412 41.0554C47.5668 41.0168 47.5872 40.975 47.6021 40.9311C47.7515 40.4911 47.9348 40.0634 48.1504 39.6518C48.3472 39.2717 48.5721 38.9068 48.823 38.56C49.0987 38.175 49.4017 37.8101 49.7295 37.4683C49.9098 37.2831 50.0975 37.1052 50.29 36.9346C50.4773 36.7603 50.675 36.5975 50.8822 36.4473C51.2022 36.2145 51.535 35.9997 51.8789 35.8039C52.1225 35.6748 52.3662 35.5432 52.6099 35.4335C52.9024 35.3092 53.1948 35.1898 53.4969 35.0923C53.7406 35.0119 54.0063 34.9364 54.2646 34.8779C54.5407 34.8106 54.8206 34.7602 55.1029 34.7268C55.1029 34.7268 55.1175 34.7268 55.1248 34.7268C55.1808 34.7268 55.2393 34.7585 55.2881 34.7049C55.3295 34.7049 55.3758 34.7219 55.4148 34.6878C55.9022 34.6878 56.3895 34.6366 56.8769 34.6878C57.2859 34.7172 57.6928 34.7709 58.0954 34.8487C58.634 34.9592 59.1605 35.1225 59.6672 35.336C59.9596 35.4603 60.2398 35.609 60.5201 35.7576C60.9069 35.9702 61.2754 36.2147 61.6215 36.4887C61.7775 36.6081 61.9213 36.7324 62.0651 36.8761C62.2088 37.0199 62.221 37.0077 62.3648 36.864L66.4783 32.7286C66.5274 32.6729 66.5803 32.6208 66.6367 32.5726C66.6952 32.5239 66.6732 32.4873 66.6367 32.4508C66.4368 32.3021 66.2638 32.1193 66.0689 31.9634C65.8739 31.8074 65.6327 31.6027 65.4085 31.4297C65.047 31.1621 64.672 30.9133 64.2851 30.684C63.9415 30.4744 63.593 30.277 63.2323 30.0967C62.8717 29.9164 62.4696 29.7214 62.0748 29.5655C61.68 29.4095 61.2584 29.2462 60.8393 29.1195C60.4738 29.005 60.1082 28.9173 59.7256 28.8295C59.4551 28.7662 59.1822 28.7053 58.9044 28.6687C58.7021 28.6419 58.5023 28.6053 58.3025 28.5737C58.2416 28.5006 58.1636 28.5615 58.0978 28.5469C58.0559 28.5249 58.0085 28.5155 57.9613 28.52C57.9394 28.52 57.915 28.5054 57.9004 28.4737C57.8858 28.4421 57.8322 28.4494 57.7956 28.4737C57.7591 28.4981 57.7566 28.5152 57.7956 28.542C57.5048 28.4881 57.209 28.4669 56.9135 28.4786C56.1688 28.4494 55.423 28.4714 54.6813 28.5444C54.423 28.5737 54.1647 28.6102 53.9088 28.6395C53.6529 28.6687 53.3361 28.7589 53.0486 28.8076C52.5947 28.8881 52.1469 28.9996 51.7083 29.1415C51.3135 29.2633 50.9236 29.4014 50.5386 29.5557C50.0165 29.76 49.5064 29.9935 49.0106 30.2551C48.4395 30.5604 47.8862 30.898 47.3535 31.2664C46.7168 31.7143 46.1096 32.2027 45.5356 32.7286C45.0996 33.1299 44.6925 33.5615 44.3172 34.0201C43.9324 34.478 43.5759 34.9589 43.2498 35.4603C43.0524 35.7625 42.8624 36.0695 42.6869 36.3839C42.5489 36.5961 42.4337 36.8224 42.3433 37.0589C42.2653 37.1101 42.2653 37.2051 42.2263 37.2782C42.0923 37.539 41.9826 37.8095 41.8608 38.0824C41.6853 38.504 41.5245 38.9329 41.3905 39.3691C41.1993 39.9792 41.0479 40.6011 40.9372 41.2309C40.8593 41.6045 40.808 41.9832 40.7837 42.364C40.7569 42.364 40.7691 42.3981 40.7617 42.4176C40.7361 42.5112 40.7262 42.6084 40.7325 42.7052C40.7261 42.7394 40.7163 42.7729 40.7033 42.8051C40.6936 42.8195 40.6885 42.8365 40.6885 42.8538C40.6885 42.8712 40.6936 42.8881 40.7033 42.9026C40.7033 42.9026 40.7033 42.9026 40.7228 42.9026C40.7047 43.0007 40.6949 43.1001 40.6935 43.1999C40.6935 43.6873 40.6935 44.1966 40.6935 44.6937C40.7223 44.8694 40.7378 45.0469 40.7398 45.2249C40.6545 45.2566 40.7203 45.3029 40.7398 45.3395C40.7449 45.4428 40.7588 45.5455 40.7812 45.6465C40.8178 45.7732 40.7813 45.9097 40.8373 46.0316C40.8373 46.0072 40.8373 45.9731 40.808 45.9828C40.8005 45.9841 40.7934 45.9874 40.7876 45.9925C40.7819 45.9975 40.7776 46.0041 40.7753 46.0114C40.773 46.0187 40.7729 46.0265 40.7748 46.034C40.7767 46.0414 40.7806 46.0481 40.7861 46.0535C40.8065 46.0701 40.8232 46.0908 40.8349 46.1144C40.8467 46.1379 40.8533 46.1637 40.8543 46.19C40.8575 46.2587 40.8657 46.3271 40.8787 46.3946C40.8982 46.5067 40.9177 46.6213 40.9323 46.7334C40.9847 47.1007 41.0596 47.4645 41.1565 47.8227C41.3115 48.4469 41.5061 49.0606 41.7389 49.6601C41.9221 50.1398 42.1312 50.6091 42.3652 51.0662C42.4846 51.3415 42.6503 51.5925 42.7844 51.8606C42.9315 52.1306 43.0942 52.3918 43.2718 52.6428C43.4448 52.906 43.6251 53.1619 43.8127 53.4129C44.1545 53.873 44.5222 54.3132 44.9142 54.7313C45.3813 55.2296 45.8811 55.6961 46.4105 56.1276C46.7736 56.4225 47.1415 56.7076 47.5363 56.9659C47.8434 57.1681 48.1577 57.368 48.4745 57.558C48.7182 57.7067 48.9814 57.8553 49.247 57.9796C49.6052 58.1429 49.9561 58.3184 50.3217 58.467C50.8091 58.662 51.3005 58.8374 51.796 58.9934C52.0397 59.0689 52.2834 59.1298 52.5271 59.1932C52.8268 59.2687 53.1314 59.3321 53.436 59.3882C53.7406 59.4442 54.0184 59.4905 54.3133 59.5246C54.5713 59.5656 54.8319 59.5884 55.0931 59.5929C55.2768 59.595 55.46 59.6104 55.6414 59.6391C56.1288 59.6391 56.6162 59.6562 57.1036 59.627C57.5105 59.6002 57.9175 59.5953 58.322 59.5417C58.6485 59.4978 58.9775 59.4686 59.2968 59.4077C59.733 59.3224 60.174 59.2444 60.6029 59.1225C60.988 59.0129 61.3803 58.9154 61.758 58.7765C62.1796 58.623 62.5963 58.4573 63.0081 58.2721C63.5398 58.0294 64.0566 57.7552 64.5556 57.4508C64.9705 57.1886 65.3685 56.9005 65.7472 56.5882C66.0376 56.3729 66.3106 56.1349 66.5636 55.8766C66.6513 55.8011 66.7414 55.7279 66.8243 55.6475C67.0899 55.3892 67.3361 55.1139 67.5822 54.8385C67.8283 54.5631 68.0038 54.3511 68.1987 54.0855C68.4863 53.7053 68.747 53.3081 68.9956 52.9036C69.331 52.346 69.6282 51.7663 69.885 51.1685C70.1485 50.5581 70.3723 49.9313 70.5552 49.2921C70.6941 48.8047 70.7989 48.3174 70.8964 47.83C70.9597 47.501 71.0109 47.1696 71.0548 46.8357C71.0791 46.6481 71.0816 46.4604 71.1084 46.2752C71.1639 45.9162 71.1965 45.554 71.2058 45.1908C71.2229 44.6303 71.2205 44.0577 71.2131 43.485Z" fill="white" stroke="#FBAE40"/>
<defs>
<filter id="filter0_d_397_5669" x="1.66893e-05" y="0" width="101.027" height="109.261" filterUnits="userSpaceOnUse" color-interpolation-filters="sRGB">
<feFlood flood-opacity="0" result="BackgroundImageFix"/>
<feColorMatrix in="SourceAlpha" type="matrix" values="0 0 0 0 0 0 0 0 0 0 0 0 0 0 0 0 0 0 127 0" result="hardAlpha"/>
<feOffset dx="-4.9193" dy="8.43309"/>
<feGaussianBlur stdDeviation="1.40551"/>
<feComposite in2="hardAlpha" operator="out"/>
<feColorMatrix type="matrix" values="0 0 0 0 0.25673 0 0 0 0 0.164842 0 0 0 0 0.0335725 0 0 0 0.1 0"/>
<feBlend mode="normal" in2="BackgroundImageFix" result="effect1_dropShadow_397_5669"/>
<feBlend mode="normal" in="SourceGraphic" in2="effect1_dropShadow_397_5669" result="shape"/>
</filter>
</defs>
</svg>
