<svg xmlns="http://www.w3.org/2000/svg" viewBox="0 0 147.16 205.63"><defs><style>.cls-1{fill:#243974;}.cls-2{opacity:0.7;}.cls-3{fill:#d3d4e1;}.cls-4{fill:#f15a26;}.cls-5{fill:#fff;}.cls-6{fill:#d04427;}</style></defs><g id="Layer_2" data-name="Layer 2"><g id="Layer_1-2" data-name="Layer 1"><polygon class="cls-1" points="62.38 129.65 84.78 204.83 103.17 178.43 133.57 189.63 109.57 116.85 62.38 129.65"/><g class="cls-2"><rect class="cls-3" x="80.06" y="149.85" width="2.47" height="51.3" transform="translate(-47.68 31.36) rotate(-16.97)"/></g><g class="cls-2"><rect class="cls-3" x="115.94" y="127.43" width="2.47" height="61.21" transform="translate(-42.08 42.51) rotate(-17.49)"/></g><polygon class="cls-1" points="35.19 121.65 11.2 191.23 43.99 180.03 60.78 205.63 88.78 131.25 35.19 121.65"/><g class="cls-2"><rect class="cls-3" x="-4.98" y="152.41" width="72.34" height="2.47" transform="translate(-124.56 135.73) rotate(-71.96)"/></g><g class="cls-2"><rect class="cls-3" x="31.01" y="162.4" width="77.15" height="2.47" transform="translate(-107.87 174.99) rotate(-70.62)"/></g><path class="cls-4" d="M0,72.86c0-3.36,8.2-6.1,8.66-9.34S2,55.28,3,52.13s9.58-3.52,11-6.52-4-9.76-2.24-12.54S21.85,32.41,24,29.91s-1.12-10.49,1.38-12.66,9.94,2.23,12.73.43S40,7.3,43,5.91s8.88,4.95,12.09,4,4.7-9.43,8-9.9,7.11,7.26,10.47,7.26S80.82-.44,84.05,0s4.87,9,8,9.9,9.09-5.37,12.09-4,2.1,10,4.88,11.77,10.23-2.59,12.73-.43-.79,10.16,1.38,12.66,10.54.37,12.34,3.16-3.62,9.52-2.24,12.54,10,3.31,10.95,6.52-6.17,8.08-5.7,11.39,8.66,6,8.66,9.34S139,79,138.5,82.2s6.62,8.25,5.7,11.4-9.58,3.52-10.95,6.51,4,9.76,2.24,12.54-10.18.66-12.34,3.16,1.12,10.49-1.38,12.66-9.94-2.22-12.73-.43-1.86,10.38-4.88,11.77-8.89-4.94-12.09-4-4.7,9.43-8,9.9-7.11-7.26-10.47-7.26-7.23,7.72-10.47,7.26-4.87-9-8-9.9-9.1,5.38-12.09,4-2.11-10-4.89-11.77-10.23,2.6-12.73.43.8-10.16-1.38-12.66-10.54-.37-12.34-3.16,3.62-9.51,2.24-12.54S3.9,96.8,3,93.6s6.17-8.08,5.7-11.4S0,76.22,0,72.86Z"/><circle class="cls-4" cx="73.58" cy="72.86" r="59.18"/><path class="cls-5" d="M73.58,133.25A60.39,60.39,0,0,1,30.88,30.16a60.39,60.39,0,1,1,85.4,85.4A60,60,0,0,1,73.58,133.25Zm0-118.37a58,58,0,1,0,58,58A58,58,0,0,0,73.58,14.88Z"/><path class="cls-5" d="M88.69,33.25h0l-1.16-.43h0c-1.17-.4-2.36-.76-3.56-1.06l-.21-.05-1-.22-.29-.07c-.3-.06-.61-.13-.92-.18l-.28-.06L80.18,31h-.09l-1.21-.17-.29,0-.9-.1-.42,0-.8-.06-.44,0-.83,0-.4,0-1.19,0h0A42.29,42.29,0,0,0,41,45.77l-.42.51C40,47,39.48,47.67,39,48.39a42.17,42.17,0,0,0-7.78,24.47V73c0,.29,0,.57,0,.86s0,.65,0,1h0A42.39,42.39,0,1,0,88.69,33.25Z"/><path class="cls-6" d="M73.58,116.49A43.63,43.63,0,1,1,117.2,72.86,43.67,43.67,0,0,1,73.58,116.49Zm0-84.78a41.16,41.16,0,1,0,41.16,41.15A41.2,41.2,0,0,0,73.58,31.71Z"/></g></g></svg>