<svg width="102" height="110" viewBox="0 0 102 110" fill="none" xmlns="http://www.w3.org/2000/svg">
<g filter="url(#filter0_d_397_5608)">
<path d="M42.0024 9.65912C45.8823 8.20172 50.2078 8.53113 53.8223 10.5593L83.1487 27.0145C86.5684 28.9333 89.031 32.1935 89.9417 36.0075L95.2062 58.0539C96.6246 63.9939 94.0449 70.1702 88.8229 73.3367L55.1345 93.764C50.8011 96.3915 45.3889 96.4829 40.9693 94.0031L14.9076 79.3797C10.4747 76.8923 7.73022 72.2053 7.73022 67.1223L7.73022 35.4857C7.73022 31.9729 9.0457 28.5873 11.4175 25.996L15.9073 21.0908C17.4018 19.458 19.2608 18.2013 21.3329 17.4229L42.0024 9.65912Z" fill="#FBAE40"/>
<path d="M47.5089 3.85914C51.7807 1.46216 56.9924 1.46216 61.2643 3.85914L87.6006 18.6366C92.0335 21.124 94.778 25.811 94.778 30.894L94.778 59.7617C94.778 64.8447 92.0335 69.5317 87.6006 72.0191L61.2643 86.7965C56.9924 89.1935 51.7807 89.1935 47.5089 86.7965L21.1726 72.0191C16.7397 69.5317 13.9952 64.8447 13.9952 59.7617L13.9952 30.894C13.9952 25.8109 16.7397 21.124 21.1726 18.6366L47.5089 3.85914Z" fill="white" stroke="#FBAE40" stroke-width="2.81103"/>
</g>
<path d="M48.4067 53.163L53.5092 70.2957L57.7023 64.2817L64.6279 66.834L59.1608 50.2483L48.4067 53.163Z" fill="#FBAE40"/>
<g opacity="0.7">
<path d="M51.2806 57.9368L50.7422 58.1011L54.1544 69.2827L54.6927 69.1184L51.2806 57.9368Z" fill="#FBAE40"/>
</g>
<g opacity="0.7">
<path d="M59.0664 52.8948L58.5295 53.064L62.7218 66.3682L63.2586 66.199L59.0664 52.8948Z" fill="#FBAE40"/>
</g>
<path d="M42.2103 51.342L36.741 67.1985L44.2134 64.6462L48.042 70.4801L54.4206 53.5275L42.2103 51.342Z" fill="#FBAE40"/>
<g opacity="0.7">
<path d="M43.5864 50.7144L38.4812 66.3894L39.0164 66.5637L44.1216 50.8887L43.5864 50.7144Z" fill="#FBAE40"/>
</g>
<g opacity="0.7">
<path d="M52.7021 52.5298L46.8679 69.1152L47.3989 69.302L53.233 52.7166L52.7021 52.5298Z" fill="#FBAE40"/>
</g>
<path d="M34.1887 40.223C34.1887 39.455 36.0574 38.8306 36.1622 38.0923C36.2671 37.3539 34.6536 36.2145 34.8656 35.4966C35.0775 34.7788 37.0464 34.6944 37.3587 34.0131C37.6709 33.3317 36.4471 31.7866 36.8505 31.1553C37.2538 30.5241 39.1681 31.0049 39.6626 30.4352C40.1571 29.8655 39.4074 28.0447 39.9771 27.5501C40.5468 27.0556 42.2423 28.0561 42.8781 27.6459C43.5139 27.2357 43.2997 25.2804 43.9902 24.9659C44.6807 24.6514 46.0161 26.0917 46.7454 25.8774C47.4746 25.6632 47.8165 23.7307 48.5685 23.6213C49.3205 23.512 50.1865 25.2758 50.9545 25.2758C51.7225 25.2758 52.6021 23.5165 53.3382 23.6213C54.0743 23.7262 54.448 25.6723 55.1613 25.8774C55.8746 26.0825 57.2351 24.6537 57.9165 24.9659C58.5979 25.2781 58.3973 27.2448 59.0286 27.6459C59.6598 28.0469 61.3599 27.0556 61.9296 27.5501C62.4993 28.0447 61.7496 29.8655 62.2441 30.4352C62.7386 31.0049 64.646 30.5195 65.0562 31.1553C65.4664 31.7911 64.2313 33.3226 64.548 34.0131C64.8648 34.7036 66.8269 34.7674 67.0411 35.4966C67.2554 36.2259 65.6373 37.338 65.7445 38.0945C65.8516 38.8511 67.718 39.4619 67.718 40.223C67.718 40.9842 65.8493 41.6131 65.7445 42.3515C65.6396 43.0899 67.2531 44.2293 67.0411 44.9472C66.8292 45.665 64.8602 45.7493 64.548 46.4307C64.2358 47.1121 65.4596 48.6572 65.0562 49.2884C64.6529 49.9197 62.7386 49.4388 62.2441 50.0086C61.7496 50.5783 62.5016 52.3991 61.9296 52.8936C61.3576 53.3882 59.6644 52.3877 59.0286 52.7979C58.3928 53.2081 58.607 55.1634 57.9165 55.4779C57.226 55.7924 55.8905 54.3521 55.1613 54.5663C54.4321 54.7806 54.0902 56.713 53.3382 56.8224C52.5862 56.9318 51.7202 55.168 50.9545 55.168C50.1888 55.168 49.3046 56.9273 48.5685 56.8224C47.8324 56.7176 47.4587 54.7714 46.7454 54.5663C46.0321 54.3612 44.6716 55.7901 43.9902 55.4779C43.3088 55.1657 43.5094 53.199 42.8781 52.7979C42.2469 52.3968 40.5468 53.3882 39.9771 52.8936C39.4074 52.3991 40.1571 50.5806 39.6626 50.0086C39.1681 49.4366 37.2607 49.9242 36.8505 49.2884C36.4403 48.6526 37.6754 47.1212 37.3587 46.4307C37.0419 45.7402 35.0798 45.6764 34.8656 44.9472C34.6513 44.2179 36.2693 43.1058 36.1622 42.3515C36.0551 41.5972 34.1887 40.9887 34.1887 40.223Z" fill="#FBAE40"/>
<path d="M50.9591 53.7102C58.4075 53.7102 64.4456 47.6721 64.4456 40.2238C64.4456 32.7754 58.4075 26.7373 50.9591 26.7373C43.5107 26.7373 37.4727 32.7754 37.4727 40.2238C37.4727 47.6721 43.5107 53.7102 50.9591 53.7102Z" fill="#FBAE40"/>
<path d="M50.9591 53.9838C47.7745 53.9848 44.688 52.8814 42.2257 50.8617C39.7633 48.842 38.0775 46.031 37.4555 42.9077C36.8335 39.7843 37.3138 36.5419 38.8145 33.733C40.3153 30.9241 42.7436 28.7225 45.6857 27.5034C48.6277 26.2842 51.9015 26.123 54.9492 27.0471C57.9968 27.9713 60.6297 29.9236 62.3992 32.5715C64.1687 35.2193 64.9652 38.3988 64.6531 41.5681C64.3411 44.7375 62.9396 47.7006 60.6877 49.9524C59.4131 51.2341 57.897 52.2503 56.2271 52.9422C54.5572 53.6342 52.7667 53.9882 50.9591 53.9838ZM50.9591 27.0086C48.345 27.0086 45.7895 27.7838 43.6159 29.2362C41.4423 30.6885 39.7481 32.7528 38.7477 35.168C37.7473 37.5832 37.4856 40.2408 37.9956 42.8048C38.5056 45.3687 39.7644 47.7239 41.6129 49.5724C43.4614 51.4209 45.8166 52.6797 48.3805 53.1897C50.9445 53.6997 53.6021 53.438 56.0173 52.4376C58.4325 51.4372 60.4968 49.743 61.9491 47.5694C63.4015 45.3958 64.1767 42.8403 64.1767 40.2261C64.1737 36.7216 62.7801 33.3614 60.302 30.8833C57.8239 28.4052 54.4637 27.0116 50.9591 27.0086Z" fill="#FBAE40"/>
<path d="M54.4026 31.1946C54.316 31.1604 54.2271 31.1285 54.1382 31.0989C53.8739 31.0054 53.6027 30.9257 53.327 30.855H53.2814L53.0535 30.8049L52.9874 30.7912L52.7778 30.7479L52.7117 30.7365L52.461 30.6932H52.4405L52.1647 30.6567H52.1009L51.8935 30.6362H51.8001C51.7386 30.6362 51.677 30.6248 51.6155 30.6226H51.5152H51.3261H51.2463C51.1552 30.6226 51.064 30.6226 50.9752 30.6226C49.5567 30.621 48.1555 30.9325 46.8713 31.5348C45.5871 32.1371 44.4517 33.0154 43.546 34.107C43.5118 34.1457 43.4822 34.1845 43.4503 34.2255C43.3227 34.3804 43.2019 34.54 43.0857 34.704C41.9301 36.3345 41.3112 38.2844 41.315 40.2828V40.3192C41.315 40.3853 41.315 40.4514 41.315 40.5152V40.7431C41.3982 42.4823 41.9501 44.1667 42.9121 45.6181C43.874 47.0694 45.2104 48.2338 46.7798 48.988C48.3492 49.7422 50.0933 50.0582 51.8275 49.9025C53.5618 49.7469 55.2217 49.1254 56.6318 48.1038C58.0418 47.0823 59.1495 45.6986 59.8377 44.0991C60.5259 42.4997 60.769 40.744 60.5413 39.0177C60.3136 37.2914 59.6236 35.6588 58.5442 34.2925C57.4648 32.9262 56.0361 31.8771 54.4094 31.2561L54.4026 31.1946Z" fill="#FBAE40"/>
<path d="M50.959 50.1641C48.9923 50.1646 47.0696 49.5818 45.4342 48.4894C43.7988 47.3971 42.524 45.8442 41.7712 44.0273C41.0184 42.2104 40.8213 40.2111 41.2049 38.2822C41.5884 36.3532 42.5354 34.5814 43.9261 33.1907C45.3168 31.8001 47.0886 30.8531 49.0175 30.4695C50.9464 30.0859 52.9458 30.283 54.7627 31.0359C56.5796 31.7887 58.1324 33.0634 59.2248 34.6989C60.3171 36.3343 60.8999 38.2569 60.8995 40.2236C60.8965 42.8591 59.8482 45.3857 57.9846 47.2493C56.1211 49.1128 53.5944 50.1611 50.959 50.1641ZM50.959 30.8437C49.1037 30.8433 47.29 31.393 45.7472 32.4234C44.2043 33.4538 43.0018 34.9186 42.2915 36.6325C41.5812 38.3464 41.3951 40.2325 41.7568 42.0522C42.1184 43.8718 43.0116 45.5434 44.3233 46.8554C45.635 48.1674 47.3063 49.061 49.1259 49.4231C50.9455 49.7852 52.8316 49.5996 54.5457 48.8897C56.2598 48.1799 57.7249 46.9776 58.7556 45.4351C59.7864 43.8925 60.3366 42.0789 60.3366 40.2236C60.3342 37.7371 59.3455 35.353 57.5874 33.5945C55.8294 31.836 53.4455 30.8467 50.959 30.8437Z" fill="#FBAE40"/>
<path d="M53.4067 50.1627L58.5092 67.2954L62.7023 61.2814L69.6279 63.8338L64.1608 47.248L53.4067 50.1627Z" fill="white" stroke="#FBAE40"/>
<g opacity="0.7">
<path d="M56.2806 54.9368L55.7422 55.1011L59.1544 66.2827L59.6927 66.1184L56.2806 54.9368Z" fill="#FBAE40"/>
</g>
<g opacity="0.7">
<path d="M64.0664 49.8946L63.5295 50.0637L67.7218 63.3679L68.2586 63.1987L64.0664 49.8946Z" fill="#FBAE40"/>
</g>
<path d="M47.2103 48.3418L41.741 64.1983L49.2134 61.6459L53.042 67.4799L59.4206 50.5272L47.2103 48.3418Z" fill="white" stroke="#FBAE40"/>
<g opacity="0.7">
<path d="M48.5864 47.7139L43.4812 63.3889L44.0164 63.5632L49.1216 47.8882L48.5864 47.7139Z" fill="#FBAE40"/>
</g>
<g opacity="0.7">
<path d="M57.7021 49.5301L51.8679 66.1155L52.3989 66.3023L58.233 49.7169L57.7021 49.5301Z" fill="#FBAE40"/>
</g>
<g filter="url(#filter1_d_397_5608)">
<path d="M39.1887 37.223C39.1887 36.455 41.0574 35.8306 41.1622 35.0923C41.2671 34.3539 39.6536 33.2145 39.8656 32.4966C40.0775 31.7788 42.0464 31.6944 42.3587 31.0131C42.6709 30.3317 41.4471 28.7866 41.8505 28.1553C42.2538 27.5241 44.1681 28.0049 44.6626 27.4352C45.1571 26.8655 44.4074 25.0447 44.9771 24.5501C45.5468 24.0556 47.2423 25.0561 47.8781 24.6459C48.5139 24.2357 48.2997 22.2804 48.9902 21.9659C49.6807 21.6514 51.0161 23.0917 51.7454 22.8774C52.4746 22.6632 52.8165 20.7307 53.5685 20.6213C54.3205 20.512 55.1865 22.2758 55.9545 22.2758C56.7225 22.2758 57.6021 20.5165 58.3382 20.6213C59.0743 20.7262 59.448 22.6723 60.1613 22.8774C60.8746 23.0825 62.2351 21.6537 62.9165 21.9659C63.5979 22.2781 63.3973 24.2448 64.0286 24.6459C64.6598 25.0469 66.3599 24.0556 66.9296 24.5501C67.4993 25.0447 66.7496 26.8655 67.2441 27.4352C67.7386 28.0049 69.646 27.5195 70.0562 28.1553C70.4664 28.7911 69.2313 30.3226 69.548 31.0131C69.8648 31.7036 71.8269 31.7674 72.0411 32.4966C72.2554 33.2259 70.6373 34.338 70.7445 35.0945C70.8516 35.8511 72.718 36.4619 72.718 37.223C72.718 37.9842 70.8493 38.6131 70.7445 39.3515C70.6396 40.0899 72.2531 41.2293 72.0411 41.9472C71.8292 42.665 69.8602 42.7493 69.548 43.4307C69.2358 44.1121 70.4596 45.6572 70.0562 46.2884C69.6529 46.9197 67.7386 46.4388 67.2441 47.0086C66.7496 47.5783 67.5016 49.3991 66.9296 49.8936C66.3576 50.3882 64.6644 49.3877 64.0286 49.7979C63.3928 50.2081 63.607 52.1634 62.9165 52.4779C62.226 52.7924 60.8905 51.3521 60.1613 51.5663C59.4321 51.7806 59.0902 53.713 58.3382 53.8224C57.5862 53.9318 56.7202 52.168 55.9545 52.168C55.1888 52.168 54.3046 53.9273 53.5685 53.8224C52.8324 53.7176 52.4587 51.7714 51.7454 51.5663C51.0321 51.3612 49.6716 52.7901 48.9902 52.4779C48.3088 52.1657 48.5094 50.199 47.8781 49.7979C47.2469 49.3968 45.5468 50.3882 44.9771 49.8936C44.4074 49.3991 45.1571 47.5806 44.6626 47.0086C44.1681 46.4366 42.2607 46.9242 41.8505 46.2884C41.4403 45.6526 42.6754 44.1212 42.3587 43.4307C42.0419 42.7402 40.0798 42.6764 39.8656 41.9472C39.6513 41.2179 41.2693 40.1058 41.1622 39.3515C41.0551 38.5972 39.1887 37.9887 39.1887 37.223Z" fill="#FBAE40"/>
</g>
<path d="M55.9591 50.71C63.4075 50.71 69.4456 44.6719 69.4456 37.2235C69.4456 29.7751 63.4075 23.7371 55.9591 23.7371C48.5107 23.7371 42.4727 29.7751 42.4727 37.2235C42.4727 44.6719 48.5107 50.71 55.9591 50.71Z" fill="#FBAE40"/>
<path d="M55.9591 50.9838C52.7745 50.9848 49.688 49.8814 47.2257 47.8617C44.7633 45.842 43.0775 43.031 42.4555 39.9077C41.8335 36.7843 42.3138 33.5419 43.8145 30.733C45.3153 27.9241 47.7436 25.7225 50.6857 24.5034C53.6277 23.2842 56.9015 23.123 59.9492 24.0471C62.9968 24.9713 65.6297 26.9236 67.3992 29.5715C69.1687 32.2193 69.9652 35.3988 69.6531 38.5681C69.3411 41.7375 67.9396 44.7006 65.6877 46.9524C64.4131 48.2341 62.897 49.2503 61.2271 49.9422C59.5572 50.6342 57.7667 50.9882 55.9591 50.9838ZM55.9591 24.0086C53.345 24.0086 50.7895 24.7838 48.6159 26.2362C46.4423 27.6885 44.7481 29.7528 43.7477 32.168C42.7473 34.5832 42.4856 37.2408 42.9956 39.8048C43.5056 42.3687 44.7644 44.7239 46.6129 46.5724C48.4614 48.4209 50.8166 49.6797 53.3805 50.1897C55.9445 50.6997 58.6021 50.438 61.0173 49.4376C63.4325 48.4372 65.4968 46.743 66.9491 44.5694C68.4015 42.3958 69.1767 39.8403 69.1767 37.2261C69.1737 33.7216 67.7801 30.3614 65.302 27.8833C62.8239 25.4052 59.4637 24.0116 55.9591 24.0086Z" fill="white"/>
<path d="M59.4026 28.1946C59.316 28.1604 59.2271 28.1285 59.1382 28.0989C58.8739 28.0054 58.6027 27.9257 58.327 27.855H58.2814L58.0535 27.8049L57.9874 27.7912L57.7778 27.7479L57.7117 27.7365L57.461 27.6932H57.4405L57.1647 27.6567H57.1009L56.8935 27.6362H56.8001C56.7386 27.6362 56.677 27.6248 56.6155 27.6226H56.5152H56.3261H56.2463C56.1552 27.6226 56.064 27.6226 55.9752 27.6226C54.5567 27.621 53.1555 27.9325 51.8713 28.5348C50.5871 29.1371 49.4517 30.0154 48.546 31.107C48.5118 31.1457 48.4822 31.1845 48.4503 31.2255C48.3227 31.3804 48.2019 31.54 48.0857 31.704C46.9301 33.3345 46.3112 35.2844 46.315 37.2828V37.3192C46.315 37.3853 46.315 37.4514 46.315 37.5152V37.7431C46.3982 39.4823 46.9501 41.1667 47.9121 42.6181C48.874 44.0694 50.2104 45.2338 51.7798 45.988C53.3492 46.7422 55.0933 47.0582 56.8275 46.9025C58.5618 46.7469 60.2217 46.1254 61.6318 45.1038C63.0418 44.0823 64.1495 42.6986 64.8377 41.0991C65.5259 39.4997 65.769 37.744 65.5413 36.0177C65.3136 34.2914 64.6236 32.6588 63.5442 31.2925C62.4648 29.9262 61.0361 28.8771 59.4094 28.2561L59.4026 28.1946Z" fill="white"/>
<path d="M55.959 47.1639C53.9923 47.1643 52.0696 46.5815 50.4342 45.4892C48.7988 44.3968 47.524 42.844 46.7712 41.0271C46.0184 39.2102 45.8213 37.2108 46.2049 35.2819C46.5884 33.353 47.5354 31.5812 48.9261 30.1905C50.3168 28.7998 52.0886 27.8528 54.0175 27.4693C55.9464 27.0857 57.9458 27.2828 59.7627 28.0356C61.5796 28.7884 63.1324 30.0632 64.2248 31.6986C65.3171 33.334 65.8999 35.2567 65.8995 37.2234C65.8965 39.8588 64.8482 42.3855 62.9846 44.249C61.1211 46.1126 58.5944 47.1609 55.959 47.1639ZM55.959 27.8435C54.1037 27.843 52.29 28.3928 50.7472 29.4232C49.2043 30.4536 48.0018 31.9184 47.2915 33.6323C46.5812 35.3462 46.3951 37.2322 46.7568 39.0519C47.1184 40.8716 48.0116 42.5431 49.3233 43.8552C50.635 45.1672 52.3063 46.0608 54.1259 46.4229C55.9455 46.785 57.8316 46.5994 59.5457 45.8895C61.2598 45.1796 62.7249 43.9774 63.7556 42.4348C64.7864 40.8922 65.3366 39.0786 65.3366 37.2234C65.3342 34.7368 64.3455 32.3527 62.5874 30.5943C60.8294 28.8358 58.4455 27.8465 55.959 27.8435Z" fill="#FBAE40"/>
<defs>
<filter id="filter0_d_397_5608" x="-0.000105381" y="0" width="101.027" height="109.261" filterUnits="userSpaceOnUse" color-interpolation-filters="sRGB">
<feFlood flood-opacity="0" result="BackgroundImageFix"/>
<feColorMatrix in="SourceAlpha" type="matrix" values="0 0 0 0 0 0 0 0 0 0 0 0 0 0 0 0 0 0 127 0" result="hardAlpha"/>
<feOffset dx="-4.9193" dy="8.43309"/>
<feGaussianBlur stdDeviation="1.40551"/>
<feComposite in2="hardAlpha" operator="out"/>
<feColorMatrix type="matrix" values="0 0 0 0 0.25673 0 0 0 0 0.164842 0 0 0 0 0.0335725 0 0 0 0.1 0"/>
<feBlend mode="normal" in2="BackgroundImageFix" result="effect1_dropShadow_397_5608"/>
<feBlend mode="normal" in="SourceGraphic" in2="effect1_dropShadow_397_5608" result="shape"/>
</filter>
<filter id="filter1_d_397_5608" x="35.1887" y="20.6165" width="41.5293" height="41.2109" filterUnits="userSpaceOnUse" color-interpolation-filters="sRGB">
<feFlood flood-opacity="0" result="BackgroundImageFix"/>
<feColorMatrix in="SourceAlpha" type="matrix" values="0 0 0 0 0 0 0 0 0 0 0 0 0 0 0 0 0 0 127 0" result="hardAlpha"/>
<feOffset dy="4"/>
<feGaussianBlur stdDeviation="2"/>
<feComposite in2="hardAlpha" operator="out"/>
<feColorMatrix type="matrix" values="0 0 0 0 0 0 0 0 0 0 0 0 0 0 0 0 0 0 0.06 0"/>
<feBlend mode="normal" in2="BackgroundImageFix" result="effect1_dropShadow_397_5608"/>
<feBlend mode="normal" in="SourceGraphic" in2="effect1_dropShadow_397_5608" result="shape"/>
</filter>
</defs>
</svg>
