<svg xmlns="http://www.w3.org/2000/svg" viewBox="0 0 1000 1000"><defs><style>.cls-1{fill:#f15a26;}.cls-2{fill:#fff;}</style></defs><g id="Layer_2" data-name="Layer 2"><g id="Horizontal-v2"><g id="Emblem"><path class="cls-1" d="M175.34,489h-.24c-.15-.1-.3-.2-.46-.29a58.2,58.2,0,0,1-16.92-14.55,40.23,40.23,0,0,1-8.64-19.74c-.18-1.28-.29-2.56-.43-3.85v-1.35h10a16.19,16.19,0,0,0,16.48,16.47h.19a16.19,16.19,0,0,0,16.48-16.47h10v1.35c-.14,1.29-.25,2.57-.42,3.85a40.33,40.33,0,0,1-8.64,19.74,58.24,58.24,0,0,1-16.93,14.55Z"/><circle class="cls-1" cx="175.22" cy="449.49" r="10.42"/><path class="cls-2" d="M181.14,495v-.24c.09-.15.2-.3.29-.45A58.11,58.11,0,0,1,196,477.37a40.29,40.29,0,0,1,19.74-8.64c1.28-.17,2.56-.29,3.85-.43h1.35v10a16.19,16.19,0,0,0-16.47,16.48V495a16.19,16.19,0,0,0,16.47,16.47v10h-1.35c-1.29-.14-2.57-.26-3.85-.43A40.2,40.2,0,0,1,196,512.37a58.2,58.2,0,0,1-14.55-16.92C181.34,495.29,181.23,495.14,181.14,495Z"/><circle class="cls-2" cx="220.59" cy="494.87" r="10.42"/><circle class="cls-2" cx="220.59" cy="494.87" r="10.42"/><path class="cls-1" d="M175.1,500.79h.24l.45.3a58.21,58.21,0,0,1,16.93,14.54,40.33,40.33,0,0,1,8.64,19.74c.17,1.28.28,2.56.42,3.85v1.35h-10a16.19,16.19,0,0,0-16.48-16.47h-.19a16.19,16.19,0,0,0-16.48,16.47h-10v-1.35c.14-1.29.25-2.57.43-3.85a40.23,40.23,0,0,1,8.64-19.74,58.17,58.17,0,0,1,16.92-14.54Z"/><circle class="cls-1" cx="175.22" cy="540.25" r="10.42"/><path class="cls-2" d="M169.3,494.75V495c-.1.15-.21.3-.3.45a58.23,58.23,0,0,1-14.54,16.93A40.23,40.23,0,0,1,134.72,521c-1.28.17-2.57.29-3.85.43h-1.36v-10A16.19,16.19,0,0,0,146,495v-.19a16.2,16.2,0,0,0-16.48-16.48v-10h1.36c1.28.14,2.57.26,3.85.43a40.33,40.33,0,0,1,19.74,8.64A58.32,58.32,0,0,1,169,494.29C169.09,494.45,169.2,494.6,169.3,494.75Z"/><circle class="cls-2" cx="129.84" cy="494.87" r="10.42"/></g><path class="cls-2" d="M257.66,465.83h-9.53v-8.3H262.8ZM261,505.28V466c0-4.63,4.06-8.43,9.08-8.43h14.28v8.3H270.65v39.45Z"/><path class="cls-2" d="M298.71,497h24.65l4.5,8.3H298.13c-5,0-9.07-3.8-9.07-8.43V466c0-4.63,4.05-8.43,9.07-8.43h29.73l-4.5,8.3H298.71v11.65h22.72v8.3H298.71Z"/><path class="cls-2" d="M341.18,487.13c0,5.41,3.93,9.85,8.82,9.85h6.43a9.58,9.58,0,0,0,7.21-3.35l8.37,6.44c-3.35,3.21-10.56,5.21-15.58,5.21H350a18.32,18.32,0,0,1-18.47-18.15V475.68A18.32,18.32,0,0,1,350,457.53h6.43c5,0,12.23,2,15.58,5.21l-8.37,6.44a9.58,9.58,0,0,0-7.21-3.35H350c-4.89,0-8.82,4.44-8.82,9.85Z"/><path class="cls-2" d="M391.06,477.48H408.5v-20h9.65v47.75H408.5v-19.5H387.84v19.5h-9.65V457.53h9.65v25.16Z"/><path class="cls-1" d="M458.88,505.28h-9.65V466c0-4.63,4.06-8.43,9.07-8.43h13c10.17,0,18.47,6.18,18.47,16.22v1.8c0,10-8.3,16.21-18.47,16.21H459.53l5.14-8.3h6.63c4.89,0,8.82-2.51,8.82-7.91v-1.8c0-5.41-3.93-7.92-8.82-7.92H458.88Z"/><path class="cls-1" d="M502.58,498.91l5.15-8.3h12.86l-8.17-23.43-13.32,38.1H488.81l14-40c1.67-4.76,4.56-8.43,9.58-8.43s7.92,3.67,9.59,8.43l14,40h-10.3l-2.25-6.37Z"/><path class="cls-1" d="M551,505.28h-9.65V466c0-4.63,4.06-8.43,9.08-8.43h13c10.17,0,18.47,6.18,18.47,16.22v1.8c0,7.72-4.89,13.19-11.84,15.25L583,505.28H571l-11.9-13.52h-7.4l5.15-8.3h6.62c4.89,0,8.82-2.51,8.82-7.91v-1.8c0-5.41-3.93-7.92-8.82-7.92H551Z"/><path class="cls-1" d="M622.53,457.53h10.29l-14,40c-1.67,4.76-4.56,8.43-9.58,8.43s-7.92-3.67-9.59-8.43l-14-40h10.3l13.32,38.09Z"/><path class="cls-1" d="M640.93,498.91l5.15-8.3H659l-8.17-23.43-13.32,38.1h-10.3l14-40c1.67-4.76,4.57-8.43,9.59-8.43s7.91,3.67,9.59,8.43l14,40H664.1l-2.25-6.37Z"/><path class="cls-1" d="M708.82,492.28V497h23.36l4.51,8.3H708.25c-5,0-9.08-3.8-9.08-8.43v-4.57c0-16.6,27.86-13.51,27.86-21.11,0-3-3.34-5.34-7.52-5.34h-6.44a8.61,8.61,0,0,0-6.63,3.35l-8.3-6.44c3.22-3.21,10.11-5.21,14.93-5.21h6.44c9.45,0,17.18,6.12,17.18,13.64C736.69,487.65,708.82,483.79,708.82,492.28Z"/><path class="cls-1" d="M761.79,505.92a18.32,18.32,0,0,1-18.47-18.14V475a18.32,18.32,0,0,1,18.47-18.14H765A18.32,18.32,0,0,1,783.47,475v12.75A18.32,18.32,0,0,1,765,505.92Zm3.21-8.3c4.89,0,8.82-4.44,8.82-9.84V475c0-5.4-3.93-9.84-8.82-9.84h-3.21c-4.9,0-8.82,4.44-8.82,9.84v12.75c0,5.4,3.92,9.84,8.82,9.84Z"/><path class="cls-1" d="M800.72,492.28V497h23.36l4.5,8.3H800.14c-5,0-9.07-3.8-9.07-8.43v-4.57c0-16.6,27.86-13.51,27.86-21.11,0-3-3.35-5.34-7.53-5.34H805a8.61,8.61,0,0,0-6.63,3.35l-8.3-6.44c3.21-3.21,10.1-5.21,14.93-5.21h6.43c9.46,0,17.18,6.12,17.18,13.64C828.58,487.65,800.72,483.79,800.72,492.28Z"/><path class="cls-1" d="M844.8,479a29.15,29.15,0,0,1,12-2.83h3.22c12,0,18,7.27,18,14.55s-6,14.54-18,14.54h-6.43a18.32,18.32,0,0,1-18.47-18.15V475.68a18.32,18.32,0,0,1,18.47-18.15h6.43c5,0,12.23,2,15.57,5.21l-8.36,6.44a9.58,9.58,0,0,0-7.21-3.35h-6.43c-4.9,0-8.82,4.44-8.82,9.85Zm0,8.11c0,5.41,3.92,9.85,8.82,9.85h6.43c5.73,0,8.56-3.16,8.56-6.24s-2.83-6.25-8.56-6.25h-3.22a9.55,9.55,0,0,0-7.2,3.35l-4.83-3.73Z"/><path class="cls-2" d="M260.73,538.79V536.2l10.13-14.53H275v14.14h2.81v3H275v4.59h-3.37v-4.59Zm11.07-13.63-7.12,10.65h7.12Z"/><path class="cls-2" d="M288.14,529.57v9.19a1.76,1.76,0,0,0,.44,1.35,2.16,2.16,0,0,0,1.49.4h2.11v2.87h-2.72a5.23,5.23,0,0,1-3.55-1.09,4.45,4.45,0,0,1-1.24-3.53v-9.19h-2v-2.81h2v-4.13h3.47v4.13h4v2.81Z"/><path class="cls-2" d="M310.35,527.31a5.75,5.75,0,0,1,2.35,2.41,8.06,8.06,0,0,1,.86,3.86v9.8h-3.41v-9.29a4.78,4.78,0,0,0-1.12-3.42,3.93,3.93,0,0,0-3-1.19,4,4,0,0,0-3.06,1.19,4.74,4.74,0,0,0-1.13,3.42v9.29h-3.44V521.06h3.44v7.63a5.88,5.88,0,0,1,2.21-1.63,7.48,7.48,0,0,1,2.94-.57A6.93,6.93,0,0,1,310.35,527.31Z"/><path class="cls-2" d="M344.43,539.1h-8.77l-1.51,4.28h-3.59l7.51-21h4l7.51,21h-3.62Zm-1-2.81-3.41-9.74-3.44,9.74Z"/><path class="cls-2" d="M367.73,527.31a5.74,5.74,0,0,1,2.42,2.41,7.84,7.84,0,0,1,.88,3.86v9.8h-3.41v-9.29a4.78,4.78,0,0,0-1.12-3.42,3.93,3.93,0,0,0-3-1.19,4,4,0,0,0-3.06,1.19,4.78,4.78,0,0,0-1.13,3.42v9.29h-3.44V526.76h3.44v1.9a5.81,5.81,0,0,1,2.15-1.6,7,7,0,0,1,2.79-.57A7.4,7.4,0,0,1,367.73,527.31Z"/><path class="cls-2" d="M390.31,527.31a5.82,5.82,0,0,1,2.43,2.41,8,8,0,0,1,.87,3.86v9.8H390.2v-9.29a4.82,4.82,0,0,0-1.11-3.42,4,4,0,0,0-3-1.19,4,4,0,0,0-3.06,1.19,4.78,4.78,0,0,0-1.13,3.42v9.29h-3.43V526.76h3.43v1.9a5.84,5.84,0,0,1,2.16-1.6,6.89,6.89,0,0,1,2.79-.57A7.39,7.39,0,0,1,390.31,527.31Z"/><path class="cls-2" d="M416,526.76v16.62h-3.43v-2a5.6,5.6,0,0,1-2.13,1.61,6.75,6.75,0,0,1-2.79.59,7.36,7.36,0,0,1-3.51-.82,5.78,5.78,0,0,1-2.44-2.41,7.73,7.73,0,0,1-.89-3.86v-9.77h3.4V536a4.82,4.82,0,0,0,1.12,3.42,4,4,0,0,0,3.05,1.19,4,4,0,0,0,3.06-1.19,4.78,4.78,0,0,0,1.13-3.42v-9.26Z"/><path class="cls-2" d="M423.48,530.56a7.57,7.57,0,0,1,6.8-4.07,7.31,7.31,0,0,1,3.42.77,7.08,7.08,0,0,1,2.34,1.91v-2.41h3.46v16.62H436V540.9a6.78,6.78,0,0,1-2.39,2,7.23,7.23,0,0,1-3.43.79,7.32,7.32,0,0,1-3.92-1.1,7.78,7.78,0,0,1-2.82-3.08,9.37,9.37,0,0,1-1-4.48A9.14,9.14,0,0,1,423.48,530.56Zm11.85,1.51a5,5,0,0,0-1.86-1.93,4.86,4.86,0,0,0-2.47-.66,5,5,0,0,0-2.47.64,5,5,0,0,0-1.86,1.9,6,6,0,0,0-.71,3,6.21,6.21,0,0,0,.71,3,5.08,5.08,0,0,0,1.87,2,4.76,4.76,0,0,0,2.46.68,4.86,4.86,0,0,0,2.47-.66,4.93,4.93,0,0,0,1.86-2,6.1,6.1,0,0,0,.71-3A6,6,0,0,0,435.33,532.07Z"/><path class="cls-2" d="M450.48,521.06v22.32H447V521.06Z"/><path class="cls-2" d="M482.41,522.42v2.8h-5.58v18.16h-3.44V525.22h-5.6v-2.8Z"/><path class="cls-2" d="M504,536.35H491.3a4.58,4.58,0,0,0,4.74,4.4,4,4,0,0,0,3.92-2.32h3.71a7.6,7.6,0,0,1-2.73,3.76,8,8,0,0,1-4.9,1.46,8.54,8.54,0,0,1-4.27-1.07,7.65,7.65,0,0,1-2.95-3,9.12,9.12,0,0,1-1.07-4.51,9.31,9.31,0,0,1,1-4.5,7.28,7.28,0,0,1,2.92-3,8.66,8.66,0,0,1,4.33-1.06,8.4,8.4,0,0,1,4.19,1,7.14,7.14,0,0,1,2.86,2.88,8.56,8.56,0,0,1,1,4.26A10.73,10.73,0,0,1,504,536.35Zm-3.47-2.77a3.91,3.91,0,0,0-1.36-3.05,4.85,4.85,0,0,0-3.28-1.14,4.4,4.4,0,0,0-3.05,1.13,4.72,4.72,0,0,0-1.5,3.06Z"/><path class="cls-2" d="M510.41,530.55a7.31,7.31,0,0,1,2.88-3,9.19,9.19,0,0,1,9.21.37,7.15,7.15,0,0,1,2.67,4.09h-3.71a4,4,0,0,0-1.45-1.93,4.29,4.29,0,0,0-2.5-.69,4.13,4.13,0,0,0-3.36,1.49,6.27,6.27,0,0,0-1.26,4.17,6.38,6.38,0,0,0,1.26,4.2,4.14,4.14,0,0,0,3.36,1.5,3.82,3.82,0,0,0,4-2.62h3.71a7.48,7.48,0,0,1-2.72,4,8,8,0,0,1-4.94,1.49,8.25,8.25,0,0,1-4.22-1.07,7.49,7.49,0,0,1-2.88-3,10.28,10.28,0,0,1,0-9Z"/><path class="cls-2" d="M543.6,527.31a5.78,5.78,0,0,1,2.36,2.41,8.06,8.06,0,0,1,.86,3.86v9.8h-3.41v-9.29a4.78,4.78,0,0,0-1.12-3.42,3.94,3.94,0,0,0-3-1.19,4,4,0,0,0-3.06,1.19,4.74,4.74,0,0,0-1.13,3.42v9.29h-3.44V521.06h3.44v7.63a5.88,5.88,0,0,1,2.21-1.63,7.48,7.48,0,0,1,2.94-.57A6.86,6.86,0,0,1,543.6,527.31Z"/><path class="cls-2" d="M566.1,527.31a5.82,5.82,0,0,1,2.43,2.41,8,8,0,0,1,.87,3.86v9.8H566v-9.29a4.82,4.82,0,0,0-1.11-3.42,4.52,4.52,0,0,0-6.11,0,4.78,4.78,0,0,0-1.13,3.42v9.29H554.2V526.76h3.44v1.9a5.76,5.76,0,0,1,2.16-1.6,6.89,6.89,0,0,1,2.79-.57A7.39,7.39,0,0,1,566.1,527.31Z"/><path class="cls-2" d="M579.74,542.58a7.73,7.73,0,0,1-3-3,9,9,0,0,1-1.09-4.51,8.88,8.88,0,0,1,1.12-4.49,7.72,7.72,0,0,1,3-3,9.31,9.31,0,0,1,8.63,0,7.72,7.72,0,0,1,3,3,8.88,8.88,0,0,1,1.12,4.49,8.71,8.71,0,0,1-1.15,4.5,8,8,0,0,1-3.12,3,9.05,9.05,0,0,1-4.36,1.07A8.57,8.57,0,0,1,579.74,542.58Zm6.74-2.55a4.93,4.93,0,0,0,1.89-1.9,6.13,6.13,0,0,0,.72-3.08,6.29,6.29,0,0,0-.69-3.06,4.76,4.76,0,0,0-1.84-1.88,5.08,5.08,0,0,0-2.48-.63,4.94,4.94,0,0,0-2.45.63,4.48,4.48,0,0,0-1.8,1.88,6.53,6.53,0,0,0-.66,3.06,5.85,5.85,0,0,0,1.37,4.15,4.53,4.53,0,0,0,3.45,1.46A5.12,5.12,0,0,0,586.48,540Z"/><path class="cls-2" d="M602.48,521.06v22.32H599V521.06Z"/><path class="cls-2" d="M613,542.58a7.75,7.75,0,0,1-3-3,9.12,9.12,0,0,1-1.08-4.51,9,9,0,0,1,1.11-4.49,7.74,7.74,0,0,1,3-3,9.29,9.29,0,0,1,8.62,0,7.68,7.68,0,0,1,3.05,3,9,9,0,0,1,1.11,4.49,8.8,8.8,0,0,1-1.14,4.5,8.11,8.11,0,0,1-3.12,3,9.05,9.05,0,0,1-4.36,1.07A8.54,8.54,0,0,1,613,542.58Zm6.74-2.55a4.84,4.84,0,0,0,1.88-1.9,6,6,0,0,0,.73-3.08,6.18,6.18,0,0,0-.7-3.06,4.63,4.63,0,0,0-1.84-1.88,5.14,5.14,0,0,0-4.93,0,4.52,4.52,0,0,0-1.79,1.88,6.53,6.53,0,0,0-.66,3.06,5.81,5.81,0,0,0,1.37,4.15,4.5,4.5,0,0,0,3.45,1.46A5.15,5.15,0,0,0,619.71,540Z"/><path class="cls-2" d="M642.38,527.26a6.52,6.52,0,0,1,2.34,1.91v-2.41h3.47v16.89a8.37,8.37,0,0,1-1,4.08,6.89,6.89,0,0,1-2.79,2.82,8.64,8.64,0,0,1-4.35,1,9.44,9.44,0,0,1-5.61-1.59,5.8,5.8,0,0,1-2.53-4.29h3.4a3.68,3.68,0,0,0,1.68,2.09,5.58,5.58,0,0,0,3.06.8,4.6,4.6,0,0,0,3.36-1.26,5,5,0,0,0,1.28-3.68v-2.78a6.86,6.86,0,0,1-2.37,2,7.07,7.07,0,0,1-3.39.8,7.43,7.43,0,0,1-4-1.1,7.83,7.83,0,0,1-2.84-3.08,9.49,9.49,0,0,1-1-4.48,9.26,9.26,0,0,1,1-4.43,7.74,7.74,0,0,1,2.84-3,7.59,7.59,0,0,1,4-1.07A7.37,7.37,0,0,1,642.38,527.26Zm1.63,4.81a5,5,0,0,0-1.85-1.93,4.9,4.9,0,0,0-2.48-.66,4.83,4.83,0,0,0-4.32,2.54,6,6,0,0,0-.71,3,6.21,6.21,0,0,0,.71,3,4.94,4.94,0,0,0,1.87,2,4.7,4.7,0,0,0,2.45.68,4.82,4.82,0,0,0,4.33-2.61,6.1,6.1,0,0,0,.71-3A6,6,0,0,0,644,532.07Z"/><path class="cls-2" d="M655.91,523.93a2.2,2.2,0,0,1,1.56-3.77,2.09,2.09,0,0,1,1.54.63,2.25,2.25,0,0,1,0,3.14,2.09,2.09,0,0,1-1.54.63A2.12,2.12,0,0,1,655.91,523.93Zm3.25,2.83v16.62h-3.43V526.76Z"/><path class="cls-2" d="M666.6,530.55a7.35,7.35,0,0,1,2.87-3,9.21,9.21,0,0,1,9.22.37,7.15,7.15,0,0,1,2.67,4.09h-3.71a4,4,0,0,0-1.45-1.93,4.29,4.29,0,0,0-2.5-.69,4.16,4.16,0,0,0-3.37,1.49,6.33,6.33,0,0,0-1.25,4.17,6.43,6.43,0,0,0,1.25,4.2,4.17,4.17,0,0,0,3.37,1.5,3.82,3.82,0,0,0,3.95-2.62h3.71a7.48,7.48,0,0,1-2.72,4,8,8,0,0,1-4.94,1.49,8.31,8.31,0,0,1-4.23-1.07,7.53,7.53,0,0,1-2.87-3,10.19,10.19,0,0,1,0-9Z"/><path class="cls-2" d="M687.7,530.56a7.74,7.74,0,0,1,2.84-3,7.59,7.59,0,0,1,4-1.07,7.25,7.25,0,0,1,3.42.77,6.88,6.88,0,0,1,2.34,1.91v-2.41h3.47v16.62h-3.47V540.9a6.75,6.75,0,0,1-2.38,2,7.69,7.69,0,0,1-7.36-.31,7.93,7.93,0,0,1-2.82-3.08,9.49,9.49,0,0,1-1-4.48A9.26,9.26,0,0,1,687.7,530.56Zm11.85,1.51a5,5,0,0,0-1.85-1.93,4.9,4.9,0,0,0-2.48-.66A4.83,4.83,0,0,0,690.9,532a6,6,0,0,0-.71,3,6.21,6.21,0,0,0,.71,3,4.94,4.94,0,0,0,1.87,2,4.7,4.7,0,0,0,2.45.68,4.82,4.82,0,0,0,4.33-2.61,6.1,6.1,0,0,0,.71-3A6,6,0,0,0,699.55,532.07Z"/><path class="cls-2" d="M714.7,521.06v22.32h-3.43V521.06Z"/><path class="cls-2" d="M745.43,522.42v2.8h-8.9v6.19h6.94v2.8h-6.94v9.17H733.1v-21Z"/><path class="cls-2" d="M766.75,536.35h-12.7a4.58,4.58,0,0,0,4.74,4.4,4,4,0,0,0,3.92-2.32h3.71a7.6,7.6,0,0,1-2.73,3.76,8,8,0,0,1-4.9,1.46,8.54,8.54,0,0,1-4.27-1.07,7.59,7.59,0,0,1-2.95-3,9.12,9.12,0,0,1-1.08-4.51,9.32,9.32,0,0,1,1-4.5,7.22,7.22,0,0,1,2.92-3,8.66,8.66,0,0,1,4.33-1.06,8.42,8.42,0,0,1,4.19,1,7.21,7.21,0,0,1,2.86,2.88,8.56,8.56,0,0,1,1,4.26A10.73,10.73,0,0,1,766.75,536.35Zm-3.47-2.77a3.91,3.91,0,0,0-1.36-3.05,4.85,4.85,0,0,0-3.28-1.14,4.38,4.38,0,0,0-3,1.13,4.73,4.73,0,0,0-1.51,3.06Z"/><path class="cls-2" d="M775.78,542.94a6.14,6.14,0,0,1-2.46-1.93,4.82,4.82,0,0,1-1-2.73h3.56a2.41,2.41,0,0,0,1,1.76,3.64,3.64,0,0,0,2.31.71,3.94,3.94,0,0,0,2.25-.55,1.7,1.7,0,0,0,.8-1.44,1.47,1.47,0,0,0-.89-1.38,16.15,16.15,0,0,0-2.82-1,26.9,26.9,0,0,1-3.05-1,5.35,5.35,0,0,1-2-1.48,3.83,3.83,0,0,1-.86-2.62,4.09,4.09,0,0,1,.78-2.43,5.21,5.21,0,0,1,2.25-1.74,8.39,8.39,0,0,1,3.36-.63,7,7,0,0,1,4.57,1.43,5.17,5.17,0,0,1,1.85,3.91H782a2.44,2.44,0,0,0-.9-1.78,3.39,3.39,0,0,0-2.2-.66,3.57,3.57,0,0,0-2.08.51,1.59,1.59,0,0,0-.73,1.36,1.44,1.44,0,0,0,.49,1.11,3.43,3.43,0,0,0,1.17.71c.46.17,1.15.39,2,.65a21.93,21.93,0,0,1,3,1,5.57,5.57,0,0,1,2,1.46,3.88,3.88,0,0,1,.87,2.56,4.34,4.34,0,0,1-.78,2.54,5.16,5.16,0,0,1-2.22,1.74,8.09,8.09,0,0,1-3.36.64A8.37,8.37,0,0,1,775.78,542.94Z"/><path class="cls-2" d="M796.39,529.57v9.19a1.79,1.79,0,0,0,.43,1.35,2.21,2.21,0,0,0,1.5.4h2.11v2.87h-2.72a5.23,5.23,0,0,1-3.55-1.09,4.45,4.45,0,0,1-1.24-3.53v-9.19h-2v-2.81h2v-4.13h3.47v4.13h4v2.81Z"/><path class="cls-2" d="M806.79,523.93a2.2,2.2,0,0,1,1.57-3.77,2.08,2.08,0,0,1,1.53.63,2.25,2.25,0,0,1,0,3.14,2.08,2.08,0,0,1-1.53.63A2.13,2.13,0,0,1,806.79,523.93Zm3.26,2.83v16.62h-3.44V526.76Z"/><path class="cls-2" d="M824,540.3l4.7-13.54h3.65L826,543.38h-4.1l-6.31-16.62h3.68Z"/><path class="cls-2" d="M837.86,530.56a7.67,7.67,0,0,1,2.84-3,7.59,7.59,0,0,1,4-1.07,7.25,7.25,0,0,1,3.42.77,6.88,6.88,0,0,1,2.34,1.91v-2.41h3.47v16.62h-3.47V540.9a6.75,6.75,0,0,1-2.38,2,7.69,7.69,0,0,1-7.36-.31,7.78,7.78,0,0,1-2.82-3.08,9.49,9.49,0,0,1-1-4.48A9.26,9.26,0,0,1,837.86,530.56Zm11.85,1.51a5,5,0,0,0-1.85-1.93,4.9,4.9,0,0,0-2.48-.66,4.83,4.83,0,0,0-4.32,2.54,6,6,0,0,0-.71,3,6.21,6.21,0,0,0,.71,3,4.94,4.94,0,0,0,1.87,2,4.7,4.7,0,0,0,2.45.68,4.82,4.82,0,0,0,4.33-2.61,6.1,6.1,0,0,0,.71-3A6,6,0,0,0,849.71,532.07Z"/><path class="cls-2" d="M864.86,521.06v22.32h-3.43V521.06Z"/></g></g></svg>