<svg width="102" height="110" viewBox="0 0 102 110" fill="none" xmlns="http://www.w3.org/2000/svg">
<g filter="url(#filter0_d_397_5707)">
<path d="M42.0025 9.65912C45.8825 8.20172 50.2079 8.53113 53.8224 10.5593L83.1488 27.0145C86.5685 28.9333 89.0311 32.1935 89.9419 36.0075L95.2063 58.0539C96.6248 63.9939 94.045 70.1702 88.823 73.3367L55.1346 93.764C50.8013 96.3915 45.389 96.4829 40.9694 94.0031L14.9078 79.3797C10.4749 76.8923 7.73035 72.2053 7.73035 67.1223L7.73035 35.4857C7.73035 31.9729 9.04582 28.5873 11.4176 25.996L15.9074 21.0908C17.4019 19.458 19.2609 18.2013 21.333 17.4229L42.0025 9.65912Z" fill="#FBAE40"/>
<path d="M47.509 3.85914C51.7809 1.46216 56.9925 1.46216 61.2644 3.85914L87.6007 18.6366C92.0336 21.124 94.7781 25.811 94.7781 30.894L94.7781 59.7617C94.7781 64.8447 92.0336 69.5317 87.6007 72.0191L61.2644 86.7965C56.9925 89.1935 51.7809 89.1935 47.509 86.7965L21.1727 72.0191C16.7398 69.5317 13.9953 64.8447 13.9953 59.7617L13.9953 30.894C13.9953 25.8109 16.7398 21.124 21.1727 18.6366L47.509 3.85914Z" fill="white" stroke="#FBAE40" stroke-width="2.81103"/>
</g>
<path d="M29.2304 27.3252L32.7304 24.1284L37.2304 27.8252H69.4413C71.371 28.9919 75.2304 32.4252 75.2304 36.8252C75.2304 41.2252 70.897 43.6586 68.7304 44.3252L67.255 44.3507L65.2304 46.8252L39.7304 47.3252C38.7186 47.3252 36.9964 47.4775 35.3197 47.9501C34.4277 49.1956 33.8946 50.8108 34.2304 52.8252C35.2304 58.8252 38.2304 63.3252 45.2304 61.3252C50.8304 59.7252 65.5637 60.6586 72.2304 61.3252L72.7304 64.0683L67.7304 66.0366L66.7304 63.8252L62.2304 64.3252H34.2304C31.0637 62.3252 26.1304 56.6252 31.7304 49.8252C32.6267 48.9289 33.9581 48.3339 35.3197 47.9501C36.5532 46.2277 38.473 45.2121 39.7304 44.8252L67.255 44.3507L69.7304 41.3252V36.8252L67.7304 33.3252L64.2304 30.8252L54.2304 30.3252L39.2304 30.8252L30.2304 30.3252L29.2304 27.3252Z" fill="#FBAE40"/>
<path d="M66.7303 49.456L70.7303 45.9485L71.7303 53.3253L72.2303 60.8253L66.7303 61.3253V49.456Z" fill="#FBAE40"/>
<path d="M33.0526 31.4649C32.6268 32.2505 32.071 32.8777 31.2256 33.1369C29.6881 33.6096 28.2034 32.8109 27.6267 31.2122C27.585 31.0957 27.4537 30.657 27.4537 30.4752V29.6109C27.6267 28.7865 27.9911 28.1706 28.6108 27.6822C30.4194 26.2641 32.8219 27.3404 33.26 29.768C33.3226 30.3519 33.2109 30.9097 33.0526 31.4649Z" fill="#FBAE40"/>
<path d="M56.571 29.7537C58.6201 29.7681 60.6729 29.7105 62.7184 29.8126C66.5774 30.0038 70.0143 33.4002 70.5947 37.4867C71.3186 42.5736 68.3738 47.1328 63.6828 48.1776C63.2796 48.2719 62.8685 48.3227 62.4558 48.3295C58.4794 48.3417 54.5035 48.3448 50.5279 48.3387C50.7121 47.7976 50.7954 47.2234 50.7733 46.6483C54.5059 46.6483 58.2373 46.6548 61.9699 46.6483C63.5661 46.6529 65.1174 46.0847 66.3745 45.0351C67.6316 43.9855 68.5216 42.5153 68.9014 40.8609C70.0057 36.1761 66.6719 31.5331 62.1392 31.4768C60.2128 31.4519 58.2852 31.4637 56.3587 31.4585C56.5358 30.9111 56.608 30.3314 56.571 29.7537Z" fill="#FBAE40"/>
<path d="M45.1731 48.3426C42.4958 48.3426 39.8196 48.3426 37.1423 48.3517C33.9054 48.3675 31.2304 50.4218 30.2599 53.618C28.7997 58.4312 32.1667 63.4381 36.9091 63.5088C37.7042 63.5193 38.5042 63.5088 39.2957 63.5088C39.2343 64.0981 39.4662 64.6585 39.4503 65.2437C38.3963 65.2241 37.3386 65.2437 36.287 65.1757C32.1703 64.8994 28.6794 61.1834 28.358 56.7801C28.007 51.8988 30.9004 47.7835 35.3753 46.8015C35.9311 46.6864 36.4964 46.6324 37.0625 46.6404C39.6932 46.6404 42.3244 46.6404 44.9559 46.6404C44.9208 47.2176 44.9947 47.7964 45.1731 48.3426Z" fill="#FBAE40"/>
<path d="M45.1707 63.5127H64.7675C64.9663 63.5127 65.1651 63.5127 65.3639 63.5192C65.1911 64.0778 65.2093 64.6837 65.4154 65.2293H45.4824C45.2995 65.2293 45.1143 65.2384 44.9339 65.2437C45.0699 64.6772 45.1493 64.097 45.1707 63.5127Z" fill="#FBAE40"/>
<path d="M33.0526 31.4649C33.2108 30.911 33.3225 30.3519 33.2599 29.7627H50.7635C50.7444 30.3381 50.8277 30.9121 51.0089 31.4544C50.1242 31.4544 49.2383 31.4688 48.3536 31.4688L33.0526 31.4649Z" fill="#FBAE40"/>
<path d="M45.1707 63.5126C45.1496 64.0987 45.0702 64.6807 44.9339 65.2488C44.6075 65.6259 44.4087 66.0999 43.9915 66.4181C42.5866 67.4891 40.7534 67.171 39.7779 65.6456C39.6859 65.5015 39.6258 65.3208 39.4503 65.2528C39.4663 64.6675 39.2343 64.1071 39.2957 63.5179C39.5018 62.6013 39.9019 61.8366 40.6638 61.3037C42.3522 60.1253 44.7008 61.182 45.0811 63.3031C45.0838 63.3829 45.116 63.4582 45.1707 63.5126Z" fill="#FBAE40"/>
<path d="M45.1732 48.3424C44.9959 47.7992 44.922 47.2236 44.956 46.6494C45.2529 45.0546 46.3057 44.0242 47.7168 43.9365C48.354 43.9086 48.9822 44.1039 49.5057 44.4925C50.0292 44.8811 50.4192 45.4418 50.6162 46.089C50.6727 46.2737 50.7181 46.4622 50.7696 46.6481C50.7917 47.2233 50.7084 47.7975 50.5242 48.3385C50.096 49.1726 49.4947 49.7788 48.6174 50.0407C48.0317 50.2127 47.4102 50.1845 46.8404 49.96C46.2705 49.7354 45.781 49.3259 45.4407 48.7889C45.3499 48.6462 45.2652 48.493 45.1732 48.3424Z" fill="#FBAE40"/>
<path d="M51.0028 31.4572C50.8216 30.9149 50.7383 30.3409 50.7574 29.7655C50.9206 28.9799 51.2236 28.2833 51.8249 27.7687C52.2264 27.4188 52.7079 27.1892 53.2201 27.1035C53.7322 27.0178 54.2565 27.0792 54.7391 27.2813C55.2217 27.4834 55.6452 27.8189 55.966 28.2534C56.2869 28.6879 56.4936 29.2058 56.5649 29.7537C56.6015 30.3305 56.5294 30.9093 56.3526 31.4559C55.6888 32.6958 54.728 33.378 53.3537 33.2392C52.2592 33.1358 51.523 32.4536 51.0028 31.4572Z" fill="#FBAE40"/>
<path d="M67.8424 51.3278C67.8019 53.136 67.8068 54.9429 67.8424 56.7511L67.813 61.9323C67.813 62.1444 67.813 62.3565 67.813 62.5673C67.2938 62.3734 66.7279 62.3762 66.2105 62.5752C66.2105 58.5109 66.2084 54.4462 66.2043 50.3811C66.2043 49.7919 66.543 49.4017 67.0166 49.4083C67.4903 49.4148 67.7848 49.7749 67.813 50.3523C67.8216 50.681 67.8289 51.0031 67.8424 51.3278Z" fill="#FBAE40"/>
<path d="M66.2032 62.5751C66.7206 62.3761 67.2865 62.3734 67.8056 62.5673C68.2879 62.9601 68.7026 63.4053 68.7615 64.1018C68.7992 64.4979 68.7187 64.8966 68.5313 65.2409C68.344 65.5852 68.0594 65.8575 67.7183 66.0189C67.3772 66.1803 66.9971 66.2224 66.6322 66.1394C66.2673 66.0564 65.9363 65.8523 65.6866 65.5565C65.5946 65.4492 65.505 65.3392 65.4154 65.2305C65.2093 64.6849 65.1911 64.0791 65.3639 63.5205C65.5705 63.1396 65.8579 62.8158 66.2032 62.5751Z" fill="#FBAE40"/>
<path d="M80.3677 47.8281L79.8657 48.6006C79.3706 49.3627 78.9277 50.107 78.4351 50.7812L78.4331 50.7832C78.3141 50.944 78.3057 51.0138 78.3052 51.0361C78.3048 51.0539 78.3075 51.1202 78.4233 51.2773L78.7915 51.7979C79.1521 52.331 79.4953 52.8989 79.8726 53.4795L80.3745 54.252H72.353L72.3423 53.7617C72.3041 51.9476 72.2991 50.1332 72.3423 48.3164L72.354 47.8281H80.3677Z" fill="white" stroke="#FBAE40"/>
<path d="M61.5747 26.2542C63.5996 26.2684 65.6847 26.2099 67.7437 26.3127L67.7427 26.3137C71.8705 26.5182 75.4795 30.1232 76.0894 34.4163C76.8458 39.7314 73.766 44.5538 68.7954 45.6633L68.7964 45.6643C68.3588 45.7666 67.9126 45.822 67.4644 45.8293H67.4575C63.4804 45.8416 59.5032 45.8452 55.5269 45.8391L54.8296 45.8372L55.0542 45.178C55.2185 44.6954 55.2937 44.1816 55.2739 43.6672L55.2534 43.1487H66.9712C68.4464 43.1529 69.8848 42.628 71.0542 41.6516C72.2242 40.6747 73.0572 39.3013 73.4136 37.7493L73.4146 37.7463C74.4553 33.3313 71.3043 29.0288 67.1333 28.9768H67.1323C65.2092 28.952 63.2893 28.9635 61.3569 28.9583L60.6724 28.9563L60.8833 28.3049C61.0409 27.8179 61.1048 27.3006 61.0718 26.7854L61.0376 26.2502L61.5747 26.2542Z" fill="white" stroke="#FBAE40"/>
<path d="M50.4874 43.1406L50.4551 43.6709C50.4239 44.1856 50.4898 44.7016 50.6485 45.1875L50.8624 45.8428H50.1729C47.4955 45.8428 44.8199 45.8414 42.1436 45.8506L42.1446 45.8516C39.1379 45.8662 36.6484 47.7668 35.7383 50.7637C34.3625 55.3001 37.5487 59.9434 41.9161 60.0088L43.1016 60.0127C43.4978 60.0114 43.8954 60.0088 44.296 60.0088H44.8506L44.793 60.5605C44.7702 60.78 44.8001 61.0066 44.8487 61.2949C44.894 61.5638 44.9599 61.9056 44.9503 62.2578L44.9366 62.7529L44.4405 62.7441C43.4123 62.725 42.3208 62.7438 41.2549 62.6748H41.253C36.9973 62.389 33.4264 58.6821 32.9005 54.248L32.8594 53.8164C32.4925 48.7132 35.5261 44.3543 40.2676 43.3135L40.2735 43.3115C40.8626 43.1896 41.4623 43.1336 42.0626 43.1416V43.1406H50.4874Z" fill="white" stroke="#FBAE40"/>
<path d="M69.7678 60.0127C69.9651 60.0127 70.1719 60.0127 70.3801 60.0195L71.0354 60.041L70.8411 60.667C70.7011 61.1196 70.7164 61.6115 70.8831 62.0527L71.1389 62.7295H50.4827C50.3093 62.7295 50.1428 62.7375 49.9485 62.7432L49.2952 62.7627L49.4475 62.127C49.5757 61.5929 49.6509 61.0454 49.6711 60.4941L49.6887 60.0127H69.7678Z" fill="white" stroke="#FBAE40"/>
<path d="M56.28 26.2627L56.2634 26.7793C56.2464 27.2957 56.321 27.8104 56.4832 28.2959L56.7029 28.9541H56.0085C55.5687 28.9541 55.1282 28.9583 54.6853 28.9619C54.243 28.9655 53.798 28.9688 53.3533 28.9688L38.0525 28.9648H37.3894L37.572 28.3271C37.724 27.7951 37.8149 27.3093 37.7625 26.8154L37.7039 26.2627H56.28Z" fill="white" stroke="#FBAE40"/>
<path d="M72.0237 45.9082C72.3975 45.9134 72.73 46.0646 72.9651 46.3457C73.1624 46.5816 73.2672 46.8787 73.302 47.1924L73.3127 47.3281V47.3389C73.3214 47.6698 73.3288 47.987 73.342 48.3066L73.343 48.3232L73.342 48.3389C73.3017 50.1388 73.3066 51.9386 73.342 53.7412L73.343 53.7539H73.342L73.3127 58.9355V60.2881L72.6379 60.0361C72.2332 59.885 71.7934 59.8868 71.3899 60.042L70.7102 60.3027V59.5752C70.7102 55.5112 70.7084 51.4467 70.7043 47.3818V47.3809C70.7044 46.9932 70.8163 46.6266 71.051 46.3486C71.2914 46.064 71.6372 45.9029 72.0237 45.9082Z" fill="white" stroke="#FBAE40"/>
<path d="M33.3022 24.2886C34.3513 23.4661 35.6014 23.3548 36.6538 23.8267C37.6343 24.2663 38.405 25.1928 38.6997 26.4282L38.7524 26.6792L38.7554 26.6968L38.7573 26.7144C38.8302 27.3941 38.6979 28.0261 38.5337 28.6021L38.5181 28.6548L38.4917 28.7036C38.0344 29.5473 37.3934 30.3015 36.3726 30.6147C34.5554 31.1734 32.815 30.2065 32.1567 28.3823L32.1558 28.3804C32.1185 28.276 32.0681 28.0327 32.0327 27.8433C32.013 27.7375 31.9941 27.628 31.98 27.5327C31.9676 27.4495 31.9537 27.3426 31.9536 27.2612V26.6108C31.9536 26.195 32.1405 25.7412 32.3716 25.3589C32.6101 24.9642 32.938 24.5758 33.3013 24.2896L33.3022 24.2886Z" fill="white" stroke="#FBAE40"/>
<path d="M58.1375 23.6108C58.7434 23.5095 59.3635 23.5816 59.9324 23.8198C60.5009 24.0579 60.9953 24.4519 61.3679 24.9565C61.7404 25.4609 61.9783 26.059 62.0603 26.689L62.0632 26.7056L62.0642 26.7222C62.1048 27.3613 62.0241 28.0032 61.8279 28.6099L61.8142 28.6528L61.7937 28.6919C61.4337 29.3643 60.9735 29.9212 60.3835 30.2886C59.7864 30.6604 59.0905 30.8163 58.3035 30.7368V30.7358C56.9852 30.61 56.1267 29.7755 55.5593 28.689L55.5408 28.6538L55.5281 28.6157C55.328 28.0167 55.2366 27.3829 55.2576 26.7485L55.2585 26.7056L55.2673 26.6636C55.4429 25.8187 55.7825 25.0045 56.4958 24.3921L56.6765 24.2446C57.1075 23.9174 57.6075 23.6995 58.1375 23.6108Z" fill="white" stroke="#FBAE40"/>
<path d="M52.6949 40.4368C53.4495 40.4038 54.1899 40.6357 54.8033 41.0911C55.416 41.5459 55.8673 42.1975 56.0944 42.9426L56.2516 43.5149L56.2672 43.5706L56.2692 43.6292C56.2936 44.2648 56.2016 44.9 55.9977 45.4993L55.986 45.5344L55.9694 45.5667C55.4967 46.4873 54.8014 47.2091 53.7604 47.5198L53.7584 47.5208C53.0657 47.7243 52.3298 47.6902 51.6569 47.425C50.9846 47.1601 50.4129 46.6796 50.0182 46.0569V46.0559C49.9304 45.9178 49.8172 45.7181 49.7467 45.6028L49.7155 45.553L49.6979 45.4973C49.5011 44.8943 49.4191 44.2564 49.4567 43.6204L49.4586 43.5891L49.4645 43.5579C49.7951 41.7822 51.0042 40.5423 52.6862 40.4377L52.6949 40.4368Z" fill="white" stroke="#FBAE40"/>
<path d="M45.3781 57.8938C47.3955 56.486 50.1289 57.7714 50.5714 60.2063L50.6779 60.3127L50.67 60.5305C50.6477 61.1497 50.5642 61.7648 50.42 62.3655L50.3917 62.4836L50.3116 62.5764C50.1718 62.738 50.0706 62.9058 49.9073 63.1409C49.7944 63.3035 49.6598 63.4854 49.4845 63.6536L49.295 63.8157C47.6551 65.0658 45.4879 64.6841 44.3566 62.9153V62.9143C44.3236 62.8628 44.2938 62.8094 44.2755 62.7766C44.2557 62.741 44.2447 62.7198 44.2345 62.7043L43.9406 62.5911L43.9503 62.2395C43.9567 62.0065 43.9138 61.7748 43.8624 61.47C43.8143 61.1845 43.7595 60.8358 43.798 60.4661L43.8009 60.4368L43.8077 60.4084C44.032 59.4115 44.4829 58.5191 45.3771 57.8938H45.3781Z" fill="white" stroke="#FBAE40"/>
<path d="M71.0236 59.1084C71.5761 58.896 72.1749 58.8669 72.7404 59.0215L72.9807 59.0986L73.0578 59.1279L73.1213 59.1797C73.6321 59.5958 74.1833 60.1539 74.2599 61.0596H74.259C74.3048 61.5514 74.2056 62.0479 73.9709 62.4795C73.735 62.913 73.3726 63.2622 72.9318 63.4707C72.4905 63.6795 71.9957 63.7351 71.5207 63.627C71.0471 63.5191 70.6237 63.2553 70.3068 62.8809V62.8818C70.2108 62.7698 70.1164 62.6543 70.0295 62.5488L69.9767 62.4844L69.9474 62.4072C69.702 61.7574 69.6805 61.0375 69.8859 60.373L69.9006 60.3252L69.924 60.2822C70.1666 59.8351 70.5062 59.4516 70.9172 59.165L70.967 59.1299L71.0236 59.1084Z" fill="white" stroke="#FBAE40"/>
<defs>
<filter id="filter0_d_397_5707" x="1.66893e-05" y="0" width="101.027" height="109.261" filterUnits="userSpaceOnUse" color-interpolation-filters="sRGB">
<feFlood flood-opacity="0" result="BackgroundImageFix"/>
<feColorMatrix in="SourceAlpha" type="matrix" values="0 0 0 0 0 0 0 0 0 0 0 0 0 0 0 0 0 0 127 0" result="hardAlpha"/>
<feOffset dx="-4.9193" dy="8.43309"/>
<feGaussianBlur stdDeviation="1.40551"/>
<feComposite in2="hardAlpha" operator="out"/>
<feColorMatrix type="matrix" values="0 0 0 0 0.25673 0 0 0 0 0.164842 0 0 0 0 0.0335725 0 0 0 0.1 0"/>
<feBlend mode="normal" in2="BackgroundImageFix" result="effect1_dropShadow_397_5707"/>
<feBlend mode="normal" in="SourceGraphic" in2="effect1_dropShadow_397_5707" result="shape"/>
</filter>
</defs>
</svg>
