<svg width="102" height="110" viewBox="0 0 102 110" fill="none" xmlns="http://www.w3.org/2000/svg">
<g filter="url(#filter0_d_397_5681)">
<path d="M42.0024 9.65912C45.8823 8.20172 50.2078 8.53113 53.8223 10.5593L83.1487 27.0145C86.5684 28.9333 89.031 32.1935 89.9417 36.0075L95.2062 58.0539C96.6246 63.9939 94.0449 70.1702 88.8229 73.3367L55.1345 93.764C50.8011 96.3915 45.3889 96.4829 40.9693 94.0031L14.9076 79.3797C10.4747 76.8923 7.73022 72.2053 7.73022 67.1223L7.73022 35.4857C7.73022 31.9729 9.0457 28.5873 11.4175 25.996L15.9073 21.0908C17.4018 19.458 19.2608 18.2013 21.3329 17.4229L42.0024 9.65912Z" fill="#FBAE40"/>
<path d="M47.5089 3.85914C51.7807 1.46216 56.9924 1.46216 61.2643 3.85914L87.6006 18.6366C92.0335 21.124 94.778 25.811 94.778 30.894L94.778 59.7617C94.778 64.8447 92.0335 69.5317 87.6006 72.0191L61.2643 86.7965C56.9924 89.1935 51.7807 89.1935 47.5089 86.7965L21.1726 72.0191C16.7397 69.5317 13.9952 64.8447 13.9952 59.7617L13.9952 30.894C13.9952 25.8109 16.7397 21.124 21.1726 18.6366L47.5089 3.85914Z" fill="white" stroke="#FBAE40" stroke-width="2.81103"/>
</g>
<path d="M47.9212 40.5728C47.9527 40.4838 47.9611 40.474 47.9629 40.4606C48.0665 39.2757 48.0665 39.2757 49.3038 39.2766C49.6739 39.2766 50.0441 39.2677 50.4142 39.281C50.6724 39.2908 50.814 39.2294 50.8223 38.9454C50.8667 37.5396 51.6237 36.5577 52.8359 35.8481C53.2829 35.581 53.7215 35.3086 54.1564 35.0273C54.9079 34.5421 55.3595 33.8628 55.3872 32.9921C55.4131 32.0903 55.3576 31.1867 55.3335 30.2839C55.328 30.0774 55.278 29.8682 55.2956 29.6607C55.3261 29.3046 55.5436 29.0803 55.9138 29.0491C56.2839 29.0179 56.6106 29.1835 56.6624 29.561C56.8623 31.0344 57.0325 32.5123 56.6355 33.9821C56.3838 34.9178 55.7749 35.6113 54.9643 36.149C54.4183 36.5105 53.8538 36.8479 53.2986 37.1969C52.5518 37.667 52.2085 38.3355 52.2335 39.2721H53.0053C53.7456 39.2721 53.9399 39.4502 53.9519 40.157C53.9519 40.2737 53.964 40.3912 53.9732 40.5692H54.5729C61.2054 40.5692 67.8373 40.5719 74.4686 40.5773C75.1305 40.5786 75.7911 40.6364 76.4424 40.75C77.4973 40.9334 78.1285 41.5859 78.3117 42.5937C78.4025 43.1201 78.4468 43.6529 78.444 44.1864C78.4532 49.9281 78.4517 55.6701 78.4394 61.4123C78.4355 62.0776 78.3535 62.7403 78.1951 63.3879C78.1212 63.7265 77.9464 64.0371 77.692 64.2817C77.4376 64.5263 77.1146 64.6943 76.7626 64.7651C76.0768 64.9316 75.3737 65.0233 74.6666 65.0384C58.7204 65.0497 42.773 65.0476 26.8244 65.0322C26.3006 65.023 25.7797 64.9546 25.2725 64.8283C24.423 64.6298 23.8725 64.0858 23.6661 63.2703C23.5412 62.8114 23.4732 62.3398 23.4634 61.8655C23.4474 55.96 23.4474 50.0545 23.4634 44.149C23.4718 43.4985 23.5711 42.852 23.7586 42.2269C24.0205 41.3278 24.7895 40.9191 25.6816 40.7589C26.3173 40.6421 26.9628 40.581 27.6101 40.5764C34.2111 40.5627 40.8122 40.56 47.4132 40.5684L47.9212 40.5728ZM50.9232 63.3229C58.6803 63.3229 66.4375 63.3211 74.1946 63.3175C74.7776 63.3175 75.3616 63.249 75.9446 63.2018C76.3471 63.168 76.547 62.9347 76.5729 62.5554C76.6025 62.1272 76.646 61.6972 76.646 61.2681C76.6516 55.6006 76.6516 49.9325 76.646 44.2639C76.646 43.8499 76.6016 43.435 76.5664 43.0175C76.5359 42.6614 76.3425 42.4406 75.9557 42.413C75.4486 42.3765 74.9424 42.3142 74.4353 42.3142C58.8272 42.3088 43.2206 42.3088 27.6156 42.3142C27.1536 42.3218 26.6927 42.3593 26.2359 42.4264C25.5317 42.5154 25.3808 42.6756 25.3105 43.3656C25.2716 43.7493 25.2596 44.1357 25.2587 44.5229C25.2587 50.0717 25.2587 55.6211 25.2587 61.1711C25.2587 61.6438 25.3142 62.1174 25.3512 62.5902C25.378 63.0024 25.6288 63.2045 26.0378 63.2329C26.606 63.273 27.1761 63.3175 27.7452 63.322C35.4715 63.3261 43.1975 63.3264 50.9232 63.3229Z" fill="#FBAE40"/>
<path d="M50.9233 63.3231C43.1976 63.3231 35.4716 63.3231 27.7453 63.3231C27.1762 63.3231 26.6061 63.2777 26.0379 63.234C25.6335 63.2056 25.3782 63.0035 25.3513 62.5913C25.3189 62.1185 25.2588 61.6449 25.2588 61.1722C25.2526 55.6228 25.2526 50.0734 25.2588 44.5241C25.2588 44.1386 25.2717 43.7522 25.3106 43.3667C25.3791 42.6767 25.5299 42.52 26.236 42.4275C26.6928 42.3604 27.1537 42.3229 27.6157 42.3153C43.2238 42.3099 58.8303 42.3099 74.4354 42.3153C74.9425 42.3153 75.4533 42.3776 75.9558 42.4141C76.3426 42.4417 76.536 42.6616 76.5665 43.0186C76.6017 43.4326 76.6461 43.8474 76.6461 44.265C76.6517 49.9325 76.6517 55.6005 76.6461 61.2692C76.6461 61.6983 76.6026 62.1283 76.573 62.5565C76.5471 62.9331 76.3472 63.1691 75.9447 63.2029C75.3617 63.2501 74.7777 63.3186 74.1947 63.3186C66.4376 63.3252 58.6804 63.3266 50.9233 63.3231ZM51.0732 57.8203C49.1607 57.8203 47.2483 57.8203 45.3358 57.8203C44.6575 57.8203 44.4678 58.0072 44.466 58.6732C44.466 59.608 44.466 60.5425 44.466 61.4766C44.466 62.1096 44.6649 62.3064 45.3173 62.3073C49.1422 62.3073 52.965 62.3073 56.7856 62.3073C57.4518 62.3073 57.623 62.1346 57.6267 61.4731C57.6314 60.5543 57.6267 59.6347 57.6267 58.7132C57.6267 57.9663 57.475 57.823 56.7116 57.8185L51.0732 57.8203ZM62.4628 55.7727C63.0476 55.7727 63.6325 55.778 64.221 55.7727C64.73 55.7655 64.9678 55.551 64.9724 55.0747C64.9835 54.0372 64.9835 53.0004 64.9724 51.9641C64.9724 51.5127 64.7263 51.2768 64.2543 51.2723C63.0532 51.2616 61.8524 51.2616 60.6518 51.2723C60.1466 51.2768 59.9254 51.5038 59.9226 51.9935C59.9164 53.0024 59.9164 54.0093 59.9226 55.0141C59.9226 55.5483 60.154 55.77 60.7064 55.7744C61.2931 55.7753 61.8779 55.7718 62.4628 55.7718V55.7727ZM62.4545 45.287C61.8382 45.287 61.2228 45.2808 60.6037 45.287C60.1845 45.2924 59.9291 45.5042 59.9245 45.9102C59.9127 46.991 59.9127 48.0718 59.9245 49.1526C59.9245 49.5407 60.1715 49.7713 60.5611 49.7758C61.8076 49.7927 63.0541 49.7909 64.3006 49.7758C64.7161 49.7758 64.9604 49.5301 64.965 49.1259C64.9761 48.0745 64.9808 47.0231 64.965 45.9716C64.9585 45.4936 64.7133 45.287 64.2034 45.2817C63.6241 45.2817 63.0356 45.2861 62.4545 45.2861V45.287ZM70.1509 55.7691C70.7357 55.7691 71.3205 55.7753 71.9091 55.7691C72.4227 55.7629 72.6605 55.5528 72.666 55.0765C72.6771 54.0396 72.6771 53.0027 72.666 51.9659C72.666 51.5083 72.4282 51.2714 71.9591 51.267C70.7591 51.2563 69.5586 51.2563 68.3574 51.267C67.8513 51.2714 67.6255 51.4949 67.6171 51.9837C67.606 53.0057 67.6079 54.0268 67.6171 55.0489C67.6171 55.5305 67.854 55.7611 68.351 55.7664C68.9497 55.7762 69.5503 55.7682 70.1509 55.7682V55.7691ZM54.8821 45.2852C54.2667 45.2852 53.6504 45.2772 53.0313 45.2852C52.5529 45.2941 52.3262 45.5114 52.3216 45.9743C52.3123 47.0106 52.3123 48.0475 52.3216 49.0849C52.3216 49.5434 52.5575 49.782 53.0285 49.7856C54.2445 49.7963 55.4607 49.7936 56.6773 49.7776C57.1307 49.7722 57.3593 49.5434 57.3649 49.1099C57.3772 48.073 57.3772 47.0361 57.3649 45.9992C57.3593 45.4838 57.1326 45.287 56.5848 45.287C56.0249 45.2808 55.4558 45.2843 54.8858 45.2843L54.8821 45.2852ZM70.1509 45.2852C69.5817 45.2852 69.0117 45.2852 68.4426 45.2852C67.8383 45.2852 67.6172 45.482 67.6098 46.0455C67.6005 47.0545 67.6005 48.0617 67.6098 49.0671C67.6098 49.555 67.8383 49.7793 68.3501 49.7793C69.5346 49.7918 70.7197 49.7942 71.9054 49.7865C72.4301 49.7865 72.6568 49.5532 72.6596 49.0413C72.6657 48.0323 72.6657 47.0254 72.6596 46.0206C72.6596 45.5025 72.4384 45.2915 71.9035 45.2852C71.3252 45.2799 70.7394 45.2852 70.1546 45.2852H70.1509ZM39.4819 51.2643C38.8813 51.2643 38.2789 51.2545 37.6811 51.2643C37.1999 51.2741 36.9667 51.4922 36.9621 51.9489C36.9522 52.9852 36.9522 54.0218 36.9621 55.0587C36.9621 55.5412 37.2018 55.7646 37.7024 55.7709C38.8745 55.7774 40.0442 55.7774 41.2114 55.7709C41.7713 55.7709 42.0072 55.5537 42.0128 55.0204C42.0239 54.0114 42.0239 53.0045 42.0128 51.9997C42.0063 51.4913 41.7704 51.2759 41.2383 51.2679C40.6553 51.2563 40.0704 51.2634 39.4856 51.2643H39.4819ZM54.8543 55.7718C55.4391 55.7718 56.024 55.778 56.6125 55.7718C57.1418 55.7647 57.3685 55.5483 57.3722 55.0373C57.3806 54.0304 57.3796 53.0235 57.3722 52.0166C57.3722 51.5056 57.1456 51.2759 56.6172 51.2714C55.4314 51.2619 54.2463 51.2619 53.0619 51.2714C52.564 51.2759 52.328 51.5118 52.3216 51.9881C52.3148 52.9941 52.3148 54.0007 52.3216 55.0079C52.3216 55.5652 52.551 55.7727 53.1442 55.7762C53.7188 55.7736 54.2889 55.7718 54.858 55.7718H54.8543ZM39.4504 61.7455C40.0501 61.7455 40.6534 61.7509 41.2503 61.7455C41.7639 61.7402 42.0017 61.5336 42.0072 61.0529C42.0202 60.0166 42.0202 58.9803 42.0072 57.944C42.0017 57.4873 41.7666 57.255 41.29 57.2496C40.0895 57.236 38.889 57.236 37.6885 57.2496C37.1869 57.255 36.9639 57.4864 36.9611 57.9734C36.9537 58.9943 36.9537 60.0157 36.9611 61.0377C36.9611 61.5247 37.1953 61.7428 37.6968 61.75C38.2835 61.7517 38.8693 61.7455 39.4541 61.7455H39.4504ZM62.4304 61.7455C63.031 61.7455 63.6334 61.7535 64.2312 61.7455C64.7364 61.7366 64.9641 61.5176 64.9715 61.0333C64.9777 60.0243 64.9777 59.0174 64.9715 58.0126C64.9715 57.4713 64.7475 57.2505 64.1905 57.2461C63.0183 57.2372 61.8483 57.2372 60.6805 57.2461C60.1586 57.2505 59.9272 57.4829 59.9245 57.9912C59.9183 59.0002 59.9183 60.0071 59.9245 61.0119C59.9245 61.5461 60.154 61.7455 60.7258 61.7482C61.2977 61.7509 61.865 61.7455 62.4341 61.7437L62.4304 61.7455ZM70.1647 61.7455C70.72 61.7455 71.2752 61.7455 71.8304 61.7455C72.4523 61.7455 72.6633 61.547 72.6633 60.9514C72.6676 59.9739 72.6676 58.9963 72.6633 58.0188C72.6633 57.4713 72.4504 57.2505 71.8943 57.2461C70.7221 57.236 69.5521 57.236 68.3843 57.2461C67.8522 57.2461 67.6209 57.4704 67.6162 57.9788C67.6076 59.0008 67.6076 60.0225 67.6162 61.044C67.6218 61.5247 67.8577 61.7375 68.3648 61.7428C68.9682 61.7491 69.5688 61.7437 70.1684 61.7437L70.1647 61.7455ZM39.505 49.7891C40.0899 49.7891 40.6747 49.7891 41.2633 49.7891C41.6936 49.7891 41.998 49.5977 42.0036 49.1659C42.0239 48.0863 42.0239 47.0058 42.0036 45.9245C41.9934 45.4793 41.7537 45.2915 41.2873 45.2888C40.0868 45.2817 38.8862 45.2817 37.6857 45.2888C37.2017 45.2888 36.9713 45.5087 36.9676 45.9672C36.9577 47.0035 36.9577 48.04 36.9676 49.0769C36.9676 49.5648 37.1943 49.7758 37.7079 49.7891C38.3048 49.7963 38.9045 49.7882 39.505 49.7891ZM31.8179 45.2861C31.2173 45.2861 30.6149 45.2861 30.0171 45.2861C29.5063 45.2915 29.2768 45.4962 29.2685 45.9823C29.2583 47.0177 29.262 48.0549 29.2685 49.0903C29.2685 49.5514 29.497 49.7785 29.9773 49.7829C31.1926 49.7942 32.408 49.7942 33.6233 49.7829C34.037 49.7829 34.2951 49.563 34.2998 49.1499C34.3109 48.0816 34.3192 47.0186 34.2998 45.9529C34.2924 45.49 34.0508 45.2933 33.565 45.287C32.9875 45.2799 32.4055 45.2852 31.8179 45.2861ZM47.1792 45.2861C46.562 45.2861 45.9457 45.2772 45.3284 45.2861C44.8741 45.2941 44.6455 45.5087 44.6409 45.9467C44.6298 46.9996 44.6298 48.0528 44.6409 49.1063C44.6455 49.5416 44.8759 49.7731 45.3257 49.7776C46.5435 49.7891 47.7612 49.7909 48.98 49.7776C49.4427 49.7776 49.662 49.5541 49.6675 49.1107C49.6793 48.0727 49.6793 47.034 49.6675 45.9948C49.662 45.4793 49.4381 45.287 48.8884 45.2826C48.3221 45.2835 47.7474 45.287 47.1773 45.287L47.1792 45.2861ZM31.7938 55.7691C32.3787 55.7691 32.9644 55.7744 33.5521 55.7691C34.0823 55.7629 34.309 55.5483 34.3118 55.0355C34.3186 54.0265 34.3186 53.0196 34.3118 52.0148C34.3118 51.4807 34.0869 51.2697 33.5178 51.2661C32.3629 51.2608 31.2083 51.2608 30.0541 51.2661C29.4887 51.2661 29.2795 51.478 29.2768 52.0255C29.2712 53.0173 29.2712 54.0093 29.2768 55.0017C29.2768 55.5643 29.4933 55.7638 30.0929 55.7691C30.6546 55.7736 31.2247 55.7691 31.7938 55.7691ZM47.1653 55.7691C47.7344 55.7691 48.3036 55.7736 48.8727 55.7691C49.4418 55.7647 49.6657 55.5608 49.6694 55.0248C49.6756 54.0159 49.6756 53.0093 49.6694 52.005C49.6694 51.4878 49.4454 51.2679 48.9143 51.2643C47.7421 51.2566 46.5728 51.2566 45.4062 51.2643C44.8685 51.2643 44.6381 51.4851 44.6344 51.9899C44.6282 53.0113 44.6282 54.0325 44.6344 55.0533C44.639 55.5608 44.863 55.7611 45.4108 55.7655C45.9956 55.7744 46.5805 55.7691 47.1653 55.7691ZM31.7309 61.7446C32.3148 61.7446 32.8997 61.7446 33.4845 61.7446C34.099 61.7393 34.3035 61.5594 34.3081 60.9852C34.3161 59.9792 34.3161 58.9729 34.3081 57.9663C34.3025 57.4749 34.0869 57.2541 33.5779 57.2461C32.3935 57.2318 31.209 57.2318 30.0245 57.2461C29.4896 57.2514 29.2786 57.4713 29.274 57.9921C29.2666 59.0011 29.2666 60.0074 29.274 61.011C29.274 61.5514 29.4915 61.7419 30.0726 61.7464C30.6232 61.7464 31.1766 61.7437 31.7309 61.7446ZM63.3456 44.2953C63.6686 44.2953 63.9934 44.2881 64.3135 44.2953C64.6744 44.305 64.8012 44.127 64.804 43.802C64.8068 43.4771 64.7697 43.1895 64.3413 43.1842C63.6658 43.1762 62.9893 43.1726 62.3138 43.1842C61.9437 43.1922 61.89 43.462 61.889 43.7504C61.8881 44.0389 61.9557 44.2846 62.3332 44.2899C62.6701 44.2979 63.0078 44.2961 63.3456 44.2961V44.2953ZM71.2419 44.2953H72.2098C72.58 44.2953 72.667 44.0834 72.6725 43.7727C72.6781 43.462 72.6281 43.1922 72.2302 43.186C71.5537 43.1762 70.8773 43.186 70.2008 43.186C69.789 43.186 69.7548 43.4709 69.7585 43.7736C69.7622 44.0762 69.851 44.2979 70.2277 44.2935C70.5654 44.2944 70.9013 44.2979 71.2419 44.297V44.2953ZM67.2525 44.2953C67.5903 44.2953 67.9281 44.2953 68.2705 44.2953C68.6508 44.3006 68.723 44.078 68.7248 43.7736C68.7267 43.4691 68.6878 43.1904 68.2834 43.1851C67.6088 43.1753 66.9333 43.1726 66.2578 43.1851C65.8552 43.1931 65.8229 43.4718 65.8266 43.7798C65.8303 44.0878 65.9191 44.3015 66.2892 44.2953C66.6085 44.2926 66.9305 44.2961 67.2525 44.2953Z" fill="#FBAE40"/>
<path d="M51.0732 57.8201H56.718C57.4814 57.8201 57.6313 57.9679 57.6332 58.7148C57.6332 59.6345 57.6332 60.5541 57.6332 61.4747C57.6332 62.1361 57.4583 62.3089 56.792 62.3089C52.9671 62.3089 49.1444 62.3089 45.3238 62.3089C44.6714 62.3089 44.4743 62.1112 44.4724 61.4782C44.4724 60.5434 44.4724 59.609 44.4724 58.6748C44.4724 58.0088 44.664 57.8228 45.3423 57.8219C47.2516 57.8189 49.1619 57.8183 51.0732 57.8201ZM45.7726 61.0411H56.3219V59.0825H45.7726V61.0411Z" fill="#FBAE40"/>
<path d="M62.4627 55.7716C61.8779 55.7716 61.293 55.7716 60.7045 55.7716C60.1493 55.7672 59.9234 55.5473 59.9207 55.0113C59.9151 54.0023 59.9151 52.9954 59.9207 51.9906C59.9207 51.501 60.1446 51.2739 60.6499 51.2695C61.851 51.2588 63.0519 51.2588 64.2524 51.2695C64.7243 51.2739 64.9668 51.5099 64.9705 51.9612C64.9798 52.9981 64.9798 54.035 64.9705 55.0718C64.9659 55.5481 64.728 55.7627 64.2191 55.7698C63.6342 55.7769 63.0494 55.7698 62.4609 55.7698L62.4627 55.7716ZM61.2218 54.5145H63.6972C63.6972 53.8913 63.7046 53.3064 63.687 52.7197C63.6729 52.6701 63.6457 52.6247 63.6081 52.5881C63.5705 52.5515 63.5238 52.5247 63.4723 52.5105C62.7274 52.4954 61.9815 52.5016 61.2218 52.5016V54.5145Z" fill="#FBAE40"/>
<path d="M62.4544 45.2861C63.0393 45.2861 63.6241 45.2861 64.2127 45.2861C64.7225 45.2914 64.9678 45.498 64.9742 45.9761C64.9881 47.0275 64.9835 48.0789 64.9742 49.1303C64.9696 49.5345 64.7253 49.7758 64.3098 49.7802C63.0633 49.7944 61.8168 49.7962 60.5703 49.7802C60.1807 49.7758 59.9374 49.5452 59.9337 49.157C59.9238 48.0762 59.9238 46.9954 59.9337 45.9146C59.9383 45.5051 60.1937 45.2914 60.6129 45.2914C61.2227 45.2799 61.8381 45.2861 62.4544 45.2861ZM63.6963 46.5476H61.2311V48.557C61.988 48.557 62.7117 48.565 63.4288 48.5472C63.5214 48.5472 63.6814 48.4065 63.6842 48.3264C63.7064 47.7397 63.6963 47.1512 63.6963 46.5476Z" fill="#FBAE40"/>
<path d="M70.1508 55.7682C69.5502 55.7682 68.9478 55.7762 68.35 55.7682C67.8531 55.7593 67.6199 55.5323 67.6162 55.0506C67.6097 54.0286 67.6078 53.0075 67.6162 51.9854C67.6208 51.4967 67.8466 51.2732 68.3565 51.2688C69.5564 51.2581 70.7569 51.2581 71.958 51.2688C72.4272 51.2732 72.6614 51.51 72.6651 51.9676C72.6737 53.0045 72.6737 54.0414 72.6651 55.0782C72.6595 55.5545 72.4217 55.7646 71.9081 55.7709C71.3232 55.7789 70.7384 55.7709 70.1499 55.7709L70.1508 55.7682ZM68.92 54.5459C69.6835 54.5459 70.4006 54.553 71.1215 54.5361C71.214 54.5361 71.3769 54.4043 71.3797 54.3295C71.401 53.7313 71.3917 53.1321 71.3917 52.5214H68.92V54.5459Z" fill="#FBAE40"/>
<path d="M54.8857 45.2842C55.4557 45.2842 56.0248 45.2842 56.5949 45.2842C57.1427 45.2886 57.3694 45.4836 57.375 45.9964C57.3861 47.0333 57.3861 48.0701 57.375 49.107C57.3694 49.5406 57.1408 49.7694 56.6874 49.7747C55.4714 49.7908 54.2552 49.7934 53.0387 49.7827C52.5676 49.7827 52.3353 49.5406 52.3316 49.0821C52.3224 48.0452 52.3224 47.0083 52.3316 45.9715C52.3363 45.5085 52.563 45.2913 53.0414 45.2824C53.654 45.2762 54.2703 45.2842 54.8857 45.2842ZM53.6031 46.5261C53.6031 47.1493 53.5911 47.7244 53.6161 48.2978C53.6345 48.3578 53.6685 48.4123 53.715 48.4561C53.7615 48.4999 53.8189 48.5315 53.8817 48.5479C54.5294 48.5693 55.1772 48.564 55.825 48.5479C55.9175 48.5479 56.085 48.4438 56.0868 48.3832C56.1063 47.7689 56.0989 47.1538 56.0989 46.5252L53.6031 46.5261Z" fill="#FBAE40"/>
<path d="M70.1546 45.2851C70.7394 45.2851 71.3252 45.2797 71.9128 45.2851C72.4477 45.2913 72.6661 45.5023 72.6688 46.0205C72.6744 47.0294 72.6744 48.0363 72.6688 49.0412C72.6688 49.5531 72.4393 49.7828 71.9147 49.7863C70.7296 49.7934 69.5444 49.7911 68.3593 49.7792C67.8503 49.7739 67.6264 49.5531 67.619 49.067C67.6097 48.058 67.6097 47.0508 67.619 46.0454C67.6236 45.4818 67.8448 45.2887 68.4518 45.2851C69.0154 45.2824 69.5855 45.2851 70.1546 45.2851ZM68.8914 46.5315C68.8914 47.1547 68.884 47.7307 68.8998 48.304C68.8998 48.3886 69.0173 48.5417 69.0848 48.5435C69.8446 48.5604 70.6043 48.5542 71.3649 48.5542V46.5315H68.8914Z" fill="#FBAE40"/>
<path d="M39.4856 51.2635C40.0704 51.2635 40.6553 51.2563 41.2392 51.2635C41.7713 51.2715 42.0073 51.4869 42.0137 51.9953C42.0255 53.0042 42.0255 54.0111 42.0137 55.016C42.0082 55.5501 41.7722 55.7638 41.2123 55.7665C40.0402 55.7724 38.8705 55.7724 37.7033 55.7665C37.2027 55.7665 36.963 55.5403 36.963 55.0543C36.9537 54.018 36.9537 52.9814 36.963 51.9445C36.9676 51.4878 37.2008 51.2697 37.682 51.2599C38.2844 51.2546 38.8831 51.2644 39.4856 51.2635ZM38.2594 54.5192H40.7339C40.7339 53.9067 40.7422 53.3182 40.7247 52.7306C40.7247 52.6514 40.5924 52.5098 40.5192 52.5081C39.7715 52.4912 39.0229 52.4983 38.2576 52.4983L38.2594 54.5192Z" fill="#FBAE40"/>
<path d="M54.8579 55.7717C54.2888 55.7717 53.7188 55.7717 53.1496 55.7717C52.5565 55.7717 52.3297 55.5607 52.327 55.0034C52.3227 53.9944 52.3227 52.9878 52.327 51.9836C52.327 51.5073 52.5657 51.2714 53.0673 51.2669C54.2524 51.258 55.4375 51.258 56.6226 51.2669C57.151 51.2714 57.3749 51.5011 57.3777 52.0121C57.3777 53.019 57.3823 54.0259 57.3777 55.0328C57.3777 55.5438 57.1473 55.7601 56.618 55.7673C56.0331 55.7753 55.4483 55.7673 54.8597 55.7673L54.8579 55.7717ZM53.6188 54.5147H56.0581V52.5302H53.6188V54.5147Z" fill="#FBAE40"/>
<path d="M39.454 61.7453C38.8692 61.7453 38.2834 61.7516 37.6958 61.7453C37.1942 61.7391 36.9638 61.521 36.9601 61.0331C36.9527 60.0117 36.9527 58.9902 36.9601 57.9688C36.9601 57.4818 37.1859 57.2503 37.6875 57.245C38.8886 57.2331 40.0891 57.2331 41.2891 57.245C41.7656 57.2503 42.0007 57.4827 42.0062 57.9394C42.0186 58.9757 42.0186 60.012 42.0062 61.0482C42.0007 61.529 41.7628 61.7355 41.2492 61.7409C40.6496 61.748 40.0463 61.7409 39.4494 61.7409L39.454 61.7453ZM38.2584 60.5185C39.0311 60.5185 39.752 60.5283 40.471 60.5069C40.5636 60.5069 40.7199 60.3387 40.7246 60.2399C40.7505 59.7378 40.7458 59.233 40.7246 58.7264C40.7246 58.6374 40.6117 58.4825 40.5478 58.4807C39.7863 58.4638 39.0256 58.47 38.2547 58.47L38.2584 60.5185Z" fill="#FBAE40"/>
<path d="M62.4342 61.7446C61.8651 61.7446 61.2951 61.7446 60.7259 61.7446C60.1568 61.7446 59.9283 61.5399 59.9245 61.0084C59.9184 59.9994 59.9184 58.9925 59.9245 57.9877C59.9245 57.4793 60.1587 57.247 60.6806 57.2425C61.8527 57.2336 63.0227 57.2336 64.1906 57.2425C64.7458 57.247 64.9688 57.4678 64.9716 58.009C64.9777 59.018 64.9777 60.0249 64.9716 61.0297C64.9716 61.5132 64.7402 61.7322 64.2313 61.742C63.6353 61.7518 63.0357 61.7437 62.4342 61.7446ZM63.6585 60.4982V58.5031H61.2256V60.4938L63.6585 60.4982Z" fill="#FBAE40"/>
<path d="M70.1684 61.7437C69.5688 61.7437 68.9654 61.749 68.3676 61.7437C67.8605 61.7383 67.6273 61.5256 67.619 61.0448C67.6091 60.0228 67.6091 59.001 67.619 57.9796C67.619 57.4713 67.855 57.2505 68.3871 57.2469C69.5592 57.238 70.7292 57.238 71.897 57.2469C72.4522 57.2469 72.6632 57.4722 72.666 58.0197C72.6697 58.9972 72.6697 59.9747 72.666 60.9522C72.666 61.5478 72.4541 61.7437 71.8332 61.7464C71.277 61.7455 70.7227 61.7437 70.1684 61.7437ZM71.364 58.5102H68.9275V60.4875H71.364V58.5102Z" fill="#FBAE40"/>
<path d="M39.5051 49.789C38.9045 49.789 38.3021 49.7979 37.7043 49.789C37.1916 49.7792 36.9695 49.5683 36.964 49.0768C36.9547 48.0405 36.9547 47.004 36.964 45.9671C36.964 45.5086 37.1981 45.2923 37.6821 45.2887C38.8826 45.2804 40.0831 45.2804 41.2837 45.2887C41.7464 45.2887 41.9898 45.481 41.9999 45.9244C42.0221 47.004 42.0221 48.0845 41.9999 49.1658C41.9907 49.5967 41.6862 49.789 41.2596 49.789C40.6748 49.7962 40.0862 49.789 39.5051 49.789ZM38.2586 48.5578C39.0304 48.5578 39.7494 48.5694 40.4675 48.5435C40.56 48.5435 40.7183 48.3486 40.7257 48.2373C40.7544 47.7654 40.7479 47.2909 40.7257 46.8182C40.7211 46.7149 40.6128 46.5306 40.5489 46.5289C39.7883 46.5084 39.0267 46.5155 38.2549 46.5155L38.2586 48.5578Z" fill="#FBAE40"/>
<path d="M31.8179 45.2851C32.4027 45.2851 32.9876 45.2797 33.5761 45.2851C34.0619 45.2913 34.3034 45.4881 34.3108 45.951C34.3266 47.0193 34.3182 48.0823 34.3108 49.148C34.3062 49.5611 34.048 49.7774 33.6344 49.781C32.4191 49.7922 31.2037 49.7922 29.9884 49.781C29.5081 49.7765 29.2842 49.5495 29.2796 49.0883C29.2694 48.053 29.2657 47.0158 29.2796 45.9804C29.2796 45.4943 29.5174 45.2895 30.0282 45.2842C30.6177 45.2815 31.2173 45.286 31.8179 45.2851ZM30.5464 46.5315C30.5464 47.1449 30.5325 47.7057 30.5593 48.2648C30.5649 48.3654 30.7379 48.5382 30.837 48.5426C31.4662 48.5684 32.0974 48.5666 32.7266 48.5426C32.8303 48.5426 33.0144 48.3984 33.0181 48.3156C33.0431 47.728 33.031 47.1395 33.031 46.5279L30.5464 46.5315Z" fill="#FBAE40"/>
<path d="M47.1774 45.287C47.7474 45.287 48.3184 45.287 48.8885 45.287C49.4381 45.2914 49.6621 45.4837 49.6676 45.9992C49.6787 47.0373 49.6787 48.0759 49.6676 49.1152C49.6621 49.5603 49.4427 49.7775 48.9801 49.782C47.7613 49.7962 46.5435 49.7944 45.3257 49.782C44.876 49.7775 44.6456 49.5461 44.641 49.1107C44.6317 48.0578 44.6317 47.0046 44.641 45.9511C44.6456 45.5131 44.8741 45.2986 45.3285 45.2905C45.9457 45.279 46.562 45.2905 47.1793 45.2905L47.1774 45.287ZM45.9309 48.5587C46.712 48.5587 47.4319 48.565 48.1519 48.5498C48.2351 48.5498 48.3832 48.4243 48.3851 48.3549C48.4036 47.753 48.3961 47.1503 48.3961 46.5351H45.9309V48.5587Z" fill="#FBAE40"/>
<path d="M31.7938 55.7691C31.2247 55.7691 30.6547 55.7735 30.0856 55.7691C29.4859 55.7637 29.2712 55.5643 29.2694 55.0017C29.265 54.0099 29.265 53.0178 29.2694 52.0255C29.2694 51.478 29.4813 51.2696 30.0467 51.2661C31.2015 51.259 32.3561 51.259 33.5104 51.2661C34.0795 51.2661 34.3007 51.4789 34.3044 52.0148C34.3118 53.0238 34.3118 54.0307 34.3044 55.0355C34.3044 55.5483 34.0749 55.7629 33.5446 55.7691C32.9607 55.7744 32.3787 55.7691 31.7938 55.7691ZM33.0042 52.5258H30.589V54.5245H33.0042V52.5258Z" fill="#FBAE40"/>
<path d="M47.1654 55.769C46.5805 55.769 45.9957 55.7744 45.4117 55.769C44.8639 55.7628 44.64 55.5625 44.6354 55.0568C44.6267 54.0354 44.6267 53.0142 44.6354 51.9934C44.6354 51.4886 44.8695 51.2714 45.4071 51.2678C46.5793 51.2607 47.7487 51.2607 48.9153 51.2678C49.4464 51.2678 49.6666 51.4913 49.6703 52.0085C49.6765 53.0175 49.6765 54.0241 49.6703 55.0283C49.6703 55.5625 49.4464 55.7663 48.8736 55.7726C48.3008 55.7788 47.7354 55.7726 47.1663 55.7726L47.1654 55.769ZM48.3684 54.5226V52.5284H45.9346V54.5226H48.3684Z" fill="#FBAE40"/>
<path d="M31.7309 61.7437C31.1756 61.7437 30.6204 61.7437 30.0652 61.7437C29.484 61.7392 29.2703 61.5487 29.2666 61.0083C29.2604 60.0023 29.2604 58.996 29.2666 57.9894C29.2712 57.4686 29.4822 57.2487 30.0171 57.2433C31.2015 57.232 32.386 57.232 33.5705 57.2433C34.0795 57.2496 34.2951 57.4721 34.3007 57.9636C34.3099 58.9725 34.3099 59.9788 34.3007 60.9825C34.296 61.5567 34.0915 61.7365 33.4771 61.7419C32.8996 61.7472 32.3129 61.7445 31.7309 61.7437ZM33.0024 58.5022H30.589V60.4982H33.0024V58.5022Z" fill="#FBAE40"/>
<path d="M63.3457 44.2961C63.0079 44.2961 62.6702 44.2961 62.3278 44.2961C61.9502 44.2961 61.8817 44.0522 61.8836 43.7566C61.8854 43.461 61.9345 43.1984 62.3084 43.1904C62.9839 43.177 63.6603 43.1806 64.3358 43.1904C64.7661 43.1957 64.7985 43.4833 64.7985 43.8082C64.7985 44.1332 64.669 44.3112 64.3081 44.3014C63.9916 44.289 63.6687 44.2961 63.3457 44.2961Z" fill="#FBAE40"/>
<path d="M71.2419 44.2969C70.9032 44.2969 70.5654 44.2969 70.224 44.2969C69.8538 44.3013 69.7613 44.0796 69.7548 43.7769C69.7483 43.4742 69.7853 43.1929 70.1971 43.1894C70.8736 43.1822 71.55 43.1769 72.2265 43.1894C72.6244 43.1956 72.6744 43.4564 72.6688 43.7761C72.6633 44.0957 72.5763 44.2995 72.2061 44.2986L71.2419 44.2969Z" fill="#FBAE40"/>
<path d="M67.2525 44.296C66.9305 44.296 66.6048 44.296 66.2864 44.296C65.9163 44.3022 65.8237 44.0912 65.8237 43.7805C65.8237 43.4698 65.8524 43.1938 66.255 43.1858C66.9305 43.1724 67.606 43.1751 68.2806 43.1858C68.685 43.1911 68.7239 43.4653 68.7221 43.7743C68.7202 44.0832 68.648 44.3013 68.2677 44.296C67.9281 44.2915 67.5903 44.2951 67.2525 44.296Z" fill="#FBAE40"/>
<path d="M45.7727 61.0411V59.0825H56.322V61.0411H45.7727Z" fill="#FBAE40"/>
<path d="M61.2219 54.5147V52.5018C61.9817 52.5018 62.7275 52.4955 63.4725 52.5107C63.5239 52.5249 63.5707 52.5516 63.6083 52.5882C63.6459 52.6249 63.673 52.6702 63.6872 52.7199C63.7047 53.3066 63.6973 53.8941 63.6973 54.5147H61.2219Z" fill="#FBAE40"/>
<path d="M63.6964 46.5476C63.6964 47.1512 63.7066 47.7397 63.6844 48.3282C63.6844 48.4083 63.5197 48.5463 63.429 48.5489C62.709 48.5667 61.9882 48.5587 61.2312 48.5587V46.5494L63.6964 46.5476Z" fill="#FBAE40"/>
<path d="M68.9202 54.5457V52.5212H71.3919C71.3919 53.132 71.4011 53.7311 71.3798 54.3294C71.3798 54.4042 71.2133 54.5333 71.1217 54.5359C70.4026 54.5528 69.6836 54.5457 68.9202 54.5457Z" fill="#FBAE40"/>
<path d="M53.6032 46.5261H56.0953C56.0953 47.1547 56.1027 47.7725 56.0833 48.3841C56.0833 48.4447 55.9139 48.5462 55.8214 48.5488C55.1736 48.564 54.5259 48.5693 53.8781 48.5488C53.8153 48.5324 53.7579 48.5008 53.7115 48.457C53.665 48.4132 53.6309 48.3587 53.6125 48.2987C53.5912 47.7244 53.6032 47.1493 53.6032 46.5261Z" fill="#FBAE40"/>
<path d="M68.8915 46.5315H71.3641V48.5542C70.6035 48.5542 69.8437 48.5604 69.084 48.5435C69.0183 48.5435 68.8989 48.3886 68.8989 48.304C68.8841 47.7307 68.8915 47.1574 68.8915 46.5315Z" fill="#FBAE40"/>
<path d="M38.2595 54.519V52.4981C39.0248 52.4981 39.7735 52.4909 40.5212 52.5079C40.5943 52.5079 40.7248 52.6512 40.7266 52.7304C40.7442 53.318 40.7359 53.9065 40.7359 54.519H38.2595Z" fill="#FBAE40"/>
<path d="M53.6189 54.5147V52.5303H56.0582V54.5147H53.6189Z" fill="#FBAE40"/>
<path d="M38.2585 60.5186V58.4772C39.0294 58.4772 39.79 58.471 40.5516 58.4879C40.6155 58.4879 40.7256 58.6463 40.7284 58.7336C40.746 59.2366 40.7506 59.7414 40.7284 60.2471C40.7284 60.3423 40.5665 60.5079 40.4748 60.5141C39.7521 60.5284 39.0312 60.5186 38.2585 60.5186Z" fill="#FBAE40"/>
<path d="M63.6584 60.4936H61.2256V58.5029H63.6584V60.4936Z" fill="#FBAE40"/>
<path d="M71.364 58.5103V60.4876H68.9275V58.5103H71.364Z" fill="#FBAE40"/>
<path d="M38.2585 48.5579V46.5156C39.0303 46.5156 39.7919 46.5085 40.5526 46.529C40.6164 46.529 40.7247 46.715 40.7293 46.8183C40.7478 47.291 40.7543 47.7655 40.7293 48.2374C40.7219 48.3487 40.5655 48.5401 40.4711 48.5436C39.7493 48.5695 39.0303 48.5579 38.2585 48.5579Z" fill="#FBAE40"/>
<path d="M30.5463 46.5325H33.0328C33.0328 47.1441 33.0449 47.7326 33.0199 48.3201C33.0199 48.4029 32.8348 48.5436 32.7284 48.5472C32.0991 48.5676 31.468 48.5694 30.8387 48.5472C30.7379 48.5427 30.5611 48.3691 30.5611 48.2694C30.5324 47.7067 30.5463 47.1459 30.5463 46.5325Z" fill="#FBAE40"/>
<path d="M45.9309 48.5587V46.5352H48.3961C48.3961 47.1503 48.4035 47.7531 48.385 48.3549C48.385 48.4243 48.2351 48.5481 48.1518 48.5498C47.4319 48.565 46.7119 48.5587 45.9309 48.5587Z" fill="#FBAE40"/>
<path d="M33.0044 52.5256V54.5243H30.5891V52.5256H33.0044Z" fill="#FBAE40"/>
<path d="M48.3665 54.5198H45.9346V52.5256H48.3665V54.5198Z" fill="#FBAE40"/>
<path d="M33.0025 58.5022V60.4982H30.5891V58.5022H33.0025Z" fill="#FBAE40"/>
<path d="M52.9212 37.5728C52.9527 37.4838 52.9611 37.474 52.9629 37.4606C53.0665 36.2757 53.0665 36.2757 54.3038 36.2766C54.6739 36.2766 55.0441 36.2677 55.4142 36.281C55.6724 36.2908 55.814 36.2294 55.8223 35.9454C55.8667 34.5396 56.6237 33.5577 57.8359 32.8481C58.2829 32.581 58.7215 32.3086 59.1564 32.0273C59.9079 31.5421 60.3595 30.8628 60.3872 29.9921C60.4131 29.0903 60.3576 28.1867 60.3335 27.2839C60.328 27.0774 60.278 26.8682 60.2956 26.6607C60.3261 26.3046 60.5436 26.0803 60.9138 26.0491C61.2839 26.0179 61.6106 26.1835 61.6624 26.561C61.8623 28.0344 62.0325 29.5123 61.6355 30.9821C61.3838 31.9178 60.7749 32.6113 59.9643 33.149C59.4183 33.5105 58.8538 33.8479 58.2986 34.1969C57.5518 34.667 57.2085 35.3355 57.2335 36.2721H58.0053C58.7456 36.2721 58.9399 36.4502 58.9519 37.157C58.9519 37.2737 58.964 37.3912 58.9732 37.5692H59.5729C66.2054 37.5692 72.8373 37.5719 79.4686 37.5773C80.1305 37.5786 80.7911 37.6364 81.4424 37.75C82.4973 37.9334 83.1285 38.5859 83.3117 39.5937C83.4025 40.1201 83.4468 40.6529 83.444 41.1864C83.4532 46.9281 83.4517 52.6701 83.4394 58.4123C83.4355 59.0776 83.3535 59.7403 83.1951 60.3879C83.1212 60.7265 82.9464 61.0371 82.692 61.2817C82.4376 61.5263 82.1146 61.6943 81.7626 61.7651C81.0768 61.9316 80.3737 62.0233 79.6666 62.0384C63.7204 62.0497 47.773 62.0476 31.8244 62.0322C31.3006 62.023 30.7797 61.9546 30.2725 61.8283C29.423 61.6298 28.8725 61.0858 28.6661 60.2703C28.5412 59.8114 28.4732 59.3398 28.4634 58.8655C28.4474 52.96 28.4474 47.0545 28.4634 41.149C28.4718 40.4985 28.5711 39.852 28.7586 39.2269C29.0205 38.3278 29.7895 37.9191 30.6816 37.7589C31.3173 37.6421 31.9628 37.581 32.6101 37.5764C39.2111 37.5627 45.8122 37.56 52.4132 37.5684L52.9212 37.5728ZM55.9232 60.3229C63.6803 60.3229 71.4375 60.3211 79.1946 60.3175C79.7776 60.3175 80.3616 60.249 80.9446 60.2018C81.3471 60.168 81.547 59.9347 81.5729 59.5554C81.6025 59.1272 81.646 58.6972 81.646 58.2681C81.6516 52.6006 81.6516 46.9325 81.646 41.2639C81.646 40.8499 81.6016 40.435 81.5664 40.0175C81.5359 39.6614 81.3425 39.4406 80.9557 39.413C80.4486 39.3765 79.9424 39.3142 79.4353 39.3142C63.8272 39.3088 48.2206 39.3088 32.6156 39.3142C32.1536 39.3218 31.6927 39.3593 31.2359 39.4264C30.5317 39.5154 30.3808 39.6756 30.3105 40.3656C30.2716 40.7493 30.2596 41.1357 30.2587 41.5229C30.2587 47.0717 30.2587 52.6211 30.2587 58.1711C30.2587 58.6438 30.3142 59.1174 30.3512 59.5902C30.378 60.0024 30.6288 60.2045 31.0378 60.2329C31.606 60.273 32.1761 60.3175 32.7452 60.322C40.4715 60.3261 48.1975 60.3264 55.9232 60.3229Z" fill="#FBAE40"/>
<path d="M55.9233 60.3231C48.1976 60.3231 40.4716 60.3231 32.7453 60.3231C32.1762 60.3231 31.6061 60.2777 31.0379 60.234C30.6335 60.2056 30.3782 60.0035 30.3513 59.5913C30.3189 59.1185 30.2588 58.6449 30.2588 58.1722C30.2526 52.6228 30.2526 47.0734 30.2588 41.5241C30.2588 41.1386 30.2717 40.7522 30.3106 40.3667C30.3791 39.6767 30.5299 39.52 31.236 39.4275C31.6928 39.3604 32.1537 39.3229 32.6157 39.3153C48.2238 39.3099 63.8303 39.3099 79.4354 39.3153C79.9425 39.3153 80.4533 39.3776 80.9558 39.4141C81.3426 39.4417 81.536 39.6616 81.5665 40.0186C81.6017 40.4326 81.6461 40.8474 81.6461 41.265C81.6517 46.9325 81.6517 52.6005 81.6461 58.2692C81.6461 58.6983 81.6026 59.1283 81.573 59.5565C81.5471 59.9331 81.3472 60.1691 80.9447 60.2029C80.3617 60.2501 79.7777 60.3186 79.1947 60.3186C71.4376 60.3252 63.6804 60.3266 55.9233 60.3231ZM56.0732 54.8203C54.1607 54.8203 52.2483 54.8203 50.3358 54.8203C49.6575 54.8203 49.4678 55.0072 49.466 55.6732C49.466 56.608 49.466 57.5425 49.466 58.4766C49.466 59.1096 49.6649 59.3064 50.3173 59.3073C54.1422 59.3073 57.965 59.3073 61.7856 59.3073C62.4518 59.3073 62.623 59.1346 62.6267 58.4731C62.6314 57.5543 62.6267 56.6347 62.6267 55.7132C62.6267 54.9663 62.475 54.823 61.7116 54.8185L56.0732 54.8203ZM67.4628 52.7727C68.0476 52.7727 68.6325 52.778 69.221 52.7727C69.73 52.7655 69.9678 52.551 69.9724 52.0747C69.9835 51.0372 69.9835 50.0004 69.9724 48.9641C69.9724 48.5127 69.7263 48.2768 69.2543 48.2723C68.0532 48.2616 66.8524 48.2616 65.6518 48.2723C65.1466 48.2768 64.9254 48.5038 64.9226 48.9935C64.9164 50.0024 64.9164 51.0093 64.9226 52.0141C64.9226 52.5483 65.154 52.77 65.7064 52.7744C66.2931 52.7753 66.8779 52.7718 67.4628 52.7718V52.7727ZM67.4545 42.287C66.8382 42.287 66.2228 42.2808 65.6037 42.287C65.1845 42.2924 64.9291 42.5042 64.9245 42.9102C64.9127 43.991 64.9127 45.0718 64.9245 46.1526C64.9245 46.5407 65.1715 46.7713 65.5611 46.7758C66.8076 46.7927 68.0541 46.7909 69.3006 46.7758C69.7161 46.7758 69.9604 46.5301 69.965 46.1259C69.9761 45.0745 69.9808 44.0231 69.965 42.9716C69.9585 42.4936 69.7133 42.287 69.2034 42.2817C68.6241 42.2817 68.0356 42.2861 67.4545 42.2861V42.287ZM75.1509 52.7691C75.7357 52.7691 76.3205 52.7753 76.9091 52.7691C77.4227 52.7629 77.6605 52.5528 77.666 52.0765C77.6771 51.0396 77.6771 50.0027 77.666 48.9659C77.666 48.5083 77.4282 48.2714 76.9591 48.267C75.7591 48.2563 74.5586 48.2563 73.3574 48.267C72.8513 48.2714 72.6255 48.4949 72.6171 48.9837C72.606 50.0057 72.6079 51.0268 72.6171 52.0489C72.6171 52.5305 72.854 52.7611 73.351 52.7664C73.9497 52.7762 74.5503 52.7682 75.1509 52.7682V52.7691ZM59.8821 42.2852C59.2667 42.2852 58.6504 42.2772 58.0313 42.2852C57.5529 42.2941 57.3262 42.5114 57.3216 42.9743C57.3123 44.0106 57.3123 45.0475 57.3216 46.0849C57.3216 46.5434 57.5575 46.782 58.0285 46.7856C59.2445 46.7963 60.4607 46.7936 61.6773 46.7776C62.1307 46.7722 62.3593 46.5434 62.3649 46.1099C62.3772 45.073 62.3772 44.0361 62.3649 42.9992C62.3593 42.4838 62.1326 42.287 61.5848 42.287C61.0249 42.2808 60.4558 42.2843 59.8858 42.2843L59.8821 42.2852ZM75.1509 42.2852C74.5817 42.2852 74.0117 42.2852 73.4426 42.2852C72.8383 42.2852 72.6172 42.482 72.6098 43.0455C72.6005 44.0545 72.6005 45.0617 72.6098 46.0671C72.6098 46.555 72.8383 46.7793 73.3501 46.7793C74.5346 46.7918 75.7197 46.7942 76.9054 46.7865C77.4301 46.7865 77.6568 46.5532 77.6596 46.0413C77.6657 45.0323 77.6657 44.0254 77.6596 43.0206C77.6596 42.5025 77.4384 42.2915 76.9035 42.2852C76.3252 42.2799 75.7394 42.2852 75.1546 42.2852H75.1509ZM44.4819 48.2643C43.8813 48.2643 43.2789 48.2545 42.6811 48.2643C42.1999 48.2741 41.9667 48.4922 41.9621 48.9489C41.9522 49.9852 41.9522 51.0218 41.9621 52.0587C41.9621 52.5412 42.2018 52.7646 42.7024 52.7709C43.8745 52.7774 45.0442 52.7774 46.2114 52.7709C46.7713 52.7709 47.0072 52.5537 47.0128 52.0204C47.0239 51.0114 47.0239 50.0045 47.0128 48.9997C47.0063 48.4913 46.7704 48.2759 46.2383 48.2679C45.6553 48.2563 45.0704 48.2634 44.4856 48.2643H44.4819ZM59.8543 52.7718C60.4391 52.7718 61.024 52.778 61.6125 52.7718C62.1418 52.7647 62.3685 52.5483 62.3722 52.0373C62.3806 51.0304 62.3796 50.0235 62.3722 49.0166C62.3722 48.5056 62.1456 48.2759 61.6172 48.2714C60.4314 48.2619 59.2463 48.2619 58.0619 48.2714C57.564 48.2759 57.328 48.5118 57.3216 48.9881C57.3148 49.9941 57.3148 51.0007 57.3216 52.0079C57.3216 52.5652 57.551 52.7727 58.1442 52.7762C58.7188 52.7736 59.2889 52.7718 59.858 52.7718H59.8543ZM44.4504 58.7455C45.0501 58.7455 45.6534 58.7509 46.2503 58.7455C46.7639 58.7402 47.0017 58.5336 47.0072 58.0529C47.0202 57.0166 47.0202 55.9803 47.0072 54.944C47.0017 54.4873 46.7666 54.255 46.29 54.2496C45.0895 54.236 43.889 54.236 42.6885 54.2496C42.1869 54.255 41.9639 54.4864 41.9611 54.9734C41.9537 55.9943 41.9537 57.0157 41.9611 58.0377C41.9611 58.5247 42.1953 58.7428 42.6968 58.75C43.2835 58.7517 43.8693 58.7455 44.4541 58.7455H44.4504ZM67.4304 58.7455C68.031 58.7455 68.6334 58.7535 69.2312 58.7455C69.7364 58.7366 69.9641 58.5176 69.9715 58.0333C69.9777 57.0243 69.9777 56.0174 69.9715 55.0126C69.9715 54.4713 69.7475 54.2505 69.1905 54.2461C68.0183 54.2372 66.8483 54.2372 65.6805 54.2461C65.1586 54.2505 64.9272 54.4829 64.9245 54.9912C64.9183 56.0002 64.9183 57.0071 64.9245 58.0119C64.9245 58.5461 65.154 58.7455 65.7258 58.7482C66.2977 58.7509 66.865 58.7455 67.4341 58.7437L67.4304 58.7455ZM75.1647 58.7455C75.72 58.7455 76.2752 58.7455 76.8304 58.7455C77.4523 58.7455 77.6633 58.547 77.6633 57.9514C77.6676 56.9739 77.6676 55.9963 77.6633 55.0188C77.6633 54.4713 77.4504 54.2505 76.8943 54.2461C75.7221 54.236 74.5521 54.236 73.3843 54.2461C72.8522 54.2461 72.6209 54.4704 72.6162 54.9788C72.6076 56.0008 72.6076 57.0225 72.6162 58.044C72.6218 58.5247 72.8577 58.7375 73.3648 58.7428C73.9682 58.7491 74.5688 58.7437 75.1684 58.7437L75.1647 58.7455ZM44.505 46.7891C45.0899 46.7891 45.6747 46.7891 46.2633 46.7891C46.6936 46.7891 46.998 46.5977 47.0036 46.1659C47.0239 45.0863 47.0239 44.0058 47.0036 42.9245C46.9934 42.4793 46.7537 42.2915 46.2873 42.2888C45.0868 42.2817 43.8862 42.2817 42.6857 42.2888C42.2017 42.2888 41.9713 42.5087 41.9676 42.9672C41.9577 44.0035 41.9577 45.04 41.9676 46.0769C41.9676 46.5648 42.1943 46.7758 42.7079 46.7891C43.3048 46.7963 43.9045 46.7882 44.505 46.7891ZM36.8179 42.2861C36.2173 42.2861 35.6149 42.2861 35.0171 42.2861C34.5063 42.2915 34.2768 42.4962 34.2685 42.9823C34.2583 44.0177 34.262 45.0549 34.2685 46.0903C34.2685 46.5514 34.497 46.7785 34.9773 46.7829C36.1926 46.7942 37.408 46.7942 38.6233 46.7829C39.037 46.7829 39.2951 46.563 39.2998 46.1499C39.3109 45.0816 39.3192 44.0186 39.2998 42.9529C39.2924 42.49 39.0508 42.2933 38.565 42.287C37.9875 42.2799 37.4055 42.2852 36.8179 42.2861ZM52.1792 42.2861C51.562 42.2861 50.9457 42.2772 50.3284 42.2861C49.8741 42.2941 49.6455 42.5087 49.6409 42.9467C49.6298 43.9996 49.6298 45.0528 49.6409 46.1063C49.6455 46.5416 49.8759 46.7731 50.3257 46.7776C51.5435 46.7891 52.7612 46.7909 53.98 46.7776C54.4427 46.7776 54.662 46.5541 54.6675 46.1107C54.6793 45.0727 54.6793 44.034 54.6675 42.9948C54.662 42.4793 54.4381 42.287 53.8884 42.2826C53.3221 42.2835 52.7474 42.287 52.1773 42.287L52.1792 42.2861ZM36.7938 52.7691C37.3787 52.7691 37.9644 52.7744 38.5521 52.7691C39.0823 52.7629 39.309 52.5483 39.3118 52.0355C39.3186 51.0265 39.3186 50.0196 39.3118 49.0148C39.3118 48.4807 39.0869 48.2697 38.5178 48.2661C37.3629 48.2608 36.2083 48.2608 35.0541 48.2661C34.4887 48.2661 34.2795 48.478 34.2768 49.0255C34.2712 50.0173 34.2712 51.0093 34.2768 52.0017C34.2768 52.5643 34.4933 52.7638 35.0929 52.7691C35.6546 52.7736 36.2247 52.7691 36.7938 52.7691ZM52.1653 52.7691C52.7344 52.7691 53.3036 52.7736 53.8727 52.7691C54.4418 52.7647 54.6657 52.5608 54.6694 52.0248C54.6756 51.0159 54.6756 50.0093 54.6694 49.005C54.6694 48.4878 54.4454 48.2679 53.9143 48.2643C52.7421 48.2566 51.5728 48.2566 50.4062 48.2643C49.8685 48.2643 49.6381 48.4851 49.6344 48.9899C49.6282 50.0113 49.6282 51.0325 49.6344 52.0533C49.639 52.5608 49.863 52.7611 50.4108 52.7655C50.9956 52.7744 51.5805 52.7691 52.1653 52.7691ZM36.7309 58.7446C37.3148 58.7446 37.8997 58.7446 38.4845 58.7446C39.099 58.7393 39.3035 58.5594 39.3081 57.9852C39.3161 56.9792 39.3161 55.9729 39.3081 54.9663C39.3025 54.4749 39.0869 54.2541 38.5779 54.2461C37.3935 54.2318 36.209 54.2318 35.0245 54.2461C34.4896 54.2514 34.2786 54.4713 34.274 54.9921C34.2666 56.0011 34.2666 57.0074 34.274 58.011C34.274 58.5514 34.4915 58.7419 35.0726 58.7464C35.6232 58.7464 36.1766 58.7437 36.7309 58.7446ZM68.3456 41.2953C68.6686 41.2953 68.9934 41.2881 69.3135 41.2953C69.6744 41.305 69.8012 41.127 69.804 40.802C69.8068 40.4771 69.7697 40.1895 69.3413 40.1842C68.6658 40.1762 67.9893 40.1726 67.3138 40.1842C66.9437 40.1922 66.89 40.462 66.889 40.7504C66.8881 41.0389 66.9557 41.2846 67.3332 41.2899C67.6701 41.2979 68.0078 41.2961 68.3456 41.2961V41.2953ZM76.2419 41.2953H77.2098C77.58 41.2953 77.667 41.0834 77.6725 40.7727C77.6781 40.462 77.6281 40.1922 77.2302 40.186C76.5537 40.1762 75.8773 40.186 75.2008 40.186C74.789 40.186 74.7548 40.4709 74.7585 40.7736C74.7622 41.0762 74.851 41.2979 75.2277 41.2935C75.5654 41.2944 75.9013 41.2979 76.2419 41.297V41.2953ZM72.2525 41.2953C72.5903 41.2953 72.9281 41.2953 73.2705 41.2953C73.6508 41.3006 73.723 41.078 73.7248 40.7736C73.7267 40.4691 73.6878 40.1904 73.2834 40.1851C72.6088 40.1753 71.9333 40.1726 71.2578 40.1851C70.8552 40.1931 70.8229 40.4718 70.8266 40.7798C70.8303 41.0878 70.9191 41.3015 71.2892 41.2953C71.6085 41.2926 71.9305 41.2961 72.2525 41.2953Z" fill="white"/>
<path d="M56.0732 54.8201H61.718C62.4814 54.8201 62.6313 54.9679 62.6332 55.7148C62.6332 56.6345 62.6332 57.5541 62.6332 58.4747C62.6332 59.1361 62.4583 59.3089 61.792 59.3089C57.9671 59.3089 54.1444 59.3089 50.3238 59.3089C49.6714 59.3089 49.4743 59.1112 49.4724 58.4782C49.4724 57.5434 49.4724 56.609 49.4724 55.6748C49.4724 55.0088 49.664 54.8228 50.3423 54.8219C52.2516 54.8189 54.1619 54.8183 56.0732 54.8201ZM50.7726 58.0411H61.3219V56.0825H50.7726V58.0411Z" fill="#FBAE40"/>
<path d="M67.4627 52.7716C66.8779 52.7716 66.293 52.7716 65.7045 52.7716C65.1493 52.7672 64.9234 52.5473 64.9207 52.0113C64.9151 51.0023 64.9151 49.9954 64.9207 48.9906C64.9207 48.501 65.1446 48.2739 65.6499 48.2695C66.851 48.2588 68.0519 48.2588 69.2524 48.2695C69.7243 48.2739 69.9668 48.5099 69.9705 48.9612C69.9798 49.9981 69.9798 51.035 69.9705 52.0718C69.9659 52.5481 69.728 52.7627 69.2191 52.7698C68.6342 52.7769 68.0494 52.7698 67.4609 52.7698L67.4627 52.7716ZM66.2218 51.5145H68.6972C68.6972 50.8913 68.7046 50.3064 68.687 49.7197C68.6729 49.6701 68.6457 49.6247 68.6081 49.5881C68.5705 49.5515 68.5238 49.5247 68.4723 49.5105C67.7274 49.4954 66.9815 49.5016 66.2218 49.5016V51.5145Z" fill="#FBAE40"/>
<path d="M67.4544 42.2861C68.0393 42.2861 68.6241 42.2861 69.2127 42.2861C69.7225 42.2914 69.9678 42.498 69.9742 42.9761C69.9881 44.0275 69.9835 45.0789 69.9742 46.1303C69.9696 46.5345 69.7253 46.7758 69.3098 46.7802C68.0633 46.7944 66.8168 46.7962 65.5703 46.7802C65.1807 46.7758 64.9374 46.5452 64.9337 46.157C64.9238 45.0762 64.9238 43.9954 64.9337 42.9146C64.9383 42.5051 65.1937 42.2914 65.6129 42.2914C66.2227 42.2799 66.8381 42.2861 67.4544 42.2861ZM68.6963 43.5476H66.2311V45.557C66.988 45.557 67.7117 45.565 68.4288 45.5472C68.5214 45.5472 68.6814 45.4065 68.6842 45.3264C68.7064 44.7397 68.6963 44.1512 68.6963 43.5476Z" fill="#FBAE40"/>
<path d="M75.1508 52.7682C74.5502 52.7682 73.9478 52.7762 73.35 52.7682C72.8531 52.7593 72.6199 52.5323 72.6162 52.0506C72.6097 51.0286 72.6078 50.0075 72.6162 48.9854C72.6208 48.4967 72.8466 48.2732 73.3565 48.2688C74.5564 48.2581 75.7569 48.2581 76.958 48.2688C77.4272 48.2732 77.6614 48.51 77.6651 48.9676C77.6737 50.0045 77.6737 51.0414 77.6651 52.0782C77.6595 52.5545 77.4217 52.7646 76.9081 52.7709C76.3232 52.7789 75.7384 52.7709 75.1499 52.7709L75.1508 52.7682ZM73.92 51.5459C74.6835 51.5459 75.4006 51.553 76.1215 51.5361C76.214 51.5361 76.3769 51.4043 76.3797 51.3295C76.401 50.7313 76.3917 50.1321 76.3917 49.5214H73.92V51.5459Z" fill="#FBAE40"/>
<path d="M59.8857 42.2842C60.4557 42.2842 61.0248 42.2842 61.5949 42.2842C62.1427 42.2886 62.3694 42.4836 62.375 42.9964C62.3861 44.0333 62.3861 45.0701 62.375 46.107C62.3694 46.5406 62.1408 46.7694 61.6874 46.7747C60.4714 46.7908 59.2552 46.7934 58.0387 46.7827C57.5676 46.7827 57.3353 46.5406 57.3316 46.0821C57.3224 45.0452 57.3224 44.0083 57.3316 42.9715C57.3363 42.5085 57.563 42.2913 58.0414 42.2824C58.654 42.2762 59.2703 42.2842 59.8857 42.2842ZM58.6031 43.5261C58.6031 44.1493 58.5911 44.7244 58.6161 45.2978C58.6345 45.3578 58.6685 45.4123 58.715 45.4561C58.7615 45.4999 58.8189 45.5315 58.8817 45.5479C59.5294 45.5693 60.1772 45.564 60.825 45.5479C60.9175 45.5479 61.085 45.4438 61.0868 45.3832C61.1063 44.7689 61.0989 44.1538 61.0989 43.5252L58.6031 43.5261Z" fill="#FBAE40"/>
<path d="M75.1546 42.2851C75.7394 42.2851 76.3252 42.2797 76.9128 42.2851C77.4477 42.2913 77.6661 42.5023 77.6688 43.0205C77.6744 44.0294 77.6744 45.0363 77.6688 46.0412C77.6688 46.5531 77.4393 46.7828 76.9147 46.7863C75.7296 46.7934 74.5444 46.7911 73.3593 46.7792C72.8503 46.7739 72.6264 46.5531 72.619 46.067C72.6097 45.058 72.6097 44.0508 72.619 43.0454C72.6236 42.4818 72.8448 42.2887 73.4518 42.2851C74.0154 42.2824 74.5855 42.2851 75.1546 42.2851ZM73.8914 43.5315C73.8914 44.1547 73.884 44.7307 73.8998 45.304C73.8998 45.3886 74.0173 45.5417 74.0848 45.5435C74.8446 45.5604 75.6043 45.5542 76.3649 45.5542V43.5315H73.8914Z" fill="#FBAE40"/>
<path d="M44.4856 48.2635C45.0704 48.2635 45.6553 48.2563 46.2392 48.2635C46.7713 48.2715 47.0073 48.4869 47.0137 48.9953C47.0255 50.0042 47.0255 51.0111 47.0137 52.016C47.0082 52.5501 46.7722 52.7638 46.2123 52.7665C45.0402 52.7724 43.8705 52.7724 42.7033 52.7665C42.2027 52.7665 41.963 52.5403 41.963 52.0543C41.9537 51.018 41.9537 49.9814 41.963 48.9445C41.9676 48.4878 42.2008 48.2697 42.682 48.2599C43.2844 48.2546 43.8831 48.2644 44.4856 48.2635ZM43.2594 51.5192H45.7339C45.7339 50.9067 45.7422 50.3182 45.7247 49.7306C45.7247 49.6514 45.5924 49.5098 45.5192 49.5081C44.7715 49.4912 44.0229 49.4983 43.2576 49.4983L43.2594 51.5192Z" fill="#FBAE40"/>
<path d="M59.8579 52.7717C59.2888 52.7717 58.7188 52.7717 58.1496 52.7717C57.5565 52.7717 57.3297 52.5607 57.327 52.0034C57.3227 50.9944 57.3227 49.9878 57.327 48.9836C57.327 48.5073 57.5657 48.2714 58.0673 48.2669C59.2524 48.258 60.4375 48.258 61.6226 48.2669C62.151 48.2714 62.3749 48.5011 62.3777 49.0121C62.3777 50.019 62.3823 51.0259 62.3777 52.0328C62.3777 52.5438 62.1473 52.7601 61.618 52.7673C61.0331 52.7753 60.4483 52.7673 59.8597 52.7673L59.8579 52.7717ZM58.6188 51.5147H61.0581V49.5302H58.6188V51.5147Z" fill="#FBAE40"/>
<path d="M44.454 58.7453C43.8692 58.7453 43.2834 58.7516 42.6958 58.7453C42.1942 58.7391 41.9638 58.521 41.9601 58.0331C41.9527 57.0117 41.9527 55.9902 41.9601 54.9688C41.9601 54.4818 42.1859 54.2503 42.6875 54.245C43.8886 54.2331 45.0891 54.2331 46.2891 54.245C46.7656 54.2503 47.0007 54.4827 47.0062 54.9394C47.0186 55.9757 47.0186 57.012 47.0062 58.0482C47.0007 58.529 46.7628 58.7355 46.2492 58.7409C45.6496 58.748 45.0463 58.7409 44.4494 58.7409L44.454 58.7453ZM43.2584 57.5185C44.0311 57.5185 44.752 57.5283 45.471 57.5069C45.5636 57.5069 45.7199 57.3387 45.7246 57.2399C45.7505 56.7378 45.7458 56.233 45.7246 55.7264C45.7246 55.6374 45.6117 55.4825 45.5478 55.4807C44.7863 55.4638 44.0256 55.47 43.2547 55.47L43.2584 57.5185Z" fill="#FBAE40"/>
<path d="M67.4342 58.7446C66.8651 58.7446 66.2951 58.7446 65.7259 58.7446C65.1568 58.7446 64.9283 58.5399 64.9245 58.0084C64.9184 56.9994 64.9184 55.9925 64.9245 54.9877C64.9245 54.4793 65.1587 54.247 65.6806 54.2425C66.8527 54.2336 68.0227 54.2336 69.1906 54.2425C69.7458 54.247 69.9688 54.4678 69.9716 55.009C69.9777 56.018 69.9777 57.0249 69.9716 58.0297C69.9716 58.5132 69.7402 58.7322 69.2313 58.742C68.6353 58.7518 68.0357 58.7437 67.4342 58.7446ZM68.6585 57.4982V55.5031H66.2256V57.4938L68.6585 57.4982Z" fill="#FBAE40"/>
<path d="M75.1684 58.7437C74.5688 58.7437 73.9654 58.749 73.3676 58.7437C72.8605 58.7383 72.6273 58.5256 72.619 58.0448C72.6091 57.0228 72.6091 56.001 72.619 54.9796C72.619 54.4713 72.855 54.2505 73.3871 54.2469C74.5592 54.238 75.7292 54.238 76.897 54.2469C77.4522 54.2469 77.6632 54.4722 77.666 55.0197C77.6697 55.9972 77.6697 56.9747 77.666 57.9522C77.666 58.5478 77.4541 58.7437 76.8332 58.7464C76.277 58.7455 75.7227 58.7437 75.1684 58.7437ZM76.364 55.5102H73.9275V57.4875H76.364V55.5102Z" fill="#FBAE40"/>
<path d="M44.5051 46.789C43.9045 46.789 43.3021 46.7979 42.7043 46.789C42.1916 46.7792 41.9695 46.5683 41.964 46.0768C41.9547 45.0405 41.9547 44.004 41.964 42.9671C41.964 42.5086 42.1981 42.2923 42.6821 42.2887C43.8826 42.2804 45.0831 42.2804 46.2837 42.2887C46.7464 42.2887 46.9898 42.481 46.9999 42.9244C47.0221 44.004 47.0221 45.0845 46.9999 46.1658C46.9907 46.5967 46.6862 46.789 46.2596 46.789C45.6748 46.7962 45.0862 46.789 44.5051 46.789ZM43.2586 45.5578C44.0304 45.5578 44.7494 45.5694 45.4675 45.5435C45.56 45.5435 45.7183 45.3486 45.7257 45.2373C45.7544 44.7654 45.7479 44.2909 45.7257 43.8182C45.7211 43.7149 45.6128 43.5306 45.5489 43.5289C44.7883 43.5084 44.0267 43.5155 43.2549 43.5155L43.2586 45.5578Z" fill="#FBAE40"/>
<path d="M36.8179 42.2851C37.4027 42.2851 37.9876 42.2797 38.5761 42.2851C39.0619 42.2913 39.3034 42.4881 39.3108 42.951C39.3266 44.0193 39.3182 45.0823 39.3108 46.148C39.3062 46.5611 39.048 46.7774 38.6344 46.781C37.4191 46.7922 36.2037 46.7922 34.9884 46.781C34.5081 46.7765 34.2842 46.5495 34.2796 46.0883C34.2694 45.053 34.2657 44.0158 34.2796 42.9804C34.2796 42.4943 34.5174 42.2895 35.0282 42.2842C35.6177 42.2815 36.2173 42.286 36.8179 42.2851ZM35.5464 43.5315C35.5464 44.1449 35.5325 44.7057 35.5593 45.2648C35.5649 45.3654 35.7379 45.5382 35.837 45.5426C36.4662 45.5684 37.0974 45.5666 37.7266 45.5426C37.8303 45.5426 38.0144 45.3984 38.0181 45.3156C38.0431 44.728 38.031 44.1395 38.031 43.5279L35.5464 43.5315Z" fill="#FBAE40"/>
<path d="M52.1774 42.287C52.7474 42.287 53.3184 42.287 53.8885 42.287C54.4381 42.2914 54.6621 42.4837 54.6676 42.9992C54.6787 44.0373 54.6787 45.0759 54.6676 46.1152C54.6621 46.5603 54.4427 46.7775 53.9801 46.782C52.7613 46.7962 51.5435 46.7944 50.3257 46.782C49.876 46.7775 49.6456 46.5461 49.641 46.1107C49.6317 45.0578 49.6317 44.0046 49.641 42.9511C49.6456 42.5131 49.8741 42.2986 50.3285 42.2905C50.9457 42.279 51.562 42.2905 52.1793 42.2905L52.1774 42.287ZM50.9309 45.5587C51.712 45.5587 52.4319 45.565 53.1519 45.5498C53.2351 45.5498 53.3832 45.4243 53.3851 45.3549C53.4036 44.753 53.3961 44.1503 53.3961 43.5351H50.9309V45.5587Z" fill="#FBAE40"/>
<path d="M36.7938 52.7691C36.2247 52.7691 35.6547 52.7735 35.0856 52.7691C34.4859 52.7637 34.2712 52.5643 34.2694 52.0017C34.265 51.0099 34.265 50.0178 34.2694 49.0255C34.2694 48.478 34.4813 48.2696 35.0467 48.2661C36.2015 48.259 37.3561 48.259 38.5104 48.2661C39.0795 48.2661 39.3007 48.4789 39.3044 49.0148C39.3118 50.0238 39.3118 51.0307 39.3044 52.0355C39.3044 52.5483 39.0749 52.7629 38.5446 52.7691C37.9607 52.7744 37.3787 52.7691 36.7938 52.7691ZM38.0042 49.5258H35.589V51.5245H38.0042V49.5258Z" fill="#FBAE40"/>
<path d="M52.1654 52.769C51.5805 52.769 50.9957 52.7744 50.4117 52.769C49.8639 52.7628 49.64 52.5625 49.6354 52.0568C49.6267 51.0354 49.6267 50.0142 49.6354 48.9934C49.6354 48.4886 49.8695 48.2714 50.4071 48.2678C51.5793 48.2607 52.7487 48.2607 53.9153 48.2678C54.4464 48.2678 54.6666 48.4913 54.6703 49.0085C54.6765 50.0175 54.6765 51.0241 54.6703 52.0283C54.6703 52.5625 54.4464 52.7663 53.8736 52.7726C53.3008 52.7788 52.7354 52.7726 52.1663 52.7726L52.1654 52.769ZM53.3684 51.5226V49.5284H50.9346V51.5226H53.3684Z" fill="#FBAE40"/>
<path d="M36.7309 58.7437C36.1756 58.7437 35.6204 58.7437 35.0652 58.7437C34.484 58.7392 34.2703 58.5487 34.2666 58.0083C34.2604 57.0023 34.2604 55.996 34.2666 54.9894C34.2712 54.4686 34.4822 54.2487 35.0171 54.2433C36.2015 54.232 37.386 54.232 38.5705 54.2433C39.0795 54.2496 39.2951 54.4721 39.3007 54.9636C39.3099 55.9725 39.3099 56.9788 39.3007 57.9825C39.296 58.5567 39.0915 58.7365 38.4771 58.7419C37.8996 58.7472 37.3129 58.7445 36.7309 58.7437ZM38.0024 55.5022H35.589V57.4982H38.0024V55.5022Z" fill="#FBAE40"/>
<path d="M68.3457 41.2961C68.0079 41.2961 67.6702 41.2961 67.3278 41.2961C66.9502 41.2961 66.8817 41.0522 66.8836 40.7566C66.8854 40.461 66.9345 40.1984 67.3084 40.1904C67.9839 40.177 68.6603 40.1806 69.3358 40.1904C69.7661 40.1957 69.7985 40.4833 69.7985 40.8082C69.7985 41.1332 69.669 41.3112 69.3081 41.3014C68.9916 41.289 68.6687 41.2961 68.3457 41.2961Z" fill="#FBAE40"/>
<path d="M76.2419 41.2969C75.9032 41.2969 75.5654 41.2969 75.224 41.2969C74.8538 41.3013 74.7613 41.0796 74.7548 40.7769C74.7483 40.4742 74.7853 40.1929 75.1971 40.1894C75.8736 40.1822 76.55 40.1769 77.2265 40.1894C77.6244 40.1956 77.6744 40.4564 77.6688 40.7761C77.6633 41.0957 77.5763 41.2995 77.2061 41.2986L76.2419 41.2969Z" fill="#FBAE40"/>
<path d="M72.2525 41.296C71.9305 41.296 71.6048 41.296 71.2864 41.296C70.9163 41.3022 70.8237 41.0912 70.8237 40.7805C70.8237 40.4698 70.8524 40.1938 71.255 40.1858C71.9305 40.1724 72.606 40.1751 73.2806 40.1858C73.685 40.1911 73.7239 40.4653 73.7221 40.7743C73.7202 41.0832 73.648 41.3013 73.2677 41.296C72.9281 41.2915 72.5903 41.2951 72.2525 41.296Z" fill="#FBAE40"/>
<path d="M50.7727 58.0411V56.0825H61.322V58.0411H50.7727Z" fill="white"/>
<path d="M66.2219 51.5147V49.5018C66.9817 49.5018 67.7275 49.4955 68.4725 49.5107C68.5239 49.5249 68.5707 49.5516 68.6083 49.5882C68.6459 49.6249 68.673 49.6702 68.6872 49.7199C68.7047 50.3066 68.6973 50.8941 68.6973 51.5147H66.2219Z" fill="white"/>
<path d="M68.6964 43.5476C68.6964 44.1512 68.7066 44.7397 68.6844 45.3282C68.6844 45.4083 68.5197 45.5463 68.429 45.5489C67.709 45.5667 66.9882 45.5587 66.2312 45.5587V43.5494L68.6964 43.5476Z" fill="white"/>
<path d="M73.9202 51.5457V49.5212H76.3919C76.3919 50.132 76.4011 50.7311 76.3798 51.3294C76.3798 51.4042 76.2133 51.5333 76.1217 51.5359C75.4026 51.5528 74.6836 51.5457 73.9202 51.5457Z" fill="white"/>
<path d="M58.6032 43.5261H61.0953C61.0953 44.1547 61.1027 44.7725 61.0833 45.3841C61.0833 45.4447 60.9139 45.5462 60.8214 45.5488C60.1736 45.564 59.5259 45.5693 58.8781 45.5488C58.8153 45.5324 58.7579 45.5008 58.7115 45.457C58.665 45.4132 58.6309 45.3587 58.6125 45.2987C58.5912 44.7244 58.6032 44.1493 58.6032 43.5261Z" fill="white"/>
<path d="M73.8915 43.5315H76.3641V45.5542C75.6035 45.5542 74.8437 45.5604 74.084 45.5435C74.0183 45.5435 73.8989 45.3886 73.8989 45.304C73.8841 44.7307 73.8915 44.1574 73.8915 43.5315Z" fill="white"/>
<path d="M43.2595 51.519V49.4981C44.0248 49.4981 44.7735 49.4909 45.5212 49.5079C45.5943 49.5079 45.7248 49.6512 45.7266 49.7304C45.7442 50.318 45.7359 50.9065 45.7359 51.519H43.2595Z" fill="white"/>
<path d="M58.6189 51.5147V49.5303H61.0582V51.5147H58.6189Z" fill="white"/>
<path d="M43.2585 57.5186V55.4772C44.0294 55.4772 44.79 55.471 45.5516 55.4879C45.6155 55.4879 45.7256 55.6463 45.7284 55.7336C45.746 56.2366 45.7506 56.7414 45.7284 57.2471C45.7284 57.3423 45.5665 57.5079 45.4748 57.5141C44.7521 57.5284 44.0312 57.5186 43.2585 57.5186Z" fill="white"/>
<path d="M68.6584 57.4936H66.2256V55.5029H68.6584V57.4936Z" fill="white"/>
<path d="M76.364 55.5103V57.4876H73.9275V55.5103H76.364Z" fill="white"/>
<path d="M43.2585 45.5579V43.5156C44.0303 43.5156 44.7919 43.5085 45.5526 43.529C45.6164 43.529 45.7247 43.715 45.7293 43.8183C45.7478 44.291 45.7543 44.7655 45.7293 45.2374C45.7219 45.3487 45.5655 45.5401 45.4711 45.5436C44.7493 45.5695 44.0303 45.5579 43.2585 45.5579Z" fill="white"/>
<path d="M35.5463 43.5325H38.0328C38.0328 44.1441 38.0449 44.7326 38.0199 45.3201C38.0199 45.4029 37.8348 45.5436 37.7284 45.5472C37.0991 45.5676 36.468 45.5694 35.8387 45.5472C35.7379 45.5427 35.5611 45.3691 35.5611 45.2694C35.5324 44.7067 35.5463 44.1459 35.5463 43.5325Z" fill="white"/>
<path d="M50.9309 45.5587V43.5352H53.3961C53.3961 44.1503 53.4035 44.7531 53.385 45.3549C53.385 45.4243 53.2351 45.5481 53.1518 45.5498C52.4319 45.565 51.7119 45.5587 50.9309 45.5587Z" fill="white"/>
<path d="M38.0044 49.5256V51.5243H35.5891V49.5256H38.0044Z" fill="white"/>
<path d="M53.3665 51.5198H50.9346V49.5256H53.3665V51.5198Z" fill="white"/>
<path d="M38.0025 55.5022V57.4982H35.5891V55.5022H38.0025Z" fill="white"/>
<defs>
<filter id="filter0_d_397_5681" x="-0.000105381" y="0" width="101.027" height="109.261" filterUnits="userSpaceOnUse" color-interpolation-filters="sRGB">
<feFlood flood-opacity="0" result="BackgroundImageFix"/>
<feColorMatrix in="SourceAlpha" type="matrix" values="0 0 0 0 0 0 0 0 0 0 0 0 0 0 0 0 0 0 127 0" result="hardAlpha"/>
<feOffset dx="-4.9193" dy="8.43309"/>
<feGaussianBlur stdDeviation="1.40551"/>
<feComposite in2="hardAlpha" operator="out"/>
<feColorMatrix type="matrix" values="0 0 0 0 0.25673 0 0 0 0 0.164842 0 0 0 0 0.0335725 0 0 0 0.1 0"/>
<feBlend mode="normal" in2="BackgroundImageFix" result="effect1_dropShadow_397_5681"/>
<feBlend mode="normal" in="SourceGraphic" in2="effect1_dropShadow_397_5681" result="shape"/>
</filter>
</defs>
</svg>
