<svg xmlns="http://www.w3.org/2000/svg" viewBox="0 0 247.76 150.35"><defs><style>.cls-1{fill:#233a74;}.cls-2{fill:#f05924;}</style></defs><g id="Layer_2" data-name="Layer 2"><g id="Layer_1-2" data-name="Layer 1"><path class="cls-1" d="M226.31,0V4A18.6,18.6,0,0,0,217,6.07q-3.57,2.05-6.83,7.7-2.16,3.8-6.83,18.1l-41,118.48H158l-33.49-94-33.28,94h-3.9L43.67,28.29q-4.89-13.65-6.18-16.15A14.23,14.23,0,0,0,31.58,6Q27.85,4,21.44,4V0H75.86V4h-2.6q-5.74,0-8.78,2.6a8,8,0,0,0-3,6.29q0,3.8,4.77,17.45l28.94,82.49,24.39-70.13-4.33-12.36-3.47-9.86a53.65,53.65,0,0,0-5.1-9.54,13.28,13.28,0,0,0-3.46-3.47,19.71,19.71,0,0,0-5.42-2.82A23.76,23.76,0,0,0,91.25,4V0h57.23V4h-3.9q-6.08,0-8.89,2.6a9.13,9.13,0,0,0-2.81,7.05q0,5.52,4.87,19.29l28.19,79.89,28-81q4.77-13.44,4.77-18.65a7.78,7.78,0,0,0-1.57-4.66,8.38,8.38,0,0,0-4-3A31.61,31.61,0,0,0,182.41,4V0Z"/><rect class="cls-2" y="70.07" width="247.76" height="15.16"/></g></g></svg>