<svg width="102" height="110" viewBox="0 0 102 110" fill="none" xmlns="http://www.w3.org/2000/svg">
<g filter="url(#filter0_d_397_5671)">
<path d="M42.0025 9.65912C45.8825 8.20172 50.2079 8.53113 53.8224 10.5593L83.1488 27.0145C86.5685 28.9333 89.0311 32.1935 89.9419 36.0075L95.2063 58.0539C96.6248 63.9939 94.045 70.1702 88.823 73.3367L55.1346 93.764C50.8013 96.3915 45.389 96.4829 40.9694 94.0031L14.9078 79.3797C10.4749 76.8923 7.73035 72.2053 7.73035 67.1223L7.73035 35.4857C7.73035 31.9729 9.04582 28.5873 11.4176 25.996L15.9074 21.0908C17.4019 19.458 19.2609 18.2013 21.333 17.4229L42.0025 9.65912Z" fill="#FBAE40"/>
<path d="M47.509 3.85914C51.7809 1.46216 56.9925 1.46216 61.2644 3.85914L87.6007 18.6366C92.0336 21.124 94.7781 25.811 94.7781 30.894L94.7781 59.7617C94.7781 64.8447 92.0336 69.5317 87.6007 72.0191L61.2644 86.7965C56.9925 89.1935 51.7809 89.1935 47.509 86.7965L21.1727 72.0191C16.7398 69.5317 13.9953 64.8447 13.9953 59.7617L13.9953 30.894C13.9953 25.8109 16.7398 21.124 21.1727 18.6366L47.509 3.85914Z" fill="white" stroke="#FBAE40" stroke-width="2.81103"/>
</g>
<path d="M69.8855 33.1586V33.8979C69.2879 33.8719 68.6939 34.0032 68.1629 34.2787C67.7231 34.5325 67.3023 35.0063 66.9006 35.7C66.6344 36.1682 66.2136 37.2834 65.6382 39.0454L58.0603 60.9437H57.2581L51.0682 43.57L44.9172 60.9437H44.1964L36.1231 38.3948C35.5242 36.7067 35.1447 35.708 34.9845 35.3987C34.7438 34.919 34.3629 34.5238 33.8922 34.2657C33.4314 34.0193 32.8067 33.8961 32.0181 33.8961V33.1568H42.0764V33.8961H41.5958C40.8879 33.8961 40.3464 34.055 39.973 34.3766C39.7989 34.516 39.6586 34.693 39.5626 34.8944C39.4665 35.0957 39.4173 35.3161 39.4186 35.5392C39.4186 36.0074 39.7124 37.0825 40.3002 38.7644L45.6491 54.0109L50.157 41.0471L49.3567 38.7644L48.7154 36.9402C48.461 36.3224 48.1452 35.7317 47.7728 35.1769C47.6012 34.9259 47.3843 34.709 47.1333 34.5374C46.8289 34.312 46.4908 34.1361 46.1315 34.0162C45.738 33.92 45.333 33.8795 44.9283 33.8961V33.1568H55.5004V33.8961H54.7777C54.0384 33.8961 53.4839 34.055 53.1346 34.3766C52.9606 34.5426 52.8242 34.744 52.7346 34.9672C52.645 35.1904 52.6043 35.4302 52.6153 35.6704C52.6153 36.3531 52.9153 37.5421 53.5154 39.2376L58.7256 54.0035L63.9008 39.0324C64.4886 37.3764 64.7824 36.228 64.7824 35.5873C64.7814 35.2763 64.6796 34.9741 64.4923 34.726C64.3105 34.4716 64.056 34.2783 63.7622 34.1715C63.1214 33.9652 62.4499 33.8708 61.7771 33.8924V33.1531L69.8855 33.1586Z" fill="#FBAE40" stroke="#FBAE40"/>
<path d="M73.8501 46.1094H28.0573V48.9114H73.8501V46.1094Z" fill="#FBAE40" stroke="#FBAE40"/>
<path d="M36.5303 29.675L31.4303 32.6752L41.7303 34.3251V31.3251L36.5303 29.675Z" fill="#FBAE40"/>
<path d="M32.5303 42.625L27.5503 45.6252L40.7303 46.3251L45.2303 61.3251L50.2303 58.3251L53.2303 48.3251L58.3803 61.4751L63.4303 58.5251L65.7303 49.3251L74.3303 49.4251L79.3703 46.3951L32.5303 42.625Z" fill="#FBAE40"/>
<path d="M49.7303 54.8252L41.7303 30.8252H71.7303L63.2303 54.8252L59.7303 44.8252H54.7303L49.7303 54.8252Z" fill="white"/>
<path d="M38.7303 34.3252L40.7303 33.3252L47.2303 44.3252L43.2303 48.8252L38.7303 34.3252Z" fill="#FBAE40"/>
<path d="M56.7303 38.8252L54.2303 43.8252L58.7303 44.3252L56.7303 38.8252Z" fill="#FBAE40"/>
<path d="M74.8855 30.1584V30.8977C74.2879 30.8717 73.6939 31.0029 73.1629 31.2784C72.7231 31.5323 72.3023 32.006 71.9006 32.6998C71.6344 33.168 71.2136 34.2831 70.6382 36.0451L63.0603 57.9435H62.2581L56.0682 40.5697L49.9172 57.9435H49.1964L41.1231 35.3945C40.5242 33.7064 40.1447 32.7078 39.9845 32.3985C39.7438 31.9187 39.3629 31.5236 38.8922 31.2655C38.4314 31.0191 37.8067 30.8958 37.0181 30.8958V30.1565H47.0764V30.8958H46.5958C45.8879 30.8958 45.3464 31.0548 44.973 31.3764C44.7989 31.5158 44.6586 31.6928 44.5626 31.8941C44.4665 32.0955 44.4173 32.3159 44.4186 32.539C44.4186 33.0072 44.7124 34.0823 45.3002 35.7642L50.6491 51.0106L55.157 38.0468L54.3567 35.7642L53.7154 33.9399C53.461 33.3221 53.1452 32.7314 52.7728 32.1767C52.6012 31.9256 52.3843 31.7088 52.1333 31.5372C51.8289 31.3117 51.4908 31.1358 51.1315 31.016C50.738 30.9197 50.333 30.8793 49.9283 30.8958V30.1565H60.5004V30.8958H59.7777C59.0384 30.8958 58.4839 31.0548 58.1346 31.3764C57.9606 31.5424 57.8242 31.7437 57.7346 31.9669C57.645 32.1901 57.6043 32.4299 57.6153 32.6702C57.6153 33.3528 57.9153 34.5419 58.5154 36.2374L63.7256 51.0032L68.9008 36.0322C69.4886 34.3761 69.7824 33.2277 69.7824 32.587C69.7814 32.2761 69.6796 31.9739 69.4923 31.7257C69.3105 31.4714 69.056 31.278 68.7622 31.1712C68.1214 30.965 67.4499 30.8706 66.7771 30.8921V30.1528L74.8855 30.1584Z" fill="white" stroke="#FBAE40"/>
<path d="M78.8501 43.1094H33.0573V45.9114H78.8501V43.1094Z" fill="#FBAE40" stroke="#FBAE40"/>
<defs>
<filter id="filter0_d_397_5671" x="1.66893e-05" y="0" width="101.027" height="109.261" filterUnits="userSpaceOnUse" color-interpolation-filters="sRGB">
<feFlood flood-opacity="0" result="BackgroundImageFix"/>
<feColorMatrix in="SourceAlpha" type="matrix" values="0 0 0 0 0 0 0 0 0 0 0 0 0 0 0 0 0 0 127 0" result="hardAlpha"/>
<feOffset dx="-4.9193" dy="8.43309"/>
<feGaussianBlur stdDeviation="1.40551"/>
<feComposite in2="hardAlpha" operator="out"/>
<feColorMatrix type="matrix" values="0 0 0 0 0.25673 0 0 0 0 0.164842 0 0 0 0 0.0335725 0 0 0 0.1 0"/>
<feBlend mode="normal" in2="BackgroundImageFix" result="effect1_dropShadow_397_5671"/>
<feBlend mode="normal" in="SourceGraphic" in2="effect1_dropShadow_397_5671" result="shape"/>
</filter>
</defs>
</svg>
