<svg width="418" height="417" viewBox="0 0 418 417" fill="none" xmlns="http://www.w3.org/2000/svg">
<g filter="url(#filter0_d_399_10431)">
<path d="M99.5398 320.845C101.119 322.444 102.195 324.299 102.769 326.409C103.309 328.485 103.314 330.575 102.782 332.679C102.182 334.782 101.083 336.623 99.4841 338.202C97.8506 339.815 95.996 340.892 93.9202 341.432C91.7753 341.971 89.6683 341.958 87.5994 341.393C85.4613 340.827 83.6028 339.744 82.0238 338.146C80.4104 336.512 79.3512 334.64 78.8462 332.53C78.2721 330.42 78.2851 328.313 78.8853 326.209C79.4508 324.14 80.5503 322.299 82.1837 320.686C83.7824 319.107 85.637 318.03 87.7476 317.456C89.8234 316.916 91.913 316.947 94.0163 317.547C96.0853 318.112 97.9264 319.212 99.5398 320.845Z" fill="#FFF8EC"/>
<path d="M129.686 369.992C127.128 371.385 124.462 372.178 121.687 372.37C118.89 372.605 116.335 372.142 114.021 370.98L121.815 355.462L125.94 357.533C128.69 358.914 130.961 359.454 132.753 359.151C134.501 358.826 135.989 357.442 137.217 354.997L144.813 339.872L159.349 347.172L140.803 384.102L126.267 376.802L129.686 369.992Z" fill="#FFF8EC"/>
<path d="M159.665 369.677C159.892 368.576 160.18 367.538 160.53 366.563L186.152 371.834C186.631 368.292 185.531 366.246 182.852 365.694C181.129 365.34 179.723 365.874 178.632 367.295L161.767 363.825C162.931 361.073 164.683 358.74 167.021 356.827C169.302 354.953 171.992 353.636 175.09 352.877C178.131 352.156 181.326 352.14 184.675 352.829C188.695 353.656 192.111 355.231 194.924 357.555C197.69 359.87 199.638 362.764 200.768 366.238C201.841 369.75 201.944 373.612 201.078 377.822C200.212 382.033 198.598 385.516 196.235 388.271C193.815 391.065 190.878 392.979 187.424 394.014C183.921 395.039 180.161 395.138 176.142 394.311C172.123 393.485 168.73 391.914 165.965 389.599C163.142 387.323 161.184 384.477 160.091 381.06C158.951 377.634 158.809 373.839 159.665 369.677ZM175.031 376.803C174.755 378.142 174.979 379.236 175.702 380.083C176.416 380.977 177.419 381.558 178.711 381.824C181.534 382.404 183.465 381.38 184.504 378.751L175.031 376.803Z" fill="#FFF8EC"/>
<path d="M209.898 371.572L209.142 357.744L215.288 357.408C226.604 356.789 232.569 362.113 233.185 373.38L233.777 384.209L238.899 383.929L239.639 397.464L234.517 397.744L235.061 407.694L218.819 408.582L218.275 398.632L211.544 399L210.804 385.465L217.535 385.097L216.927 373.976C216.874 373 216.616 372.305 216.153 371.89C215.641 371.478 214.849 371.301 213.776 371.36L209.898 371.572Z" fill="#FFF8EC"/>
<path d="M244.496 368.855L240.862 355.492L246.801 353.877C257.737 350.904 264.685 354.861 267.646 365.75L270.491 376.214L275.441 374.868L278.997 387.948L274.048 389.294L276.663 398.91L260.966 403.178L258.352 393.562L251.847 395.331L248.29 382.251L254.795 380.482L251.873 369.735C251.616 368.792 251.218 368.166 250.679 367.858C250.092 367.561 249.28 367.554 248.243 367.836L244.496 368.855Z" fill="#FFF8EC"/>
<path d="M280.793 365.385C280.235 364.41 279.765 363.441 279.383 362.478L302.087 349.488C300.105 346.514 297.926 345.706 295.552 347.065C294.025 347.938 293.323 349.268 293.445 351.056L278.5 359.607C277.553 356.772 277.324 353.863 277.813 350.882C278.284 347.968 279.431 345.201 281.253 342.583C283.058 340.031 285.444 337.906 288.412 336.208C291.973 334.17 295.577 333.093 299.225 332.976C302.83 332.883 306.205 333.766 309.351 335.624C312.478 337.549 315.109 340.377 317.244 344.108C319.379 347.839 320.471 351.52 320.522 355.149C320.554 358.845 319.616 362.223 317.71 365.284C315.76 368.369 313.005 370.93 309.443 372.968C305.882 375.006 302.299 376.071 298.694 376.164C295.071 376.323 291.72 375.483 288.641 373.643C285.519 371.827 282.904 369.074 280.793 365.385ZM297.031 360.569C297.71 361.756 298.601 362.428 299.704 362.585C300.831 362.785 301.967 362.557 303.112 361.902C305.614 360.471 306.385 358.425 305.426 355.766L297.031 360.569Z" fill="#FFF8EC"/>
<path d="M335.688 334.723C333.052 336.557 330.309 337.342 327.459 337.077C324.612 336.881 322.081 335.786 319.866 333.793C316.49 330.754 314.888 327.276 315.062 323.358C315.24 319.51 317.208 315.497 320.965 311.322L339.149 291.115L377.711 325.816L360.017 345.478C356.488 349.4 352.857 351.718 349.125 352.434C345.392 353.149 341.892 352.037 338.624 349.096C336.373 347.07 335.006 344.755 334.523 342.152C334.043 339.618 334.432 337.142 335.688 334.723ZM351.797 324.38L347.582 329.064C346.602 330.153 346.101 331.148 346.079 332.049C346.025 332.985 346.451 333.862 347.359 334.679C348.303 335.529 349.238 335.877 350.164 335.725C351.094 335.641 352.048 335.055 353.029 333.965L357.244 329.281L351.797 324.38ZM333.013 317.432C332.032 318.521 331.513 319.5 331.455 320.367C331.401 321.304 331.846 322.197 332.79 323.047C334.642 324.713 336.531 324.475 338.459 322.333L343.41 316.832L337.963 311.931L333.013 317.432Z" fill="#FFF8EC"/>
<path d="M366.063 263.56C366.845 261.453 368.071 259.694 369.741 258.282C371.395 256.916 373.287 256.029 375.418 255.622C377.578 255.277 379.711 255.496 381.818 256.278C383.97 257.077 385.73 258.303 387.096 259.956C388.491 261.672 389.369 263.587 389.731 265.702C390.121 267.879 389.926 270.02 389.144 272.127C388.345 274.279 387.096 276.03 385.396 277.379C383.726 278.791 381.811 279.67 379.651 280.014C377.537 280.376 375.403 280.157 373.251 279.358C371.145 278.577 369.385 277.35 367.973 275.68C366.607 274.027 365.751 272.12 365.407 269.96C365.045 267.846 365.264 265.712 366.063 263.56Z" fill="#FFF8EC"/>
<path d="M397.872 215.396C400.22 217.121 402.07 219.198 403.422 221.629C404.823 224.061 405.489 226.571 405.419 229.159L388.06 228.694L388.184 224.079C388.266 221.003 387.79 218.718 386.755 217.224C385.718 215.779 383.833 215.02 381.098 214.947L364.179 214.494L364.614 198.233L405.925 199.34L405.489 215.6L397.872 215.396Z" fill="#FFF8EC"/>
<path d="M384.86 188.407C383.767 188.668 382.705 188.846 381.673 188.942L375.592 163.501C372.181 164.567 370.793 166.431 371.429 169.091C371.838 170.802 372.917 171.85 374.667 172.235L378.67 188.982C375.683 189.094 372.828 188.495 370.104 187.187C367.44 185.916 365.107 184.037 363.107 181.552C361.166 179.103 359.798 176.216 359.003 172.89C358.049 168.9 358.029 165.138 358.942 161.605C359.867 158.119 361.663 155.128 364.331 152.632C367.058 150.172 370.512 148.443 374.692 147.443C378.873 146.444 382.712 146.431 386.209 147.403C389.765 148.411 392.743 150.261 395.144 152.951C397.557 155.69 399.24 159.054 400.194 163.045C401.147 167.036 401.162 170.774 400.237 174.259C399.372 177.781 397.623 180.761 394.991 183.198C392.37 185.682 388.994 187.419 384.86 188.407ZM384.805 171.469C386.135 171.151 387.03 170.485 387.491 169.471C387.999 168.446 388.1 167.292 387.794 166.009C387.124 163.206 385.378 161.89 382.556 162.062L384.805 171.469Z" fill="#FFF8EC"/>
<path d="M346.74 99.0058C350.447 96.7345 354.037 95.3943 357.51 94.985C361.05 94.5919 364.205 95.0653 366.973 96.4051C369.784 97.7194 372.031 99.7511 373.715 102.5C375.119 104.791 375.839 107.042 375.877 109.253C375.981 111.481 375.489 113.53 374.401 115.4L390.207 105.715L398.706 119.585L352.472 147.912L343.974 134.042L348.785 131.094C346.625 131.215 344.555 130.736 342.576 129.657C340.665 128.594 339.007 126.917 337.603 124.626C335.919 121.877 335.109 118.965 335.172 115.89C335.278 112.789 336.288 109.763 338.205 106.813C340.188 103.88 343.033 101.277 346.74 99.0058ZM361.631 123.31C363.505 122.161 364.67 120.789 365.124 119.193C365.578 117.597 365.346 116.049 364.427 114.55C363.509 113.05 362.235 112.141 360.607 111.821C358.979 111.501 357.227 111.915 355.353 113.063C353.479 114.212 352.315 115.584 351.86 117.18C351.406 118.776 351.638 120.324 352.557 121.823C353.475 123.322 354.749 124.232 356.377 124.552C358.005 124.872 359.757 124.458 361.631 123.31Z" fill="#FFF8EC"/>
<path d="M363.797 67.3538L325.75 105.985L314.161 94.5704L352.208 55.9396L363.797 67.3538Z" fill="#FFF8EC"/>
<path d="M291.517 80.4828C287.964 78.3341 285.208 75.6688 283.251 72.4869C281.293 69.3051 280.321 65.8627 280.334 62.16C280.414 58.4407 281.566 54.7419 283.791 51.0636C286.015 47.3853 288.743 44.668 291.975 42.9117C295.273 41.1388 298.786 40.3804 302.513 40.6364C306.24 40.8924 309.88 42.0947 313.433 44.2434C316.986 46.3921 319.741 49.0573 321.699 52.2392C323.656 55.4211 324.595 58.8717 324.515 62.591C324.502 66.2938 323.383 69.9843 321.159 73.6626C318.934 77.3409 316.173 80.0664 312.874 81.8393C309.643 83.5956 306.164 84.3458 302.436 84.0898C298.709 83.8338 295.069 82.6315 291.517 80.4828ZM298.797 68.4448C300.093 69.2284 301.483 69.3841 302.967 68.9118C304.477 68.3976 305.838 67.1374 307.052 65.1311C308.265 63.1248 308.736 61.3546 308.465 59.8206C308.219 58.2448 307.449 57.065 306.153 56.2814C304.857 55.4978 303.454 55.363 301.945 55.8771C300.46 56.3494 299.111 57.5888 297.898 59.5951C296.684 61.6014 296.18 63.3799 296.384 64.9304C296.655 66.4644 297.459 67.6359 298.797 68.4448Z" fill="#FFF8EC"/>
<path d="M266.567 39.5096C269.453 40.9172 271.475 42.9299 272.633 45.5476C273.849 48.1286 274.127 50.8719 273.467 53.7774C272.46 58.2072 270.203 61.301 266.698 63.0588C263.251 64.7798 258.788 65.0176 253.311 63.7722L226.803 57.7454L238.304 7.15988L264.097 13.0242C269.242 14.1938 273.036 16.2337 275.48 19.1439C277.924 22.054 278.659 25.6526 277.684 29.9395C277.013 32.8927 275.658 35.2147 273.621 36.9055C271.642 38.5595 269.29 39.4275 266.567 39.5096ZM249.682 30.486L255.827 31.883C257.256 32.2079 258.369 32.1604 259.166 31.7404C260.01 31.3313 260.568 30.5313 260.839 29.3405C261.12 28.102 260.969 27.1158 260.384 26.3818C259.858 25.6109 258.88 25.0631 257.452 24.7382L251.307 23.3411L249.682 30.486ZM252.773 50.2746C254.202 50.5995 255.309 50.5758 256.095 50.2035C256.94 49.7943 257.503 48.9705 257.784 47.7321C258.336 45.3028 257.207 43.7687 254.397 43.1298L247.181 41.4891L245.556 48.6339L252.773 50.2746Z" fill="#FFF8EC"/>
<path d="M189.607 47.7639C187.387 48.112 185.253 47.9027 183.204 47.1361C181.204 46.3619 179.505 45.145 178.107 43.4852C176.751 41.7696 175.898 39.8018 175.55 37.5819C175.195 35.3138 175.404 33.1795 176.178 31.1793C176.993 29.1232 178.234 27.4205 179.901 26.0713C181.609 24.6663 183.573 23.7897 185.793 23.4417C188.061 23.0861 190.199 23.3195 192.207 24.1419C194.256 24.9085 195.958 26.1496 197.315 27.8652C198.664 29.5326 199.517 31.5003 199.872 33.7685C200.22 35.9883 200.011 38.1226 199.245 40.1711C198.47 42.1714 197.226 43.8499 195.51 45.2067C193.843 46.5559 191.875 47.4083 189.607 47.7639Z" fill="#FFF8EC"/>
<path d="M132.131 43.5325C132.496 40.6421 133.411 38.0151 134.878 35.6517C136.321 33.2449 138.191 31.4424 140.486 30.2443L148.522 45.6382L144.43 47.7745C141.702 49.1987 139.937 50.7262 139.135 52.3571C138.377 53.9653 138.631 55.9819 139.897 58.4068L147.73 73.411L133.31 80.9389L114.185 44.3053L128.605 36.7774L132.131 43.5325Z" fill="#FFF8EC"/>
<path d="M114.84 68.0678C115.602 68.8932 116.278 69.7325 116.866 70.5856L97.6473 88.3308C100.246 90.785 102.55 91.0843 104.56 89.2286C105.852 88.0356 106.238 86.5819 105.719 84.8673L118.37 73.1863C119.927 75.7373 120.801 78.5203 120.992 81.5353C121.186 84.4814 120.688 87.4344 119.499 90.3944C118.312 93.2854 116.462 95.8907 113.95 98.2103C110.935 100.994 107.664 102.851 104.135 103.782C100.643 104.68 97.1554 104.576 93.6735 103.469C90.1944 102.293 86.9968 100.126 84.0807 96.968C81.1646 93.8097 79.2756 90.4677 78.4136 86.942C77.5544 83.3472 77.7113 79.8448 78.8843 76.4347C80.0931 72.9915 82.2049 69.8782 85.2196 67.0946C88.2342 64.311 91.4879 62.4703 94.9805 61.5725C98.4758 60.6056 101.93 60.6742 105.343 61.7781C108.791 62.8489 111.957 64.9455 114.84 68.0678ZM100.093 76.3986C99.1654 75.3937 98.1465 74.9383 97.0366 75.0323C95.8935 75.0905 94.8375 75.5669 93.8685 76.4616C91.751 78.4167 91.4573 80.5828 92.9873 82.9599L100.093 76.3986Z" fill="#FFF8EC"/>
<path d="M45.3494 119.755C46.6632 117.412 48.2879 115.663 50.2234 114.508C52.1163 113.329 54.1445 112.758 56.3078 112.795L51.3865 110.036L59.3054 95.9109L94.7131 115.762C98.0792 117.649 100.801 119.987 102.877 122.775C104.954 125.563 106.047 128.808 106.156 132.509C106.289 136.168 105.149 140.149 102.737 144.452C99.4878 150.247 95.5445 154.084 90.9065 155.964C86.335 157.825 81.5957 157.689 76.6886 155.553L84.4999 141.62C86.5897 142.288 88.3871 141.28 89.892 138.595C90.8236 136.934 91.1261 135.395 90.7995 133.98C90.4728 132.565 89.1378 131.2 86.7943 129.886L82.5121 127.486C83.6722 129.312 84.2645 131.352 84.289 133.606C84.2709 135.836 83.6049 138.123 82.2911 140.466C80.7145 143.278 78.5688 145.407 75.854 146.853C73.0967 148.276 69.9629 148.871 66.4529 148.639C62.9241 148.341 59.2636 147.128 55.4714 145.002C51.6792 142.876 48.7567 140.398 46.7038 137.567C44.6321 134.669 43.505 131.685 43.3223 128.615C43.0971 125.521 43.7728 122.567 45.3494 119.755ZM69.41 120.14C67.4926 119.065 65.7266 118.719 64.1119 119.102C62.4973 119.485 61.26 120.443 60.4 121.977C59.5401 123.511 59.368 125.067 59.8838 126.644C60.3996 128.221 61.6162 129.547 63.5336 130.622C65.451 131.697 67.217 132.043 68.8316 131.66C70.4462 131.277 71.6835 130.319 72.5435 128.785C73.4035 127.251 73.5756 125.696 73.0598 124.118C72.544 122.541 71.3274 121.215 69.41 120.14Z" fill="#FFF8EC"/>
<path d="M26.0564 179.417C26.5379 176.774 27.5063 174.592 28.9618 172.871C30.3692 171.141 32.1019 169.942 34.16 169.275L28.6094 168.264L31.5111 152.333L71.4467 159.607C75.2433 160.298 78.5765 161.625 81.4463 163.588C84.3162 165.551 86.4038 168.264 87.709 171.73C89.0231 175.147 89.238 179.282 88.3539 184.136C87.1634 190.672 84.6802 195.582 80.9043 198.866C77.1851 202.111 72.6583 203.521 67.3238 203.095L70.1862 187.381C72.3795 187.333 73.7518 185.796 74.3033 182.768C74.6447 180.894 74.4311 179.341 73.6625 178.108C72.894 176.876 71.1881 176.019 68.545 175.538L63.7152 174.658C65.4056 176.009 66.6284 177.746 67.3836 179.869C68.0907 181.984 68.2035 184.363 67.7221 187.006C67.1444 190.178 65.8066 192.889 63.7087 195.138C61.5627 197.379 58.7922 198.96 55.3972 199.88C51.9628 200.744 48.107 200.787 43.8299 200.008C39.5528 199.229 35.9837 197.834 33.1226 195.823C30.2222 193.756 28.187 191.3 27.0169 188.455C25.7989 185.601 25.4787 182.589 26.0564 179.417ZM48.9376 171.966C46.775 171.572 44.9923 171.819 43.5896 172.705C42.1868 173.592 41.3279 174.9 41.0127 176.63C40.6976 178.36 41.0401 179.887 42.0402 181.211C43.0403 182.535 44.6217 183.394 46.7842 183.788C48.9468 184.182 50.7295 183.936 52.1322 183.05C53.535 182.163 54.3939 180.855 54.7091 179.125C55.0242 177.395 54.6817 175.868 53.6816 174.543C52.6815 173.219 51.1002 172.36 48.9376 171.966Z" fill="#FFF8EC"/>
<path d="M20.116 219.707C20.2977 222.535 19.6878 224.85 18.2862 226.653C16.8847 228.457 15.0384 229.432 12.7472 229.579C10.4074 229.729 8.42702 229 6.80621 227.391C5.13666 225.785 4.21105 223.568 4.02937 220.741C3.85083 217.962 4.4867 215.67 5.93699 213.864C7.33853 212.06 9.20924 211.083 11.5491 210.933C13.8403 210.786 15.7962 211.517 17.417 213.126C19.0378 214.735 19.9375 216.929 20.116 219.707ZM22.8897 211.453L64.13 208.803L65.1731 225.036L23.9327 227.686L22.8897 211.453Z" fill="#FFF8EC"/>
<path d="M43.5344 247.677C43.2855 244.476 43.996 241.712 45.6659 239.388C47.2745 237.031 49.4987 235.401 52.3384 234.498C56.6677 233.122 60.4782 233.5 63.77 235.631C67.0004 237.731 69.4666 241.457 71.1685 246.811L79.4046 272.717L29.9663 288.434L21.9522 263.226C20.3539 258.199 20.1899 253.894 21.4602 250.312C22.7306 246.73 25.4606 244.274 29.6503 242.942C32.5365 242.024 35.2247 242.015 37.7148 242.915C40.1436 243.783 42.0835 245.37 43.5344 247.677ZM44.3105 266.805L42.4014 260.8C41.9574 259.404 41.3525 258.468 40.5867 257.994C39.806 257.473 38.8338 257.398 37.67 257.768C36.4597 258.153 35.6862 258.783 35.3495 259.659C34.9516 260.503 34.9746 261.624 35.4186 263.02L37.3277 269.025L44.3105 266.805ZM59.8047 254.114C59.3607 252.717 58.7791 251.775 58.0598 251.286C57.2792 250.765 56.2837 250.697 55.0734 251.082C52.6992 251.837 51.9487 253.587 52.8219 256.334L55.0641 263.387L62.0469 261.167L59.8047 254.114Z" fill="#FFF8EC"/>
</g>
<g filter="url(#filter1_d_399_10431)">
<path d="M214.953 218.283H215.289C215.495 218.417 215.7 218.568 215.914 218.691C224.987 223.916 232.842 230.562 239.302 238.799C245.628 246.853 249.875 255.849 251.247 266.08C251.484 267.854 251.641 269.625 251.838 271.405V273.273H238.021C237.967 260.333 228.25 250.604 215.244 250.507H214.981C201.975 250.604 192.258 260.333 192.204 273.273H178.388V271.405C178.585 269.625 178.741 267.854 178.978 266.08C180.35 255.849 184.597 246.853 190.923 238.799C197.392 230.562 205.247 223.916 214.311 218.691C214.551 218.562 214.748 218.417 214.953 218.283Z" fill="#FFF8EC"/>
<path d="M215.121 258.419C207.166 258.419 200.718 264.868 200.718 272.823C200.718 280.778 207.166 287.226 215.121 287.226C223.076 287.226 229.525 280.778 229.525 272.823C229.525 264.868 223.076 258.419 215.121 258.419Z" fill="#FFF8EC"/>
<path d="M206.938 209.932V210.268C206.804 210.473 206.653 210.679 206.53 210.893C201.305 219.966 194.659 227.821 186.422 234.281C178.368 240.607 169.372 244.854 159.141 246.226C157.367 246.462 155.596 246.619 153.816 246.816H151.948V233C164.888 232.946 174.617 223.228 174.714 210.222V209.96C174.617 196.954 164.888 187.237 151.948 187.182V173.366H153.816C155.596 173.563 157.367 173.72 159.141 173.957C169.372 175.329 178.368 179.576 186.422 185.902C194.659 192.371 201.305 200.226 206.53 209.29C206.659 209.529 206.804 209.726 206.938 209.932Z" fill="#FFF8EC"/>
<path d="M152.399 195.696C144.444 195.696 137.995 202.145 137.995 210.1C137.995 218.055 144.444 224.504 152.399 224.504C160.353 224.504 166.802 218.055 166.802 210.1C166.802 202.145 160.353 195.696 152.399 195.696Z" fill="#FFF8EC"/>
<path d="M215.289 201.917H214.953C214.748 201.783 214.542 201.632 214.328 201.509C205.255 196.284 197.4 189.638 190.94 181.401C184.614 173.347 180.367 164.351 178.995 154.12C178.759 152.346 178.602 150.575 178.405 148.795V146.927H192.212C192.267 159.867 201.984 169.596 214.99 169.693H215.252C228.258 169.596 237.976 159.867 238.03 146.927H251.846V148.795C251.649 150.575 251.492 152.346 251.256 154.12C249.884 164.351 245.637 173.347 239.311 181.401C232.842 189.638 224.987 196.284 215.923 201.509C215.692 201.637 215.495 201.783 215.289 201.917Z" fill="#FFF8EC"/>
<path d="M215.121 132.974C207.166 132.974 200.718 139.423 200.718 147.378C200.718 155.333 207.166 161.781 215.121 161.781C223.076 161.781 229.525 155.333 229.525 147.378C229.525 139.423 223.076 132.974 215.121 132.974Z" fill="#FFF8EC"/>
<path d="M223.304 210.269V209.932C223.438 209.727 223.589 209.521 223.712 209.307C228.937 200.235 235.583 192.38 243.82 185.919C251.875 179.593 260.87 175.346 271.101 173.974C272.875 173.738 274.646 173.581 276.426 173.384H278.294V187.191C265.354 187.246 255.625 196.963 255.528 209.969V210.232C255.625 223.238 265.354 232.955 278.294 233.009V246.825H276.426C274.646 246.628 272.875 246.472 271.101 246.235C260.87 244.863 251.875 240.616 243.82 234.29C235.583 227.821 228.937 219.966 223.712 210.902C223.584 210.671 223.438 210.474 223.304 210.269Z" fill="#FFF8EC"/>
<path d="M277.844 195.696C269.889 195.696 263.44 202.145 263.44 210.1C263.44 218.055 269.889 224.504 277.844 224.504C285.799 224.504 292.247 218.055 292.247 210.1C292.247 202.145 285.799 195.696 277.844 195.696Z" fill="#FFF8EC"/>
</g>
<defs>
<filter id="filter0_d_399_10431" x="0" y="7.15991" width="409.925" height="409.422" filterUnits="userSpaceOnUse" color-interpolation-filters="sRGB">
<feFlood flood-opacity="0" result="BackgroundImageFix"/>
<feColorMatrix in="SourceAlpha" type="matrix" values="0 0 0 0 0 0 0 0 0 0 0 0 0 0 0 0 0 0 127 0" result="hardAlpha"/>
<feOffset dy="4"/>
<feGaussianBlur stdDeviation="2"/>
<feComposite in2="hardAlpha" operator="out"/>
<feColorMatrix type="matrix" values="0 0 0 0 0 0 0 0 0 0 0 0 0 0 0 0 0 0 0.25 0"/>
<feBlend mode="normal" in2="BackgroundImageFix" result="effect1_dropShadow_399_10431"/>
<feBlend mode="normal" in="SourceGraphic" in2="effect1_dropShadow_399_10431" result="shape"/>
</filter>
<filter id="filter1_d_399_10431" x="133.995" y="132.974" width="162.253" height="162.252" filterUnits="userSpaceOnUse" color-interpolation-filters="sRGB">
<feFlood flood-opacity="0" result="BackgroundImageFix"/>
<feColorMatrix in="SourceAlpha" type="matrix" values="0 0 0 0 0 0 0 0 0 0 0 0 0 0 0 0 0 0 127 0" result="hardAlpha"/>
<feOffset dy="4"/>
<feGaussianBlur stdDeviation="2"/>
<feComposite in2="hardAlpha" operator="out"/>
<feColorMatrix type="matrix" values="0 0 0 0 0 0 0 0 0 0 0 0 0 0 0 0 0 0 0.25 0"/>
<feBlend mode="normal" in2="BackgroundImageFix" result="effect1_dropShadow_399_10431"/>
<feBlend mode="normal" in="SourceGraphic" in2="effect1_dropShadow_399_10431" result="shape"/>
</filter>
</defs>
</svg>
