<svg id="Layer_1" data-name="Layer 1" xmlns="http://www.w3.org/2000/svg" viewBox="0 0 1920 1080"><defs><style>.cls-1{fill:#233a74;}.cls-2{fill:#f05924;}.cls-3{fill:#fff;}.cls-4{fill:#f05922;}.cls-5{fill:#f15a26;}</style></defs><path class="cls-1" d="M879.77,723.69c0,20.11-18,40-54,40H760.08v-117c0-13.79,12.06-25.09,27-25.09h38.69c30.83,0,46.34,19.73,46.34,39.45a38,38,0,0,1-14.17,29.49C872.49,698.22,879.77,710.86,879.77,723.69Zm-54-44c12.25,0,18.38-8.43,18.38-16.67,0-8.42-6.13-16.66-18.38-16.66h-37V739h37c17.42,0,26-8.61,26-17.23s-8.62-17.43-26-17.43h-35L806,679.65Z"/><path class="cls-1" d="M929.37,744.76l15.32-24.71H983l-24.32-69.7L919,763.72H888.38l41.75-118.93c5-14.17,13.6-25.09,28.54-25.09s23.55,10.92,28.53,25.09L1029,763.72H998.31l-6.7-19Z"/><path class="cls-1" d="M1047.71,646.32h-28.34v-24.7H1063Zm10,117.4v-117c0-13.79,12.07-25.09,27-25.09h42.51v24.7H1086.4v117.4Z"/><path class="cls-1" d="M1167.59,646.32h-28.34v-24.7h43.66Zm10,117.4v-117c0-13.79,12.07-25.09,27-25.09h42.52v24.7h-40.79v117.4Z"/><path class="cls-1" d="M1362.93,739l13.4,24.71H1293.6c-14.94,0-27-11.3-27-25.09v-117h28.73V739Z"/><path class="cls-1" d="M1414.44,739h73.35l13.4,24.71h-88.48c-14.93,0-27-11.3-27-25.09V646.71c0-13.79,12.07-25.09,27-25.09h88.48l-13.4,24.7h-73.35V681H1482v24.7h-67.6Z"/><path class="cls-2" d="M801.61,568.3l17.59-28.36h44l-27.92-80-45.5,130.13H754.57l47.92-136.51c5.72-16.27,15.61-28.8,32.75-28.8s27,12.53,32.76,28.8l47.92,136.51H880.75l-7.7-21.76Z"/><path class="cls-2" d="M968.67,427V590.06h-33V427Z"/><path class="cls-2" d="M1099,568.3l17.58-28.36h44l-27.92-80-45.5,130.13H1052l47.92-136.51c5.71-16.27,15.61-28.8,32.75-28.8s27,12.53,32.76,28.8l47.92,136.51h-35.18l-7.69-21.76Z"/><path class="cls-2" d="M1264.54,590.06h-33V455.75c0-15.83,13.85-28.8,31-28.8H1307c34.73,0,63.09,21.1,63.09,55.4v6.15c0,26.38-16.71,45.07-40.45,52.1l44.18,49.46h-41.1L1292,543.9h-25.28l17.58-28.36H1307c16.7,0,30.11-8.57,30.11-27v-6.15c0-18.47-13.41-27-30.11-27h-42.43Z"/><path class="cls-2" d="M1421.49,455.31H1389V427h50.12Zm11.43,134.75V455.75c0-15.83,13.85-28.8,31-28.8h48.8v28.36h-46.82V590.06Z"/><g id="Brush"><path class="cls-1" d="M958.89,388.67c-3.91-16.78-11.57-32.1-23.43-46.84C927,331.26,918,323.58,908.07,318.35c-15.8-8.32-31.61-8.59-45.89-.88l-1.35-1.07c-2.52-2-5.12-4.16-8-6.19-4-2.79-8-5.23-11.94-7.59l-.42-.26a95.54,95.54,0,0,0-9.33-5.65c-4.23-2.3-9.47-4.94-15.59-7.85-4.44-2.12-7.54-3.51-7.57-3.52l-8-3.56-.76-.34c-6.16-2.76-12-5.37-18-7.91C724.7,249.67,673.47,231.32,624.6,217.4c-10.74-3.06-21.65-5.28-32.21-7.43l-.25-.05c-2.82-.58-5.65-1.15-8.45-1.74a42,42,0,0,0-12.69-.36c-6.39.6-11.52,4.19-13.73,9.6s-1.06,11.47,3,16.31a64.66,64.66,0,0,0,10,9.65c15.55,11.87,32.36,21.25,49.66,30.6a1458.63,1458.63,0,0,0,140.59,66.48c4.55,1.86,9,3.6,13.73,5.44l.19.07,5.81,2.27a83.74,83.74,0,0,0,8.45,3.33c4.31,1.51,9.88,3.3,16.56,5.3l.57.17.33.1c4.27,1.27,7.16,2.09,7.17,2.09A178.06,178.06,0,0,0,834.54,364c2.5.37,5.05.66,7.65.83A45.62,45.62,0,0,0,853.58,384a48.59,48.59,0,0,0,28.3,14.73,57.37,57.37,0,0,0,16.7-.06c1.5-.21,3-.44,4.57-.69,3.91-.6,7.61-1.18,11.16-1.42,6.77-.45,14.11,1.16,23.07,5.06l1.41.62c.63.28,1.27.57,1.9.83l.2.09a13.48,13.48,0,0,0,4.78,1h0a12.66,12.66,0,0,0,13.18-15.51Z"/><path class="cls-1" d="M792.93,339.63a2.56,2.56,0,0,1-.37-1.11c-.51-15.26,5-27.9,16.66-37.8a2.65,2.65,0,0,1,.89-.44c-4.23-2-7.25-3.37-7.25-3.37A54.28,54.28,0,0,0,789.67,315c-3,6.78-4.09,13.95-4.24,21.68A67.37,67.37,0,0,0,792.93,339.63Z"/><path class="cls-1" d="M831.07,312.8c1.08-.8,1.19-.73,2.4.13a77.25,77.25,0,0,0-8.38-5.1c-10.19,10.27-15.62,22.38-16.15,36.91,4.52,1.36,7.82,2.3,7.82,2.3C815.44,335.62,822.26,319.29,831.07,312.8Z"/><path class="cls-2" d="M785.43,336.65c.15-7.73,1.26-14.9,4.24-21.68a54.28,54.28,0,0,1,13.19-18.06c-9.15-4-17.8-8-26.57-11.72-50.69-21.4-102.22-40.54-155.16-55.62-13.14-3.75-26.66-6.2-40-9a30.41,30.41,0,0,0-8.89-.14c-3.34.32-4.38,2.59-2.24,5.13a52.27,52.27,0,0,0,8,7.77c15,11.45,31.47,20.58,48,29.53a1439.71,1439.71,0,0,0,139.37,65.9C771.89,331.42,778.48,333.92,785.43,336.65Z"/><path class="cls-3" d="M946.57,391.55c-3.68-15.76-11-29.43-21-41.79-6.56-8.16-14.1-15.3-23.43-20.21-11.84-6.23-23.86-7.16-35.71,0a33.45,33.45,0,0,0-6.49,5.68l.15,0c19.25-5.68,35.55-1,49.23,13.38-1.86-1.06-3.69-2.15-5.58-3.16-11.2-6-23-8.93-35.69-6.32a78.5,78.5,0,0,0-11.63,3.78,4,4,0,0,0-1.92,2.11,2,2,0,0,0-.15.45c-3,11.49.3,21.46,8.31,29.78,9.31,9.66,20.95,12.81,34.1,10.92,5.55-.8,11.1-1.83,16.68-2.21,10.17-.67,19.72,2.07,29,6.08l3.27,1.44A4.42,4.42,0,0,0,946.57,391.55Z"/><path class="cls-2" d="M846.1,352.4c3.27-14.08,3.27-14.08,10-23.61-3.48-2.73-6.87-5.66-10.51-8.22-3.89-2.73-8-5.18-12.08-7.64-1.21-.86-1.32-.93-2.4-.13-8.81,6.49-15.63,22.82-14.31,34.24C826.35,349.69,836,352.14,846.1,352.4Z"/><path class="cls-3" d="M808.94,344.74c.53-14.53,6-26.64,16.15-36.91-4.92-2.68-10.6-5.46-15-7.55a2.65,2.65,0,0,0-.89.44c-11.65,9.9-17.17,22.54-16.66,37.8a2.56,2.56,0,0,0,.37,1.11C798,341.39,804.14,343.3,808.94,344.74Z"/></g><g id="Roboarm"><path class="cls-1" d="M780.3,348.23,774.49,346l-.19-.07-2.17-.85c-6.57,12.67-13.16,25.32-19.64,38-1.32,2.61-2.48,3.2-5.22,1.71-11.7-6.3-23.53-12.37-35.31-18.53-1-.52-1.91-1.1-3.51-2,2-.92,3.37-1.62,4.77-2.16,4.49-1.73,9-3.53,13.52-5.05a4.73,4.73,0,0,1,3.6.52c3.48,2.33,6.77,4.93,10.13,7.43,5,3.73,8,3.43,12.1-1.35,5.59-6.54,11.14-13.12,16.71-19.67-2.93-1.15-5.8-2.29-8.71-3.48-1.53-.64-3.06-1.26-4.59-1.91q-4.51,5.35-9,10.74c-1.35,1.62-2.36,1.9-4.11.53-5-3.92-10.21-7.64-15.25-11.57a8.3,8.3,0,0,1-2.72-3.3q-2.22-5.81-4.41-11.64c-.67-1.76-1.34-3.53-2-5.29q-4.44-11.81-8.78-23.65a8.89,8.89,0,0,1-.42-4.57c1.15-6.06,2.62-12.06,3.79-18.13.53-2.74,1.67-3.77,4.5-2.94a42.27,42.27,0,0,0,5.89.93c10.14,1.49,20.29,3.07,30.45,4.43,4.75.65,7.2-1.24,8.48-5.92.2-.73.41-1.47.61-2.22l1.08-4c.18-.66.36-1.32.53-2,1.78-6.39.46-9-5.73-11.41Q727.6,236.32,696.34,224c-7.07-2.79-9.87-1.58-12.59,5.4l-.75,1.94-1.51,3.89q-10,25.77-20,51.53a6.05,6.05,0,0,1-2.43,3.14,7.12,7.12,0,0,1-1.61.8l-3.24,1.17q-8.41,3-16.74,6.32c-4.75,1.85-6.07,4.95-4.44,9.76.67,2,1.35,3.94,2.25,6.52l-13.38,4.32q-66.43,21.46-132.86,43a9,9,0,0,1-6.89-.42,49.39,49.39,0,0,0-33.47-2.77c-22.83,6.18-36.53,21.14-40.64,44.48-5.13,29.05,17.31,58.33,46.82,61.2a4.94,4.94,0,0,1,4.66,3.3q29.31,66,58.66,132a8.59,8.59,0,0,1,.34,5.63,68.36,68.36,0,0,0,2,49.68,7.66,7.66,0,0,1,.42,4.48c-4.34,17-8.82,34-13.22,51-.5,1.91-1.46,2.66-3.53,2.63-7.44-.12-14.87-.1-22.31,0-11.73.12-21.92,8.14-23.32,19.7-1.08,8.88-.62,18-.52,26.95,0,3.28,3,5.51,6.39,5.71,1.57.08,3.15.08,4.72.08H694.39c2.09,0,4.2,0,6.29,0,4.85-.13,7.3-2.59,7.32-7.43,0-7,.06-14,0-21.06a24,24,0,0,0-24-24c-7.12-.06-14.25-.15-21.37.06-2.87.1-4-.93-4.69-3.6-4.18-16.31-8.55-32.58-12.67-48.91a10.23,10.23,0,0,1,.43-6c5.62-13.8,7.31-28,3.58-42.46-7.09-27.36-24.64-44.44-52.13-51.29a7.35,7.35,0,0,1-4-2.61q-41.21-59.32-82.23-118.76c-2.64-3.83-1.52-7.93,2.74-9.81q15.51-6.84,31.05-13.61,52.77-23.14,105.52-46.27c5-2.21,5-2.31,7,3,.3.78.58,1.57.91,2.33,1.9,4.3,5.27,5.71,9.75,4.07s9-3.34,13.53-5.06c9.38-3.6,9.34-3.53,18.19,1.12,16.57,8.74,33.19,17.36,49.82,26,4.51,2.35,8.16,1.43,10.37-2.81q12.57-24.09,25-48.22C783,349.44,781.51,348.82,780.3,348.23Zm-99.61-73.61q6.33-16.38,12.72-32.74a19.88,19.88,0,0,1,.92-2.18c.8-1.53,1.54-1.24,4.46-.08q22,8.67,44,17.36a8.71,8.71,0,0,1,3.35,2.2l0,0L724,256c-4.75-.7-9.5-1.51-14.26-2.14a6.73,6.73,0,0,0-7.66,5c-1.1,4.25-2,8.56-2.8,12.86-.49,2.48-1.13,4.17-4.15,4.92-4.63,1.16-9,3.28-13.52,5-1,.35-2,.61-4,1.22C678.89,279.44,679.76,277,680.69,274.62ZM421,410.58a40.22,40.22,0,1,1,80.43.77c-.06,21.93-18.51,40-40.62,39.78A40.27,40.27,0,0,1,421,410.58ZM640.91,713H525c-3.77,0-3.93-.29-3-3.94,2.84-10.81,5.64-21.64,8.47-32.47.29-1.09.75-2.13,1.34-3.85,14.23,15.06,31.06,22.92,51.19,22.92s36.73-7.85,51.18-23.1c3.61,13.82,7,26.8,10.54,40.26C643.12,712.87,642,713,640.91,713Zm-3.45-85.85a54.51,54.51,0,1,1-54.54-54.24C613,572.91,637.46,597.3,637.46,627.12ZM577.38,559.4c-20.67,2.43-36.88,11.41-49.64,28.06C509.21,545.9,491,505,472.59,463.65A58,58,0,0,0,500.3,448Zm70.53-203.47q-60.17,26.22-120.22,52.57c-3.08,1.34-6.12,2.73-9.19,4.05-.92.4-1.89.66-3.48,1.2.39-15.83-4.67-29.18-15.6-40.87,4.09-1.41,7.65-2.72,11.27-3.88q34.65-11.16,69.31-22.29c18.82-6.06,37.64-12.12,56.41-18.31,2.94-1,4.23-.39,5.25,2.57,2.43,7,5.17,13.94,7.86,20.86C650.27,353.8,650.12,355,647.91,355.93Zm23,7.59c-1.65.61-2.52.1-3.11-1.49q-9.49-25.39-19-50.78c-.67-1.77-.31-2.73,1.44-3.37q10.34-3.84,20.66-7.72,5.31-2,10.63-4l10.42-3.94c2.43-.92,2.68.87,3.2,2.22,2.49,6.53,4.93,13.07,7.39,19.6.16.46.33.91.5,1.37h0l1.94,5.17q4.25,11.29,8.51,22.61c.32.87.59,1.78,1,3.11a8,8,0,0,1-1.93,1.47Q691.74,355.68,670.9,363.52Z"/><path class="cls-3" d="M582.92,572.88a54.63,54.63,0,1,0,54.54,54.24C637.46,597.3,613,572.91,582.92,572.88Zm0,81.26A26.66,26.66,0,0,1,556.23,627c.09-14.37,12.48-26.51,26.91-26.34a26.73,26.73,0,0,1-.25,53.46Z"/><path class="cls-2" d="M577.38,559.4c-20.67,2.43-36.88,11.4-49.65,28.06L472.59,463.65A58,58,0,0,0,500.3,448Z"/><path class="cls-1" d="M582.82,752H475.67c-4.27,0-4.28,0-4.28-4.38,0-3.45-.08-6.91,0-10.37A10.54,10.54,0,0,1,482,726.6c1.46-.05,2.93,0,4.4,0H681.52c9.19,0,12.85,3.72,12.86,13,0,3.25-.06,6.5,0,9.74.05,1.87-.65,2.75-2.55,2.65-.94-.05-1.88,0-2.83,0Z"/><path class="cls-2" d="M515,413.75c.4-15.83-4.67-29.18-15.61-40.87,4.09-1.41,7.66-2.71,11.28-3.88q34.63-11.16,69.3-22.29c18.82-6.07,37.64-12.12,56.42-18.31,2.94-1,4.23-.39,5.25,2.57,2.43,7,5.17,13.93,7.86,20.86.76,2,.6,3.13-1.62,4.1q-60.14,26.2-120.22,52.57c-3.07,1.34-6.11,2.73-9.19,4.06C517.58,413,516.61,413.21,515,413.75Z"/><path class="cls-3" d="M461.42,370.68a40.23,40.23,0,0,0-.61,80.45c22.11.2,40.56-17.85,40.62-39.78A40.27,40.27,0,0,0,461.42,370.68Zm-.47,62.2a22.05,22.05,0,0,1-21.86-22.4,22.06,22.06,0,1,1,44.11.77A22,22,0,0,1,461,432.88Z"/><path class="cls-2" d="M531.86,672.71c14.23,15.06,31.06,22.93,51.18,22.92s36.73-7.85,51.19-23.1c3.61,13.81,7,26.8,10.54,40.26-1.65.08-2.75.18-3.86.18H525c-3.77,0-3.94-.29-3-3.94,2.84-10.82,5.64-21.65,8.47-32.46C530.81,675.48,531.26,674.43,531.86,672.71Z"/><path class="cls-3" d="M714.49,346.32a8.21,8.21,0,0,1-1.93,1.47c-13.87,5.27-27.78,10.48-41.66,15.73-1.65.62-2.52.1-3.11-1.49q-9.48-25.41-19-50.78c-.67-1.77-.3-2.73,1.43-3.37,13.92-5.19,27.83-10.37,41.71-15.64,2.44-.92,2.69.87,3.21,2.23,3.32,8.69,6.56,17.42,9.84,26.13q4.25,11.31,8.5,22.61C713.76,344.09,714,345,714.49,346.32Z"/><path class="cls-3" d="M677.65,282.77c1.24-3.34,2.11-5.76,3-8.15q6.35-16.38,12.72-32.74c1.48-3.8,1.49-3.8,5.39-2.26q22,8.67,44.05,17.36a8.66,8.66,0,0,1,3.38,2.24L724,256c-4.75-.71-9.5-1.5-14.27-2.14a6.72,6.72,0,0,0-7.65,5c-1.1,4.25-2,8.56-2.8,12.86-.49,2.48-1.13,4.16-4.15,4.92-4.63,1.17-9,3.27-13.53,5C680.64,281.91,679.65,282.16,677.65,282.77Z"/><path class="cls-3" d="M772.13,345.05c-6.57,12.67-13.16,25.32-19.64,38-1.32,2.61-2.48,3.2-5.22,1.71-11.7-6.3-23.53-12.37-35.31-18.53-1-.52-1.91-1.1-3.51-2,2-.92,3.37-1.62,4.77-2.16,4.49-1.73,9-3.53,13.52-5.05a4.73,4.73,0,0,1,3.6.52c3.48,2.33,6.77,4.93,10.13,7.43,5,3.73,8,3.43,12.1-1.35,5.59-6.54,11.14-13.12,16.71-19.67Z"/><path class="cls-1" d="M583.14,600.68c-14.43-.17-26.82,12-26.91,26.34a26.67,26.67,0,1,0,26.91-26.34ZM583,640.57a13.1,13.1,0,1,1,13-13A13,13,0,0,1,583,640.57Z"/><path class="cls-1" d="M461.09,388.76a22.3,22.3,0,0,0-22,21.72,22.06,22.06,0,1,0,22-21.72Zm.22,30.43a8.4,8.4,0,0,1-8.63-8.11,8.66,8.66,0,0,1,8.52-8.68,8.49,8.49,0,0,1,8.38,8.42A8.14,8.14,0,0,1,461.31,419.19Z"/><path class="cls-3" d="M583.17,614.38a13.1,13.1,0,1,1-13.29,13A13,13,0,0,1,583.17,614.38Z"/><path class="cls-3" d="M461.3,419.19a8.4,8.4,0,0,1-8.62-8.11,8.66,8.66,0,0,1,8.52-8.68,8.47,8.47,0,0,1,8.37,8.42A8.11,8.11,0,0,1,461.3,419.19Z"/></g><rect class="cls-4" x="460" y="837.9" width="111.96" height="1.22"/><rect class="cls-4" x="1388.08" y="837.9" width="111.96" height="1.22"/><path class="cls-5" d="M600.33,822.83v27H595.9v-27Z"/><path class="cls-5" d="M636.64,829.13a7.61,7.61,0,0,1,3.15,3.11,10.13,10.13,0,0,1,1.15,5v12.64h-4.4v-12a6.24,6.24,0,0,0-1.44-4.42,5.83,5.83,0,0,0-7.87,0,6.16,6.16,0,0,0-1.46,4.42v12h-4.4v-12a6.24,6.24,0,0,0-1.44-4.42,5.1,5.1,0,0,0-3.92-1.53,5.2,5.2,0,0,0-4,1.53,6.2,6.2,0,0,0-1.46,4.42v12h-4.43V828.43h4.43v2.45a7.42,7.42,0,0,1,2.76-2.06,8.66,8.66,0,0,1,3.58-.74,9.49,9.49,0,0,1,4.59,1.09,7.39,7.39,0,0,1,3.11,3.15,7.24,7.24,0,0,1,3-3.1,9.06,9.06,0,0,1,4.44-1.14A9.64,9.64,0,0,1,636.64,829.13Z"/><path class="cls-5" d="M646.44,833.33a9.76,9.76,0,0,1,8.77-5.25,9.34,9.34,0,0,1,4.41,1,9,9,0,0,1,3,2.47v-3.11h4.47v21.43h-4.47v-3.19a8.83,8.83,0,0,1-3.08,2.52,10,10,0,0,1-9.48-.4,10,10,0,0,1-3.64-4A12.14,12.14,0,0,1,645.1,839,11.78,11.78,0,0,1,646.44,833.33Zm15.28,1.94a6.38,6.38,0,0,0-2.39-2.49,6.25,6.25,0,0,0-3.19-.85,6.26,6.26,0,0,0-5.58,3.28,7.67,7.67,0,0,0-.91,3.83,8,8,0,0,0,.91,3.89,6.39,6.39,0,0,0,2.41,2.55,6.25,6.25,0,0,0,6.36,0,6.37,6.37,0,0,0,2.39-2.51,7.86,7.86,0,0,0,.92-3.87A7.75,7.75,0,0,0,661.72,835.27Z"/><path class="cls-5" d="M686,829.07a8.38,8.38,0,0,1,3,2.47v-3.11h4.48V850.2a11,11,0,0,1-1.25,5.28,9,9,0,0,1-3.6,3.63,11.28,11.28,0,0,1-5.62,1.32,12.2,12.2,0,0,1-7.23-2,7.54,7.54,0,0,1-3.27-5.54h4.4a4.74,4.74,0,0,0,2.16,2.7,7.25,7.25,0,0,0,3.94,1,5.9,5.9,0,0,0,4.34-1.63A6.39,6.39,0,0,0,689,850.2v-3.57a9,9,0,0,1-3,2.54,9.07,9.07,0,0,1-4.37,1,9.64,9.64,0,0,1-5.12-1.41,10,10,0,0,1-3.65-4,12.14,12.14,0,0,1-1.35-5.78,11.78,11.78,0,0,1,1.35-5.71,9.76,9.76,0,0,1,8.77-5.25A9.52,9.52,0,0,1,686,829.07Zm2.1,6.2a6.45,6.45,0,0,0-2.39-2.49,6.27,6.27,0,0,0-3.19-.85,6.46,6.46,0,0,0-3.19.83,6.33,6.33,0,0,0-2.39,2.45A7.67,7.67,0,0,0,676,839a8,8,0,0,0,.92,3.89,6.39,6.39,0,0,0,2.41,2.55,6.22,6.22,0,0,0,3.17.88,6.28,6.28,0,0,0,3.19-.86,6.44,6.44,0,0,0,2.39-2.51,7.85,7.85,0,0,0,.91-3.87A7.75,7.75,0,0,0,688.09,835.27Z"/><path class="cls-5" d="M699.54,824.77a2.84,2.84,0,0,1,2-4.86,2.7,2.7,0,0,1,2,.82,2.9,2.9,0,0,1,0,4,2.7,2.7,0,0,1-2,.82A2.74,2.74,0,0,1,699.54,824.77Zm4.2,3.66v21.43h-4.43V828.43Z"/><path class="cls-5" d="M724.92,829.13a7.45,7.45,0,0,1,3.13,3.11,10.24,10.24,0,0,1,1.13,5v12.64h-4.4v-12a6.24,6.24,0,0,0-1.44-4.42,5.11,5.11,0,0,0-3.92-1.53,5.2,5.2,0,0,0-3.95,1.53,6.2,6.2,0,0,0-1.46,4.42v12h-4.43V828.43H714v2.45a7.34,7.34,0,0,1,2.78-2.06,8.79,8.79,0,0,1,3.6-.74A9.64,9.64,0,0,1,724.92,829.13Z"/><path class="cls-5" d="M754.3,840.79H737.93a6,6,0,0,0,1.9,4.13,6,6,0,0,0,4.2,1.55,5.2,5.2,0,0,0,5.06-3h4.78a9.66,9.66,0,0,1-3.52,4.84A10.3,10.3,0,0,1,744,850.2a11,11,0,0,1-5.5-1.37,9.83,9.83,0,0,1-3.81-3.89,11.9,11.9,0,0,1-1.38-5.82,12.18,12.18,0,0,1,1.34-5.81,9.38,9.38,0,0,1,3.77-3.87,11.2,11.2,0,0,1,5.58-1.36,10.92,10.92,0,0,1,5.41,1.32,9.34,9.34,0,0,1,3.69,3.71,11.23,11.23,0,0,1,1.33,5.51A14.14,14.14,0,0,1,754.3,840.79Zm-4.47-3.57a5,5,0,0,0-1.75-3.93,6.25,6.25,0,0,0-4.24-1.48,5.71,5.71,0,0,0-3.93,1.46,6.05,6.05,0,0,0-1.94,4Z"/><path class="cls-5" d="M791.13,849.86H786.7l-13.34-20.19v20.19h-4.44V822.79h4.44l13.34,20.14V822.79h4.43Z"/><path class="cls-5" d="M816.45,840.79H800.07a5.91,5.91,0,0,0,6.11,5.68,5.21,5.21,0,0,0,5.06-3H816a9.66,9.66,0,0,1-3.52,4.84,10.32,10.32,0,0,1-6.32,1.88,11,11,0,0,1-5.5-1.37,9.83,9.83,0,0,1-3.81-3.89,11.9,11.9,0,0,1-1.39-5.82,12.07,12.07,0,0,1,1.35-5.81,9.38,9.38,0,0,1,3.77-3.87,11.2,11.2,0,0,1,5.58-1.36,11,11,0,0,1,5.41,1.32,9.34,9.34,0,0,1,3.69,3.71,11.23,11.23,0,0,1,1.32,5.51A14.22,14.22,0,0,1,816.45,840.79ZM812,837.22a5,5,0,0,0-1.75-3.93,6.22,6.22,0,0,0-4.23-1.48,5.69,5.69,0,0,0-3.93,1.46,6.11,6.11,0,0,0-1.95,4Z"/><path class="cls-5" d="M828.46,829.09a9.33,9.33,0,0,1,4.4-1,9.73,9.73,0,0,1,8.75,5.25,12,12,0,0,1,1.32,5.71,12.37,12.37,0,0,1-1.32,5.78,9.92,9.92,0,0,1-3.64,4,9.63,9.63,0,0,1-5.11,1.41,9.31,9.31,0,0,1-4.36-1,9.64,9.64,0,0,1-3.11-2.47V860H821V828.43h4.43v3.15A8.94,8.94,0,0,1,828.46,829.09Zm9,6.12a6.33,6.33,0,0,0-2.42-2.45,6.5,6.5,0,0,0-3.2-.83,6.33,6.33,0,0,0-5.58,3.34,7.75,7.75,0,0,0-.92,3.85,7.86,7.86,0,0,0,.92,3.87,6.29,6.29,0,0,0,8.78,2.49,6.41,6.41,0,0,0,2.42-2.55,8.07,8.07,0,0,0,.91-3.89A7.78,7.78,0,0,0,837.51,835.21Z"/><path class="cls-5" d="M847.19,833.33a9.76,9.76,0,0,1,8.77-5.25,9.34,9.34,0,0,1,4.41,1,9,9,0,0,1,3,2.47v-3.11h4.47v21.43h-4.47v-3.19a8.83,8.83,0,0,1-3.08,2.52,10,10,0,0,1-9.48-.4,10,10,0,0,1-3.64-4,12.14,12.14,0,0,1-1.34-5.78A11.78,11.78,0,0,1,847.19,833.33Zm15.28,1.94a6.38,6.38,0,0,0-2.39-2.49,6.25,6.25,0,0,0-3.19-.85,6.26,6.26,0,0,0-5.58,3.28,7.67,7.67,0,0,0-.91,3.83,8,8,0,0,0,.91,3.89,6.39,6.39,0,0,0,2.41,2.55,6.25,6.25,0,0,0,6.36,0,6.37,6.37,0,0,0,2.39-2.51,7.86,7.86,0,0,0,.92-3.87A7.75,7.75,0,0,0,862.47,835.27Z"/><path class="cls-5" d="M878.13,821.08v28.78h-4.44V821.08Z"/><path class="cls-5" d="M892.9,825.55v-4H901v28.36h-4.47V825.55Z"/><path class="cls-5" d="M909.37,824.79q2.28-3.79,7.84-3.79t7.84,3.79q2.26,3.8,2.27,10.52T925.05,846q-2.28,3.82-7.84,3.83T909.37,846q-2.26-3.84-2.27-10.64T909.37,824.79ZM922.56,830a7.23,7.23,0,0,0-1.65-3.56,5.64,5.64,0,0,0-7.39,0,7.24,7.24,0,0,0-1.66,3.56,29.69,29.69,0,0,0-.41,5.33,32.25,32.25,0,0,0,.39,5.48,6.83,6.83,0,0,0,1.66,3.58,5.74,5.74,0,0,0,7.42,0,6.83,6.83,0,0,0,1.66-3.58,32.25,32.25,0,0,0,.39-5.48A29.69,29.69,0,0,0,922.56,830Z"/><path class="cls-5" d="M934.3,824.79q2.28-3.79,7.84-3.79t7.84,3.79q2.26,3.8,2.27,10.52T950,846q-2.28,3.82-7.84,3.83T934.3,846Q932,842.11,932,835.31T934.3,824.79ZM947.49,830a7.24,7.24,0,0,0-1.66-3.56,5.64,5.64,0,0,0-7.39,0,7.14,7.14,0,0,0-1.65,3.56,29.69,29.69,0,0,0-.41,5.33,32.25,32.25,0,0,0,.39,5.48,6.89,6.89,0,0,0,1.65,3.58,5.75,5.75,0,0,0,7.43,0,6.83,6.83,0,0,0,1.66-3.58,33.32,33.32,0,0,0,.39-5.48A29.69,29.69,0,0,0,947.49,830Z"/><path class="cls-5" d="M987.68,822.83l-8.95,17.22v9.81H974.3v-9.81l-9-17.22h4.94l6.26,13.26,6.26-13.26Z"/><path class="cls-5" d="M1010.66,840.79H994.29a5.91,5.91,0,0,0,6.11,5.68,5.19,5.19,0,0,0,5.05-3h4.79a9.72,9.72,0,0,1-3.52,4.84,10.32,10.32,0,0,1-6.32,1.88,11.07,11.07,0,0,1-5.51-1.37,9.83,9.83,0,0,1-3.81-3.89,11.9,11.9,0,0,1-1.38-5.82,12.18,12.18,0,0,1,1.34-5.81,9.46,9.46,0,0,1,3.78-3.87,11.2,11.2,0,0,1,5.58-1.36,10.91,10.91,0,0,1,5.4,1.32,9.37,9.37,0,0,1,3.7,3.71,11.23,11.23,0,0,1,1.32,5.51A13,13,0,0,1,1010.66,840.79Zm-4.47-3.57a5,5,0,0,0-1.75-3.93,6.23,6.23,0,0,0-4.24-1.48,5.71,5.71,0,0,0-3.93,1.46,6.14,6.14,0,0,0-1.94,4Z"/><path class="cls-5" d="M1015,833.33a9.76,9.76,0,0,1,8.77-5.25,9.37,9.37,0,0,1,4.41,1,9,9,0,0,1,3,2.47v-3.11h4.47v21.43h-4.47v-3.19a8.83,8.83,0,0,1-3.08,2.52,9.36,9.36,0,0,1-4.43,1,9.49,9.49,0,0,1-5.06-1.41,10,10,0,0,1-3.63-4,12.14,12.14,0,0,1-1.34-5.78A11.78,11.78,0,0,1,1015,833.33Zm15.28,1.94a6.38,6.38,0,0,0-2.39-2.49,6.25,6.25,0,0,0-3.19-.85,6.26,6.26,0,0,0-5.58,3.28,7.67,7.67,0,0,0-.91,3.83,8,8,0,0,0,.91,3.89,6.39,6.39,0,0,0,2.41,2.55,6.25,6.25,0,0,0,6.36,0,6.37,6.37,0,0,0,2.39-2.51,7.86,7.86,0,0,0,.92-3.87A7.75,7.75,0,0,0,1030.32,835.27Z"/><path class="cls-5" d="M1048.56,829a7.64,7.64,0,0,1,3.83-.91v4.59h-1.13a5.39,5.39,0,0,0-3.94,1.32c-.9.88-1.34,2.41-1.34,4.59v11.28h-4.44V828.43H1046v3.11A6.93,6.93,0,0,1,1048.56,829Z"/><path class="cls-5" d="M1059.72,849.29a8,8,0,0,1-3.17-2.49,6.23,6.23,0,0,1-1.24-3.52h4.59a3.14,3.14,0,0,0,1.3,2.28,4.72,4.72,0,0,0,3,.91,5,5,0,0,0,2.89-.72,2.15,2.15,0,0,0,1-1.84,1.88,1.88,0,0,0-1.14-1.79,21.81,21.81,0,0,0-3.64-1.29,35.83,35.83,0,0,1-3.93-1.28,6.91,6.91,0,0,1-2.62-1.91,5,5,0,0,1-1.11-3.38,5.31,5.31,0,0,1,1-3.13,6.72,6.72,0,0,1,2.9-2.24,10.86,10.86,0,0,1,4.33-.81,9,9,0,0,1,5.9,1.84,6.67,6.67,0,0,1,2.39,5h-4.44a3.11,3.11,0,0,0-1.16-2.29,4.37,4.37,0,0,0-2.84-.86,4.65,4.65,0,0,0-2.69.66,2.06,2.06,0,0,0-.93,1.75,1.91,1.91,0,0,0,.62,1.44,4.43,4.43,0,0,0,1.52.91q.9.33,2.64.84a30.91,30.91,0,0,1,3.84,1.26,7.16,7.16,0,0,1,2.58,1.89,5,5,0,0,1,1.13,3.31,5.57,5.57,0,0,1-1,3.26,6.8,6.8,0,0,1-2.86,2.26,11.88,11.88,0,0,1-8.87-.1Z"/><path class="cls-5" d="M1091.79,822.83v27h-4.44v-27Z"/><path class="cls-5" d="M1113,829.13a7.39,7.39,0,0,1,3.13,3.11,10.13,10.13,0,0,1,1.13,5v12.64h-4.39v-12a6.24,6.24,0,0,0-1.44-4.42,5.14,5.14,0,0,0-3.93-1.53,5.21,5.21,0,0,0-4,1.53,6.2,6.2,0,0,0-1.46,4.42v12h-4.43V828.43h4.43v2.45a7.42,7.42,0,0,1,2.78-2.06,8.79,8.79,0,0,1,3.6-.74A9.58,9.58,0,0,1,1113,829.13Z"/><path class="cls-5" d="M1128,832v11.87a2.27,2.27,0,0,0,.57,1.73,2.78,2.78,0,0,0,1.92.52h2.72v3.7h-3.5a6.74,6.74,0,0,1-4.59-1.41c-1.06-.93-1.59-2.45-1.59-4.54V832H1121v-3.61h2.53V823.1H1128v5.33h5.21V832Z"/><path class="cls-5" d="M1141.14,848.83a9.93,9.93,0,0,1-3.85-3.89,11.79,11.79,0,0,1-1.4-5.82,11.46,11.46,0,0,1,1.44-5.79,9.93,9.93,0,0,1,3.93-3.89,12,12,0,0,1,11.12,0,9.93,9.93,0,0,1,3.93,3.89,11.46,11.46,0,0,1,1.44,5.79,11.35,11.35,0,0,1-1.48,5.8,10.3,10.3,0,0,1-4,3.91,11.71,11.71,0,0,1-5.62,1.37A11.06,11.06,0,0,1,1141.14,848.83Zm8.69-3.29a6.22,6.22,0,0,0,2.43-2.45,7.9,7.9,0,0,0,.94-4,8,8,0,0,0-.9-4,6.16,6.16,0,0,0-2.37-2.43,6.55,6.55,0,0,0-3.19-.81,6.42,6.42,0,0,0-3.17.81,5.9,5.9,0,0,0-2.31,2.43,8.38,8.38,0,0,0-.86,4,7.52,7.52,0,0,0,1.77,5.35,5.83,5.83,0,0,0,4.45,1.89A6.66,6.66,0,0,0,1149.83,845.54Z"/><path class="cls-5" d="M1177.42,832v11.87a2.27,2.27,0,0,0,.57,1.73,2.78,2.78,0,0,0,1.92.52h2.72v3.7h-3.5a6.74,6.74,0,0,1-4.59-1.41c-1.06-.93-1.59-2.45-1.59-4.54V832h-2.53v-3.61H1173V823.1h4.47v5.33h5.21V832Z"/><path class="cls-5" d="M1202.18,829.13a7.46,7.46,0,0,1,3,3.11,10.35,10.35,0,0,1,1.11,5v12.64h-4.4v-12a6.24,6.24,0,0,0-1.44-4.42,5.1,5.1,0,0,0-3.92-1.53,5.2,5.2,0,0,0-4,1.53,6.2,6.2,0,0,0-1.46,4.42v12h-4.43V821.08h4.43v9.84a7.4,7.4,0,0,1,2.86-2.1,9.42,9.42,0,0,1,3.79-.74A9,9,0,0,1,1202.18,829.13Z"/><path class="cls-5" d="M1231.44,840.79h-16.37a6,6,0,0,0,1.9,4.13,6,6,0,0,0,4.2,1.55,5.2,5.2,0,0,0,5.06-3H1231a9.6,9.6,0,0,1-3.52,4.84,10.3,10.3,0,0,1-6.32,1.88,11,11,0,0,1-5.5-1.37,9.83,9.83,0,0,1-3.81-3.89,11.9,11.9,0,0,1-1.38-5.82,12.18,12.18,0,0,1,1.34-5.81,9.38,9.38,0,0,1,3.77-3.87,11.2,11.2,0,0,1,5.58-1.36,10.92,10.92,0,0,1,5.41,1.32,9.34,9.34,0,0,1,3.69,3.71,11.12,11.12,0,0,1,1.33,5.51A14.14,14.14,0,0,1,1231.44,840.79Zm-4.47-3.57a5,5,0,0,0-1.75-3.93,6.25,6.25,0,0,0-4.24-1.48,5.71,5.71,0,0,0-3.93,1.46,6.05,6.05,0,0,0-1.94,4Z"/><path class="cls-5" d="M1262,822.83v3.61H1250.5v8h8.94V838h-8.94v11.83h-4.44v-27Z"/><path class="cls-5" d="M1285.5,828.43v21.43h-4.43v-2.53a7.25,7.25,0,0,1-2.75,2.08,8.73,8.73,0,0,1-3.59.76,9.58,9.58,0,0,1-4.53-1A7.6,7.6,0,0,1,1267,846a10.11,10.11,0,0,1-1.14-5v-12.6h4.39v11.94a6.21,6.21,0,0,0,1.44,4.41,5.14,5.14,0,0,0,3.93,1.54,5.22,5.22,0,0,0,3.95-1.54,6.17,6.17,0,0,0,1.46-4.41V828.43Z"/><path class="cls-5" d="M1296.5,832v11.87a2.27,2.27,0,0,0,.57,1.73,2.78,2.78,0,0,0,1.92.52h2.73v3.7h-3.5a6.71,6.71,0,0,1-4.59-1.41c-1.07-.93-1.6-2.45-1.6-4.54V832h-2.53v-3.61H1292V823.1h4.47v5.33h5.22V832Z"/><path class="cls-5" d="M1325.2,828.43v21.43h-4.43v-2.53a7.21,7.21,0,0,1-2.74,2.08,8.81,8.81,0,0,1-3.6.76,9.64,9.64,0,0,1-4.53-1,7.63,7.63,0,0,1-3.15-3.12,10.12,10.12,0,0,1-1.15-5v-12.6h4.4v11.94a6.21,6.21,0,0,0,1.44,4.41,5.14,5.14,0,0,0,3.93,1.54,5.2,5.2,0,0,0,3.94-1.54,6.13,6.13,0,0,0,1.46-4.41V828.43Z"/><path class="cls-5" d="M1338.06,829a7.62,7.62,0,0,1,3.83-.91v4.59h-1.13a5.42,5.42,0,0,0-4,1.32c-.89.88-1.34,2.41-1.34,4.59v11.28H1331V828.43h4.43v3.11A7,7,0,0,1,1338.06,829Z"/><path class="cls-5" d="M1365.46,840.79h-16.38a5.91,5.91,0,0,0,6.11,5.68,5.19,5.19,0,0,0,5-3H1365a9.66,9.66,0,0,1-3.52,4.84,10.32,10.32,0,0,1-6.32,1.88,11,11,0,0,1-5.5-1.37,9.79,9.79,0,0,1-3.82-3.89,11.9,11.9,0,0,1-1.38-5.82,12.18,12.18,0,0,1,1.34-5.81,9.46,9.46,0,0,1,3.78-3.87,11.2,11.2,0,0,1,5.58-1.36,10.91,10.91,0,0,1,5.4,1.32,9.3,9.3,0,0,1,3.7,3.71,11.23,11.23,0,0,1,1.32,5.51A14.22,14.22,0,0,1,1365.46,840.79Zm-4.48-3.57a5,5,0,0,0-1.75-3.93,6.23,6.23,0,0,0-4.24-1.48,5.69,5.69,0,0,0-3.92,1.46,6.11,6.11,0,0,0-2,4Z"/></svg>