<svg id="Layer_1" data-name="Layer 1" xmlns="http://www.w3.org/2000/svg" viewBox="0 0 1920 1080"><defs><style>.cls-1{fill:#f05924;}.cls-2{fill:#fff;}.cls-3{fill:none;}.cls-4{fill:#233a74;}</style></defs><path class="cls-1" d="M915.42,323.4a8,8,0,0,1-8-8V62.13a8,8,0,0,1,16.09,0V315.36A8,8,0,0,1,915.42,323.4Z"/><path class="cls-1" d="M935.37,63.13a20,20,0,1,0-20,19.95A20,20,0,0,0,935.37,63.13Z"/><path class="cls-2" d="M1181.48,707.7C1181.48,847.62,991.34,859,909.77,859s-258-11.37-258-151.29,176.45-253.35,258-253.35S1181.48,567.78,1181.48,707.7Z"/><path class="cls-1" d="M909.77,867c-65.79,0-120.44-8-162.42-23.69-31.15-11.67-55.66-27.73-72.86-47.74-20.42-23.78-30.78-53.36-30.78-87.91,0-86.83,63.45-153.36,101.27-185.29,53.92-45.52,120.14-76.1,164.79-76.1s115.14,31.23,171.45,75.95c40.44,32.12,108.3,98.93,108.3,185.44,0,34.61-11.14,64.26-33.11,88.12-18.34,19.91-44.42,35.92-77.52,47.58C1034.36,859.08,977.46,867,909.77,867Zm0-404.64c-40.48,0-104,29.73-154.41,72.3-35.69,30.13-95.57,92.67-95.57,173,0,118.4,135.94,143.25,250,143.25,65.87,0,121-7.64,163.77-22.72,66.29-23.35,99.9-63.9,99.9-120.53,0-79.76-64-142.53-102.23-172.84C1017.49,492.19,951.1,462.4,909.77,462.4Z"/><path class="cls-2" d="M705.29,380c0,31.17-28,56.44-45.67,56.44S624.89,411.12,624.89,380,642,323.5,659.62,323.5,705.29,348.77,705.29,380Z"/><path class="cls-1" d="M659.62,444.43c-23.18,0-42.77-29.53-42.77-64.48s19.59-64.49,42.77-64.49c23.67,0,53.71,30.36,53.71,64.49S683.29,444.43,659.62,444.43Zm0-112.89c-12.34,0-26.68,21.15-26.68,48.41s14.34,48.4,26.68,48.4c12.55,0,37.63-20.93,37.63-48.4S672.17,331.54,659.62,331.54Z"/><path class="cls-2" d="M1205.94,380c0,31.17-17.06,56.44-34.73,56.44s-45.67-25.27-45.67-56.44,28-56.45,45.67-56.45S1205.94,348.77,1205.94,380Z"/><path class="cls-1" d="M1171.21,444.43c-23.67,0-53.71-30.36-53.71-64.48s30-64.49,53.71-64.49c23.18,0,42.77,29.53,42.77,64.49S1194.39,444.43,1171.21,444.43Zm0-112.89c-12.55,0-37.63,20.93-37.63,48.41s25.08,48.4,37.63,48.4c12.34,0,26.68-21.15,26.68-48.4S1183.55,331.54,1171.21,331.54Z"/><path class="cls-2" d="M1168.48,399.17c0,139.76-113.3,192-253.07,192S662.35,538.93,662.35,399.17s113.3-217.92,253.06-217.92S1168.48,259.41,1168.48,399.17Z"/><path class="cls-1" d="M915.42,599.16c-77,0-138.68-15.11-183.41-44.91-51.55-34.36-77.7-86.54-77.7-155.08,0-68.89,26.67-126.86,77.11-167.62,46.55-37.62,111.89-58.34,184-58.34s137.44,20.72,184,58.34c50.44,40.76,77.11,98.73,77.11,167.62,0,68.54-26.15,120.72-77.7,155.08C1054.09,584.05,992.39,599.16,915.42,599.16Zm0-409.87c-122,0-245,64.9-245,209.88,0,160,153.51,183.91,245,183.91s245-23.9,245-183.91C1160.43,254.19,1037.37,189.29,915.42,189.29Z"/><ellipse class="cls-3" cx="809.74" cy="355.96" rx="31.99" ry="72.91"/><ellipse class="cls-3" cx="1021.09" cy="355.96" rx="31.99" ry="72.91"/><path class="cls-1" d="M1438.57,415.8a49,49,0,0,0-7.83-10.38c-13.82-14-31.67-22.81-50.82-26.87-1.45-.31-2.74-.52-3.82-.68a238.29,238.29,0,0,1-29.75-23c6.92-2.36,14.79-5.5,22.16-11.05l.7-.53c9.4-7.09,19.2-14.58,24.23-25.55,2.69-5.88,7.26-8.1,12-12.14A57.46,57.46,0,0,0,1419.4,289c7.73-12,3.49-24.11-4.3-30.87a27.21,27.21,0,0,0-18.9-6.56,29.62,29.62,0,0,0-15.81,5.3c-3,2-8,3.65-13.23,5.36l-.28.1a37.43,37.43,0,0,1-10.43,1.73,83.82,83.82,0,0,1-17.81-1.67l-2.36-.44c-8.1-1.5-17.29-3.2-27.65-2.84-.86,0-1.74.08-2.6.14a61.14,61.14,0,0,0-34.89,14c-8.47,6.88-15.52,14.26-22.33,21.4l-1.23,1.28c-2.56,2.69-5.12,5.4-7.6,8a42.94,42.94,0,0,0-10.07-2.41h-.06a32.77,32.77,0,0,0-5.76-.33,28.8,28.8,0,0,0-9.26,1.86,39.41,39.41,0,0,0-15.12-2.4c-1.12,0-2.26.12-3.4.25-15,.95-22.79,10.28-25.2,18.63-.29.35-.57.71-.84,1.07a24.06,24.06,0,0,0-3.81,7.73c-.72-.33-1.45-.64-2.2-.93a52.63,52.63,0,0,0-11.38-3.09c-.62-.12-1.21-.22-1.57-.3-1.46-.32-2.9-.61-4.33-.89a23.09,23.09,0,0,0-3.84-8,25.82,25.82,0,0,0-16.32-9.87l-.62-.17c-4.21-1.17-8.56-2.38-13.11-3.47-8.5-2-16-3.73-23-5.21-2.88-.61-5.58-1-8-1.39-1.63-.25-3.16-.48-4.46-.73-3.29-.65-6.55-1.33-10-2-5.83-1.22-11.85-2.47-18-3.54-5.23-.91-10.25-1.5-15.11-2.07-2.67-.32-5.19-.62-7.65-.95l-5-.7c-5-.69-10.09-1.41-15.29-2-4.09-.48-8.16-.88-12.1-1.28l-6.75-.69c-6.49-.69-13.43-1.47-21.24-2.39-6.26-.74-13-1.33-20.73-1.81-4.2-.26-8.22-.35-12.11-.44-5.06-.11-9.84-.22-14.18-.7-5.52-.6-10.84-.72-15.53-.82-2.39-.05-4.65-.1-6.78-.21-13.12-.65-27.21-1.22-41.42-.9-7.51.16-15.5.39-24.43.7-35.16,1.23-71.27,3.06-106.06,8.48-1.76.28-3.54.53-5.31.79a178,178,0,0,0-19.6,3.59c-2.71.7-5.43,1.37-8.31,2.07-6.89,1.69-14,3.43-21.28,5.69-11.62,3.6-20.63,10.57-25.39,19.62A32.31,32.31,0,0,0,644,341.45a32.81,32.81,0,0,0,1.42,3.27,24.38,24.38,0,0,0-3,9.84,27.33,27.33,0,0,0-3,5.81c-3.24,8.64-.77,17.15,3.5,24.91,1.82,3.31,6.44,7.94,7.14,11.57.56,2.91-2.57,7.61-3.19,10.69-2.05,10.1-.48,19.63,4.55,27.53,8.44,13.29,23.44,17.15,38.39,14.56,8.16-1.41,15.9-4.47,23.41-7.85,6.92-3.1,14.35-4.15,21.88-5.29,17.1-2.6,34.49-2.68,51.74-2,43.14,1.72,85.54,10.37,128.44,14.74,20.56,2.09,40.86,4.37,61.5,4.51q13.17.08,26.32-.56a486.16,486.16,0,0,0,61.11-7.07c19.75-3.51,40.6-7.82,59.29-15.29q16.65-5.64,32.81-12.6c4.61-2,9.58-3.61,13.62-6.66,1.42-1.07,9.37-8.19,8.13-10.37a26.61,26.61,0,0,0,14.26,11.72,43.32,43.32,0,0,0,16.13,2.69,35.18,35.18,0,0,0,17-5l1.27-.79a28,28,0,0,0,6.82.6,29.22,29.22,0,0,0,7.64-1.31,34.78,34.78,0,0,0,4.65-1.82c1.8,1.82,3.6,3.61,5.37,5.38,3,3,6.17,6.15,9.17,9.21a52.28,52.28,0,0,0,14.11,9.82c.94.48,2,1,2.47,1.33,6.61,4.24,13.13,6.74,18.88,8.95l.82.31a68.34,68.34,0,0,0,16.82,3.77c1.33.17,2.59.33,3.56.5a72.41,72.41,0,0,0,15.34.92c2.35-.08,4.61-.24,6.6-.38,1.37-.09,2.66-.18,3.86-.24,5.66-.27,10.88-.93,15.94-1.57,2.83-.35,5.51-.69,8.07-.93,1.14-.11,2.31-.18,3.48-.22,7.8-.28,16.19.89,26.39,3.68a24.64,24.64,0,0,1,4,1.31,28.31,28.31,0,0,0,17.89,5.63,27.38,27.38,0,0,0,16.4-6.16C1446,439.57,1444.59,426.58,1438.57,415.8Z"/><path class="cls-2" d="M989.34,326.58c3.94-.94,9.84.56,14.14.47,5.21-.11,10.41-.52,15.63-.33,27.19,1,54.62,1.57,81.81,1.68,6.55,0,13.09.94,19.64,1.39.81.06,2.17.4,2.39-.62.29-1.37-1.28-1.21-2.15-1.45-4.63-1.28-9.26-2.59-13.93-3.71-7.42-1.77-14.85-3.48-22.31-5.07-4-.84-8-1.26-12-2-9.17-1.79-18.27-3.88-27.48-5.47-7.23-1.25-14.58-1.89-21.87-2.88-6.58-.91-13.17-1.88-19.75-2.65-6.17-.72-12.39-1.29-18.58-1.94q-10.77-1.14-21.54-2.43c-6.38-.75-12.83-1.27-19.28-1.67-9.17-.57-18.37-.24-27.53-1.25-6.86-.75-13.86-.56-20.75-.9-33.42-1.68-66.8-.62-100.18,1.61-22.1,1.47-44.45,3-66.35,6.38-7.5,1.17-15.12,2-22.42,3.87-9.45,2.43-19,4.51-28.35,7.4-7.2,2.24-14.59,7.71-11.2,16.71,1,2.58,2,3.9,4.94,3.43,5.57-.88,11.1-2,16.65-3,6.6-1.11,13-3.08,19.67-3.83,5.41-.61,10.62-2.53,16-3.21,11.14-1.42,22.16-3.5,33.34-4.73,11.51-1.26,23-3,34.55-3.49,13.77-.61,27.53-1.61,41.35-.34,9,.83,18,1.38,27,2,2.64.17,11.09-.67,13.08,1,3.21,2.62-4.47,2.13-5.3,2.1-16.3-.57-32.36.21-48.62.21-7.8.46-15.55,1.76-23.3,2.82-6.85.93-13.63,2.5-20.51,3-8.44.57-16.54,2.62-24.77,4.1-15.64,2.82-31.23,5.94-46.83,9-7.79,1.54-15.84,3.84-23.75,4.61-5.56.55-9.5,1.16-12.53,6.54-.54,1-1.77,2-.92,3.19s2.5.66,3.82.47c3.25-.46,6.49-1,9.74-1.43,1.25-.16,2.73-.21,3,1.38s-1.31,1.83-2.47,2.12a102,102,0,0,0-12,3.39c-6.55,2.52-8.45,5.55-5.69,10.15,1,1.59,2.2,3.18,3.28,4.72,2.19,3.14,4.9,6,5.93,9.91,1.64,6.16,2.51,6.44,9.36,4.86.22-.05.46,0,.68-.08,14.57-4.13,30.59-5.2,45.62-6.61q17.36-1.62,34.8-2.11c5.28-.15,10.57-.2,15.85-.36,5.7-.18,11.28,1.11,16.86,1.11,9.12,1.86,18.56,2.55,27.74,4.41,4.71,1,9.49,1.68,14.44,3.43-5.17,1.94-9.74,0-14.18-.49-18.67-2.11-37.51-1.71-56.23-.56-17.64,1.09-35.89,1.61-53.29,4.78-10.66,1.93-21.55,2.71-32,5.53-3.34.9-7.58.36-9.21,4.44a35.18,35.18,0,0,0-2.18,5.65c-.79,3.94-.6,8.11,1.53,11.46,3.32,5.22,7.55,5.72,13.84,3.56,9.87-3.39,19.32-7.74,29.65-10.16A229,229,0,0,1,749,411.49c24.14-2.08,48.45.16,72.52,2.46q37.51,3.58,74.66,10.17c13,2.31,27.55,4.07,40.8,4.07a720.19,720.19,0,0,0,75.49,1.38,259.75,259.75,0,0,0,52-6.93c13.37-3.34,27.18-6,40.34-10.09,12.52-3.9,24.88-8.9,37.12-13.68,3.87-1.5,7.64-3.28,11.55-4.75.91-.34,1.8-.81,1.42-1.83-.76-2-13.75,2.47-15.19,2.89a401.69,401.69,0,0,1-65.92,13c-11,1.31-22.13,2.27-33.24,3q-8.27.52-16.56.85c-1.59.07-13.44,1.53-12.56-1.21.28-.87,1.37-1.13,2.27-1.25,23.74-3.17,47.21-8,70.52-13.44,23-5.36,46.27-10.53,68.81-17.69,7.27-2.31,14.4-5,21.6-7.55,2.45-.85,1.3-1.23-.16-1.73a72.31,72.31,0,0,0-8.49-2,163.12,163.12,0,0,0-17.29-2.72c-18.58-1.91-37.16.23-55.71,1.45-15.75,1-31.51,2.08-47.27,3-32,1.87-67.86,1.94-98.54-8.7-2.83-1-6-1.57-8.27-4.51a13,13,0,0,1,1.93-.06c5.74,1,11.44,2.49,17.23,2.9,8.17.57,16.13,2.26,24.28,2.95,8.64.73,17.23.36,25.79.19,10.65-.21,21.29-1.68,31.93-2.51,7-.55,13.92-1.81,20.87-2.7,10-1.29,19.91-3.34,30-3.78a56.1,56.1,0,0,0,5.81-.35c9.63-1.42,19.36-1.33,29-1.34,9.44,0,18.88.18,28.32.12.76,0,1.81.17,2-.8.24-1.14-1-1.29-1.74-1.62-2.79-1.22-5.89-1.5-8.82-2.13-8.8-1.92-17.8-3-26.63-4.83-7-1.41-14-2.3-21-3.28-19-2.67-38.08-4.67-57.19-6.3q-14.34-1.23-28.7-2.21c-4.78-.33-9.56-.62-14.34-1C995.14,328.77,990.41,329.78,989.34,326.58ZM1274,365.5a1.11,1.11,0,0,0-.67.4c-.53.73.23,1.7.93,2.28q14.6,12.09,29.4,23.91c8.83,7,18.72,13.15,29.67,16.11,3.14.85,2,2.57-.53,2.77a35.65,35.65,0,0,1-8.75-.51,55.11,55.11,0,0,1-15.79-5.46c-8.09-4.14-14.69-9.93-22.21-15a149,149,0,0,0-20.67-11.58c-3.22-1.47-6.2-1.91-7.7,2.21-1.16,3.15,1.55,5.58,3.37,7.82a110.24,110.24,0,0,0,9.1,9.86c18.71,18,42.48,27.7,68.59,25.7,10.88-.84,21.69-2.71,32.6-2.88a105.47,105.47,0,0,1,23.1,2.24c6.94,1.47,15.79,3.23,21.57,7.51.87.65,1.85,1.16,2.76.41s.38-1.82-.2-2.61a69.56,69.56,0,0,0-5.14-6.7c-8.52-9-19.75-15.3-31.46-19.21-5.45-1.81-11.91-2.14-17-4.56a88.39,88.39,0,0,1-17.34-11.35c-7.91-6.41-15.3-13.51-23.88-19a54.64,54.64,0,0,0-16.94-7.41c-1.85-.42-15-2.6-15.36-.42-.25,1.73,4.61,2.59,5.77,3.1,6.34,2.83,12,7.91,17.64,11.89.79.56,1.69,1.4,1.38,2.33-.4,1.2-2.16.93-3.33.42a210,210,0,0,0-37.64-12.23A3.24,3.24,0,0,0,1274,365.5Zm39-41.35a67.55,67.55,0,0,1,14.79.39c1.37.2,2.56.74,2.63,2.06.14,2.67-7.33,2.56-8.91,2.64a61.89,61.89,0,0,0-19.67,4.4c-1.62.64-11.28,3.28-9.81,5.64.49.81,1.62.87,2.57.83,23.37-.87,48.82-4.47,66.9-20.54a56.94,56.94,0,0,0,6-6.15c2.41-2.92,1.94-4.33-1.82-3a193,193,0,0,1-20.81,6c-.94.21-2.2.26-2.58-.62s.77-1.9,1.76-2.34c5.13-2.27,10.48-4.29,15.21-7.23,5.21-3.23,10.72-6.16,16.14-9,2.67-1.41,5.6-2.51,8-4.3,5.59-4.2,11.16-8.46,14.3-14.78.53-1.05,1.81-2,.62-3.06-1-.88-2.31-.31-3.41.44-6,4.11-13,6.36-20,8.61-13.53,4.4-27.38,3.42-41.08.92-8.64-1.58-17.16-3.39-26.09-2.78a35.62,35.62,0,0,0-20.45,8.4c-12,9.71-22.19,21.57-32.81,32.68-.83.87-1.73,2-1.27,3.14.65,1.57,3,1.09,4.47.29,13.22-7.06,24.1-18.25,38-23.88,12.34-5,26-5.22,39.35-5.35,2.76,0,23-1.34,23.1,1s-9.28,3.6-11,3.87a121,121,0,0,1-14.24.93c-4.44.13-8.88.14-13.2,1.33s-8.33,3.3-12.36,5.19c-13.94,6.54-29.13,13.58-39.77,25-.62.67-2.06,1.34-1.28,2.3s2.06.43,3.1-.16a92.52,92.52,0,0,1,10.48-4.49C1290.07,328.4,1301.57,325,1313,324.15Zm-62.76,36.69a39.74,39.74,0,0,0-12.22-30.2c-2.47-2.38-10.2-10-13.67-5.79-2.7,3.24,3.31,9.69,5,12.38,1.33,2.18,3.24,5.94.08,7.61s-4.94-1.78-6.21-3.9c-4.6-7.68-13.89-16.73-23.24-17.95a4,4,0,0,0-3.32.92,3,3,0,0,0-.79,2.92c.6,2.17,4.62,3.85,6.28,5.18a44.62,44.62,0,0,1,7.32,7.41c1.68,2.14,3.7,4.26,4.68,6.84.58,1.55.73,5.28-2,4.19a5.17,5.17,0,0,1-1.8-1.43q-4.27-4.54-8.54-9.11c-2-2.12-4.92-6.83-8.29-6.43s-.66,2.81.55,4.14c5.46,6,9.78,11.76,11.44,19.91a37.25,37.25,0,0,1-3,23.58c-1.42,2.9-3.24,6.32-1.65,9.14s5.8,3,8.9,1.88c5.75-2.11,10-7.2,12.46-12.82s3.42-12.16,3.93-18.36a7.44,7.44,0,0,1,1.52-4.41,3.3,3.3,0,0,1,4.26-.74,4.73,4.73,0,0,1,1.41,3.48c.76,8-.5,16.47-.89,24.48a3.6,3.6,0,0,0,.68,2.85,2.38,2.38,0,0,0,2.81.13,5.92,5.92,0,0,0,1.95-2.28c1.87-3.26,2.57-6.89,3.35-10.52.24-1.1.37-3.77,1.23-4.62,1.21-1.2,2.46-.36,2.47,1.29a3.78,3.78,0,0,0,.28,1.87c1.14,1.91,3.36-.18,3.72-1.51A46,46,0,0,0,1250.23,360.84Z"/><polygon class="cls-4" points="1113.12 829.32 1221.72 829.32 1221.72 652.97 1138.46 652.97 1138.46 684 1113.12 684 1097.6 684 1097.6 668.48 983.31 668.48 983.31 684 973.48 684 973.48 621.94 890.22 621.94 890.22 668.48 874.7 668.48 874.7 746.06 864.88 746.06 864.88 652.97 769.74 652.97 769.74 652.08 611.5 652.08 611.5 827.94 718.44 827.94 718.44 832.31 702.92 832.31 702.92 915.57 718.44 915.57 718.44 977.63 733.95 977.63 733.95 993.15 827.04 993.15 848.25 993.15 935.65 993.15 956.86 993.15 1028.74 993.15 1049.95 993.15 1174.07 993.15 1174.07 863.34 1158.55 863.34 1158.55 847.83 1112.01 847.83 1112.01 829.32 1113.12 829.32"/><path class="cls-2" d="M776.7,803.21v-31h31V710.12H792.21v-31h46.55v93.09h31v31Z"/><path class="cls-2" d="M885.31,803.21v-31h31V725.63H900.82v-31h46.55v77.58h31v31Zm31-124.12v-31h31v31Z"/><path class="cls-2" d="M1056,803.21V725.63h-31v77.58h-31V710.12h15.52V694.6h62.06v15.52H1087v93.09Z"/><path class="cls-2" d="M1118,803.21V787.69h-15.51V725.63H1118V710.12h46.55v-31h31V803.21Zm46.55-31v-31h-31v31Z"/><path class="cls-2" d="M760.07,967V951.52H744.56V889.46H729v-31h15.52V842.91h31v15.52h31v31h-31V936h46.54v31Z"/><path class="cls-2" d="M853.16,967V951.52H837.65V873.94h15.51V858.43h62.06v15.51h15.52v46.55H868.68V936h62.06v31ZM899.71,905V889.46h-31V905Z"/><path class="cls-2" d="M961.77,967V951.52H946.25V873.94h15.52V858.43h62.06v15.51h15.51v31h-31V889.46h-31V936h31V920.49h31v31h-15.51V967Z"/><path class="cls-2" d="M1116.92,967V905h-31V967h-31V842.91h31v31h46.54v15.52H1148V967Z"/><path class="cls-2" d="M761.25,784H744.36v17.87H637.62V678.2h106v17.13h17.63v35.5H744.12v17.62h17.13Zm-35.5-53.12V696.07H673.12v34.76Zm0,53.12V748.7H673.12V784Z"/></svg>