<svg id="Layer_1" data-name="Layer 1" xmlns="http://www.w3.org/2000/svg" viewBox="0 0 1080 1080"><defs><style>.cls-1{fill:#1a1a1a;}.cls-2{fill:#1c6d7e;}</style></defs><path class="cls-1" d="M261.88,513.74h24.24l27.13,77h.28l26.44-77h24v98.34H347.55V536.19h-.28L320,612.08H305.82l-27.27-75.89h-.28v75.89H261.88Z"/><path class="cls-1" d="M407.59,513.74h18.32l37.88,98.34H445.33l-9.23-26H396.85l-9.23,26H369.86ZM401.53,573h30l-14.74-42.28h-.41Z"/><path class="cls-1" d="M469.85,513.74h47q16.25,0,24.38,7t8.12,19.56A28.72,28.72,0,0,1,547.25,552a25.65,25.65,0,0,1-4.82,7.44,19,19,0,0,1-5.44,4.06c-1.79.82-3.1,1.38-3.93,1.65v.28a17.56,17.56,0,0,1,4.75,1.37,14.1,14.1,0,0,1,4.76,3.52,19.11,19.11,0,0,1,3.64,6.26,27.57,27.57,0,0,1,1.45,9.64A87.33,87.33,0,0,0,549,602q1.31,7.09,4.06,10.13H534.58a16.08,16.08,0,0,1-2.28-7q-.34-3.85-.34-7.44a70.94,70.94,0,0,0-.83-11.63,20.29,20.29,0,0,0-3-8.13,12.78,12.78,0,0,0-6-4.75,26.4,26.4,0,0,0-9.71-1.52H487.06v40.5H469.85Zm17.21,44.76H515.3q8.25,0,12.53-3.93t4.27-11.77a18.16,18.16,0,0,0-1.38-7.64,11.1,11.1,0,0,0-3.79-4.62,13.92,13.92,0,0,0-5.51-2.2,36.2,36.2,0,0,0-6.4-.55h-28Z"/><path class="cls-1" d="M649.3,612.08h-11l-2.61-11.57q-6.9,7.85-13.78,10.88a39,39,0,0,1-15.84,3,46.35,46.35,0,0,1-19.76-4.07,43.4,43.4,0,0,1-14.81-11.08,49.56,49.56,0,0,1-9.29-16.39,62.76,62.76,0,0,1,0-39.81,49.41,49.41,0,0,1,9.29-16.38,44.13,44.13,0,0,1,14.81-11.16,45.78,45.78,0,0,1,19.76-4.13,53.57,53.57,0,0,1,15.22,2.13,40.88,40.88,0,0,1,12.88,6.34,35.2,35.2,0,0,1,9.37,10.53A37.09,37.09,0,0,1,648.2,545H631.4a21.17,21.17,0,0,0-8.68-14.6,25,25,0,0,0-7.71-3.71,31.9,31.9,0,0,0-9-1.24,27.57,27.57,0,0,0-13.56,3.16,26.76,26.76,0,0,0-9.3,8.47,38.29,38.29,0,0,0-5.3,12.06,56,56,0,0,0,0,27.54,38.13,38.13,0,0,0,5.3,12.05,26.57,26.57,0,0,0,9.3,8.47,27.57,27.57,0,0,0,13.56,3.17,32.12,32.12,0,0,0,11.71-1.72,23.24,23.24,0,0,0,8.61-5.37,22.55,22.55,0,0,0,5.3-8.61,36.42,36.42,0,0,0,1.93-11.3H607.43V560.29H649.3Z"/><path class="cls-1" d="M664.73,513.74h17.21v98.34H664.73Z"/><path class="cls-1" d="M699,513.74H717.2l44.9,72.44h.27V513.74h16.39v98.34H760.58l-44.76-72.31h-.41v72.31H699Z"/><path class="cls-2" d="M798.85,513.74h79.6v14.87H847.19v83.47H830V528.61H798.85Z"/><path class="cls-2" d="M928.45,511.4a45.78,45.78,0,0,1,19.76,4.13A44.23,44.23,0,0,1,963,526.69a49.76,49.76,0,0,1,9.29,16.38,62.76,62.76,0,0,1,0,39.81A49.91,49.91,0,0,1,963,599.27a43.5,43.5,0,0,1-14.81,11.08,50,50,0,0,1-39.53,0,43.36,43.36,0,0,1-14.8-11.08,49.58,49.58,0,0,1-9.3-16.39,62.76,62.76,0,0,1,0-39.81,49.43,49.43,0,0,1,9.3-16.38,44.09,44.09,0,0,1,14.8-11.16A45.79,45.79,0,0,1,928.45,511.4Zm0,14.05a27.58,27.58,0,0,0-13.57,3.16,26.76,26.76,0,0,0-9.3,8.47,38.29,38.29,0,0,0-5.3,12.06,56,56,0,0,0,0,27.54,38.13,38.13,0,0,0,5.3,12.05,26.57,26.57,0,0,0,9.3,8.47,30.61,30.61,0,0,0,27.13,0,26.57,26.57,0,0,0,9.3-8.47,38.13,38.13,0,0,0,5.3-12.05,56,56,0,0,0,0-27.54,38.29,38.29,0,0,0-5.3-12.06,26.76,26.76,0,0,0-9.3-8.47A27.57,27.57,0,0,0,928.45,525.45Z"/><path class="cls-2" d="M987.94,513.74h43.39q10.45,0,17.07,3a27,27,0,0,1,10.2,7.57,26,26,0,0,1,4.89,9.92,42.22,42.22,0,0,1,1.3,9.92,41.26,41.26,0,0,1-1.3,9.84,26,26,0,0,1-4.89,9.85,26.47,26.47,0,0,1-10.2,7.51q-6.6,3-17.07,3h-26.17v37.74H987.94Zm17.22,46.55h25.2a22.47,22.47,0,0,0,5.92-.83,16.94,16.94,0,0,0,5.58-2.68,13.66,13.66,0,0,0,4.13-5,17,17,0,0,0,1.59-7.78,20.1,20.1,0,0,0-1.38-8,12.82,12.82,0,0,0-3.72-5,13.21,13.21,0,0,0-5.37-2.54,29.11,29.11,0,0,0-6.47-.69h-25.48Z"/><path class="cls-1" d="M100.64,538.84l41.45,63.76a7.65,7.65,0,0,1-6.42,11.82H106.18a7.66,7.66,0,0,1-6.52-3.64L61.59,548.91Z"/><path class="cls-1" d="M132.13,570.26l14.35,21.15a7.65,7.65,0,0,0,13.06-.66l26.76-49.39-42.83-2.52-11.85,23.7A7.66,7.66,0,0,0,132.13,570.26Z"/><path class="cls-2" d="M233.78,552.47l-97.72-83.13a15.78,15.78,0,0,0-20.44,0L17.89,552.47c-6.15,5.23-.84,15.17,6.93,12.95l101-28.77,101,28.77C234.62,567.64,239.94,557.7,233.78,552.47Z"/></svg>