<svg xmlns="http://www.w3.org/2000/svg" viewBox="0 0 532.53 167.61"><defs><style>.cls-1{fill:#343434;}.cls-2{fill:#363636;}.cls-3{fill:#42b890;}.cls-4{fill:#353535;}.cls-5{fill:#3477a9;}.cls-6{fill:#1373b8;}</style></defs><g id="Layer_2" data-name="Layer 2"><g id="MAIN_BANNER" data-name="MAIN BANNER"><path class="cls-1" d="M435.07,92.17c-3.49,13.52-11.41,22.94-24.35,27.75a50.34,50.34,0,0,1-32.1,1,35.12,35.12,0,0,1-23.74-21.6c-6.54-16.56-6.83-33.56-.22-50.16C360.74,34,372.9,26.62,389,25.6a51.49,51.49,0,0,1,22.45,3.12c14.13,5.59,20.9,16.83,23.78,31.06,1.22,6,1.17,12.07,1.25,18.15,0,2.14-.54,2.71-2.73,2.7-18.24-.1-36.48,0-54.72,0-3.83,0-3.83,0-3.46,3.9,1.43,15.16,15.21,22.68,28.66,15.66a13.35,13.35,0,0,0,4.42-4.07,8.91,8.91,0,0,1,7.11-3.86C422.11,92.09,428.48,92.17,435.07,92.17ZM393.3,64.94c5.29,0,10.59,0,15.89,0,.74,0,1.88.43,1.72-1.12-.64-6.1-2.12-11.81-7.71-15.37a18.12,18.12,0,0,0-27.77,14.44c-.07,1.65.29,2.14,2,2.11C382.7,64.87,388,64.94,393.3,64.94Z"/><path class="cls-1" d="M450.82,90c0-8.88-.05-17.76,0-26.64a51,51,0,0,1,3-17c3.29-9.19,10.71-13.82,19.18-17.11,14.32-5.55,28.33-4.73,42.23,1.92,9.29,4.44,14.11,11.86,16,21.55a67.27,67.27,0,0,1,1.22,13.22q-.06,26.35,0,52.69c0,2-.42,2.66-2.5,2.55-3.47-.19-6.95,0-10.42-.06a11.12,11.12,0,0,1-11.44-11.54c-.05-16.5.05-33-.13-49.5-.08-8.16-6-13.93-14.56-14.73-8.34-.78-15.63,3.74-17.37,11a34.42,34.42,0,0,0-.69,7.74c-.06,17.85-.12,35.71.06,53.56,0,3.07-.9,3.6-3.67,3.5-6.26-.2-12.54-.14-18.81,0-1.82,0-2.24-.48-2.22-2.25C450.87,109.27,450.82,99.62,450.82,90Z"/><path class="cls-1" d="M306.31,47h-35c-7.55,0-12.3-4.7-12.3-12.19,0-2.2-.73-5.15.38-6.42,1.33-1.51,4.35-.47,6.63-.47,22.29,0,44.57,0,66.86-.09,2.48,0,3.05.67,2.95,3q-.3,6.79,0,13.6a7.82,7.82,0,0,1-2.42,6.11Q310.3,75,287.32,99.66c-.19.21-.36.45-.62.78.81.79,1.8.38,2.66.39,15.15,0,30.3.08,45.44,0,2.36,0,2.86.69,2.8,2.88-.16,5.11-.1,10.23,0,15.34,0,1.56-.32,2.15-2,2.15q-38.64-.09-77.28,0c-1.64,0-2.11-.44-2.08-2.07.11-5,.1-10,0-15a4.47,4.47,0,0,1,1.48-3.25Q281.36,74.67,305,48.5C305.33,48.16,305.62,47.79,306.31,47Z"/><path class="cls-1" d="M165.8,54.38c0-17.18,0-34.36-.06-51.54,0-2.28.56-3,2.84-2.82,3.07.21,6.17.05,9.26.05a11.89,11.89,0,0,1,12.34,12.11q.13,6.81,0,13.61c0,1.58.34,2.19,2,2.12,3.47-.13,7,0,10.42-.07,1.47,0,1.95.35,2,1.92.26,8.08-2.6,12.85-8.94,14.58-.37.1-.74.2-1.12.28-1.39.27-3.37-.65-4.07.47s-.29,3-.29,4.5q0,23.16,0,46.32c0,4.48,1.72,6.32,6.16,6.6,1.15.07,2.31.07,3.47.07,4.75,0,4.75,0,4.75,4.89,0,4-.05,7.92,0,11.87,0,1.31-.27,1.85-1.74,1.89-8.58.24-17.17.4-25.7-.72-6.72-.88-11.16-6.38-11.27-14.31-.18-13.41-.08-26.83-.09-40.24C165.79,62.1,165.8,58.24,165.8,54.38Z"/><path class="cls-1" d="M126.25,74.13c0-14.67,0-29.34,0-44,0-2.1.41-2.95,2.68-2.77,4.13.32,8.3-.38,12.42.4a11.55,11.55,0,0,1,9.56,11.42c0,26.54,0,53.09.06,79.63,0,1.92-.54,2.39-2.4,2.36-6.66-.11-13.32-.12-20,0-2,0-2.34-.64-2.34-2.44C126.28,103.86,126.25,89,126.25,74.13Z"/><path class="cls-1" d="M219.5,74.32c0-14.58.08-29.15-.07-43.73,0-2.77.84-3.45,3.4-3.24,3.93.32,7.91-.36,11.83.42A11.53,11.53,0,0,1,244.11,39c0,26.64,0,53.29.06,79.93,0,1.74-.38,2.29-2.21,2.26q-10-.18-20,0c-2,0-2.54-.53-2.53-2.55C219.54,103.85,219.5,89.08,219.5,74.32Z"/><path class="cls-1" d="M138.54,19.18c-3.47,0-6.94-.07-10.41,0-1.57.05-1.94-.5-1.92-2,.08-5.1.1-10.21,0-15.32,0-1.62.59-1.91,2-1.88,3.86.09,7.72,0,11.57,0a11.52,11.52,0,0,1,11.06,11.16c0,2.56,1.1,5.87-.46,7.5s-4.74.33-7.22.42C141.63,19.23,140.08,19.18,138.54,19.18Z"/><path class="cls-1" d="M231.86,19.18c-3.47,0-7-.06-10.41,0-1.48,0-2-.32-2-1.91.1-5.1.09-10.21,0-15.32,0-1.5.4-2,1.94-1.95,3.95.1,7.91-.07,11.85.06a11.55,11.55,0,0,1,10.86,11.08c0,2.57.81,5.87-.46,7.52s-4.69.36-7.17.47C234.94,19.24,233.4,19.18,231.86,19.18Z"/><path class="cls-2" d="M241.24,158.24c1.82-4.55,3.36-8.49,5-12.4,1.3-3.17,4-1.16,6.05-1.46s1.09,1.64,1.1,2.53c.1,6.18,0,12.36.11,18.53,0,2.08-.93,2.05-2.42,2.05s-2.5,0-2.41-2.05a94.11,94.11,0,0,0-.37-13.17l-4.76,12c-.25.63-.48,1.26-.72,1.89s-.61,1.3-1.62,1.3-1.22-.73-1.49-1.42c-1.5-3.85-3-7.71-4.52-11.55-.29-.76-.71-1.47-1.44-3,0,5.26-.12,9.66,0,14.05.1,2.32-1.33,1.74-2.59,1.85-1.45.12-2.26-.05-2.22-1.92.12-6.46.1-12.93,0-19.4,0-1.56.47-1.89,1.95-1.91,4.65-.05,4.66-.12,6.45,4.33C238.58,151.57,239.78,154.59,241.24,158.24Z"/><path class="cls-1" d="M476.23,157.93c0-3.92.15-7.84-.06-11.74-.11-2.28,1.23-1.86,2.54-1.92s2.32-.1,2.28,1.86c-.13,6.17,0,12.34-.09,18.51,0,.92.69,2.52-.65,2.68-1.54.19-3.4.92-4.72-1-2.69-3.88-5.51-7.67-8.28-11.48-.44-.6-.92-1.17-1.87-2.37,0,4.78-.13,8.87.05,12.94.09,2.06-.88,2.09-2.4,2.07s-2.48.07-2.42-2c.16-6.07,0-12.15.11-18.22,0-.95-.92-2.7.79-2.83s3.55-1,5,1.1c2.94,4.27,6.09,8.4,9.15,12.59Z"/><path class="cls-2" d="M526.36,154.71c5,0,5,0,5,5.12,0,4-.67,5-4.52,6.59-5.64,2.3-12.13.52-15.17-4.18a11.79,11.79,0,0,1,1.77-14.81c4.34-4,11.67-4.21,15.82-.29.64.61,2.23,1.39,1.12,2.34s-2.25,2.78-4.09.9a6,6,0,0,0-5.25-1.88,6.73,6.73,0,0,0-5.89,4.86c-.94,3.07-.45,6,2,8.17a7,7,0,0,0,7.57,1.16c1.29-.5,2.09-1.23,1.88-2.79-.25-1.84-1.63-.73-2.46-1.06-1.21-.48-3.54,1.33-3.46-1.83,0-1.58.13-2.61,2.12-2.33A25,25,0,0,0,526.36,154.71Z"/><path class="cls-2" d="M188.05,167.45c-6.75-.06-11.78-5-11.76-11.62s5.09-11.53,11.84-11.55,12,5.07,11.91,11.77S194.81,167.51,188.05,167.45Zm.22-4.12a7.47,7.47,0,1,0-7.16-7.43A7.21,7.21,0,0,0,188.27,163.33Z"/><path class="cls-2" d="M330.35,152.23c0-2.12.12-4.24,0-6.35-.14-2,1.12-1.67,2.22-1.57s2.63-.75,2.56,1.53c-.12,3.65-.05,7.31,0,11,0,4.25,1.79,6.42,5.26,6.5s5.41-2.16,5.44-6.59c0-3.46.18-6.94,0-10.39-.17-2.45,1.29-1.94,2.69-2.08,1.72-.16,2.34.31,2.27,2.17-.16,3.85,0,7.7-.07,11.55-.11,6.12-3.86,9.55-10.26,9.48s-9.88-3.44-10-9.44C330.32,156.08,330.35,154.16,330.35,152.23Z"/><path class="cls-2" d="M283.44,155.85c0-3.18.09-6.37,0-9.55-.07-1.68.5-2.12,2.11-2.05,2.89.12,5.79-.05,8.68.05,4.66.18,7.41,3,7.42,7.48s-2.84,7.42-7.64,7.57c-5.73.17-5.83.17-5.76,5.83,0,2-.67,2.3-2.45,2.34s-2.46-.52-2.36-2.4C283.55,162,283.44,158.94,283.44,155.85Zm7.77-.62h1.05c1.94.1,3.73-.23,4.38-2.37a3,3,0,0,0-1.52-3.91c-2.14-1-4.83-1.28-6.55-.07-1.31.92-.61,3.63-.31,5.45S290.36,154.81,291.21,155.23Z"/><path class="cls-2" d="M148.88,162c-2.49,4.5-6.89,6.3-12.29,5a11.45,11.45,0,0,1-1-22.08c4.47-1.3,8.61-.81,12,2.76.57.6,1.91,1.56.94,2.2s-2.42,2.39-4.19.87c-3.19-2.73-5.67-3-8.59-1.15a7.67,7.67,0,0,0-2.86,8.43A6.64,6.64,0,0,0,144,161.31C145.41,160,145.41,160,148.88,162Z"/><path class="cls-1" d="M386,158c0-2.5-.1-5,0-7.5.09-1.69-.51-2.24-2.12-2-.95.11-1.93-.07-2.88,0-1.92.2-1.57-1.11-1.62-2.23s0-2,1.61-1.95q7.35.15,14.72,0c1.76,0,1.47,1.06,1.46,2.08s.33,2.14-1.44,2.12c-1.6,0-3.72-.79-4.68.41s-.33,3.51-.36,5.32c-.06,3.85-.13,7.7,0,11.54.08,2.1-1.19,1.74-2.4,1.73s-2.53.42-2.4-1.71C386.08,163.16,386,160.55,386,158Z"/><path class="cls-1" d="M430.63,156.11c0,3.17-.14,6.35,0,9.51.14,2.32-1.32,1.75-2.57,1.85-1.42.11-2.27,0-2.23-1.9q.18-9.8,0-19.6c0-2.14,1.26-1.66,2.42-1.68s2.48-.35,2.38,1.74C430.51,149.38,430.63,152.75,430.63,156.11Z"/><path class="cls-3" d="M18.3,62.47c3.4,0,6.79,0,10.19,0,.92,0,1.22.27,1.27,1.15a30,30,0,0,0,7,18A30.76,30.76,0,0,0,59.06,93.21a31.31,31.31,0,0,0,22.56-7.06,51.18,51.18,0,0,0,6.67-6.82,1.54,1.54,0,0,1,2.14-.46q11.49,5.28,23,10.46c2.24,1,2.27,1,1,3.07a62.09,62.09,0,0,1-26.38,24.35,60.28,60.28,0,0,1-24,6,61.18,61.18,0,0,1-29.93-6.39A62.06,62.06,0,0,1,6.29,88.25,61.25,61.25,0,0,1,.41,67.46c-.1-1-.27-2-.35-3-.12-1.43,0-1.56,1.43-1.58l15.86-.19h.95Z"/><path class="cls-3" d="M61.51.05A70,70,0,0,1,80.4,3.21a59.94,59.94,0,0,1,21.14,12A62.08,62.08,0,0,1,114.83,31.3c.09.15.14.32.24.46.54.76.35,1.17-.52,1.55-7,3.13-14,6.31-21.06,9.47-1.11.5-2.24,1-3.34,1.53a1.25,1.25,0,0,1-1.72-.39c-1.36-1.55-2.75-3.08-4.19-4.56A31.38,31.38,0,0,0,63.8,29.82a30.45,30.45,0,0,0-11.7,1.31c-.88.28-1.17,0-1.44-.75-2-6.06-4.14-12.11-6.22-18.16C43.54,9.6,42.65,7,41.69,4.4c-.22-.61-.17-.84.46-1.06A58.39,58.39,0,0,1,53.89.67C56.43.35,59,.13,61.51.05Z"/><path class="cls-4" d="M83.77,62.32a21.94,21.94,0,1,1-43.68-3A21.93,21.93,0,0,1,71.91,42.83c.56.29.83.42.26,1.07a7.41,7.41,0,0,0,9.34,11.26c.76-.45,1-.43,1.22.45A22.54,22.54,0,0,1,83.77,62.32ZM49.15,75.07A17.84,17.84,0,0,0,69.21,78.9C74.82,76.38,80,69.36,79.5,65.17,72.28,77,62.16,80.23,49.15,75.07Z"/><path class="cls-5" d="M5.07,59.13c-1.43,0-2.87,0-4.3,0-.71,0-.82-.29-.76-.9A71.66,71.66,0,0,1,4.12,39.69a61,61,0,0,1,12-19.47A61.93,61.93,0,0,1,37.16,5.15c.56-.24.76-.19,1,.42C39,8.29,40,11,40.94,13.69c.29.76-.13.89-.63,1.12A51,51,0,0,0,12,48.15a43.84,43.84,0,0,0-1.63,9.91c0,.78-.31,1-1.08,1-1.4-.06-2.8,0-4.2,0Zm3.1-.47c1.71,0,1.89-.15,1.89-1.59s.28-2.63.4-3.94a45.24,45.24,0,0,1,2.14-8.84A43.63,43.63,0,0,1,16,36.75a39,39,0,0,1,6.23-8.93c1.73-1.8,3.34-3.69,5.24-5.33a43.13,43.13,0,0,1,7-5.08,39.27,39.27,0,0,1,5.42-2.91.69.69,0,0,0,.45-.93,14.12,14.12,0,0,0-.53-1.79A27.18,27.18,0,0,1,38,6.49c-.11-.66-.55-1-1.21-.69-1.95,1-3.89,2-5.81,3a76,76,0,0,0-8,5.53c-1.89,1.38-3.3,3.25-5.06,4.76-.74.63-1.4,1.59-2.11,2.27a30.36,30.36,0,0,0-4.61,5.86A53.63,53.63,0,0,0,5.89,36.9c-.69,1.81-1.41,3.65-2.17,5.44A12.07,12.07,0,0,0,3.06,44c-.31,1.14-.5,2.31-.77,3.46C1.76,49.67,1.38,52,1,54.26c-.16,1,0,2-.24,2.91-.32,1.46-.37,1.46,1.12,1.5C4.06,58.73,6.25,58.07,8.17,58.66Z"/><path class="cls-5" d="M25.19,58.81c-1.26,0-2.52,0-3.78,0-.61,0-.76-.17-.7-.8A41,41,0,0,1,43.64,24.7c.79-.39,1-.23,1.3.56.76,2.36,1.58,4.71,2.44,7,.19.52.08.73-.38,1A31.66,31.66,0,0,0,33.86,45.73,29.66,29.66,0,0,0,30,57c-.23,1.75-.19,1.76-1.9,1.79H25.19Zm-3.94-1.35c-.22,1.08.66.95,1.18,1a38,38,0,0,0,4.89,0c.67-.06,1.76.21,2-.75a12.55,12.55,0,0,0,.52-2.34c.07-2.23,1-4.27,1.71-6.31a23.8,23.8,0,0,1,3.05-5.35,31.55,31.55,0,0,1,11.58-10.4c.87-.47,1.18-.72.42-1.52-.22-.22-.23-.64-.32-1-.47-1.77-1.34-3.4-1.73-5.19-.07-.35-.27-.6-.67-.4A32.24,32.24,0,0,0,41,26.66c-1.58,1-3.12,2.09-4.64,3.19a28.58,28.58,0,0,0-3.87,3.48,46.48,46.48,0,0,0-3.68,4.43,41.19,41.19,0,0,0-3,4.73A33.89,33.89,0,0,0,22.56,51C22,53.15,21.71,55.3,21.25,57.46Z"/><path class="cls-6" d="M8.17,58.66c-1.92-.59-4.11.07-6.3,0-1.49,0-1.44,0-1.12-1.5.2-.94.08-1.93.24-2.91.39-2.29.77-4.59,1.3-6.85.27-1.15.46-2.32.77-3.46a12.07,12.07,0,0,1,.66-1.61c.76-1.79,1.48-3.63,2.17-5.44a53.63,53.63,0,0,1,5.27-9.65,30.36,30.36,0,0,1,4.61-5.86c.71-.68,1.37-1.64,2.11-2.27,1.76-1.51,3.17-3.38,5.06-4.76a76,76,0,0,1,8-5.53c1.92-1,3.86-2,5.81-3,.66-.34,1.1,0,1.21.69a27.18,27.18,0,0,0,1.77,5.29,14.12,14.12,0,0,1,.53,1.79.69.69,0,0,1-.45.93,39.27,39.27,0,0,0-5.42,2.91,43.13,43.13,0,0,0-7,5.08C25.57,24.13,24,26,22.23,27.82A39,39,0,0,0,16,36.75a43.63,43.63,0,0,0-3.4,7.54,45.24,45.24,0,0,0-2.14,8.84c-.12,1.31-.41,2.61-.4,3.94S9.88,58.67,8.17,58.66Z"/><path class="cls-6" d="M21.25,57.46c.46-2.16.79-4.31,1.31-6.45a33.89,33.89,0,0,1,3.29-8.52,41.19,41.19,0,0,1,3-4.73,46.48,46.48,0,0,1,3.68-4.43,28.58,28.58,0,0,1,3.87-3.48c1.52-1.1,3.06-2.18,4.64-3.19a32.24,32.24,0,0,1,2.85-1.51c.4-.2.6.05.67.4.39,1.79,1.26,3.42,1.73,5.19.09.34.1.76.32,1,.76.8.45,1.05-.42,1.52a31.55,31.55,0,0,0-11.58,10.4A23.8,23.8,0,0,0,31.54,49c-.7,2-1.64,4.08-1.71,6.31a12.55,12.55,0,0,1-.52,2.34c-.23,1-1.32.69-2,.75a38,38,0,0,1-4.89,0C21.91,58.41,21,58.54,21.25,57.46Z"/></g></g></svg>