<svg xmlns="http://www.w3.org/2000/svg" viewBox="0 0 792.98 793.27"><defs><style>.cls-1{fill:#5c361e;}</style></defs><g id="Layer_2" data-name="Layer 2"><g id="MAIN_BANNER" data-name="MAIN BANNER"><path class="cls-1" d="M396.27,0C176.63.34,3.84,177.49.07,387.34c-4.14,230,181.58,408.14,400.27,405.91C617.59,791,793.46,613.16,793,398.36,794.06,177.64,615.27-.33,396.27,0Zm1.15,771.93c-205,.83-380-167-376.06-384.15C24.9,189.56,188.85,21.49,396.52,21.46c206.94-.7,375.42,167.82,375.41,376.78C771.92,602.24,605.13,771.08,397.42,771.93Z"/><path class="cls-1" d="M615.84,330.36c4.95-14.67,3.39-29.56,1.64-44.46-2.19-18.73-12.39-30.08-30.8-34.63-9.2-2.28-16.89-7.65-23.31-14.75-5.13-5.68-10.52-11.13-15.65-16.82-9.11-10.11-20.66-15.21-33.88-17.53-19.76-3.47-39.66-4.54-59.66-4.35-30.44.28-60.92-1.16-91.27,2.67-14,1.77-27.47,4.82-39.41,12.95-16.66,11.35-33.18,22.86-48.37,36.14A25.84,25.84,0,0,1,261.39,256c-8.22,1.19-16.37,2.89-24.51,4.55-18.32,3.71-36.27,8.59-52.68,17.92-16.67,9.47-28.54,22.72-32.62,42-3.22,15.19-1.71,30.82-4.27,46.12-.94,5.58,2.66,9.08,9.05,10.74,5,1.29,10.11,2,15.14,3.15,3.55.78,7.08,1.49,9.75,4.47,14.07,15.66,31.92,15.81,50.62,12a10.72,10.72,0,0,0,4.82-2.49c2.22-2,4.52-2.26,7.34-1.85,26.37,3.79,52.83,6.7,79.55,5.66,3.5-.13,4.95.86,5.73,4.29,1.64,7.3,6,13.44,13.13,15.14,13.6,3.24,27.6,5.26,41-1.22,3.23-1.55,5.71-1.6,8.76.19a80.85,80.85,0,0,0,17.8,7.78c27.38,8.26,55.11,8.8,82.94,3.2,11.44-2.3,22.61-6,31.58-14.1,9.24-8.3,7.65-17.23-3.75-22.09-2.58-1.11-5.34-1.85-7.61-3.6.37-.92,1.15-1.14,2-1.38,10.31-3,20-7.4,28.07-14.64,1.66-1.48,2.44-.84,3.4.73,3,4.86,7.52,6.82,13.06,6.83,3.83,0,7.66.09,11.48,0,7.18-.14,13.1-3.2,16.85-9.17a52.76,52.76,0,0,0,8.24-24.8,54.1,54.1,0,0,0-1.59-16.18,68.51,68.51,0,0,0-2.58-8.13,31.42,31.42,0,0,0-3.24-6.92.79.79,0,0,0,.22.05l-.75-.92a.86.86,0,0,0,0,.16c-.12-.17-.25-.33-.37-.49a2.23,2.23,0,0,0-.79-.74,2.7,2.7,0,0,0-.86-.92,14.27,14.27,0,0,0-1.57-.88l0,0-.3-.11.12.32c-.14-.6-2.06-.86-2.6-.95a7.28,7.28,0,0,0-3.47.24,11,11,0,0,0-4.26,2.87,22,22,0,0,0-5.1,8.24c-2.75,7.9-1.7,16.94-1.52,25.09.09,4.33,1.88,8.45,2.38,12.77a20.3,20.3,0,0,1-3.79-7.83c-.59-2.8-1.4-5.65-1.79-8.51a80.38,80.38,0,0,1-1.15-12.76,50.45,50.45,0,0,1,2.15-12.3c.24-.85.47-1.7.71-2.56l0-.11c.11-.49.22-1,.34-1.46l.63-1.73.48-1.27.48-.83c.21-.4.41-.8.62-1.19a.67.67,0,0,0,.41-.67c.46-.74.93-1.47,1.39-2.2l.62-.76.19-.22.79-.79,1.47-1.13c4.61-3,8.94-2.26,13.08,1,4.68,2.9,6.86,7.56,8.54,12.48,3,8.91,4,18.17,3.81,27.53-.05,3.07.53,4,3.55,2.32C608.93,342.33,613.49,337.35,615.84,330.36ZM479.72,273.81a33.85,33.85,0,0,0,4.62-12.65c2.84,5,3.71,9.68,1.22,14.33-4.37,8.15-5.12,16.36-1.46,24.91.14.31-.08.77-.2,1.19C475.14,293.1,473.78,284.46,479.72,273.81Zm4.93,28-.58-.18.46-.18Zm-20.5-70.56Zm-5.76,31.9a33.38,33.38,0,0,1,3.28-7.24,24.53,24.53,0,0,0,3-23.42c.54.65,1.38,1.06,1.95,1.7,5.45,6.17,7.68,13.09,4.94,21.14a38.22,38.22,0,0,1-2.62,6.45c-5,8.92-6.65,18.29-4,28.45C457.17,284.59,454.51,273.5,458.39,263.19Zm-19.73,11.19c1.32-3.05,2.92-6,4.12-9.07,1.11-2.89,1.27-6,.86-10.23,6,7.29,6.43,14.12,2.92,21.27-5,10.19-3.05,19.3,3.88,27.76-2.06,1.07-3.4-.49-4.81-1.49C437.13,296.59,434.2,284.68,438.66,274.38ZM175,306.56c13.69,1.59,27.4,3,41.1,4.52,9.88,1.11,19.75,2.37,30.65,3.68-2.77,4.22-6.19,6-9.6,7.49-16.26,7.23-33.18,7.74-50.25,3.89a20.44,20.44,0,0,1-15.73-14.52C170,307.78,170.51,306,175,306.56ZM296.2,374.51c-14.68,2.77-29.53,2.17-44.27,1.39-17.41-.92-34.84-2.14-52.1-4.82-12.56-2-25.08-4.12-36.49-11.39,45.69,8.2,91.32,11.18,137.43,12C300.09,374.23,298,374.18,296.2,374.51ZM343,301.08a51.2,51.2,0,0,1-21,19.37c-13.27,6.54-27.61,6.87-42,6.74-4.65,0-9.28-.78-13.93-1.06s-4.77-2.78-3-6a29.35,29.35,0,0,1,12.4-11.95C293,298.79,312,295,331,293.72c3.07,0,5.57-.05,8.06,0C345.09,293.88,346.29,295.87,343,301.08Zm25.8,102.52a39.28,39.28,0,0,1-12.59-26.41,66.69,66.69,0,0,1,9-39.55l.06-.09h0c-7.44,23.39-5.25,45.83,7.2,67.22C370.45,405.78,369.68,404.39,368.84,403.6ZM295,254.59c17.33-19.43,35.51-34.71,61.13-37.72,20.84-2.45,41.72-4,62.61-.29a43.86,43.86,0,0,1,10.54,2.87c4,1.82,5.22,4.74,2.88,8.47a117.14,117.14,0,0,1-23.48,27,11.54,11.54,0,0,1-7.51,2.32C366.24,257.57,331.38,255.82,295,254.59ZM499,414.08a145.14,145.14,0,0,1-78.76,1c-7.1-1.85-13.15-5.63-18.88-11.67,5.06.44,8.36,2.83,12.08,4a156.79,156.79,0,0,0,63.15,5.69c11.89-1.26,23.58-3.62,35.31-5.76C508.58,411.45,503.6,412.73,499,414.08Zm51.41-73.81c-2.95,19.7-18.36,33.45-38.3,33.91-3.08.07-4.85,1.31-6.55,3.59-21,28.22-66.69,28-87.23,9a75,75,0,0,1-19.38-29.83,121.46,121.46,0,0,1-7.55-41c-.05-6.54,1.59-9,7.67-11.23a57.25,57.25,0,0,1,15.6-3.12c2.82-.21,5.65-.22,8.47-.39s5.62-.42,8.43-.64c-6.62,1.8-13.22,2.58-19.52,4.76a61.26,61.26,0,0,0-6.09,2.19c-1.93.9-4.19,1.87-4.28,4.41s2.23,3.55,4.14,4.48c7.78,3.76,16.3,4.76,24.7,5.56,24.42,2.34,48.81,2.41,73-2.6a25.93,25.93,0,0,0,9.63-4c3.42-2.36,3.35-4.84-.37-6.78a54.67,54.67,0,0,0-8.4-3.08c-2.59-.85-5.33-1.34-7.4-3.48,7.41.28,14.8.28,21.82,3.09,4.4,1.76,6.72,4.77,6.25,9.59-.37,3.71.32,5.3,4.85,4.59C543.91,317.1,552.51,326.13,550.39,340.27Z"/><path class="cls-1" d="M452.23,129.3c4.69,7.13,5.77,15,3.78,23.23l-.48,3a1.42,1.42,0,0,1-.48,2c-.21,3.62-1.69,6.83-3.36,10a2.53,2.53,0,0,1-1.18,2.75l-4.34,10a4.84,4.84,0,0,0,4-1.27c6.5-4.68,12.55-9.85,17.24-16.42,10.48-14.66,11-31.48,1.32-46.64a130.84,130.84,0,0,0-9.79-13.19c-9.82-11.75-12.52-24.59-6.64-39,.64-1.55,1.89-3.09,1.07-5.35a24.09,24.09,0,0,0-2.17,1.33c-14,11-21.81,24.44-17,42.88C439,112.28,446.33,120.32,452.23,129.3Z"/><path class="cls-1" d="M407.35,143.84c9.88,11.4,11,23.62,4.86,37-1.24,2.68-3,5.29-3.36,9.31,12.09-7,20.45-15.85,24-28.76a4.26,4.26,0,0,1-.16-.79,4.26,4.26,0,0,0,.16.79l.18-1-.22.13.22-.13a19.25,19.25,0,0,1,.27-6.81c-2.74-10.35-8.45-19-15.28-27.06-6.13-7.24-8.94-15.43-6-24.94-.47-4.46,3.05-7.73,4.05-12.12-13.23,5.57-21.57,19.49-20.31,32.81C396.62,131.14,401.94,137.6,407.35,143.84Z"/><path class="cls-1" d="M305.75,621.68c-2.5.08-5-.15-7.49.07-3.41.3-5-.46-5.11-4.49-.07-4.3,2-4.52,5.2-4.28,2,.16,4-.05,6,0,2.59.12,2.91-1.4,3-3.49.06-2.41-1.3-2.7-3.17-2.66-2.5,0-5-.11-7.49.07-2.7.19-3.4-1-3.37-3.51s.42-4.2,3.51-4,6,0,9,.12c2.4.09,3.68-.62,3.74-3.32s-1.32-3.31-3.7-3.26c-5.32.12-10.65.24-16,0-3.17-.11-4,1.16-3.9,4.1.18,4.48,0,9,0,13.47h0c0,4.49.17,9-.06,13.47-.15,3.14,1.07,4,4.05,3.92,5.32-.18,10.65-.12,16,0,2.37,0,3.65-.38,3.62-3.23S307.93,621.62,305.75,621.68Z"/><path class="cls-1" d="M432.14,592.72c-6.08-.16-10.47,2.55-12.72,7.74-1.36,3.13-1.51,6.43-1.57,10.64.06.95.07,2.78.31,4.59,1,7.69,5.37,12.1,12.42,12.58,7.51.52,12.45-3.12,14.41-10.84a27.66,27.66,0,0,0-.88-16.66C442.17,595.53,438.1,592.88,432.14,592.72Zm5.65,24.2c-.68,3.32-2.69,5.21-6.27,5.1-3.33-.11-5.11-1.89-5.79-5a32.13,32.13,0,0,1-.24-12.32c.57-3.28,2.36-5.48,5.91-5.6,3.78-.12,5.8,2,6.47,5.55.37,1.94.43,3.93.65,6.11C438.3,612.66,438.21,614.83,437.79,616.92Z"/><path class="cls-1" d="M328.44,607c-1.62-.37-3.25-.71-4.83-1.19s-3.08-1.47-2.87-3.51,1.69-2.75,3.45-3a10.77,10.77,0,0,1,7.62,1.68c3,2,3.71-.81,4.85-2.39,1.49-2.07-.29-3-1.73-3.77a18.78,18.78,0,0,0-12.08-1.95c-5.64.75-9.21,4.24-9.56,9.16s2.36,8.55,7.65,10.31c2.35.78,4.84,1.18,7.22,1.87a3.74,3.74,0,0,1,2.94,4.53c-.34,2.18-2,2.91-4,3.1A9.6,9.6,0,0,1,319,619c-1.77-1.83-3.06-1.94-4.82.15s-1.61,3.56.43,5.38c3.35,3,7.34,3.63,11.56,3.74,7.35,0,11.91-3.29,12.71-9.25C339.69,612.63,336.32,608.74,328.44,607Z"/><path class="cls-1" d="M488.44,605c-1.19.26-2.48,1.69-3.63.43s-.61-2.88-.35-4.31c.36-2,2.09-1.83,3.57-1.83,2.66,0,5.33,0,8,.16,2.41.16,3.21-.88,3.23-3.18s-.88-3.32-3.25-3.18-4.66,0-7,0v0a63.63,63.63,0,0,1-6.48,0c-3.58-.38-4.69,1.16-4.54,4.58.18,4-.12,8-.15,12,0,3.71,2.43,5.25,5.72,3.54.86-.44,1.47-1.36,2.31-1.85,3.44-2,6.83-.57,7.63,3.27.54,2.57.37,5.24-2.18,6.6-2.95,1.57-6,1.17-7.92-1.79s-3.83-1.42-5.54-.4c-2.36,1.4-.79,3.23.16,4.68,3.19,4.86,12.8,6.25,18.12,2.72,4.73-3.14,6.5-10.43,3.94-16.18C498.06,605.68,493.82,603.84,488.44,605Z"/><path class="cls-1" d="M401.8,616.74c3-2.32,6.39-4.25,8.84-7.27,4.66-5.75,2.83-13.73-3.84-15.92-5.35-1.76-10.55-1.14-15.06,2.55-2.6,2.13-2,5.5,1,6.6,2.16.78,2.6-1.6,4-2.29,2.86-1.39,6-2.51,8.18.32,2.39,3,.33,5.59-2.25,7.56s-5.09,3.74-7.6,5.67a12.84,12.84,0,0,0-5,7.24c-1.31,5.62-.45,6.7,5.3,6.73h5.49c3,0,6,0,9,0,2.5.06,3-1.28,3-3.47s-1.21-2.82-3.17-2.76a53.9,53.9,0,0,1-6.48,0c-1.67-.15-4.22,1-4.8-1.15C397.93,618.7,400.41,617.8,401.8,616.74Z"/><path class="cls-1" d="M458.72,618.69c2.62-2,5.36-3.92,7.95-6,6-4.8,7.55-12,3.62-16.52-4.14-4.75-14.87-4.58-19.58.23-1.75,1.78-1.75,3.11-.06,5.05,2.48,2.85,3.61,0,5.23-.89,2.93-1.65,6.22-2.82,8.49.36s.07,5.62-2.52,7.57c-2.25,1.71-4.55,3.36-6.8,5.06-2.85,2.17-5,4.78-5.68,8.47-.73,3.93-.28,6.58,4.75,5.92a49.84,49.84,0,0,1,6.47,0v0c2.33,0,4.66,0,7,0s4.73.55,4.68-3.27c0-3.62-2.42-2.86-4.44-2.92-2.66-.08-5.32,0-8,0-.79,0-1.73,0-2.09-1S458.11,619.16,458.72,618.69Z"/><path class="cls-1" d="M367.73,596.3c0-2.22-.54-3.37-3.06-3.33-7,.11-13.95,0-20.92,0-2.25,0-3.41.69-3.34,3.14.07,2.17.72,3.22,3.15,3.42,6.9.54,6.89.66,6.88,7.46v6.47h0c0,3.66.1,7.31,0,11-.09,2.55.84,3.59,3.45,3.54s4.12-.35,4-3.49c-.18-5.8,0-11.62,0-17.43,0-7,0-7.17,6.81-7.46C367.12,599.48,367.74,598.55,367.73,596.3Z"/><path class="cls-1" d="M370.27,619.81c-2.38.32-4.35,1.38-4.13,4.28s2.09,4,4.73,3.84c2.41-.15,4.06-1.54,4.05-4C374.92,621.08,373.11,619.88,370.27,619.81Z"/><path class="cls-1" d="M532,327.37c-5.38,0-7.39,1.69-8.3,7.05a110.88,110.88,0,0,1-7.77,25.67c-.5,1.15-1.59,2.5-.49,3.68s2.5.41,3.78.14c11.9-2.49,20.7-13.31,21-26.49,0-.52-.07-1.69-.25-2.83C539.2,329.77,536.5,327.36,532,327.37Z"/><path class="cls-1" d="M507.37,494.18c-.26,3.74-.67,7.48-.73,11.22-.24,14-.43,28.07-.48,42.1,0,4.52,2.6,7.4,6.89,8.51,2.73.7,3.61,2.07,2.52,4.94h-27.2c-.73-2.57-.79-4.43,2.38-5.36,3.92-1.14,5.28-4.47,5.59-8.22.53-6.52,1.08-13,1.41-19.57.7-13.75,1.37-27.51,1.84-41.27.23-6.59-1.59-8.67-8.08-10.28v-4.47c8.55,0,17.11-.11,25.66.16,1,0,2.31,2,2.85,3.32,7.41,18,14.71,36.05,22.05,54.09.61,1.5,1.25,3,2.28,5.46,1.1-2.52,1.88-4.28,2.62-6.06,7.38-17.76,14.8-35.5,22.07-53.3,1.13-2.77,2.55-4,5.68-3.88,7.07.24,14.15.08,21.49.08.11,1.69.19,3,.27,4.22-7.81,2.78-8,2.81-7.65,11.19q1.14,30.87,2.5,61.73c.16,3.78,1.82,6.6,5.85,7.25,3.05.49,3.77,2.07,2.69,5H563.14c-.08-1.32-.15-2.59-.23-3.77,10.1-3.31,10.16-3.33,9.73-14-.66-16.35-1.39-32.7-2.13-50a30.79,30.79,0,0,0-1.55,2.79Q556.56,527,544.21,558c-.89,2.25-1.8,3.57-4.55,3.55s-3.89-1.36-4.88-3.77q-13.17-31.86-26.55-63.64Z"/><path class="cls-1" d="M293.49,476.05v-4.29c6.29,0,12.4-.09,18.51,0,10.76.2,21.57-.11,32.25.94,13.72,1.36,22.25,11.09,21.82,23.49-.3,8.59-5.17,14.37-12.05,18.78-1.82,1.17-3.75,2.17-6,3.45,6.78,12.31,13.14,24.66,23.11,34.57,1.74,1.73,4.36,2.56,7,4.08v4.06c-8.15,0-16.16.09-24.17-.1-1.07,0-2.46-1.22-3.11-2.25-6.19-9.93-12.42-19.84-18.29-30-3.6-6.2-3.9-6.61-11.89-5,0,8.88-.17,17.85.08,26.8.09,3.33,2.85,4.87,5.89,5.32,3.29.5,3.6,2.24,2.53,5.08H293.69c-.67-2.62-.88-4.46,2.47-5.25,3.9-.92,5.25-4.25,5.27-7.86q.12-31.73,0-63.44C301.37,479.81,299.22,477.8,293.49,476.05Zm27.08,39.29c3.54,0,6.52.16,9.48,0,7.71-.52,13.88-5.41,15.64-12.71,3.53-14.65-7.69-25.42-23.1-24.8-.7,0-1.93,1.53-1.93,2.36C320.53,491.69,320.57,503.23,320.57,515.34Z"/><path class="cls-1" d="M147,471.93h30.61v4.58c-6.06-.53-9.59,3.55-13.22,7.44-7.41,8-14.81,15.95-22.43,24.16,6.19,8.24,12.22,16.29,18.28,24.32,4.45,5.87,8.76,11.86,13.51,17.46,2.2,2.59,5.44,4.27,8,6.61,1,.94,1.45,2.54,2.43,4.36-8.56,0-16.09.52-23.48-.25-2.9-.31-6.17-3-8.13-5.45C145,545.64,138,535.75,130.77,526c-1-1.3-2-2.59-3.08-4.11-3.85,3-6.94,5.94-6.31,11.44.58,5.13.24,10.35.53,15.52.18,3.23,1.8,6,5,6.75s3.68,2.27,2.94,5.32H94c-.91-2.9-.44-4.5,2.68-5.25,3.59-.87,5.29-3.61,5.29-7.33,0-21.14.06-42.29,0-63.43,0-5.37-2.1-7.38-8.15-8.66-.07-1.25-.14-2.57-.23-4.2h35.69c.06,1.36.11,2.55.16,3.68-8,3.32-8,3.32-7.91,12.41.08,9.38,0,18.76,0,29.18,3.7-3.89,6.84-7.11,9.91-10.4q9.63-10.32,19.19-20.69a25.47,25.47,0,0,0,2.36-2.83c2.33-3.42,1.23-6.32-2.85-6.62C146.69,476.53,146.21,475,147,471.93Z"/><path class="cls-1" d="M432.54,562.82c-19.11-.08-34-6.73-42.78-23.35-11.55-21.94-5-55.65,22.13-65.63,19.37-7.12,38.52-5.72,53.75,9.84,13,13.26,16.57,29.82,11.06,47.62-5.46,17.6-17.85,27.87-36,31A69.08,69.08,0,0,1,432.54,562.82Zm25.26-45.31c.23-8.94-1.25-18-5.13-25.92-4.35-8.89-11.52-13.78-21.37-13.88s-16.85,4.51-21.18,13.32c-4.79,9.76-5.36,20.17-4.33,30.69.82,8.45,2.87,16.62,7.95,23.71,5.28,7.36,12.32,10.89,21.46,9.91a21.09,21.09,0,0,0,14.14-7.11c4.1-4.88,5.78-11.93,7-18A74.81,74.81,0,0,0,457.8,517.51Z"/><path class="cls-1" d="M282.62,556.19c-.1,2-.16,3.31-.23,4.89H244.1v-3.64c.26-.23.43-.49.65-.55,7.87-2.11,9-4.27,6.18-12-1.41-3.8-2.11-8.84-4.91-10.85-2.64-1.89-7.6-.6-11.54-.64-5,0-10.09.08-15.14,0-2.21,0-3.45.53-4.11,2.85-.93,3.26-2.35,6.39-3.49,9.6-2.28,6.46-.62,9.42,6,10.87.51.12,1,.27,1.7.45V561H191.56c-1.14-2.47-.94-4.14,2.07-4.77,3.94-.82,5.7-3.81,7-7.27q14.21-37,28.5-74c.65-1.68,1.66-4.35,2.78-4.51a42.74,42.74,0,0,1,10.95.21c.73.09,1.3,2.23,1.78,3.49q14.09,36.74,28.1,73.5C274.49,552.09,276.41,556.27,282.62,556.19Zm-50.94-64.76c-4.3,11.94-8.13,22.58-12.08,33.52h23.68C239.46,513.9,235.76,503.21,231.68,491.43Z"/><path class="cls-1" d="M699.19,556.32a15.87,15.87,0,0,1,.28,1.93c0,.8-.08,1.61-.15,2.75H661.06v-3.9c1.29-.33,2.49-.59,3.65-1,4.11-1.29,5.65-3.66,4.42-7.72-1.35-4.43-3-8.76-4.83-13a3.65,3.65,0,0,0-2.67-1.87c-8.86-.15-17.72-.17-26.58,0a4,4,0,0,0-2.74,2.19c-1.21,2.57-2,5.33-3,8-3.09,8.1-1.56,11.15,7,13.43.07,1.07.16,2.24.26,3.73H608c-.1-1.17-.2-2.32-.31-3.49a4.74,4.74,0,0,1,1.17-.63c4.72-.69,7.21-3.55,8.86-7.93,9.41-25.08,19.06-50.07,28.46-75.15,1-2.8,2.38-3.67,5.27-3.62,8.36.14,8.4,0,11.41,7.79q13.41,34.69,26.71,69.44C691.38,552,693.39,556.11,699.19,556.32Zm-38.74-31.15c-4.2-11.41-8.12-22-12.42-33.72-4.12,11.85-7.84,22.54-11.64,33.49,1.53.09,2.6.22,3.68.22C646.6,525.18,653.13,525.17,660.45,525.17Z"/></g></g></svg>