<svg id="Layer_1" data-name="Layer 1" xmlns="http://www.w3.org/2000/svg" viewBox="0 0 500 500"><defs><style>.cls-1{fill:#2d2d2d;}.cls-2{fill:#707071;}</style></defs><path class="cls-1" d="M73.24,254.9,90.4,227.83H96v42.45H90.4V237.74L75.27,261.38H71.33L56.21,237.74v32.54H50.62V227.83h5.46Z"/><path class="cls-1" d="M104.38,270.28V227.83h5.85v42.45Z"/><path class="cls-1" d="M150.51,261.26V227.83h5.6v42.45h-5.34L125.6,237v33.3H120V227.83h5.47Z"/><path class="cls-1" d="M184.58,270.28H168.43V227.83h15.38c6.61,0,11.82,1.91,15.64,5.85s5.72,9,5.72,15.37-1.78,11.44-5.47,15.38S190.93,270.28,184.58,270.28Zm-10.43-37.11v31.77H184.7a13.23,13.23,0,0,0,10.42-4.45c2.67-2.92,3.94-6.86,3.94-11.56s-1.27-8.39-3.94-11.44A13.79,13.79,0,0,0,184.45,233h-10.3Z"/><path class="cls-1" d="M227.91,226.3c-4.06,0-6.1,2.17-6.1,6.61v1.66l.51,5.59a31.71,31.71,0,0,1,.13,3.18,10.38,10.38,0,0,1-.89,4.95,4.56,4.56,0,0,1-3.05,2.16,5.05,5.05,0,0,1,3.05,2.16,9.56,9.56,0,0,1,.89,4.83,30.43,30.43,0,0,1-.13,3.18l-.51,5.59v1.53c0,4.45,2,6.61,6.1,6.61a24.48,24.48,0,0,0,2.67-.13v4.45a12.51,12.51,0,0,1-4.19.51c-3.69,0-6.23-1.15-7.88-3.44a12,12,0,0,1-2-8.26l.5-6.61a21.33,21.33,0,0,0,.13-2.54c0-3-.76-4.95-2.29-5.59a15.71,15.71,0,0,0-4.19-.63v-3.69a22.89,22.89,0,0,0,4.58-.76q1.9-1.16,1.9-5.34a21.33,21.33,0,0,0-.13-2.54l-.5-6.61V231.9a11,11,0,0,1,2.41-7.37c1.65-2,4.07-2.93,7.5-2.93a13.53,13.53,0,0,1,4.19.51v4.45C229.31,226.43,228.42,226.3,227.91,226.3Z"/><path class="cls-2" d="M252.7,270.92a20.43,20.43,0,0,1-15.38-6.23,23.09,23.09,0,0,1,0-31.27,22.16,22.16,0,0,1,27.45-2.67,19.19,19.19,0,0,1,7.63,9.41l-5.09,2.41a15.74,15.74,0,0,0-14.61-10,14.9,14.9,0,0,0-11.19,4.83,16.41,16.41,0,0,0-4.57,11.82A16.61,16.61,0,0,0,241.51,261a15.18,15.18,0,0,0,11.32,4.83,14.94,14.94,0,0,0,8.77-2.67,15.69,15.69,0,0,0,5.71-7.11l5.22,2.28a19.78,19.78,0,0,1-7.63,9.41A24.63,24.63,0,0,1,252.7,270.92Z"/><path class="cls-2" d="M314,270.28h-7l-10.3-14.49h-10.8v14.49h-5.72V227.83h19.19a14.17,14.17,0,0,1,10.42,3.94,13.51,13.51,0,0,1,4.07,9.91,13.29,13.29,0,0,1-2.92,8.77A13.15,13.15,0,0,1,303,255ZM298.2,232.79H285.74v18h11.95a10.2,10.2,0,0,0,7.24-2.41,8.1,8.1,0,0,0,2.8-6.48,8.91,8.91,0,0,0-2.67-6.61A9.31,9.31,0,0,0,298.2,232.79Z"/><path class="cls-2" d="M356.66,270.28h-6.23l-3.81-10.55H326.79l-4.06,10.55H316.5l17.16-42.45h6.23Zm-12-15.51-8-21.47-8.26,21.47Z"/><path class="cls-2" d="M390.72,227.83v5.08H367.59v13.73h21.48v5H367.59v18.55h-5.72V227.83Z"/><path class="cls-2" d="M408.26,270.28V232.91h-14v-5.08H428v5.08H414.11v37.37Z"/><path class="cls-1" d="M443.21,233.17l-.51,6.61a22.33,22.33,0,0,0-.12,2.41,17.45,17.45,0,0,0,.25,2.92,8.87,8.87,0,0,0,.64,1.78,2.55,2.55,0,0,0,1.27,1,4.22,4.22,0,0,0,1.52.38c.38,0,1,.13,2,.26h.63v3.68c-2.41.13-3.94.38-4.57.76-1.27.77-1.91,2.55-1.91,5.47a20.63,20.63,0,0,0,.13,2.41l.51,6.61v1.27a11,11,0,0,1-2.42,7.38c-1.52,1.9-4.07,2.92-7.5,2.92a13.41,13.41,0,0,1-4.32-.51v-4.19c1.4.12,2.29.12,2.67.12,4.07,0,6.1-2.16,6.1-6.61v-1.52l-.51-5.59c-.12-1.27-.12-2.42-.12-3.18a9.56,9.56,0,0,1,.89-4.83,5,5,0,0,1,3.05-2.16,5,5,0,0,1-3.05-2.16c-.64-1-.89-2.67-.89-5,0-.76,0-1.78.12-3.17l.51-5.6V233c0-4.45-2-6.61-6.1-6.61a24.48,24.48,0,0,0-2.67.13V222a15,15,0,0,1,4.32-.5c3.69,0,6.23,1.14,7.76,3.43A11,11,0,0,1,443.21,233.17Z"/></svg>