<svg xmlns="http://www.w3.org/2000/svg" viewBox="0 0 266.64 263.55"><defs><style>.cls-1{fill:#146c95;}.cls-2{fill:#18a6cd;}.cls-3{fill:#fff;}</style></defs><g id="Layer_2" data-name="Layer 2"><g id="MAIN_BANNER" data-name="MAIN BANNER"><polygon class="cls-1" points="235.44 166.06 142.25 222.51 142.25 0 235.44 56.45 235.44 166.06"/><circle class="cls-2" cx="259.25" cy="59.23" r="7.39"/><circle class="cls-2" cx="189.92" cy="216.85" r="9.39"/><path class="cls-2" d="M207,210.8a3.36,3.36,0,0,1-1.73-6.24l49.28-29.5V83.36a3.36,3.36,0,1,1,6.71,0V177a3.37,3.37,0,0,1-1.63,2.88l-50.91,30.48A3.36,3.36,0,0,1,207,210.8Z"/><polygon class="cls-2" points="32.93 182.37 126.12 238.82 126.12 16.31 32.93 72.75 32.93 182.37"/><circle class="cls-1" cx="109.13" cy="256.16" r="7.39"/><circle class="cls-1" cx="9.39" cy="115.79" r="9.39"/><path class="cls-1" d="M89.1,246a3.34,3.34,0,0,1-1.71-.47L7,197.49a3.35,3.35,0,0,1-1.63-2.88l-.06-59.33a3.35,3.35,0,0,1,3.36-3.36h0a3.36,3.36,0,0,1,3.36,3.35l0,57.43,78.71,47.05A3.35,3.35,0,0,1,89.1,246Z"/><path class="cls-3" d="M110.08,71.35a199.43,199.43,0,0,1-2.37,37.46C104.59,128.56,97,156.35,78.43,177H62.58c.67-.89,1.57-2,2.46-3.09,9.66-11.89,35.22-43.34,30.83-102.6h14.21M111.35,70H94.42c5.92,72.53-32.95,103.14-34.18,108.38H79C116,137.74,111.35,70,111.35,70Z"/><polygon class="cls-3" points="94.42 70 111.35 70 165.54 178.39 147.07 178.39 94.42 70"/><path class="cls-3" d="M197.43,71.35c-.67.89-1.57,2-2.45,3.09-9.67,11.9-35.23,43.34-30.84,102.6h-14.2c-.38-9.36-1.36-68.91,31.64-105.69h15.85M199.77,70H181c-37,40.64-32.33,108.38-32.33,108.38h16.93C159.67,105.85,198.54,75.24,199.77,70Z"/></g></g></svg>