<svg xmlns="http://www.w3.org/2000/svg" viewBox="0 0 643.1 154.74"><g id="Layer_2" data-name="Layer 2"><g id="MAIN_BANNER" data-name="MAIN BANNER"><path d="M63.32,154.47c-21-12.93-25.87-43.33-10.16-61.86a19.74,19.74,0,0,0,5-14.24c-.27-19.37-.1-38.75-.1-58.12V15.94c-7.85-.89-15.54-1.52-23.15-2.7-7.24-1.11-14.36-3-21.59-4.15-3.19-.53-6.51-.19-9.77-.3-1.2,0-2.39-.25-3.58-.38L.05,7.19A18.11,18.11,0,0,1,3.3,6.81c7.72.48,15-1.79,22.4-3.3A140.39,140.39,0,0,1,48.41,1C64,.46,79.61.44,95.21.13c20.6-.4,41.15,0,61.58,3,2.49.37,4.91,1.26,7.4,1.61,5.58.78,11.19,1.38,16.78,2.06,1.21.14,2.41.3,3.62.45l0,1.1a11,11,0,0,1-2.49.44c-6.22-.38-12.17,1-18.24,2.07C153,12.74,142.1,14,131.18,15.27c-2.81.33-3.88,1-3.86,4.05.13,20.82.08,41.65,0,62.48a8.13,8.13,0,0,0,2.52,6.32c15.25,15.63,17.58,36.57,5.83,54.36-3,4.53-7.29,8.19-11,12.26l-1-.57c-.08-.88-.22-1.76-.22-2.64,0-11.74-.11-23.49,0-35.23a4.55,4.55,0,0,0-2.9-4.73c-8.29-4.25-16.45-8.73-24.78-12.88a6.21,6.21,0,0,0-4.86,0c-8.42,4.23-16.66,8.81-25.05,13.11a4.3,4.3,0,0,0-2.69,4.49c.11,11.26,0,22.52,0,33.78ZM77.2,15.9V83.82H89.5V48.17h7.1c0,.42,0,1.13,0,1.84.24,10.28.44,20.57.8,30.84,0,1.07.88,3,1.5,3a89.24,89.24,0,0,0,9.27.15V15.9Z"/><path d="M628.52,105.74c1.47.52,2.38.83,3.28,1.16,5.58,2,9.21,5.77,9.66,11.91.49,6.67-2.59,11.79-8.51,14.27a51.87,51.87,0,0,1-16,4c-9.16.64-18.39.19-27.59.18a14.7,14.7,0,0,1-2-.28V78.76c.24-.15.54-.49.83-.48,11.72.25,23.45.44,35.16.91a19.86,19.86,0,0,1,6.9,2c4.5,2,7.43,5.32,7.66,10.52.25,5.46-2.09,9.55-6.6,12.49C630.62,104.7,629.86,105,628.52,105.74Zm-16.61,21.45c1.8-.19,3.61-.31,5.39-.59,2.35-.36,6.54-5.65,5.52-7.44-1.53-2.68-3.44-6.32-5.9-7-3.88-1.09-9-2-11.31,3.71-.75,1.89-3,3.42-1.06,5.8S607.08,128.49,611.91,127.19Zm-.23-38.88c-3.24-.14-7.15,3.46-7.31,6.74-.12,2.41,3.47,6.69,5.71,6.79,6.31.28,10.49-2.13,10.93-6.31C621.37,92.14,616.7,88.53,611.68,88.31Z"/><path d="M362.69,137.08H346.8V78.35h15.68V100.8h25.08V78.11c5.07,0,9.65-.15,14.21.16.71,0,1.83,2.18,1.84,3.36.12,17.55.1,35.1.1,52.65,0,.82-.17,1.64-.28,2.72H387.68V112.76h-25Z"/><path d="M496.71,137H481V112.8H456.09c0,6.91-.14,13.76.07,20.61.09,3-.69,4.11-3.8,3.91-3.95-.25-7.92-.06-12.13-.06V78.34h15.66V100.7h25V78.33h15.86Z"/><path d="M513.27,78.3h16.2c.08,1.29.2,2.44.2,3.6,0,9.55,0,19.11,0,28.66a46.53,46.53,0,0,0,.39,5.4c1.27,10,7.9,12.28,16.93,10.18,5.3-1.23,7.89-5.82,8-13.53.13-10,0-20.08,0-30.12,0-1.3,0-2.6,0-4.13h15.37c0,6.52,0,12.78,0,19,0,5.56.1,11.13-.14,16.69-.57,13.2-7.31,21.47-20.3,23.36a57.26,57.26,0,0,1-19-.74c-9.34-1.86-15.39-8.44-16.24-17.76C513.52,105.55,513.7,92,513.27,78.3Z"/><path d="M238.44,112.21c0,3.81,0,7,0,10.28,0,1.06.14,2.13.23,3.55H268v11h-45.4V78.36H267v10.9H238.73v11.89h24v11.06Z"/><path d="M327.34,122.1l8.09,7.47A27.91,27.91,0,0,1,319,137.69c-9.89,1.51-19.43.34-27.76-5.51-17-12-15.9-38.7,1.94-49.83,11.77-7.34,28.66-7,39.42.88.57.41,1.05.94,1.74,1.56-2.75,2.61-5.36,5.09-8.22,7.79-5.68-3.81-12-5.55-18.47-3a20.75,20.75,0,0,0-8.7,6.6c-5.12,6.8-4,19.53,1.25,25.46C304.89,126.86,316.21,129.81,327.34,122.1Z"/><path d="M175.37,89.34h-19.5V78.41H211V89.16H191.41V137h-16Z"/><path d="M321.66,32.5v7.3H155.74V32.5Z"/><path d="M477.36,39.83V32.48H643.1v7.35Z"/><path d="M446.71,42.66V54.48H436.1V17c8.16.56,16.55.28,24.55,1.92C469,20.64,471.17,31.78,465,37.81c-.94.93-2,1.74-3.21,2.78l8.75,14.07c-4.21,0-7.75.11-11.28-.08-.69,0-1.5-1.08-2-1.83a85.16,85.16,0,0,1-4.53-7.84C451.55,42.34,449.82,41.62,446.71,42.66Zm5.17-16.72c-2.45,0-5.39,2.38-4.92,4.45s1.3,4,4.19,4.07,4.93-1.05,5.48-3.93C457,28.39,454.35,26,451.88,25.94Z"/><path d="M431.44,54.71a87.59,87.59,0,0,1-9.83-.14c-.92-.1-2.27-1.77-2.37-2.82-.41-4.39-2.74-5.71-6.77-5a6.59,6.59,0,0,1-2.17,0c-3.49-.63-5.24.93-5.43,4.34-.18,3.13-1.81,4.05-4.76,3.73a71.3,71.3,0,0,0-7.38-.05c1.75-5.2,3.33-10,4.95-14.71,2.26-6.62,4.63-13.2,6.79-19.85.67-2.06,1.64-2.89,3.86-2.71,3.46.29,7.76-.9,10.19.75,2.25,1.54,2.57,6,3.67,9.15q4.06,11.8,8.07,23.62C430.63,52.08,431,53.2,431.44,54.71ZM415.82,39.13c-1.27-4.79-2.43-9.17-3.58-13.55l-.74.12-3.4,13.43Z"/><path d="M326.42,50c.52-.7,1-1.26,1.37-1.85,2.09-3,4.17-4.9,8.23-2.43,2,1.19,4.91,1.07,7.4,1,1.15,0,2.28-1.27,3.42-2-.82-1-1.43-2.55-2.51-3-3.28-1.51-6.83-2.43-10.13-3.92-8.06-3.65-8.91-12.86-1.75-18A17.77,17.77,0,0,1,346.31,17c3.58.63,7,2.21,11.3,3.63a61.92,61.92,0,0,1-5.42,5.95c-.6.52-2.1.06-3.16-.08-2.6-.35-5.17-.94-7.77-1.07-.75,0-2.21,1.17-2.19,1.77a3.49,3.49,0,0,0,1.68,2.64c3.08,1.36,6.31,2.42,9.49,3.56,4.25,1.52,7.47,4,7.92,8.87.46,5.06-1.92,8.58-6.25,10.9C344.8,57,332.37,55.88,326.42,50Z"/><path d="M118.24,151.91a29.6,29.6,0,0,1-3.49.4q-21.24,0-42.47,0a9.22,9.22,0,0,1-2.17-.11c-1.71-.41-2.24-1.36-1-2.85a3.38,3.38,0,0,1,1.1-.93c5.27-2.32,6.36-6.35,5.86-11.84-.57-6.36-.06-12.81-.16-19.22,0-2.65,1-3.68,3.62-3.65q13.8.14,27.59,0c2.92,0,4.09,1.07,4,4.08C111,126,111,134.23,111,142.45a4.55,4.55,0,0,0,1.48,2.81c2,1.93,4.19,3.67,6.3,5.49ZM78.88,116.62v24.21H108.1V116.62ZM74,149.37H112.9c-2.61-2.5-10-4-11.68-2.65l-.22,2.21H83.72c.13-.56.23-.9.27-1.24s0-.75,0-1.26C80.38,146.78,76.63,145.41,74,149.37Z"/><path d="M383,25.38v29H372V25.61H361.06V17.67h32.72v7.71Z"/><path d="M95.35,24.08c1.19,3.81,3.17,7.28,3.09,10.7-.08,3.82-1.59,7.83-3.38,11.3-1,1.92-4.08.38-5.61-2.35-2.92-5.25-2.29-10.26-.5-15.84C90.23,23.91,92,23.27,95.35,24.08Z"/></g></g></svg>